<?xml version="1.0" encoding="UTF-8" standalone="no"?>
<svg
   xmlns:dc="http://purl.org/dc/elements/1.1/"
   xmlns:cc="http://creativecommons.org/ns#"
   xmlns:rdf="http://www.w3.org/1999/02/22-rdf-syntax-ns#"
   xmlns:svg="http://www.w3.org/2000/svg"
   xmlns="http://www.w3.org/2000/svg"
   xmlns:sodipodi="http://sodipodi.sourceforge.net/DTD/sodipodi-0.dtd"
   xmlns:inkscape="http://www.inkscape.org/namespaces/inkscape"
   viewBox="0 0 152.7 100.69"
   version="1.1"
   id="svg6"
   sodipodi:docname="logo-web.svg"
   inkscape:version="0.92.5 (2060ec1f9f, 2020-04-08)">
  <metadata
     id="metadata12">
    <rdf:RDF>
      <cc:Work
         rdf:about="">
        <dc:format>image/svg+xml</dc:format>
        <dc:type
           rdf:resource="http://purl.org/dc/dcmitype/StillImage" />
        <dc:title />
      </cc:Work>
    </rdf:RDF>
  </metadata>
  <defs
     id="defs10">
    <inkscape:path-effect
       only_selected="false"
       apply_with_weight="true"
       apply_no_weight="true"
       helper_size="0"
       steps="2"
       weight="33.333333"
       is_visible="true"
       id="path-effect1269"
       effect="bspline" />
    <inkscape:path-effect
       simplifyJustCoalesce="false"
       simplifyindividualpaths="false"
       simplify_just_coalesce="false"
       simplify_individual_paths="false"
       helper_size="0"
       smooth_angles="360"
       threshold="0.00893901"
       steps="1"
       is_visible="true"
       id="path-effect1267"
       effect="simplify" />
    <clipPath
       id="clipPath1556"
       clipPathUnits="userSpaceOnUse">
      <rect
         y="-51.463562"
         x="45.999958"
         height="28.000006"
         width="28.000002"
         id="rect1558"
         style="opacity:1;fill:#ead995;fill-opacity:0.58823529;stroke:none;stroke-width:0.37300003;stroke-linecap:round;stroke-linejoin:round;stroke-miterlimit:4;stroke-dasharray:none;stroke-dashoffset:0;stroke-opacity:1;paint-order:markers fill stroke" />
    </clipPath>
  </defs>
  <sodipodi:namedview
     pagecolor="#ffffff"
     bordercolor="#666666"
     borderopacity="1"
     objecttolerance="10"
     gridtolerance="10"
     guidetolerance="10"
     inkscape:pageopacity="0"
     inkscape:pageshadow="2"
     inkscape:window-width="1920"
     inkscape:window-height="1018"
     id="namedview8"
     showgrid="false"
     inkscape:zoom="5.6568543"
     inkscape:cx="60.86436"
     inkscape:cy="60.685987"
     inkscape:window-x="-8"
     inkscape:window-y="-8"
     inkscape:window-maximized="1"
     inkscape:current-layer="layer3"
     showguides="false"
     inkscape:guide-bbox="true"
     inkscape:object-paths="true"
     inkscape:snap-smooth-nodes="true"
     inkscape:snap-global="false">
    <sodipodi:guide
       position="64.59796,54.87227"
       orientation="0,1"
       id="guide1628"
       inkscape:locked="false" />
    <sodipodi:guide
       position="76.383355,57.715817"
       orientation="1,0"
       id="guide1630"
       inkscape:locked="false" />
  </sodipodi:namedview>
  <g
     inkscape:groupmode="layer"
     id="layer4"
     inkscape:label="Marco" />
  <g
     inkscape:groupmode="layer"
     id="layer3"
     inkscape:label="Logotipo 1">
    <g
       id="g1659"
       transform="translate(-1.9258789e-6,17.39209)">
      <g
         style="stroke-width:7.31447077"
         transform="matrix(0.13671528,0,0,0.13671528,-2.6801249,78.860994)"
         id="g1394">
        <path
           inkscape:connector-curvature="0"
           id="path1329"
           style="font-style:normal;font-variant:normal;font-weight:600;font-stretch:normal;font-size:64px;line-height:1.39999998;font-family:'Adobe Caslon Pro';-inkscape-font-specification:'Adobe Caslon Pro, Semi-Bold';font-variant-ligatures:normal;font-variant-caps:normal;font-variant-numeric:normal;font-feature-settings:normal;text-align:start;letter-spacing:0px;word-spacing:0px;writing-mode:lr-tb;text-anchor:start;fill:#000000;fill-opacity:1;stroke:none;stroke-width:7.31447029"
           d="m 89.213323,-251.67008 c 0,2.048 0,5.376 -0.128,6.272 -0.128,1.024 -1.024,1.28 -1.792,1.28 h -1.088 c -0.32,0 -0.448,0.128 -0.448,0.384 v 1.536 c 0,0.32 0.128,0.448 0.512,0.448 0.64,0 2.944,-0.192 6.784,-0.192 3.904,0 5.952,0.192 6.336,0.192 0.384,0 0.512,-0.192 0.512,-0.512 v -1.408 c 0,-0.32 -0.128,-0.448 -0.64,-0.448 h -1.152 c -1.024,0 -2.176,-0.128 -2.176,-1.024 v -12.288 c 0,-3.648 0.128,-6.848 -2.816,-9.408 -1.92,-1.664 -3.584,-2.56 -6.4,-2.56 -3.008,0 -6.464,1.408 -8.256,3.904 h -0.384 v -3.968 c 0,-3.136 0,-17.792 0.128,-18.944 0.128,-1.024 0,-1.536 -0.512,-1.536 h -0.896 c -0.256,0 -3.584,2.176 -6.336,2.304 -2.944,0.128 -8.832,0.384 -15.872,0.384 h -3.456 c -6.272,0 -8.96,-0.256 -12.416,-0.384 -1.792,-0.064 -3.072,-0.384 -4.352,-1.664 -0.384,-0.384 -0.64,-0.64 -1.024,-0.64 -0.256,0 -0.64,0.256 -0.768,1.152 -0.256,0.896 -2.432,9.344 -3.072,11.776 -0.064,0.32 0,0.512 0.256,0.64 l 1.28,0.448 c 0.32,0.128 0.512,-0.128 0.704,-0.448 1.216,-2.176 3.648,-6.4 5.696,-7.296 2.688,-0.896 7.296,-0.896 9.344,-0.896 h 1.792 v 16 c 0,1.28 0,20.864 -0.192,22.528 -0.064,0.96 -0.832,1.728 -2.112,1.728 h -3.648 c -0.256,0 -0.448,0.128 -0.448,0.512 v 1.472 c 0,0.448 0.128,0.576 0.512,0.576 0.896,0 3.584,-0.192 10.112,-0.192 6.912,0 8.96,0.192 9.6,0.192 0.512,0 0.64,-0.256 0.64,-0.64 v -1.344 c 0,-0.32 -0.128,-0.576 -0.384,-0.576 h -3.712 c -1.536,0 -2.176,-1.28 -2.176,-6.144 v -34.112 h 1.792 c 1.344,0 6.272,0.064 8.832,0.768 2.048,0.576 3.904,2.88 3.904,6.784 l 0.128,23.936 c 0,2.944 -0.064,6.656 -0.32,7.936 -0.192,0.768 -1.088,1.024 -2.112,1.024 h -1.6 c -0.32,0 -0.576,0.128 -0.576,0.448 v 1.408 c 0,0.384 0.192,0.512 0.512,0.512 0.512,0 2.944,-0.192 6.912,-0.192 3.328,0 6.144,0.192 6.656,0.192 0.384,0 0.512,-0.256 0.512,-0.64 v -1.152 c 0,-0.448 -0.256,-0.576 -0.64,-0.576 h -1.536 c -0.896,0 -1.152,-0.64 -1.152,-2.688 v -13.824 c 0,-1.216 0.64,-2.496 1.152,-3.136 1.408,-1.408 3.072,-2.304 4.736,-2.304 1.536,0 2.56,0.512 3.584,1.536 1.664,1.664 1.664,5.248 1.664,8.576 z" />
        <path
           inkscape:connector-curvature="0"
           id="path1331"
           style="font-style:normal;font-variant:normal;font-weight:600;font-stretch:normal;font-size:64px;line-height:1.39999998;font-family:'Adobe Caslon Pro';-inkscape-font-specification:'Adobe Caslon Pro, Semi-Bold';font-variant-ligatures:normal;font-variant-caps:normal;font-variant-numeric:normal;font-feature-settings:normal;text-align:start;letter-spacing:0px;word-spacing:0px;writing-mode:lr-tb;text-anchor:start;fill:#000000;fill-opacity:1;stroke:none;stroke-width:7.31447029"
           d="m 112.09232,-258.13408 h 15.488 c 1.152,0 1.792,-0.064 1.792,-1.024 0,-2.624 -2.368,-10.24 -9.664,-10.24 -5.568,0 -8.448,1.28 -11.136,4.736 -2.752,3.584 -3.136,5.952 -3.136,9.472 0,3.968 0.64,7.168 3.584,10.56 2.24,2.56 5.12,3.456 9.216,3.456 7.04,0 10.304,-4.352 11.648,-6.784 0.448,-0.832 0.32,-1.088 0,-1.28 l -0.96,-0.576 c -0.256,-0.128 -0.512,-0.128 -0.768,0.32 -1.344,2.048 -3.776,3.712 -7.744,3.712 -3.648,0 -8.32,-3.84 -8.32,-10.368 z m 0.192,-2.304 c 0.832,-4.288 2.752,-6.592 5.888,-6.592 3.328,0 3.968,3.776 3.968,5.696 0,0.512 -0.768,0.896 -2.112,0.896 z" />
        <path
           inkscape:connector-curvature="0"
           id="path1333"
           style="font-style:normal;font-variant:normal;font-weight:600;font-stretch:normal;font-size:64px;line-height:1.39999998;font-family:'Adobe Caslon Pro';-inkscape-font-specification:'Adobe Caslon Pro, Semi-Bold';font-variant-ligatures:normal;font-variant-caps:normal;font-variant-numeric:normal;font-feature-settings:normal;text-align:start;letter-spacing:0px;word-spacing:0px;writing-mode:lr-tb;text-anchor:start;fill:#000000;fill-opacity:1;stroke:none;stroke-width:7.31447029"
           d="m 150.46232,-245.84608 c 0,1.216 -0.64,1.728 -1.664,1.728 h -2.24 c -0.448,0 -0.576,0.128 -0.576,0.512 v 1.408 c 0,0.32 0.128,0.448 0.448,0.448 0.512,0 3.008,-0.192 7.488,-0.192 4.672,0 7.488,0.192 7.936,0.192 0.32,0 0.448,-0.128 0.448,-0.448 v -1.472 c 0,-0.32 -0.128,-0.448 -0.512,-0.448 h -2.816 c -1.28,0 -1.792,-0.64 -1.792,-2.688 v -12.352 c 0,-0.832 0.256,-2.24 0.768,-3.136 0.768,-1.344 1.92,-1.856 2.688,-1.856 0.64,0 1.28,0.128 1.792,0.512 0.512,0.256 1.28,0.512 2.176,0.512 1.664,0 3.456,-1.664 3.456,-3.456 0,-1.792 -1.28,-3.2 -3.328,-3.2 -2.816,0 -5.504,2.176 -7.68,5.76 h -0.256 l -0.576,-4.608 c -0.064,-0.384 -0.192,-0.768 -0.576,-0.768 -0.384,0 -0.64,0.128 -1.024,0.256 l -7.744,3.648 c -0.384,0.192 -0.512,0.32 -0.512,0.576 v 0.384 c 0,0.256 0.128,0.384 0.512,0.512 l 1.152,0.64 c 1.92,1.024 2.432,2.048 2.432,4.992 z" />
        <path
           inkscape:connector-curvature="0"
           id="path1335"
           style="font-style:normal;font-variant:normal;font-weight:600;font-stretch:normal;font-size:64px;line-height:1.39999998;font-family:'Adobe Caslon Pro';-inkscape-font-specification:'Adobe Caslon Pro, Semi-Bold';font-variant-ligatures:normal;font-variant-caps:normal;font-variant-numeric:normal;font-feature-settings:normal;text-align:start;letter-spacing:0px;word-spacing:0px;writing-mode:lr-tb;text-anchor:start;fill:#000000;fill-opacity:1;stroke:none;stroke-width:7.31447029"
           d="m 177.59232,-258.13408 h 15.488 c 1.152,0 1.792,-0.064 1.792,-1.024 0,-2.624 -2.368,-10.24 -9.664,-10.24 -5.568,0 -8.448,1.28 -11.136,4.736 -2.752,3.584 -3.136,5.952 -3.136,9.472 0,3.968 0.64,7.168 3.584,10.56 2.24,2.56 5.12,3.456 9.216,3.456 7.04,0 10.304,-4.352 11.648,-6.784 0.448,-0.832 0.32,-1.088 0,-1.28 l -0.96,-0.576 c -0.256,-0.128 -0.512,-0.128 -0.768,0.32 -1.344,2.048 -3.776,3.712 -7.744,3.712 -3.648,0 -8.32,-3.84 -8.32,-10.368 z m 0.192,-2.304 c 0.832,-4.288 2.752,-6.592 5.888,-6.592 3.328,0 3.968,3.776 3.968,5.696 0,0.512 -0.768,0.896 -2.112,0.896 z" />
        <path
           inkscape:connector-curvature="0"
           id="path1337"
           style="font-style:normal;font-variant:normal;font-weight:600;font-stretch:normal;font-size:64px;line-height:1.39999998;font-family:'Adobe Caslon Pro';-inkscape-font-specification:'Adobe Caslon Pro, Semi-Bold';font-variant-ligatures:normal;font-variant-caps:normal;font-variant-numeric:normal;font-feature-settings:normal;text-align:start;letter-spacing:0px;word-spacing:0px;writing-mode:lr-tb;text-anchor:start;fill:#000000;fill-opacity:1;stroke:none;stroke-width:7.31447029"
           d="m 215.79032,-245.07808 c 0.896,2.752 2.944,3.904 5.376,3.904 3.712,0 5.248,-2.56 5.888,-3.712 0.256,-0.64 0.128,-0.896 -0.128,-1.024 l -0.768,-0.512 c -0.256,-0.128 -0.384,-0.128 -0.64,0.256 -0.256,0.512 -1.152,1.024 -2.048,1.024 -1.152,0 -1.664,-1.024 -1.664,-4.48 v -3.072 l -0.128,-10.112 c 0,-1.728 -0.128,-3.52 -1.536,-4.8 -1.152,-1.024 -2.304,-1.792 -5.888,-1.792 -4.224,0 -7.68,1.536 -10.368,3.584 -1.92,1.408 -2.944,3.456 -2.944,5.248 0,1.408 1.024,2.176 2.176,2.176 2.688,0 3.84,-1.408 3.84,-3.712 0,-1.536 -0.64,-2.496 0.256,-3.136 1.024,-0.768 2.56,-1.152 3.712,-1.152 1.408,0 2.56,0.256 3.2,0.96 0.768,0.768 0.896,2.304 1.024,3.584 v 3.328 c -1.408,1.024 -3.84,2.048 -7.808,3.968 -4.608,2.048 -5.888,4.928 -5.888,7.872 0,3.584 2.048,5.504 4.416,5.504 1.28,0 2.624,0 4.096,-0.448 2.496,-0.832 4.16,-1.92 5.568,-3.456 z m -0.64,-2.688 c 0,1.152 -2.304,2.944 -4.096,3.072 -1.536,0 -2.944,-1.28 -2.944,-3.904 0,-4.672 4.224,-5.76 7.04,-7.552 z" />
        <path
           inkscape:connector-curvature="0"
           id="path1339"
           style="font-style:normal;font-variant:normal;font-weight:600;font-stretch:normal;font-size:64px;line-height:1.39999998;font-family:'Adobe Caslon Pro';-inkscape-font-specification:'Adobe Caslon Pro, Semi-Bold';font-variant-ligatures:normal;font-variant-caps:normal;font-variant-numeric:normal;font-feature-settings:normal;text-align:start;letter-spacing:0px;word-spacing:0px;writing-mode:lr-tb;text-anchor:start;fill:#000000;fill-opacity:1;stroke:none;stroke-width:7.31447029"
           d="m 257.31032,-266.39008 c 0,-8.256 0,-17.472 0.256,-20.672 0.128,-0.768 -0.128,-1.152 -0.384,-1.152 -0.512,0 -0.896,0.128 -1.664,0.256 -1.664,0.384 -5.888,0.768 -9.088,1.152 -0.384,0.128 -0.512,0.256 -0.512,0.512 v 1.152 c 0,0.256 0.128,0.384 0.512,0.512 3.456,0.64 3.968,1.536 4.032,3.712 l 0.192,12.416 c -1.536,-0.512 -3.584,-0.896 -6.016,-0.896 -3.84,0 -6.912,1.408 -9.472,4.096 -3.328,3.584 -4.48,7.168 -4.48,11.584 0,4.096 1.28,6.784 3.968,9.408 2.368,2.368 5.184,3.136 7.68,3.136 2.944,0 6.912,-1.536 8.96,-3.712 l 0.896,2.944 c 0.128,0.512 0.512,0.768 0.896,0.64 l 8.576,-2.432 c 0.384,-0.128 0.512,-0.384 0.384,-0.768 l -0.128,-0.768 c -0.128,-0.256 -0.384,-0.384 -1.28,-0.384 -0.896,-0.128 -2.048,-0.384 -2.688,-1.152 -0.512,-0.64 -0.64,-3.2 -0.64,-5.632 z m -6.656,16.768 c 0,1.024 -0.128,1.792 -0.512,2.56 -0.64,1.024 -2.304,2.304 -4.864,2.304 -3.968,0 -7.872,-5.248 -7.872,-12.544 0,-2.624 0.576,-5.312 2.56,-7.68 1.216,-1.536 2.88,-1.92 4.416,-1.92 2.688,0 4.736,1.408 5.632,3.008 0.512,0.896 0.64,2.048 0.64,3.072 z" />
        <path
           inkscape:connector-curvature="0"
           id="path1341"
           style="font-style:normal;font-variant:normal;font-weight:600;font-stretch:normal;font-size:64px;line-height:1.39999998;font-family:'Adobe Caslon Pro';-inkscape-font-specification:'Adobe Caslon Pro, Semi-Bold';font-variant-ligatures:normal;font-variant-caps:normal;font-variant-numeric:normal;font-feature-settings:normal;text-align:start;letter-spacing:0px;word-spacing:0px;writing-mode:lr-tb;text-anchor:start;fill:#000000;fill-opacity:1;stroke:none;stroke-width:7.31447029"
           d="m 270.20932,-251.15808 c 0,1.792 -0.064,3.84 -0.128,5.76 -0.064,1.024 -0.384,1.28 -1.024,1.28 h -2.816 c -0.384,0 -0.64,0.128 -0.64,0.512 v 1.216 c 0,0.512 0.192,0.64 0.512,0.64 0.768,0 3.2,-0.192 6.912,-0.192 4.288,0 7.232,0.192 7.744,0.192 0.384,0 0.512,-0.256 0.512,-0.64 v -1.28 c 0,-0.32 -0.128,-0.448 -0.64,-0.448 h -2.56 c -0.64,0 -0.896,-0.512 -1.024,-1.664 -0.128,-0.768 -0.128,-3.072 -0.128,-5.504 v -6.912 c 0,-5.312 0,-9.408 0.128,-10.432 0.064,-0.512 -0.128,-0.768 -0.512,-0.768 -0.384,0 -0.896,0.128 -1.536,0.384 -1.088,0.448 -7.424,2.688 -8.32,3.072 -0.32,0.128 -0.448,0.256 -0.448,0.512 v 0.704 c 0,0.256 0.064,0.448 0.64,0.576 2.944,0.768 3.328,2.048 3.328,3.968 z m 6.336,-28.672 c 0,-1.472 -1.216,-3.328 -3.776,-3.328 -2.56,0 -4.288,1.728 -4.288,3.584 0,2.176 1.92,3.584 3.904,3.584 2.88,0 4.16,-1.984 4.16,-3.84 z" />
        <path
           inkscape:connector-curvature="0"
           id="path1343"
           style="font-style:normal;font-variant:normal;font-weight:600;font-stretch:normal;font-size:64px;line-height:1.39999998;font-family:'Adobe Caslon Pro';-inkscape-font-specification:'Adobe Caslon Pro, Semi-Bold';font-variant-ligatures:normal;font-variant-caps:normal;font-variant-numeric:normal;font-feature-settings:normal;text-align:start;letter-spacing:0px;word-spacing:0px;writing-mode:lr-tb;text-anchor:start;fill:#000000;fill-opacity:1;stroke:none;stroke-width:7.31447029"
           d="m 286.64032,-265.55808 c -0.384,0.128 -0.64,0.384 -0.64,0.64 v 0.512 c 0,0.256 0.128,0.512 0.512,0.64 l 0.512,0.256 c 1.536,0.768 2.688,1.792 2.688,3.712 v 14.4 c 0,1.024 -0.896,1.28 -1.664,1.28 h -1.28 c -0.512,0 -0.64,0.128 -0.64,0.512 v 1.216 c 0,0.384 0.128,0.64 0.384,0.64 0.384,0 2.432,-0.192 6.4,-0.192 3.84,0 5.632,0.192 6.016,0.192 0.384,0 0.512,-0.256 0.512,-0.64 v -1.152 c 0,-0.448 -0.128,-0.576 -0.64,-0.576 h -1.152 c -0.896,0 -1.216,-0.768 -1.216,-2.176 v -13.184 c 0,-1.728 0.32,-3.52 1.344,-4.544 1.536,-1.408 3.072,-1.664 4.096,-1.664 1.408,0 2.56,0 3.84,1.152 1.536,1.28 1.664,2.944 1.664,5.504 v 7.36 c 0,2.56 -0.064,4.352 -0.256,6.016 -0.128,1.152 -0.64,1.536 -1.152,1.536 h -1.28 c -0.64,0 -0.768,0.128 -0.768,0.512 v 1.088 c 0,0.512 0.128,0.768 0.512,0.768 0.384,0 2.432,-0.192 6.272,-0.192 4.48,0 6.4,0.192 6.912,0.192 0.384,0 0.512,-0.128 0.512,-0.448 v -1.472 c 0,-0.32 -0.192,-0.448 -0.768,-0.448 h -1.792 c -0.768,0 -1.536,-0.384 -1.536,-1.792 0,-1.28 0.064,-4.096 0.064,-6.144 v -9.216 c 0,-2.624 -0.704,-4.544 -3.52,-6.592 -1.408,-1.152 -3.456,-1.536 -5.632,-1.536 -1.92,0 -3.584,0.64 -5.12,1.536 -1.28,0.64 -2.432,1.664 -3.2,2.56 h -0.384 l -0.512,-3.328 c -0.128,-0.512 -0.384,-0.768 -0.768,-0.768 -0.384,0 -0.768,0.256 -1.28,0.512 z" />
        <path
           inkscape:connector-curvature="0"
           id="path1345"
           style="font-style:normal;font-variant:normal;font-weight:600;font-stretch:normal;font-size:64px;line-height:1.39999998;font-family:'Adobe Caslon Pro';-inkscape-font-specification:'Adobe Caslon Pro, Semi-Bold';font-variant-ligatures:normal;font-variant-caps:normal;font-variant-numeric:normal;font-feature-settings:normal;text-align:start;letter-spacing:0px;word-spacing:0px;writing-mode:lr-tb;text-anchor:start;fill:#000000;fill-opacity:1;stroke:none;stroke-width:7.31447029"
           d="m 334.83732,-224.53408 c 6.016,0.128 10.496,-1.92 12.544,-3.584 2.816,-2.176 3.968,-4.608 3.968,-7.424 0,-1.92 -0.64,-4.352 -3.2,-6.272 -2.816,-2.304 -6.016,-2.688 -10.88,-2.432 -5.632,0.256 -8.064,0.256 -8.064,-2.304 0,-1.536 1.6,-2.688 2.752,-3.2 1.344,0.256 2.24,0.256 3.648,0.256 3.008,0 6.08,-0.768 8.128,-2.944 1.92,-2.048 2.688,-4.608 2.688,-7.104 0,-2.048 -0.384,-3.456 -0.768,-4.224 0.512,-0.384 1.152,-0.384 1.536,-0.384 0.512,0 1.024,0.384 1.536,0.768 0.384,0.384 1.024,0.896 1.984,0.896 1.408,0 2.56,-1.28 2.56,-2.56 0.128,-1.664 -0.96,-3.072 -3.328,-3.072 -1.664,0 -3.904,1.152 -5.44,2.368 -0.64,-0.704 -3.2,-3.648 -8.704,-3.648 -8.256,0 -11.84,5.12 -11.84,9.344 0,5.44 3.072,8.128 5.504,9.536 v 0.128 c -1.92,0.896 -5.504,3.072 -5.504,6.528 0,2.048 1.536,4.096 4.352,4.736 v 0.384 c -3.072,1.28 -6.656,3.712 -6.656,7.168 0,2.048 0.896,3.712 3.2,5.056 2.816,1.6 6.912,1.984 9.984,1.984 z m 0.768,-27.2 c -1.792,0 -2.752,-0.512 -3.648,-1.408 -1.088,-0.96 -1.6,-3.008 -1.6,-5.056 0,-2.496 0.384,-5.44 1.792,-7.232 0.96,-1.152 2.112,-1.6 3.456,-1.6 1.536,0 2.432,0.576 3.008,1.28 0.64,0.832 1.408,2.496 1.408,5.056 0,4.544 -1.088,8.96 -4.416,8.96 z m 1.408,13.248 c 6.144,-0.256 8.832,2.048 8.832,5.76 0.128,3.776 -5.376,5.696 -8.704,5.696 -3.712,0 -5.504,-0.384 -7.488,-1.536 -1.216,-0.704 -2.304,-2.624 -2.304,-4.416 0,-2.56 2.112,-4.608 3.904,-5.12 z" />
        <path
           inkscape:connector-curvature="0"
           id="path1347"
           style="font-style:normal;font-variant:normal;font-weight:600;font-stretch:normal;font-size:64px;line-height:1.39999998;font-family:'Adobe Caslon Pro';-inkscape-font-specification:'Adobe Caslon Pro, Semi-Bold';font-variant-ligatures:normal;font-variant-caps:normal;font-variant-numeric:normal;font-feature-settings:normal;text-align:start;letter-spacing:0px;word-spacing:0px;writing-mode:lr-tb;text-anchor:start;fill:#000000;fill-opacity:1;stroke:none;stroke-width:7.31447029"
           d="m 374.84232,-258.13408 h 15.488 c 1.152,0 1.792,-0.064 1.792,-1.024 0,-2.624 -2.368,-10.24 -9.664,-10.24 -5.568,0 -8.448,1.28 -11.136,4.736 -2.752,3.584 -3.136,5.952 -3.136,9.472 0,3.968 0.64,7.168 3.584,10.56 2.24,2.56 5.12,3.456 9.216,3.456 7.04,0 10.304,-4.352 11.648,-6.784 0.448,-0.832 0.32,-1.088 0,-1.28 l -0.96,-0.576 c -0.256,-0.128 -0.512,-0.128 -0.768,0.32 -1.344,2.048 -3.776,3.712 -7.744,3.712 -3.648,0 -8.32,-3.84 -8.32,-10.368 z m 0.192,-2.304 c 0.832,-4.288 2.752,-6.592 5.888,-6.592 3.328,0 3.968,3.776 3.968,5.696 0,0.512 -0.768,0.896 -2.112,0.896 z" />
        <path
           inkscape:connector-curvature="0"
           id="path1349"
           style="font-style:normal;font-variant:normal;font-weight:600;font-stretch:normal;font-size:64px;line-height:1.39999998;font-family:'Adobe Caslon Pro';-inkscape-font-specification:'Adobe Caslon Pro, Semi-Bold';font-variant-ligatures:normal;font-variant-caps:normal;font-variant-numeric:normal;font-feature-settings:normal;text-align:start;letter-spacing:0px;word-spacing:0px;writing-mode:lr-tb;text-anchor:start;fill:#000000;fill-opacity:1;stroke:none;stroke-width:7.31447029"
           d="m 424.73732,-243.67008 c 0,-0.256 -0.128,-0.448 -0.32,-0.448 h -0.96 c -1.024,0 -1.792,-0.512 -2.56,-1.408 -2.816,-3.2 -5.76,-7.936 -8.128,-11.584 2.176,-3.008 6.336,-7.68 7.232,-8.448 0.832,-0.704 1.664,-0.896 2.688,-0.896 h 0.768 c 0.384,0 0.512,-0.128 0.512,-0.512 v -1.408 c 0,-0.256 -0.128,-0.448 -0.512,-0.448 -0.512,0 -1.408,0.192 -4.096,0.192 -3.584,0 -4.864,-0.192 -5.44,-0.192 -0.256,0 -0.448,0.128 -0.448,0.448 v 1.472 c 0,0.192 0.192,0.32 0.384,0.32 h 0.768 c 1.024,0 1.28,1.472 0.512,2.496 l -3.84,5.12 -3.328,-5.504 c -0.64,-1.024 -0.768,-2.112 0.128,-2.112 h 0.448 c 0.256,0 0.32,-0.128 0.32,-0.448 v -1.28 c 0,-0.32 -0.064,-0.512 -0.384,-0.512 -0.512,0 -2.944,0.192 -5.888,0.192 -4.224,0 -6.016,-0.192 -6.528,-0.192 -0.384,0 -0.512,0.128 -0.512,0.512 v 1.408 c 0,0.256 0.128,0.448 0.512,0.448 h 1.28 c 0.768,0 1.664,0.256 2.24,0.832 1.216,1.408 5.056,6.656 7.68,10.944 -1.152,1.472 -6.656,8.64 -7.936,9.6 -0.832,0.704 -1.728,0.96 -2.752,0.96 h -1.28 c -0.384,0 -0.512,0.192 -0.512,0.512 v 1.28 c 0,0.384 0.128,0.576 0.512,0.576 0.768,0 1.792,-0.192 5.12,-0.192 2.944,0 4.608,0.192 5.12,0.192 0.384,0 0.512,-0.192 0.512,-0.512 v -1.28 c 0,-0.384 -0.064,-0.576 -0.32,-0.576 h -0.96 c -1.152,0 -1.216,-0.704 -0.832,-1.536 0.32,-0.768 3.072,-4.864 4.8,-6.848 l 3.968,6.464 c 0.64,0.896 0.256,1.92 -0.512,1.92 h -0.512 c -0.384,0 -0.512,0.128 -0.512,0.512 v 1.344 c 0,0.32 0.128,0.512 0.512,0.512 0.768,0 2.688,-0.192 6.4,-0.192 4.48,0 5.632,0.192 6.208,0.192 0.32,0 0.448,-0.192 0.448,-0.448 z" />
        <path
           inkscape:connector-curvature="0"
           id="path1351"
           style="font-style:normal;font-variant:normal;font-weight:600;font-stretch:normal;font-size:64px;line-height:1.39999998;font-family:'Adobe Caslon Pro';-inkscape-font-specification:'Adobe Caslon Pro, Semi-Bold';font-variant-ligatures:normal;font-variant-caps:normal;font-variant-numeric:normal;font-feature-settings:normal;text-align:start;letter-spacing:0px;word-spacing:0px;writing-mode:lr-tb;text-anchor:start;fill:#000000;fill-opacity:1;stroke:none;stroke-width:7.31447029"
           d="m 437.97832,-242.32608 c 1.92,0.896 4.224,1.152 5.632,1.152 7.808,0 13.952,-6.656 13.952,-15.872 0,-4.032 -0.896,-6.464 -3.456,-9.152 -2.048,-2.048 -4.352,-3.2 -7.424,-3.2 -3.712,0 -7.04,1.92 -8.704,3.968 h -0.128 l -0.448,-3.136 c -0.064,-0.448 -0.256,-0.832 -0.576,-0.832 -0.512,0 -1.024,0.192 -1.792,0.512 l -7.296,3.2 c -0.384,0.128 -0.512,0.256 -0.512,0.512 v 0.64 c 0,0.256 0.128,0.384 0.512,0.64 l 1.408,0.768 c 1.92,1.024 2.176,1.92 2.176,3.84 v 22.08 c 0,4.864 0,7.424 -0.128,8.832 -0.128,1.024 -0.512,1.664 -1.408,1.664 h -2.304 c -0.256,0 -0.384,0.192 -0.384,0.448 v 1.408 c 0,0.384 0.128,0.512 0.512,0.512 0.512,0 2.816,-0.192 7.04,-0.192 4.992,0 6.912,0.192 7.424,0.192 0.512,0 0.64,-0.128 0.64,-0.512 v -1.344 c 0,-0.32 -0.128,-0.512 -0.512,-0.512 h -2.304 c -1.28,0 -1.728,-0.256 -1.792,-3.968 z m 0,-20.544 c 1.28,-1.792 3.456,-2.816 5.504,-2.816 5.44,0 7.488,6.784 7.488,12.736 -0.128,6.72 -3.264,9.28 -6.336,9.28 -2.048,0 -3.712,-0.448 -4.992,-1.472 -1.28,-0.768 -1.664,-2.176 -1.664,-3.584 z" />
        <path
           inkscape:connector-curvature="0"
           id="path1353"
           style="font-style:normal;font-variant:normal;font-weight:600;font-stretch:normal;font-size:64px;line-height:1.39999998;font-family:'Adobe Caslon Pro';-inkscape-font-specification:'Adobe Caslon Pro, Semi-Bold';font-variant-ligatures:normal;font-variant-caps:normal;font-variant-numeric:normal;font-feature-settings:normal;text-align:start;letter-spacing:0px;word-spacing:0px;writing-mode:lr-tb;text-anchor:start;fill:#000000;fill-opacity:1;stroke:none;stroke-width:7.31447029"
           d="m 470.71732,-258.13408 h 15.488 c 1.152,0 1.792,-0.064 1.792,-1.024 0,-2.624 -2.368,-10.24 -9.664,-10.24 -5.568,0 -8.448,1.28 -11.136,4.736 -2.752,3.584 -3.136,5.952 -3.136,9.472 0,3.968 0.64,7.168 3.584,10.56 2.24,2.56 5.12,3.456 9.216,3.456 7.04,0 10.304,-4.352 11.648,-6.784 0.448,-0.832 0.32,-1.088 0,-1.28 l -0.96,-0.576 c -0.256,-0.128 -0.512,-0.128 -0.768,0.32 -1.344,2.048 -3.776,3.712 -7.744,3.712 -3.648,0 -8.32,-3.84 -8.32,-10.368 z m 0.192,-2.304 c 0.832,-4.288 2.752,-6.592 5.888,-6.592 3.328,0 3.968,3.776 3.968,5.696 0,0.512 -0.768,0.896 -2.112,0.896 z" />
        <path
           inkscape:connector-curvature="0"
           id="path1355"
           style="font-style:normal;font-variant:normal;font-weight:600;font-stretch:normal;font-size:64px;line-height:1.39999998;font-family:'Adobe Caslon Pro';-inkscape-font-specification:'Adobe Caslon Pro, Semi-Bold';font-variant-ligatures:normal;font-variant-caps:normal;font-variant-numeric:normal;font-feature-settings:normal;text-align:start;letter-spacing:0px;word-spacing:0px;writing-mode:lr-tb;text-anchor:start;fill:#000000;fill-opacity:1;stroke:none;stroke-width:7.31447029"
           d="m 497.58732,-245.84608 c 0,1.216 -0.64,1.728 -1.664,1.728 h -2.24 c -0.448,0 -0.576,0.128 -0.576,0.512 v 1.408 c 0,0.32 0.128,0.448 0.448,0.448 0.512,0 3.008,-0.192 7.488,-0.192 4.672,0 7.488,0.192 7.936,0.192 0.32,0 0.448,-0.128 0.448,-0.448 v -1.472 c 0,-0.32 -0.128,-0.448 -0.512,-0.448 h -2.816 c -1.28,0 -1.792,-0.64 -1.792,-2.688 v -12.352 c 0,-0.832 0.256,-2.24 0.768,-3.136 0.768,-1.344 1.92,-1.856 2.688,-1.856 0.64,0 1.28,0.128 1.792,0.512 0.512,0.256 1.28,0.512 2.176,0.512 1.664,0 3.456,-1.664 3.456,-3.456 0,-1.792 -1.28,-3.2 -3.328,-3.2 -2.816,0 -5.504,2.176 -7.68,5.76 h -0.256 l -0.576,-4.608 c -0.064,-0.384 -0.192,-0.768 -0.576,-0.768 -0.384,0 -0.64,0.128 -1.024,0.256 l -7.744,3.648 c -0.384,0.192 -0.512,0.32 -0.512,0.576 v 0.384 c 0,0.256 0.128,0.384 0.512,0.512 l 1.152,0.64 c 1.92,1.024 2.432,2.048 2.432,4.992 z" />
        <path
           inkscape:connector-curvature="0"
           id="path1357"
           style="font-style:normal;font-variant:normal;font-weight:600;font-stretch:normal;font-size:64px;line-height:1.39999998;font-family:'Adobe Caslon Pro';-inkscape-font-specification:'Adobe Caslon Pro, Semi-Bold';font-variant-ligatures:normal;font-variant-caps:normal;font-variant-numeric:normal;font-feature-settings:normal;text-align:start;letter-spacing:0px;word-spacing:0px;writing-mode:lr-tb;text-anchor:start;fill:#000000;fill-opacity:1;stroke:none;stroke-width:7.31447029"
           d="m 523.39532,-265.11008 v 8.32 c 0,2.432 -0.192,7.552 -0.192,9.856 0,2.688 2.88,5.76 6.72,5.76 4.48,0 7.168,-1.92 8.064,-2.56 0.256,-0.256 0.384,-0.512 0.256,-0.896 l -0.384,-0.768 c -0.128,-0.32 -0.32,-0.32 -0.768,-0.128 -0.896,0.448 -2.304,0.768 -3.712,0.768 -1.28,0 -3.392,-1.024 -3.392,-6.016 v -5.76 c 0,-2.816 0.064,-5.888 0.192,-8.576 h 7.744 c 0.384,0 0.576,-0.128 0.64,-0.384 l 0.64,-2.688 c 0.064,-0.256 -0.064,-0.512 -0.448,-0.512 h -8.448 l 0.256,-6.336 c 0,-0.512 -0.256,-0.896 -0.768,-0.896 -0.384,0 -0.768,0.128 -1.024,0.64 -1.408,2.688 -6.976,7.424 -8.768,8.064 -0.832,0.32 -1.216,0.704 -1.216,1.216 0,0.64 0.384,0.896 0.896,0.896 z" />
        <path
           inkscape:connector-curvature="0"
           id="path1359"
           style="font-style:normal;font-variant:normal;font-weight:600;font-stretch:normal;font-size:64px;line-height:1.39999998;font-family:'Adobe Caslon Pro';-inkscape-font-specification:'Adobe Caslon Pro, Semi-Bold';font-variant-ligatures:normal;font-variant-caps:normal;font-variant-numeric:normal;font-feature-settings:normal;text-align:start;letter-spacing:0px;word-spacing:0px;writing-mode:lr-tb;text-anchor:start;fill:#000000;fill-opacity:1;stroke:none;stroke-width:7.31447029"
           d="m 544.40832,-243.54208 c 0.064,0.256 0.256,0.448 0.512,0.704 0.704,0.576 3.52,1.664 6.912,1.664 6.336,0 10.688,-3.84 10.688,-9.216 0,-2.176 -0.512,-3.712 -1.92,-5.12 -1.664,-1.792 -3.456,-2.56 -6.4,-3.328 -3.84,-1.024 -5.76,-1.792 -5.76,-4.416 0,-2.24 2.048,-3.648 4.416,-3.648 2.112,0 3.264,1.152 4.032,1.984 l 3.072,3.456 c 0.128,0.256 0.32,0.32 0.512,0.256 l 1.216,-0.576 c 0.128,-0.128 0.128,-0.448 0.064,-0.704 l -0.832,-4.352 c -0.064,-0.384 -0.256,-0.64 -1.216,-1.152 -1.152,-0.64 -3.072,-1.408 -6.208,-1.408 -2.624,0 -4.416,0.576 -6.656,2.112 -2.24,1.6 -3.264,3.904 -3.264,6.72 0,4.544 3.456,6.72 7.808,8 4.48,1.28 6.144,2.432 6.144,4.992 0,2.368 -2.048,3.904 -4.544,3.904 -3.136,0 -4.352,-1.536 -5.504,-3.456 l -2.112,-3.584 c -0.128,-0.256 -0.32,-0.256 -0.576,-0.192 l -1.216,0.384 c -0.192,0.064 -0.256,0.256 -0.192,0.512 z" />
      </g>
      <path
         sodipodi:nodetypes="sccccccssccccscccsccccscccccccscccssccccccssscs"
         inkscape:connector-curvature="0"
         id="path1474"
         d="m 142.58653,23.5675 c -0.61779,0 -1.21773,0.07048 -1.80021,0.211695 -0.56483,0.123553 -1.1033,0.290759 -1.61518,0.502569 -0.49422,0.194158 -0.94418,0.397417 -1.35015,0.609227 -0.40597,0.211811 -0.74119,0.397041 -1.00595,0.555899 v 3.65668 c 1.94251,-1.567789 3.33149,-1.792113 5.05641,-1.803151 0.72369,0 1.32444,0.09672 1.80102,0.29088 0.47657,0.194158 0.71426,0.591657 0.71426,1.191788 v 0.926765 c -0.0353,-0.03529 -0.12301,-0.10579 -0.26421,-0.211695 -0.12356,-0.105905 -0.30058,-0.211632 -0.53004,-0.317537 -0.21181,-0.105905 -0.47654,-0.194419 -0.79426,-0.265024 -0.30007,-0.08825 -0.6443,-0.132509 -1.03262,-0.132509 -0.74133,0 -1.44701,0.114741 -2.11774,0.344204 -0.67073,0.229462 -1.26248,0.555666 -1.77435,0.979287 -0.49423,0.42362 -0.89092,0.935862 -1.19098,1.535992 -0.28241,0.60013 -0.42339,1.270563 -0.42339,2.011899 0,0.776636 0.14999,1.44788 0.45005,2.012706 0.31772,0.547178 0.72342,0.997138 1.21765,1.350158 0.49422,0.353015 1.04991,0.617745 1.66769,0.794255 0.61778,0.176506 1.24477,0.265019 1.8802,0.265019 0.22946,0 0.5032,-0.02705 0.82092,-0.07999 0.31771,-0.05295 0.63491,-0.140656 0.95262,-0.264213 0.33537,-0.123553 0.65337,-0.29157 0.95343,-0.50338 0.31772,-0.229458 0.59967,-0.512217 0.84678,-0.84758 l 0.63589,1.191788 H 151.35 v -3.388719 h -1.58851 v -5.163068 c 0,-1.059051 -0.22948,-1.941754 -0.6884,-2.647789 -0.44128,-0.706036 -1.01499,-1.261727 -1.72103,-1.667695 -0.68838,-0.423621 -1.45634,-0.715389 -2.30358,-0.874247 -0.84724,-0.17651 -1.66767,-0.264213 -2.46195,-0.264214 z m 0.23835,8.419274 c 0.28242,0 0.51191,0.03525 0.68841,0.105847 0.19416,0.07061 0.35316,0.150104 0.47672,0.238357 0.12355,0.08825 0.21126,0.176766 0.26421,0.265023 0.0706,0.0706 0.11486,0.123065 0.13251,0.158366 v 1.005949 c -0.12356,0.194158 -0.33502,0.388403 -0.63508,0.582561 -0.30007,0.194162 -0.65331,0.291686 -1.05928,0.291686 -0.40597,0 -0.74118,-0.114742 -1.00595,-0.344204 -0.26476,-0.229462 -0.39753,-0.529435 -0.39753,-0.900102 0,-0.405973 0.12376,-0.741998 0.37087,-1.006761 0.24711,-0.264763 0.6356,-0.396722 1.16512,-0.396722 z"
         style="font-style:normal;font-variant:normal;font-weight:normal;font-stretch:normal;font-size:64px;line-height:1.39999998;font-family:'ChunkFive Ex';-inkscape-font-specification:'ChunkFive Ex, Normal';font-variant-ligatures:normal;font-variant-caps:normal;font-variant-numeric:normal;font-feature-settings:normal;text-align:center;letter-spacing:0px;word-spacing:0px;writing-mode:lr-tb;text-anchor:middle;fill:#000000;fill-opacity:1;stroke:none;stroke-width:0.99999994" />
      <path
         inkscape:connector-curvature="0"
         id="path1504"
         d="m 24.903958,23.964611 c -1.006098,0 -1.941264,0.158192 -2.806156,0.475907 -0.864891,0.300063 -1.615634,0.750834 -2.251065,1.350961 -0.63543,0.60013 -1.137853,1.332038 -1.508521,2.196931 -0.370667,0.84724 -0.555898,1.809446 -0.555898,2.886145 0,1.270862 0.211461,2.365027 0.635082,3.282872 0.42362,0.900194 0.962094,1.641922 1.615175,2.224401 0.670733,0.56483 1.420667,0.979547 2.250258,1.24431 0.82959,0.282411 1.659024,0.423385 2.488615,0.423385 1.376766,0 2.612713,-0.167202 3.707066,-0.50257 0.717474,-0.231444 1.411858,-0.571771 2.083811,-1.015646 -0.177616,-0.309152 -0.344117,-0.631484 -0.498531,-0.967166 -0.312723,-0.710735 -0.513225,-1.508569 -0.655282,-2.351255 l -0.0299,-0.03475 c -0.353017,0.300067 -0.70626,0.538565 -1.059277,0.715075 -0.353017,0.158857 -0.688235,0.281807 -1.00595,0.370059 -0.317715,0.08825 -0.617689,0.141524 -0.900103,0.159177 -0.264762,0.01766 -0.512275,0.02668 -0.741736,0.02668 -0.564827,0 -1.014788,-0.0795 -1.350155,-0.238357 -0.335366,-0.158858 -0.600096,-0.353103 -0.794256,-0.582565 -0.194159,-0.229458 -0.335133,-0.46796 -0.423387,-0.71507 -0.0706,-0.247115 -0.123873,-0.458574 -0.159175,-0.635084 h 8.340092 c 0.105905,-0.300063 0.185405,-0.618063 0.238357,-0.953431 0.05295,-0.353016 0.07918,-0.706259 0.07918,-1.059274 0,-0.900194 -0.140974,-1.729629 -0.423387,-2.488617 -0.282414,-0.776636 -0.706144,-1.447074 -1.270971,-2.011899 -0.564827,-0.564826 -1.270506,-1.006583 -2.117747,-1.324298 -0.82959,-0.317715 -1.791794,-0.475907 -2.886147,-0.475907 z m 0.159175,3.573747 c 0.42362,0 0.758837,0.06228 1.005949,0.185839 0.264763,0.123557 0.459006,0.290759 0.582562,0.502569 0.141207,0.194163 0.237925,0.423646 0.290878,0.688413 0.05295,0.24711 0.07999,0.494622 0.07999,0.741732 h -3.997944 c 0.01765,-0.158857 0.05289,-0.362112 0.105847,-0.609223 0.0706,-0.247115 0.176334,-0.476598 0.317541,-0.688412 0.158857,-0.229458 0.362114,-0.423703 0.609226,-0.582561 0.264762,-0.158857 0.59998,-0.238357 1.005951,-0.238357 z"
         style="font-style:normal;font-variant:normal;font-weight:normal;font-stretch:normal;font-size:64px;line-height:1.39999998;font-family:'ChunkFive Ex';-inkscape-font-specification:'ChunkFive Ex, Normal';font-variant-ligatures:normal;font-variant-caps:normal;font-variant-numeric:normal;font-feature-settings:normal;text-align:center;letter-spacing:0px;word-spacing:0px;writing-mode:lr-tb;text-anchor:middle;fill:#000000;fill-opacity:1;stroke:none;stroke-width:0.99999994" />
      <path
         d="m 1.3500008,19.066108 h 8.3665034 v 3.494868 h -1.403242 v 11.490703 h 3.4154388 v -3.362487 h 4.448015 v 6.883832 H 1.3500008 v -3.521345 h 1.456195 V 22.560976 h -1.456195 z"
         id="path1573"
         inkscape:connector-curvature="0"
         style="font-style:normal;font-variant:normal;font-weight:normal;font-stretch:normal;font-size:64px;line-height:1.39999998;font-family:'ChunkFive Ex';-inkscape-font-specification:'ChunkFive Ex, Normal';font-variant-ligatures:normal;font-variant-caps:normal;font-variant-numeric:normal;font-feature-settings:normal;text-align:center;letter-spacing:0px;word-spacing:0px;writing-mode:lr-tb;text-anchor:middle;fill:#000000;fill-opacity:1;stroke:none;stroke-width:0.99999994" />
      <path
         d="m 42.384092,30.318525 q -0.02648,-0.476573 -0.132382,-0.953146 -0.07943,-0.50305 -0.264762,-0.900194 -0.185334,-0.42362 -0.50305,-0.661907 -0.317715,-0.264762 -0.767812,-0.264762 -0.582478,0 -1.032574,0.291239 -0.423621,0.291239 -0.71486,0.767812 -0.291239,0.476573 -0.450096,1.085527 -0.132382,0.608954 -0.132382,1.244385 0,1.35029 0.741336,2.250483 0.741336,0.873717 2.065149,0.873717 1.006099,0 1.747435,-0.397144 0.741335,-0.42362 1.376766,-1.112003 l 2.329912,2.70058 q -0.476573,0.503049 -1.13848,1.006098 -0.661907,0.476573 -1.509147,0.847241 -0.820765,0.370668 -1.800387,0.608955 -0.979622,0.238286 -2.038673,0.238286 -1.456195,0 -2.780009,-0.42362 -1.323814,-0.450097 -2.329913,-1.323814 -0.979622,-0.900194 -1.588576,-2.224007 -0.582478,-1.323814 -0.582478,-3.097725 0,-1.747434 0.529525,-3.018295 0.556002,-1.297338 1.456196,-2.118102 0.900193,-0.847241 2.065149,-1.244385 1.191432,-0.397144 2.462294,-0.397144 0.661907,0 1.191432,0.158857 0.556002,0.158858 0.953146,0.397145 0.42362,0.238286 0.714859,0.503049 0.291239,0.264763 0.450097,0.450096 l 0.450097,-1.270861 h 3.1242 v 5.983639 z"
         id="path1577"
         inkscape:connector-curvature="0"
         style="font-style:normal;font-variant:normal;font-weight:normal;font-stretch:normal;font-size:64px;line-height:1.39999998;font-family:'ChunkFive Ex';-inkscape-font-specification:'ChunkFive Ex, Normal';font-variant-ligatures:normal;font-variant-caps:normal;font-variant-numeric:normal;font-feature-settings:normal;text-align:center;letter-spacing:0px;word-spacing:0px;writing-mode:lr-tb;text-anchor:middle;fill:#000000;fill-opacity:1;stroke:none;stroke-width:0.99999994" />
      <path
         d="m 48.142682,24.334886 h 1.429719 v -2.435817 l 4.871634,-1.5621 v 3.997917 h 2.515247 v 3.441916 h -2.515247 v 4.712777 q 0,0.185334 -0.02648,0.370668 0,0.185334 0,0.397144 0,0.529526 0.132381,0.953146 0.158858,0.397144 0.741336,0.397144 0.264763,0 0.767812,-0.132381 0.529526,-0.158858 0.900194,-0.317715 v 3.388963 q -0.291239,0.132381 -0.741336,0.21181 -0.450097,0.105905 -0.92667,0.158858 -0.476573,0.05295 -0.900193,0.07943 -0.397144,0.05295 -0.635431,0.05295 -1.482671,0 -2.329912,-0.397144 -0.820765,-0.397144 -1.217909,-1.112004 -0.397144,-0.714859 -0.503049,-1.747434 -0.105905,-1.032575 -0.132381,-2.303436 v -4.712777 h -1.429719 z"
         id="path1579"
         inkscape:connector-curvature="0"
         style="font-style:normal;font-variant:normal;font-weight:normal;font-stretch:normal;font-size:64px;line-height:1.39999998;font-family:'ChunkFive Ex';-inkscape-font-specification:'ChunkFive Ex, Normal';font-variant-ligatures:normal;font-variant-caps:normal;font-variant-numeric:normal;font-feature-settings:normal;text-align:center;letter-spacing:0px;word-spacing:0px;writing-mode:lr-tb;text-anchor:middle;fill:#000000;fill-opacity:1;stroke:none;stroke-width:0.99999994" />
      <path
         d="m 58.5884,24.334886 h 6.407259 v 6.380783 q 0,1.720958 0.291239,2.541722 0.317715,0.794288 1.13848,0.794288 0.688383,0 1.164956,-0.556001 0.503049,-0.556002 0.503049,-1.456195 v -4.209728 h -1.747434 v -3.494869 h 6.857355 v 9.716793 h 1.297338 v 3.521345 h -5.004016 l -0.71486,-1.668005 q -0.21181,0.238286 -0.529525,0.608954 -0.291239,0.344192 -0.741336,0.661907 -0.423621,0.317715 -1.032575,0.529526 -0.608954,0.238286 -1.456195,0.238286 -1.509148,0 -2.541723,-0.397144 -1.006098,-0.397144 -1.641529,-1.191433 -0.608954,-0.794288 -0.873717,-2.012196 -0.264762,-1.217909 -0.264762,-2.859438 V 27.829755 H 58.5884 Z"
         id="path1581"
         inkscape:connector-curvature="0"
         style="font-style:normal;font-variant:normal;font-weight:normal;font-stretch:normal;font-size:64px;line-height:1.39999998;font-family:'ChunkFive Ex';-inkscape-font-specification:'ChunkFive Ex, Normal';font-variant-ligatures:normal;font-variant-caps:normal;font-variant-numeric:normal;font-feature-settings:normal;text-align:center;letter-spacing:0px;word-spacing:0px;writing-mode:lr-tb;text-anchor:middle;fill:#000000;fill-opacity:1;stroke:none;stroke-width:0.99999994" />
      <path
         sodipodi:nodetypes="scccscscccscsccccccccccscccsccssccccccccc"
         d="m 86.656146,31.112813 c 0,-0.388319 -0.04413,-0.776637 -0.132381,-1.164956 -0.08825,-0.40597 -0.220635,-0.758987 -0.397144,-1.059051 -0.158858,-0.300065 -0.361843,-0.547177 -0.608954,-0.741336 -0.229461,-0.194159 -0.485399,-0.291239 -0.767812,-0.291239 -0.494224,0 -0.935495,0.273588 -1.323814,0.820764 -0.370668,0.547177 -0.556002,1.297338 -0.556002,2.250484 0,0.494224 0.04413,0.953146 0.132381,1.376766 0.08826,0.423621 0.211811,0.794289 0.370668,1.112004 0.176509,0.317715 0.379494,0.564827 0.608955,0.741336 0.247111,0.176508 0.511874,0.264762 0.794288,0.264762 0.564827,0 1.014924,-0.300064 1.35029,-0.900193 0.353017,-0.600129 0.529525,-1.403242 0.529525,-2.409341 z M 76.383355,42.34934 h 1.112003 l -2e-6,-14.493109 h -1.112003 v -3.521345 h 6.063066 l 0.450096,0.92667 c 0.123556,-0.08825 0.282414,-0.194159 0.476573,-0.317715 0.211811,-0.141207 0.450097,-0.264763 0.71486,-0.370668 0.264763,-0.123556 0.564827,-0.229461 0.900193,-0.317716 0.335366,-0.08825 0.706034,-0.132381 1.112004,-0.132381 1.023749,0 1.923943,0.185334 2.70058,0.556002 0.794288,0.370668 1.447369,0.873717 1.959244,1.509148 0.529526,0.63543 0.92667,1.376766 1.191433,2.224007 0.264763,0.82959 0.397144,1.712132 0.397144,2.647627 0,1.059051 -0.158858,2.012197 -0.476573,2.859438 -0.300065,0.82959 -0.723685,1.535624 -1.270861,2.118102 -0.529526,0.582478 -1.164957,1.032575 -1.906292,1.35029 -0.741336,0.317715 -1.535624,0.476573 -2.382865,0.476573 -0.547177,0 -1.032575,-0.04413 -1.456195,-0.132381 -0.40597,-0.08825 -0.750162,-0.19416 -1.032575,-0.317716 -0.264763,-0.123555 -0.476573,-0.238286 -0.635431,-0.344191 -0.158857,-0.123556 -0.264762,-0.202985 -0.317715,-0.238287 l 2e-6,5.517652 h 1.429719 v 3.468392 h -7.916405 z"
         id="path1583"
         inkscape:connector-curvature="0"
         style="font-style:normal;font-variant:normal;font-weight:normal;font-stretch:normal;font-size:64px;line-height:1.39999998;font-family:'ChunkFive Ex';-inkscape-font-specification:'ChunkFive Ex, Normal';font-variant-ligatures:normal;font-variant-caps:normal;font-variant-numeric:normal;font-feature-settings:normal;text-align:center;letter-spacing:0px;word-spacing:0px;writing-mode:lr-tb;text-anchor:middle;fill:#000000;fill-opacity:1;stroke:none;stroke-width:0.99999994" />
      <path
         d="m 118.40493,21.157734 h -1.21791 v -3.441916 h 6.59259 v 16.41529 h 1.27086 v 3.441916 h -6.19544 l -0.4501,-0.979622 q -0.13238,0.132381 -0.42362,0.344192 -0.26476,0.185333 -0.68839,0.397144 -0.42362,0.185334 -0.97962,0.317715 -0.556,0.158858 -1.24438,0.158858 -1.40324,0 -2.54172,-0.556002 -1.13848,-0.582478 -1.93277,-1.535624 -0.79429,-0.979622 -1.24439,-2.250484 -0.42362,-1.270861 -0.42362,-2.647627 0,-1.535624 0.50305,-2.780009 0.50305,-1.270861 1.35029,-2.144578 0.84724,-0.873718 1.95925,-1.350291 1.112,-0.476573 2.32991,-0.476573 1.40324,0 2.17105,0.397145 0.79429,0.370667 1.16496,0.608954 z m -3.78611,9.66384 q 0,0.608954 0.13238,1.191432 0.13238,0.582478 0.37067,1.032575 0.26476,0.450097 0.60895,0.741336 0.3442,0.291239 0.79429,0.291239 0.74134,0 1.29734,-0.820765 0.58248,-0.820764 0.58248,-2.250483 0,-0.741336 -0.13238,-1.376767 -0.13238,-0.63543 -0.39715,-1.112003 -0.23828,-0.476573 -0.60895,-0.741336 -0.34419,-0.264763 -0.76781,-0.264763 -0.84724,0 -1.37677,0.900194 -0.50305,0.900193 -0.50305,2.409341 z"
         id="path1587"
         inkscape:connector-curvature="0"
         style="font-style:normal;font-variant:normal;font-weight:normal;font-stretch:normal;font-size:64px;line-height:1.39999998;font-family:'ChunkFive Ex';-inkscape-font-specification:'ChunkFive Ex, Normal';font-variant-ligatures:normal;font-variant-caps:normal;font-variant-numeric:normal;font-feature-settings:normal;text-align:center;letter-spacing:0px;word-spacing:0px;writing-mode:lr-tb;text-anchor:middle;fill:#000000;fill-opacity:1;stroke:none;stroke-width:0.99999994" />
      <path
         d="m 134.37054,37.573024 h -7.41336 v -3.468392 h 1.112 v -6.32783 h -1.112 v -3.441916 h 6.1425 v 9.769746 h 1.27086 z M 127.69851,20.46935 q 0,-0.450096 0.18534,-0.926669 0.18533,-0.476573 0.52952,-0.873717 0.37067,-0.397145 0.9002,-0.635431 0.556,-0.264763 1.24438,-0.264763 0.68839,0 1.21791,0.264763 0.556,0.238286 0.92667,0.635431 0.37067,0.397144 0.556,0.873717 0.21181,0.476573 0.21181,0.926669 0,1.112004 -0.74133,1.906292 -0.74134,0.767812 -2.17106,0.767812 -0.63543,0 -1.16495,-0.238287 -0.50305,-0.238286 -0.9002,-0.608954 -0.37066,-0.397144 -0.58247,-0.873717 -0.21182,-0.476573 -0.21182,-0.953146 z"
         id="path1589"
         inkscape:connector-curvature="0"
         style="font-style:normal;font-variant:normal;font-weight:normal;font-stretch:normal;font-size:64px;line-height:1.39999998;font-family:'ChunkFive Ex';-inkscape-font-specification:'ChunkFive Ex, Normal';font-variant-ligatures:normal;font-variant-caps:normal;font-variant-numeric:normal;font-feature-settings:normal;text-align:center;letter-spacing:0px;word-spacing:0px;writing-mode:lr-tb;text-anchor:middle;fill:#000000;fill-opacity:1;stroke:none;stroke-width:0.99999994" />
      <path
         style="font-style:normal;font-variant:normal;font-weight:normal;font-stretch:normal;font-size:64px;line-height:1.39999998;font-family:'ChunkFive Ex';-inkscape-font-specification:'ChunkFive Ex, Normal';font-variant-ligatures:normal;font-variant-caps:normal;font-variant-numeric:normal;font-feature-settings:normal;text-align:center;letter-spacing:0px;word-spacing:0px;writing-mode:lr-tb;text-anchor:middle;fill:#000000;fill-opacity:1;stroke:none;stroke-width:0.99999994"
         d="m 100.713,23.964611 c -1.006104,0 -1.941264,0.158192 -2.806161,0.475907 -0.864893,0.300063 -1.615637,0.750834 -2.251067,1.350961 -0.635431,0.60013 -1.137851,1.332038 -1.508519,2.196931 -0.370668,0.84724 -0.555898,1.809446 -0.555898,2.886145 0,1.270862 0.211458,2.365027 0.635079,3.282872 0.42362,0.900194 0.962094,1.641922 1.615176,2.224401 0.670732,0.56483 1.420668,0.979547 2.250256,1.24431 0.82959,0.282411 1.65903,0.423385 2.488624,0.423385 1.37676,0 2.61271,-0.167202 3.70706,-0.50257 0.71748,-0.231444 1.41186,-0.571771 2.08382,-1.015646 -0.17762,-0.309152 -0.34412,-0.631484 -0.49854,-0.967166 -0.31272,-0.710735 -0.51322,-1.508569 -0.65528,-2.351255 l -0.0299,-0.03475 c -0.35302,0.300067 -0.70626,0.538565 -1.05927,0.715075 -0.35302,0.158857 -0.68824,0.281807 -1.00595,0.370059 -0.31772,0.08825 -0.61769,0.141524 -0.90011,0.159177 -0.26476,0.01766 -0.51227,0.02668 -0.74173,0.02668 -0.56483,0 -1.01479,-0.0795 -1.35016,-0.238357 -0.335364,-0.158858 -0.600094,-0.353103 -0.794264,-0.582565 -0.19415,-0.229458 -0.33513,-0.46796 -0.42338,-0.71507 -0.0706,-0.247115 -0.12388,-0.458574 -0.15918,-0.635084 h 8.340104 c 0.1059,-0.300063 0.1854,-0.618063 0.23835,-0.953431 0.053,-0.353016 0.0792,-0.706259 0.0792,-1.059274 0,-0.900194 -0.14097,-1.729629 -0.42338,-2.488617 -0.28242,-0.776636 -0.70615,-1.447074 -1.27097,-2.011899 -0.56483,-0.564826 -1.27051,-1.006583 -2.11775,-1.324298 -0.82959,-0.317715 -1.7918,-0.475907 -2.88615,-0.475907 z m 0.15917,3.573747 c 0.42362,0 0.75884,0.06228 1.00595,0.185839 0.26477,0.123557 0.45901,0.290759 0.58256,0.502569 0.14121,0.194163 0.23793,0.423646 0.29088,0.688413 0.053,0.24711 0.08,0.494622 0.08,0.741732 h -3.997944 c 0.0177,-0.158857 0.0529,-0.362112 0.10584,-0.609223 0.0706,-0.247115 0.17634,-0.476598 0.31755,-0.688412 0.15885,-0.229458 0.36211,-0.423703 0.60922,-0.582561 0.264774,-0.158857 0.599984,-0.238357 1.005954,-0.238357 z"
         id="path1604"
         inkscape:connector-curvature="0" />
    </g>
  </g>
  <g
     inkscape:groupmode="layer"
     id="layer2"
     inkscape:label="tagline" />
</svg>
