<svg xmlns="http://www.w3.org/2000/svg" viewBox="0 0 152.7 100.69"><path d="M142.587 67.756c-.618 0-1.218.07-1.8.212a9.555 9.555 0 00-1.616.502c-.494.194-.944.398-1.35.61-.406.211-.741.397-1.006.555v3.657c1.943-1.568 3.332-1.792 5.056-1.803.724 0 1.325.097 1.801.29.477.195.715.592.715 1.193v.926a3.17 3.17 0 00-.264-.211 2.32 2.32 0 00-.53-.318 3.478 3.478 0 00-.795-.265 3.666 3.666 0 00-1.032-.132c-.742 0-1.447.114-2.118.344-.67.23-1.263.555-1.774.98-.495.423-.891.935-1.191 1.535-.283.6-.424 1.27-.424 2.012 0 .777.15 1.448.45 2.013.318.547.724.997 1.218 1.35.494.353 1.05.618 1.668.794a6.814 6.814 0 001.88.265c.23 0 .503-.027.82-.08a4.8 4.8 0 00.953-.264c.336-.124.654-.292.954-.503.317-.23.6-.513.846-.848l.636 1.192h5.666v-3.389h-1.589V73.21c0-1.06-.229-1.942-.688-2.648a4.864 4.864 0 00-1.72-1.668 6.714 6.714 0 00-2.305-.874 12.058 12.058 0 00-2.461-.264zm.238 8.42c.282 0 .512.035.688.105.194.07.353.15.477.239a.934.934 0 01.264.265c.07.07.115.123.133.158v1.006c-.124.194-.335.388-.635.582-.3.195-.654.292-1.06.292s-.74-.115-1.006-.344a1.134 1.134 0 01-.397-.9c0-.406.124-.742.37-1.007.248-.265.636-.397 1.166-.397zM24.904 68.153a8.075 8.075 0 00-2.806.476 6.19 6.19 0 00-2.251 1.351 6.497 6.497 0 00-1.509 2.197c-.37.847-.556 1.81-.556 2.886 0 1.27.212 2.365.635 3.283.424.9.962 1.642 1.616 2.224.67.565 1.42.98 2.25 1.245a7.68 7.68 0 002.488.423c1.377 0 2.613-.167 3.708-.503a8.53 8.53 0 002.083-1.015c-.177-.31-.344-.632-.498-.967-.313-.711-.513-1.509-.655-2.352l-.03-.034c-.353.3-.707.538-1.06.715a7.08 7.08 0 01-1.006.37 4.4 4.4 0 01-.9.159 11.2 11.2 0 01-.741.027c-.565 0-1.015-.08-1.35-.239a2.322 2.322 0 01-.795-.582 2.315 2.315 0 01-.423-.715 8.307 8.307 0 01-.16-.635h8.34c.107-.3.186-.618.239-.954.053-.353.08-.706.08-1.06 0-.9-.142-1.729-.424-2.488a5.43 5.43 0 00-1.271-2.012c-.565-.564-1.27-1.006-2.118-1.324-.83-.318-1.792-.476-2.886-.476zm.16 3.574c.423 0 .758.062 1.005.186.265.123.46.29.583.502.14.194.238.424.29.689.053.247.08.494.08.741h-3.997c.017-.158.052-.362.105-.609.071-.247.177-.476.318-.688.159-.23.362-.424.61-.583.264-.159.6-.238 1.005-.238zM1.35 63.255h8.367v3.494H8.313V78.24h3.416v-3.362h4.448v6.884H1.35V78.24h1.456V66.75H1.35zM42.384 74.507q-.026-.477-.132-.953-.08-.503-.265-.9-.185-.424-.503-.662-.318-.265-.768-.265-.582 0-1.032.291-.424.292-.715.768-.292.477-.45 1.086-.133.609-.133 1.244 0 1.35.742 2.25.74.874 2.065.874 1.006 0 1.747-.397.741-.424 1.377-1.112l2.33 2.7q-.477.504-1.139 1.007-.662.476-1.509.847-.82.37-1.8.609-.98.238-2.039.238-1.456 0-2.78-.423-1.324-.45-2.33-1.324-.98-.9-1.588-2.224-.583-1.324-.583-3.098 0-1.747.53-3.018.556-1.298 1.456-2.118.9-.848 2.065-1.245 1.191-.397 2.462-.397.662 0 1.192.159.556.159.953.397.423.238.715.503.29.265.45.45l.45-1.27h3.124v5.983zM48.143 68.523h1.43v-2.435l4.871-1.563v3.998h2.515v3.442h-2.515v4.713q0 .185-.026.37v.398q0 .53.132.953.159.397.741.397.265 0 .768-.132.53-.159.9-.318v3.39q-.291.131-.741.21-.45.107-.927.16-.476.053-.9.08-.397.052-.635.052-1.483 0-2.33-.397-.821-.397-1.218-1.112-.397-.715-.503-1.747-.106-1.033-.133-2.304v-4.713h-1.43zM58.588 68.523h6.408v6.381q0 1.721.29 2.542.319.794 1.14.794.688 0 1.164-.556.503-.556.503-1.456v-4.21h-1.747v-3.495h6.857v9.717h1.298v3.522h-5.004l-.715-1.668q-.212.238-.53.608-.291.345-.741.662-.424.318-1.033.53-.609.238-1.456.238-1.509 0-2.542-.397-1.006-.397-1.641-1.191-.61-.795-.874-2.013-.265-1.217-.265-2.859v-3.654h-1.112zM86.656 75.301c0-.388-.044-.776-.132-1.165a3.574 3.574 0 00-.397-1.059 2.29 2.29 0 00-.61-.741 1.16 1.16 0 00-.767-.291c-.494 0-.936.273-1.324.82-.37.548-.556 1.298-.556 2.251 0 .494.044.953.132 1.377.089.423.212.794.371 1.112.177.317.38.565.609.741.247.177.512.265.794.265.565 0 1.015-.3 1.35-.9.354-.6.53-1.404.53-2.41zM76.383 86.538h1.112V72.045h-1.112v-3.522h6.063l.45.927c.124-.088.283-.194.477-.318.212-.14.45-.264.715-.37a5.35 5.35 0 01.9-.318 4.367 4.367 0 011.112-.132c1.024 0 1.924.185 2.7.556.795.37 1.448.873 1.96 1.509.53.635.927 1.377 1.191 2.224.265.83.398 1.712.398 2.647 0 1.06-.16 2.013-.477 2.86-.3.83-.724 1.535-1.27 2.118a5.437 5.437 0 01-1.907 1.35 5.985 5.985 0 01-2.383.477 7.187 7.187 0 01-1.456-.133 5.534 5.534 0 01-1.033-.317 4.936 4.936 0 01-.635-.345 6.944 6.944 0 00-.318-.238v5.518h1.43v3.468h-7.917zM118.405 65.346h-1.218v-3.442h6.593V78.32h1.27v3.442h-6.195l-.45-.98q-.132.132-.424.344-.264.185-.688.397-.424.186-.98.318-.556.159-1.244.159-1.403 0-2.542-.556-1.138-.583-1.933-1.536-.794-.98-1.244-2.25-.424-1.271-.424-2.648 0-1.536.503-2.78.504-1.27 1.35-2.144.848-.874 1.96-1.35 1.112-.477 2.33-.477 1.403 0 2.171.397.794.37 1.165.609zm-3.786 9.664q0 .61.132 1.192.133.582.37 1.032.266.45.61.741.344.292.794.292.741 0 1.297-.821.583-.82.583-2.25 0-.742-.132-1.377-.133-.636-.398-1.112-.238-.477-.609-.742-.344-.264-.767-.264-.848 0-1.377.9-.503.9-.503 2.41zM134.37 81.762h-7.413v-3.469h1.112v-6.328h-1.112v-3.442h6.143v9.77h1.27zM127.7 64.658q0-.45.185-.927.185-.476.53-.874.37-.397.9-.635.556-.265 1.244-.265t1.218.265q.556.238.927.635.37.398.556.874.211.477.211.927 0 1.112-.741 1.906-.741.768-2.171.768-.635 0-1.165-.238-.503-.239-.9-.61-.37-.396-.583-.873-.211-.477-.211-.953zM100.713 68.153a8.075 8.075 0 00-2.806.476 6.19 6.19 0 00-2.251 1.351 6.497 6.497 0 00-1.509 2.197c-.37.847-.556 1.81-.556 2.886 0 1.27.212 2.365.635 3.283.424.9.963 1.642 1.616 2.224.67.565 1.42.98 2.25 1.245a7.68 7.68 0 002.488.423c1.377 0 2.613-.167 3.708-.503a8.53 8.53 0 002.083-1.015c-.177-.31-.344-.632-.498-.967-.313-.711-.513-1.509-.655-2.352l-.03-.034c-.353.3-.707.538-1.06.715a7.081 7.081 0 01-1.006.37 4.4 4.4 0 01-.9.159c-.264.018-.512.027-.741.027-.565 0-1.015-.08-1.35-.239a2.322 2.322 0 01-.795-.582 2.315 2.315 0 01-.423-.715 8.306 8.306 0 01-.16-.635h8.34c.107-.3.186-.618.24-.954.052-.353.078-.706.078-1.06 0-.9-.14-1.729-.423-2.488a5.43 5.43 0 00-1.271-2.012c-.565-.564-1.27-1.006-2.118-1.324-.83-.318-1.792-.476-2.886-.476zm.16 3.574c.423 0 .758.062 1.005.186.265.123.46.29.583.502.14.194.238.424.29.689.054.247.08.494.08.741h-3.997a6.42 6.42 0 01.105-.609c.071-.247.177-.476.318-.688.159-.23.362-.424.61-.583.264-.159.6-.238 1.005-.238z" color="#000"/><path d="M117.86 8.262a1.1 1.1 0 00-.95 1.629c1.625 2.962 2.254 4.94 2.565 6.472-4.727-.349-6.77-2.924-7.245-4.35a1.1 1.1 0 00-2.13.18c-.53 3.445.355 5.655 1.16 7.118-1.703.37-3.169 1.47-4.403 2.892-1.834 2.113-2.891 5.34-2.574 7.799a1.1 1.1 0 002.037.424s.488-.801 1.328-1.438a2.96 2.96 0 01.702-.38 1.1 1.1 0 00-.104.18c-.497 1.108-.939 2.867-1.32 4.593-.382 1.725-.666 3.233-.711 4.045a1.1 1.1 0 00.771 1.111l.371.115c-.504 2.74-.848 5.66-.78 8.485-2.292.362-4.1 1.072-5.419 1.806-1.9 1.058-2.879 2.215-2.879 2.215l-.299.36 1.551 14.09a1.1 1.1 0 102.188-.243l-1.436-13.037c.161-.18.563-.693 1.946-1.463 1.604-.893 4.09-1.804 7.638-1.78 6.756.05 11.463 7.005 11.463 7.005l.637.969.933-.686s5.662-4.113 12.895-4.412c6.453-.267 10.273 3.781 10.955 4.535l-4.477 8.608a1.1 1.1 0 101.954 1.015l5.212-10.025-.47-.563s-2.742-3.285-7.434-4.902l.303-2.21.256.07a1.1 1.1 0 001.35-.805l1.624-6.688a1.1 1.1 0 00-.802-1.326l-1.186-.307.24-1.756c.287.336.575.659.864 1.096.833 1.261 1.554 2.848 1.73 3.957a1.1 1.1 0 002.178-.037c.22-1.764.639-3.737.845-5.656.207-1.919.234-3.82-.574-5.465-1.009-2.055-2.752-3.393-4.66-4.035 2.738-2.605 3.615-6.65 3.98-7.928a1.1 1.1 0 00-1.39-1.352c-3.349 1.06-5.82 1.431-8.44.475.448-.507.8-1.004 1.5-1.49 1.082-.75 2.088-1.27 2.088-1.27a1.1 1.1 0 00.032-1.94c-2.438-1.356-5.58-2.568-8.598-2.68-1.51-.057-3.006.168-4.324.87-.72.383-1.35.942-1.903 1.614-2.684-4.476-8.57-5.485-8.57-5.485a1.1 1.1 0 00-.219-.02zm2.105 3.031c1.997.75 4.563 2.065 5.48 5.133a1.1 1.1 0 002.078.09c.489-1.234 1.184-1.955 2.061-2.422.877-.467 1.976-.662 3.209-.615 1.856.069 3.898.767 5.775 1.6-.228.144-.224.115-.468.284-1.216.844-2.61 1.849-3.141 3.39a1.1 1.1 0 00.52 1.327c3.142 1.695 6.22 1.413 9.49.596-.684 2.267-1.778 5.317-4.397 6.422a1.1 1.1 0 00.485 2.113c1.986-.102 4.234 1.027 5.33 3.26.483.985.552 2.503.363 4.261-.055.512-.16 1.096-.244 1.635-.17-.29-.306-.604-.486-.877-.482-.729-.995-1.383-1.514-1.91-.52-.527-.997-.958-1.717-1.154a1.1 1.1 0 00-1.379.912l-.472 3.451c-4.007-1.074-10.702-2.956-14.633-4.627-4.323-1.837-10.804-4.03-14.276-5.174.11-.384.28-.951.35-1.234a1.1 1.1 0 00-.647-1.283c-1.926-.798-3.603-.254-4.834.5.372-1.25.917-2.517 1.62-3.326 1.448-1.67 2.72-2.454 4.416-2.254a1.1 1.1 0 00.964-1.807s-1.176-1.407-1.59-3.826c1.748 1.67 4.448 3.078 8.6 2.953a1.1 1.1 0 001.065-1.178c-.108-1.504-.827-3.658-2.008-6.24zm-8.543 19.838c1.897.64 5.198 1.781 9.252 3.283-.143.589-.274 1.174-.623 2.424-.246.88-.52 1.788-.776 2.506-.133.374-.157.402-.27.629l-9.097-2.83c.09-.416.17-.849.264-1.25.416-1.783.86-3.396 1.25-4.762zm1.55 2.967a2.121 1.471 26.041 00-1.226.683 2.121 1.471 26.041 001.26 2.252 2.121 1.471 26.041 002.55-.39 2.121 1.471 26.041 00-1.26-2.252 2.121 1.471 26.041 00-1.323-.293zm9.774 1.086c.883.342 1.942.68 2.7 1.002 1.008.428 2.494.804 3.74 1.238-.254.945-.498 1.922-.65 3.074a39.741 39.741 0 00-.233 2.168c-.047.625-.1.987-.014 1.502a1.1 1.1 0 00.805.883l10.601 2.803-.302 2.205a15.581 15.581 0 00-3.688-.297c-7.066.292-11.93 3.462-13.148 4.295-1.363-1.837-5.83-7.121-12.674-7.17-.383-.003-.747.013-1.11.029-.041-2.472.259-5.093.705-7.603l9.758 3.037a1.1 1.1 0 001.131-.301c.553-.592.698-1.169.983-1.969.284-.8.564-1.74.818-2.648.325-1.165.42-1.6.578-2.248zm3.149 2.535a1.1 1.1 0 00-1 .69c-1.378 3.287-2.228 5.548-4.223 8.974a1.1 1.1 0 00.367 1.486s.505.316 1.045.705c.27.195.547.409.754.59.207.181.344.382.289.28a1.1 1.1 0 101.941-1.036c-.231-.434-.493-.646-.783-.9-.29-.254-.61-.497-.914-.717-.17-.122-.174-.116-.324-.219 1.681-3.029 2.646-5.377 3.877-8.314a1.1 1.1 0 00-1.03-1.54zm5.365.392a247.129 247.129 0 009.38 2.838l-.644 4.71-9.51-2.516c.003-.156-.002-.13.012-.313.043-.57.118-1.296.217-2.043.146-1.102.359-1.937.545-2.676zm2.129 1.961a2.121 1.471 26.041 00-1.42.684 2.121 1.471 26.041 001.261 2.254 2.121 1.471 26.041 002.551-.39 2.121 1.471 26.041 00-1.26-2.253 2.121 1.471 26.041 00-1.132-.295z" color="#000"/></svg>