<svg xmlns="http://www.w3.org/2000/svg" width="150" height="100">
  <path d="M101.93.81l.91 1.67a44.24 44.24 0 012.64 5.28c.17.47.16.92.23 1.31a12.3 12.3 0 01-4.74-2.74c-1.4-1.27-3.18-2.67-7.52-3.38l-.9-.15-.2.89c-.98 4.18.33 8.36.9 10-2.73-.04-5.46.71-7.54 3.11a28.48 28.48 0 00-3.47 5.03c-1 1.88-1.76 3.8-1.53 5.58l.27 2.08 1.41-1.55s1.4-1.53 3.4-2.76c1.76-1.1 3.83-1.8 5.77-1.25l-1.24 4.43c-1.17-.6-1.82-.98-1.82-.98l-.94-.57-.45 1a38.55 38.55 0 00-1.84 6.41 46.2 46.2 0 00-1 5.64l-.04.76 3 .93a65.72 65.72 0 00-1.28 12.75 39.75 39.75 0 00-4.57-.06c-6.97.3-11.33 2.4-11.33 2.4l-.7.32 4.33 19.37h2l-4.06-18.17c.95-.43 7.2-3.11 17.25-1.57 10.65 1.64 16.9 10.25 16.9 10.25l.58.8.8-.59s8.13-5.94 18.59-6.37c9.35-.39 15.26 5.65 16.33 6.82l-4.25 8.3a9.07 9.07 0 012.28-.2l4.31-8.4-.4-.5s-3.98-4.77-10.76-6.93l.81-4.41 1.34.35 2.23-11.75-.7-.32-.65-.28.73-3.93c.64.46 1.4 1.1 2.15 2.06 1.2 1.53 2.3 3.59 2.81 5.84l.78 3.45 1.1-3.36a30.5 30.5 0 001.32-7.31c.16-2.72-.04-5.47-1.08-7.6-1.5-3.04-4.16-5-7.01-5.73 4.2-3.4 5.55-9.4 6.12-11.41l.5-1.74-1.72.54c-5.05 1.6-7.52 1.04-11.64-1.07.24-.27.34-.5.75-.8.76-.5 1.74-.98 2.7-1.37a30.93 30.93 0 013.76-1.24l2.4-.59-2.16-1.2c-3.37-1.88-6.8-3.19-10.2-3.13-3.01.05-5.93 1.34-8.48 4.05-1.56-2.52-4.12-4.28-6.82-5.46a31.92 31.92 0 00-8.47-2.3zm3.5 2.53a28 28 0 016.08 1.8c2.88 1.26 5.44 3.12 6.53 5.64l.64 1.49 1-1.27c2.48-3.1 5.1-4.24 7.95-4.29 2.2-.03 4.57.78 7 1.9-.66.2-.75.18-1.57.5-1.04.44-2.13.95-3.06 1.59a5.03 5.03 0 00-2.1 2.4l-.28.8.73.39c4.42 2.38 7.68 3.24 12.41 2.14-.9 3.11-2.57 8.27-6.96 10.12l.42 1.87a8.73 8.73 0 018.12 4.95c.78 1.6 1.04 4.1.89 6.62-.07 1.26-.4 2.24-.62 3.4a17.48 17.48 0 00-1.91-3.1c-1.36-1.73-2.74-2.94-4.14-3.32l-1.02-.28-1.1 5.9a157.36 157.36 0 00-22.65-6.9c-9.5-2.2-16-4.77-19.68-6.47.7-2.57 1.3-4.62 1.57-5.73l.2-.77-.72-.34c-3-1.44-6.14-.26-8.4 1.14-.68.42-1.13.84-1.66 1.26.22-.65.48-1.33.85-2.03a26.88 26.88 0 013.23-4.67c1.98-2.28 4.44-2.73 7.27-2.4l1.58.19-.56-1.5s-1.76-5.16-1.3-9.2c2.98.66 4.3 1.52 5.5 2.6 1.36 1.24 2.97 2.77 7.06 3.75l1.3.31-.1-1.32a11.24 11.24 0 00-.62-3.42c-.3-.84-1.13-2.35-1.87-3.75zM88.62 29.6c.2.12.7.37 1.22.63a157.38 157.38 0 00-2.22 9.41l-1.26-.4a51.88 51.88 0 012.26-9.64zm3 1.5c2.6 1.15 6.78 2.81 12.86 4.59-.1.55-.36 1.85-.85 3.82a47.5 47.5 0 01-.94 3.36c-.23.7-.4 1-.55 1.29L89.48 40.2a134 134 0 012.13-9.1zm14.74 5.11c1.67.47 3.1.94 5 1.38 2.1.49 3.76.98 5.62 1.48a35.16 35.16 0 00-1.2 5.34 63.9 63.9 0 00-.55 4.49c0 .34-.03.6.02.9l.1.62 16.84 4.45-.82 4.4c-1.75-.4-3.65-.61-5.7-.53a36.93 36.93 0 00-18.86 6.3c-1.33-1.7-7.4-8.79-17.64-10.36-.42-.07-.84-.12-1.26-.17-.1-3.75.43-8.1 1.2-12.37l13.81 4.3.42-.45c.6-.64.85-1.45 1.2-2.5.35-1.06.69-2.3.98-3.51.49-1.96.71-3.15.84-3.77zm12.48 3.35a143.5 143.5 0 0115.25 5.02l-1.55 8.37-15.36-4.06.09-1c.1-.9.24-2.02.43-3.18.33-2.1.8-4.15 1.14-5.15z"/>
  <path d="M94.7 35.94a3 2.09 26.04 00-2.01.98 3 2.09 26.04 001.79 3.19 3 2.09 26.04 003.62-.55 3 2.09 26.04 00-1.8-3.2 3 2.09 26.04 00-1.59-.42zM110.18 40.77l-.3.93c-1.46 4.43-3.97 8.58-6.66 12.29l-.56.78.78.57s2.13 1.58 3.46 2.9l.69.7 1.37-1.38-.69-.7c-1.22-1.21-2.4-2.06-2.98-2.5 2.56-3.61 4.99-7.63 6.44-12.05l.3-.93zM122.38 44.42a3 2.09 26.04 00-2 .97 3 2.09 26.04 001.78 3.2 3 2.09 26.04 003.62-.56 3 2.09 26.04 00-1.78-3.2 3 2.09 26.04 00-1.6-.41zM127.76 71.9a2.84 2.84 0 00-2.08.86 2.89 2.89 0 00-.7 1.75 2.85 2.85 0 00.77 1.78c.25.24.55.44.88.6.34.15.72.23 1.13.23.93 0 1.63-.25 2.12-.75.47-.51.71-1.13.71-1.86 0-.29-.07-.59-.2-.9a2.7 2.7 0 00-1.44-1.47 2.71 2.71 0 00-1.19-.25z"/>
  <g>
    <path d="M2 68.43v3.4h1.42v15.9H2v3.43h14.43v-6.7H12.1v3.27H8.78v-15.9h1.36v-3.4zM53.68 71.83l-4.74 1.52v4.93h-1.4v3.35h1.4v4.58a27.8 27.8 0 00.13 2.25 4.4 4.4 0 00.48 1.7 2.6 2.6 0 001.19 1.07c.55.27 1.31.4 2.27.4a18.28 18.28 0 001.5-.13 7.6 7.6 0 001.62-.36v-3.3c-.24.1-.54.21-.88.31-.33.08-.58.12-.75.12-.38 0-.62-.12-.72-.38a3.35 3.35 0 01-.13-.92v-.4l.03-.36v-4.58h2.45v-3.35h-2.45zM114.75 71.83v3.35h1.18V79c-.24-.15-.62-.35-1.13-.6-.5-.25-1.2-.38-2.11-.38a5.74 5.74 0 00-4.18 1.77 7.08 7.08 0 00-1.8 4.8 7.37 7.37 0 001.62 4.76 5.89 5.89 0 001.88 1.5 5.59 5.59 0 004.64.08 3.8 3.8 0 001.08-.72l.44.95h6.03v-3.35h-1.24V71.83zm-.67 9.54c.27 0 .52.09.74.26.25.17.45.4.6.72.17.3.3.67.38 1.08.09.41.13.86.13 1.34 0 .93-.19 1.66-.56 2.2-.36.52-.78.79-1.27.79-.29 0-.54-.1-.76-.28a2.86 2.86 0 01-.96-1.73 5.11 5.11 0 01-.13-1.16h-.01c0-.98.17-1.76.5-2.35.34-.58.79-.87 1.34-.87zM139.47 77.53a9.3 9.3 0 00-3.32.7 13.58 13.58 0 00-2.3 1.13v3.56a6.9 6.9 0 014.92-1.76c.7 0 1.3.1 1.76.29.46.18.7.57.7 1.16v.9a3.1 3.1 0 00-.78-.52c-.2-.1-.46-.19-.77-.26a6.15 6.15 0 00-3.07.2 4.73 4.73 0 00-2.89 2.46 4.54 4.54 0 00-.4 1.96c0 .75.14 1.4.43 1.96.3.53.7.97 1.18 1.3.49.35 1.03.61 1.63.78.6.18 1.21.26 1.83.26a4.97 4.97 0 002.65-.82c.3-.23.59-.5.83-.83l.62 1.16H148v-3.3h-1.55v-5.02a4.64 4.64 0 00-2.34-4.2 6.53 6.53 0 00-2.24-.85c-.83-.18-1.63-.26-2.4-.26zm.23 8.2a1.83 1.83 0 011.14.33c.12.08.2.17.25.26.07.07.12.12.13.15v.98a2.02 2.02 0 01-1.65.85c-.4 0-.72-.1-.98-.33a1.1 1.1 0 01-.38-.88c0-.4.12-.72.36-.98s.62-.39 1.13-.39zM24.93 77.92c-.98 0-1.9.15-2.74.46a6.03 6.03 0 00-3.65 3.45 6.94 6.94 0 00-.55 2.81c0 1.24.2 2.3.62 3.2.4.87.94 1.6 1.57 2.16a7.48 7.48 0 004.6 1.62c1.36 0 2.56-.16 3.63-.48a8.3 8.3 0 002.02-1c-.17-.3-.33-.6-.48-.93a9.7 9.7 0 01-.64-2.3l-.03-.03a5.19 5.19 0 01-2 1.06c-.32.09-.6.14-.89.15l-.72.03a3.1 3.1 0 01-1.31-.23 2.26 2.26 0 01-1.19-1.26 8.08 8.08 0 01-.15-.62h8.12a5.24 5.24 0 00.3-1.96 6.9 6.9 0 00-.4-2.42 5.29 5.29 0 00-3.3-3.25 7.85 7.85 0 00-2.81-.46zm.15 3.47c.41 0 .74.06.98.19.26.12.45.28.57.48.13.2.23.42.28.67.05.24.08.5.08.73h-3.9l.1-.6c.08-.24.18-.46.31-.67.16-.22.36-.4.6-.56.26-.16.59-.24.98-.24zM98.71 77.92c-.98 0-1.89.15-2.73.46a6.03 6.03 0 00-3.66 3.45 6.94 6.94 0 00-.54 2.81c0 1.24.2 2.3.62 3.2.41.87.94 1.6 1.57 2.16a7.48 7.48 0 004.61 1.62c1.34 0 2.55-.16 3.6-.48a8.3 8.3 0 002.04-1c-.17-.3-.33-.6-.48-.93a9.7 9.7 0 01-.64-2.3l-.03-.03a5.19 5.19 0 01-2 1.06c-.32.09-.61.14-.89.15l-.72.03a3.1 3.1 0 01-1.31-.23 2.26 2.26 0 01-1.19-1.26 8.08 8.08 0 01-.15-.62h8.11a5.24 5.24 0 00.31-1.96 6.9 6.9 0 00-.4-2.42 5.29 5.29 0 00-3.3-3.25 7.86 7.86 0 00-2.82-.46zm.16 3.47c.4 0 .74.06.98.19.26.12.44.28.56.48.14.2.24.42.29.67.05.24.08.5.08.73h-3.9l.1-.6a2.1 2.1 0 01.91-1.23c.26-.16.58-.24.98-.24zM39.03 78.04c-.83 0-1.63.13-2.4.39a5.87 5.87 0 00-3.43 3.27 7.6 7.6 0 00-.51 2.94c0 1.15.19 2.16.56 3.02.4.85.92 1.58 1.55 2.16.65.57 1.41 1 2.27 1.29a8.82 8.82 0 006.44-.41 7.97 7.97 0 001.47-.83l.16-.14-.07-.08c-.28-.4-.5-.86-.68-1.32-.3-.77-.42-1.45-.52-2.01l-.05-.06c-.41.45-.86.81-1.34 1.09-.48.26-1.05.38-1.7.38a2.5 2.5 0 01-2.01-.85 3.33 3.33 0 01-.72-2.2 3.9 3.9 0 01.57-2.26c.18-.3.42-.55.7-.74.28-.2.62-.29 1-.29.29 0 .54.1.74.26.21.16.37.37.5.65a5.74 5.74 0 01.39 1.8h3.78v-5.82h-3.04l-.44 1.23c-.1-.12-.25-.26-.44-.44a3.8 3.8 0 00-.7-.48 4.03 4.03 0 00-2.09-.54zM84.5 78.07a4.25 4.25 0 00-1.96.44c-.27.1-.5.22-.7.36-.19.1-.35.22-.47.31l-.44-.9h-6.82v3.43h2v14.1h-1.08v3.38h7.71V95.8h-1.39v-5.37l.31.23a5.39 5.39 0 001.62.65 7 7 0 001.42.12c.82 0 1.59-.15 2.32-.46a5.3 5.3 0 001.85-1.31c.54-.57.94-1.26 1.24-2.07a8.7 8.7 0 00.08-5.36 6.44 6.44 0 00-1.17-2.16 5.26 5.26 0 00-1.9-1.47 6.04 6.04 0 00-2.62-.54zm-1.32 3.63a1.13 1.13 0 01.74.29c.24.19.44.42.6.72a4.89 4.89 0 01.51 2.16 4.6 4.6 0 01-.51 2.35c-.33.58-.77.87-1.32.87a1.3 1.3 0 01-.77-.25 2.4 2.4 0 01-.59-.72 6.25 6.25 0 01-.49-2.42 3.86 3.86 0 01.53-2.2c.4-.53.81-.8 1.3-.8zM57.71 78.28v3.4h1.08v3.55c0 1.07.1 1.99.26 2.79a4.88 4.88 0 00.85 1.96 3.78 3.78 0 001.6 1.16c.67.25 1.49.38 2.48.38a3.89 3.89 0 002.42-.75c.29-.2.52-.42.72-.64l.51-.6.69 1.63h5.8v-3.43h-2.18v-9.45h-6.67v3.4h1.7v4.1a2 2 0 01-.5 1.4c-.3.37-.68.55-1.13.55-.53 0-.91-.25-1.11-.77a8.27 8.27 0 01-.28-2.48v-6.2zM124.26 78.29v3.35h1.08v6.16h-1.08v3.36h7.21v-3.37h-1.23v-9.5z"/>
  </g>
</svg>
