<svg xmlns="http://www.w3.org/2000/svg" width="150" height="50" xmlns:v="https://vecta.io/nano"><path d="M0 18.4v3.5h1.46v16.33H0v3.53h14.83v-6.89h-4.45v3.36H6.96V21.9h1.4v-3.5zm53.1 3.5l-4.88 1.56v5.06H46.8v3.44h1.43l.11 6.75c.06 1.19.49 2.53 1.64 3.07 1.67.86 4.81.25 5.64-.05v-3.39c-.67.24-1.43.62-2.15.35-.49-.36-.36-1.06-.4-1.6l.03-5.13h2.52v-3.44H53.1zm62.74 0v3.44h1.21v3.92a5.66 5.66 0 0 0-3.33-1 6.08 6.08 0 0 0-5.7 4.12c-1.07 3-.22 6.8 2.48 8.66a5.48 5.48 0 0 0 6.55-.26l.46.98h6.2V38.3h-1.28V21.9zm13.37.05a2.8 2.8 0 0 0-2.6 1.6 2.41 2.41 0 0 0 0 2.18 2.87 2.87 0 0 0 2.48 1.6c.82.03 1.72-.17 2.3-.79.72-.76.96-1.96.48-2.9a2.9 2.9 0 0 0-2.66-1.69zm12.03 5.8c-2.07 0-4.02.85-5.78 1.88v3.66a7.13 7.13 0 0 1 4.58-1.8c.9 0 1.92-.05 2.66.53.49.5.3 1.24.34 1.87-1.32-1.16-3.3-1.1-4.87-.54a4.7 4.7 0 0 0-3.26 4.21 3.97 3.97 0 0 0 1.4 3.43 5.94 5.94 0 0 0 5.23 1.05 4 4 0 0 0 2.16-1.48l.63 1.2H150v-3.4h-1.59l-.02-5.64a4.86 4.86 0 0 0-2.92-4.12c-1.3-.63-2.8-.82-4.23-.85zm-117.69.4c-2.22-.02-4.57.87-5.86 2.75-1.34 1.87-1.53 4.35-.96 6.53a6.36 6.36 0 0 0 3.6 4.15c1.9.84 4.06.77 6.06.34 1-.21 1.97-.64 2.82-1.2-.67-1.01-.93-2.21-1.18-3.36a5.48 5.48 0 0 1-4.79 1.14 2.39 2.39 0 0 1-1.65-2.04h8.35c.6-1.88.35-4.05-.72-5.71-1.22-1.86-3.53-2.64-5.67-2.6zm75.81 0c-2.22-.02-4.57.87-5.86 2.75-1.34 1.87-1.54 4.35-.96 6.53a6.36 6.36 0 0 0 3.6 4.15c1.9.84 4.06.77 6.06.34 1-.21 1.96-.64 2.82-1.2-.67-1.01-.93-2.21-1.18-3.36a5.48 5.48 0 0 1-4.79 1.14 2.39 2.39 0 0 1-1.65-2.04h8.34c.6-1.88.36-4.05-.71-5.71-1.22-1.86-3.53-2.64-5.67-2.6zm-61.32.13c-1.91-.02-3.9.7-5.1 2.26-1.36 1.69-1.62 4-1.28 6.08a6.42 6.42 0 0 0 3.8 4.87 9.22 9.22 0 0 0 8.87-1.2c-.83-1.05-1.07-2.32-1.34-3.54-.45.37-.98.92-1.59 1.18-1.2.51-2.88.46-3.71-.68-.8-1.1-.8-2.58-.38-3.82.3-.96 1.2-1.89 2.27-1.7 1.44.27 1.45 2.75 1.46 2.77h3.89v-5.98H41.8l-.45 1.27a4.32 4.32 0 0 0-3.3-1.51zm46.71.02a5.48 5.48 0 0 0-3.2 1.14l-.45-.92h-7v3.52h2.04v12.95h-1.1v3.47h7.9v-3.47h-1.42V41c1.5 1.17 3.63 1.27 5.4.72 2.36-.74 3.85-3.14 4.03-5.53.27-2.56-.53-5.49-2.8-6.95-1-.66-2.2-.96-3.4-.95zm-27.51.22v3.5h1.11l.07 5.27c.13 1.57.64 3.34 2.12 4.15 1.2.67 2.66.79 4.01.6a4.59 4.59 0 0 0 2.77-1.83c.38.22.83 1.55.83 1.55h5.94v-3.53h-2.24v-9.71H65v3.5h1.74l-.01 4.53c-.06 1-1.09 1.99-2.12 1.6-.84-.34-.84-1.4-.93-2.18l-.03-7.45zm68.37 0v3.44h1.1v6.33h-1.1v3.47h7.41v-3.47h-1.27v-9.77zm-10.46 3.17c1.14.06 1.63 1.32 1.8 2.28.23 1.4.18 3.17-1.08 4.08-.74.53-1.66 0-2.03-.71a5.49 5.49 0 0 1-.19-4.51c.26-.6.8-1.16 1.5-1.14zm-91.44.03c1.26 0 1.94.6 1.96 2.12h-4c.12-1.2.79-2.11 2.04-2.12zm75.81 0c1.26 0 1.94.6 1.96 2.12h-4c.12-1.2.78-2.11 2.04-2.12zm-16.12.32c1.15.1 1.66 1.39 1.83 2.38.18 1.3.09 2.84-.88 3.83-.75.74-1.96.23-2.33-.65a5.72 5.72 0 0 1-.13-4.41c.28-.58.82-1.15 1.51-1.15zm58.07 4.13c.6 0 1.41.27 1.57.9v.87c-.6.9-2.13 1.26-2.88.35-.55-.76-.04-2.05.94-2.1a2.62 2.62 0 0 1 .37-.02z"/><path d="M19.65 45a.73.73 0 0 0-.33.08 1 1 0 0 0-.3.22 1.1 1.1 0 0 0-.2.3.84.84 0 0 0-.07.34c0 .16.03.3.08.4a.74.74 0 0 0 .23.27c.1.08.22.16.36.24l.39.23c.1.07.2.14.25.23.06.09.09.2.09.36a.6.6 0 0 1-.15.43c-.1.1-.24.16-.42.16a.77.77 0 0 1-.31-.07 1.39 1.39 0 0 1-.32-.23l-.22-.54h-.07l.04.84c.14.08.28.14.4.18a1.7 1.7 0 0 0 .48.06c.1 0 .2-.02.32-.06a.96.96 0 0 0 .31-.19.95.95 0 0 0 .24-.3.97.97 0 0 0 .09-.43.95.95 0 0 0-.09-.43.84.84 0 0 0-.26-.3 3.92 3.92 0 0 0-.45-.29 1.9 1.9 0 0 1-.44-.3.57.57 0 0 1-.14-.42c0-.15.04-.27.13-.38.08-.1.2-.15.33-.15.1 0 .19.02.27.06a1.23 1.23 0 0 1 .27.19l.21.54h.07l-.04-.82a2.02 2.02 0 0 0-.36-.16 1.26 1.26 0 0 0-.39-.06zm10.3 0a1.27 1.27 0 0 0-.6.15c-.19.1-.35.24-.5.4a2.52 2.52 0 0 0-.34.6 1.98 1.98 0 0 0-.12.7 1.96 1.96 0 0 0 .18.85 1.43 1.43 0 0 0 1.3.8c.18 0 .32-.01.44-.03a1.18 1.18 0 0 0 .3-.09 2.04 2.04 0 0 0 .28-.13l.05-.82h-.08l-.27.55a1.49 1.49 0 0 1-.3.18.98.98 0 0 1-.96-.1 1.34 1.34 0 0 1-.38-.53 2.26 2.26 0 0 1 0-1.58c.1-.21.24-.38.4-.5a.97.97 0 0 1 .59-.2c.1 0 .2.03.29.07a1.11 1.11 0 0 1 .3.2l.28.63h.08l-.02-.9a2.13 2.13 0 0 0-.26-.13 1.77 1.77 0 0 0-.66-.12zm28.12 0c-.22 0-.43.05-.62.14-.2.1-.37.22-.52.39-.15.16-.26.36-.35.58a2.12 2.12 0 0 0 .08 1.59 1.43 1.43 0 0 0 1.31.8c.2 0 .4-.04.6-.12s.37-.18.5-.31v-.81l.32-.22v-.08h-1.12v.08l.4.2v.85a1.25 1.25 0 0 1-.29.1 1.9 1.9 0 0 1-.28.01c-.23 0-.44-.06-.63-.19a1.31 1.31 0 0 1-.44-.55c-.11-.24-.16-.53-.16-.87a1.48 1.48 0 0 1 .15-.68 1.12 1.12 0 0 1 1.04-.65c.12 0 .22.02.3.05.1.04.2.11.33.21l.3.58h.06l-.02-.85a3.05 3.05 0 0 0-.26-.13 1.4 1.4 0 0 0-.3-.09 2.26 2.26 0 0 0-.4-.03zm-24.81 0a1.36 1.36 0 0 0-.38.03c-.55.11-.97.57-1.12 1.1-.18.62-.1 1.34.32 1.85a1.44 1.44 0 0 0 1.58.45c.49-.18.84-.64.96-1.14.15-.62.05-1.32-.38-1.8a1.42 1.42 0 0 0-.98-.49zm38.31 0a1.36 1.36 0 0 0-.37.03c-.55.11-.98.57-1.13 1.1-.17.62-.1 1.34.32 1.85a1.43 1.43 0 0 0 1.58.45c.5-.18.84-.64.97-1.14.14-.62.05-1.32-.38-1.8a1.42 1.42 0 0 0-.99-.49zm-71.5.05v.08l.38.22-.1 2.81-.35.2v.09h1v-.08l-.36-.2.06-2.5 1.06 2.8h.2l1.08-2.84.05 2.54-.34.2v.08h1.04v-.08l-.32-.21-.07-2.82.38-.2v-.09h-.8L1.94 47.8.9 45.05zm4.28 0v.08l.36.21v1.8c0 .31.06.57.16.77a1.02 1.02 0 0 0 .42.45c.17.1.37.14.6.14s.43-.05.6-.14a1 1 0 0 0 .42-.45c.1-.2.15-.46.15-.78v-1.8l.36-.2v-.08H6.3v.08l.45.2v1.9c0 .24-.04.42-.1.56a.67.67 0 0 1-.28.31.7.7 0 0 1-.36.1.95.95 0 0 1-.45-.1.76.76 0 0 1-.32-.37c-.08-.17-.12-.4-.12-.68v-1.71l.36-.2v-.09zm3.64 0v.08l.36.22v2.81l-.37.2v.09h1.13v-.08l-.45-.2v-2.38l1.87 2.68h.16v-3.14l.36-.2v-.08H9.93v.08l.45.2v2.2l-1.73-2.48zm3.58 0v.08l.36.21v2.82l-.36.2v.09h1.3c.22 0 .43-.05.62-.14a1.56 1.56 0 0 0 .52-.39c.14-.16.25-.36.33-.58a2.25 2.25 0 0 0 .12-.74c0-.3-.06-.56-.18-.8a1.36 1.36 0 0 0-.54-.55 1.7 1.7 0 0 0-.85-.2zm3.46 0v.08l.36.21v1.8c0 .31.05.57.15.77a1.02 1.02 0 0 0 .42.45c.18.1.38.14.6.14.23 0 .43-.05.6-.14a1 1 0 0 0 .43-.45c.1-.2.15-.46.15-.78v-1.8l.36-.2v-.08h-1.13v.08l.45.2v1.9c0 .24-.03.42-.1.56a.67.67 0 0 1-.27.31.72.72 0 0 1-.37.1.94.94 0 0 1-.45-.1.76.76 0 0 1-.32-.37c-.07-.17-.11-.4-.11-.68v-1.71l.36-.2v-.09zm7.18 0v.08l.36.21v2.82l-.36.2v.09h2.33v-.94h-.07l-.28.66h-1.21v-1.33h.77l.22.41h.07v-1.12h-.07l-.22.42h-.77v-1.22h1.09l.28.6h.07v-.88zm2.88 0v.08l.28.18.94 1.45-.96 1.42-.33.19v.08h1.02v-.08l-.37-.19v-.02l.79-1.18.77 1.18v.02l-.33.19v.08h1.15v-.08l-.32-.2-1-1.5.92-1.35.29-.19v-.08h-.95v.08l.34.2v.02l-.75 1.09-.72-1.09v-.03l.36-.19v-.08zm10.2 0v.08l.36.21v2.82l-.36.2v.09h2.25V47.3h-.07l-.31.86h-1.1v-2.83l.4-.2v-.09zm2.84 0v.08l.36.21v2.82l-.36.2v.09h1.13v-.08l-.36-.21v-2.82l.36-.2v-.09zm1.65 0v1.04h.07l.31-.76h.74v2.83l-.45.2v.09h1.3v-.08l-.45-.21v-2.83h.74l.3.76h.08v-1.04zm3.14 0v.08l.36.21v1.8c0 .31.05.57.15.77a1.02 1.02 0 0 0 .42.45c.17.1.38.14.6.14.23 0 .43-.05.6-.14a1 1 0 0 0 .42-.45c.1-.2.16-.46.16-.78v-1.8l.35-.2v-.08h-1.12v.08l.45.2v1.9c0 .24-.04.42-.1.56a.67.67 0 0 1-.27.31.72.72 0 0 1-.37.1.94.94 0 0 1-.45-.1.76.76 0 0 1-.32-.37c-.08-.17-.12-.4-.12-.68v-1.71l.36-.2v-.09zm3.65 0v.08l.36.21v2.82l-.36.2v.09h1.1v-.08l-.33-.22V46.9h.42l.87 1.56h.65v-.08l-.3-.19-.85-1.42c.19-.08.34-.2.45-.35a.85.85 0 0 0 .17-.52c0-.26-.09-.47-.27-.61a1.12 1.12 0 0 0-.75-.23zm4.11 0v.08l.36.21v2.82l-.36.2v.09h2.24V47.3h-.07l-.3.86h-1.1v-2.83l.4-.2v-.09zm2.81 0v.08l.37.21v2.82l-.37.2v.09h2.34v-.94h-.07l-.28.66h-1.22v-1.33h.77l.23.41h.07v-1.12h-.07l-.23.42h-.77v-1.22h1.09l.28.6h.07v-.88zm6.42 0v.08l.36.21v2.82l-.36.2v.09h2.33v-.94h-.07l-.28.66h-1.21v-1.33h.76l.23.41h.07v-1.12h-.07l-.23.42h-.76v-1.22h1.08l.28.6h.08v-.88zm2.93 0v.08l.35.22v2.81l-.36.2v.09h1.13v-.08l-.45-.2v-2.38l1.87 2.68h.16v-3.14l.36-.2v-.08h-1.13v.08l.45.2v2.2l-1.72-2.48zm3.66 0c-.07-.02-.1.01-.08.08l.36.21v2.82l-.3.17c-.05.01-.08.06-.06.12h.78c.28 0 .56.02.84-.04.55-.12.99-.56 1.16-1.1.16-.5.17-1.08-.1-1.55a1.44 1.44 0 0 0-1.2-.7h-1.4zm-33.38.2a.86.86 0 0 1 .28.05c.43.16.68.6.78 1.01.1.43.1.9-.07 1.32-.13.34-.46.63-.84.61a.92.92 0 0 1-.4-.09c-.43-.2-.65-.68-.73-1.13-.06-.47-.05-1 .25-1.4a.89.89 0 0 1 .73-.37zm38.32 0a.86.86 0 0 1 .28.05c.42.16.67.6.78 1.01.09.43.1.9-.07 1.32-.14.34-.46.63-.84.61a.91.91 0 0 1-.4-.09c-.43-.2-.66-.68-.73-1.13-.07-.47-.06-1 .24-1.4a.89.89 0 0 1 .74-.37zm-59.1.08h.45c.27 0 .49.06.67.18a1.11 1.11 0 0 1 .43.5c.1.21.14.46.14.75 0 .28-.04.53-.14.75-.1.2-.23.37-.4.49-.18.1-.4.17-.63.17h-.52zm35 0h.29a.72.72 0 0 1 .5.17c.12.11.19.26.19.46a.63.63 0 0 1-.66.65h-.32zm19.85 0h.45c.13 0 .27.02.4.06.38.1.66.42.76.79.12.4.11.85-.03 1.25-.13.36-.44.66-.83.71-.25.04-.5.02-.75.03zM21.47 46.4l-.35.35.35.35.36-.35zm28.41 0l-.35.35.35.35.35-.35z" fill="#cc330a"/></svg>