<?xml version="1.0" encoding="UTF-8" standalone="no"?>
<svg
   xmlns:dc="http://purl.org/dc/elements/1.1/"
   xmlns:cc="http://creativecommons.org/ns#"
   xmlns:rdf="http://www.w3.org/1999/02/22-rdf-syntax-ns#"
   xmlns:svg="http://www.w3.org/2000/svg"
   xmlns="http://www.w3.org/2000/svg"
   height="75"
   width="150"
   id="svg6"
   version="1.1"
   viewBox="0 0 150 75">
  <defs
     id="defs10" />
  <metadata
     id="metadata12">
    <rdf:RDF>
      <rdf:Description
         dc:title="Lectupedia - Logo"
         dc:description="Lectupedia"
         dc:publisher="Lectupedia"
         dc:date="2020-12-01"
         dc:format="image/svg+xml"
         dc:language="es">
        <dc:creator>
          <rdf:Bag>
            <rdf:li>Paula Peña</rdf:li>
            <rdf:li>pauladorada</rdf:li>
            <rdf:li>Andrés Peña</rdf:li>
          </rdf:Bag>
        </dc:creator>
      </rdf:Description>
      <cc:Work
         rdf:about="">
        <dc:format>image/svg+xml</dc:format>
        <dc:type
           rdf:resource="http://purl.org/dc/dcmitype/StillImage" />
        <dc:title></dc:title>
        <cc:license
           rdf:resource="http://creativecommons.org/licenses/by-nc-nd/4.0/" />
      </cc:Work>
      <cc:License
         rdf:about="http://creativecommons.org/licenses/by-nc-nd/4.0/">
        <cc:permits
           rdf:resource="http://creativecommons.org/ns#Reproduction" />
        <cc:permits
           rdf:resource="http://creativecommons.org/ns#Distribution" />
        <cc:requires
           rdf:resource="http://creativecommons.org/ns#Notice" />
        <cc:requires
           rdf:resource="http://creativecommons.org/ns#Attribution" />
        <cc:prohibits
           rdf:resource="http://creativecommons.org/ns#CommercialUse" />
      </cc:License>
    </rdf:RDF>
  </metadata>
  <path d="M118.41406.0039l.56641 1.0293c.99638 1.81783 1.49644 2.8124 1.75 3.50782.12613.34594.12347.66829.16992.95898-1.62062-.53936-2.45901-1.15031-3.23242-1.85352-.93263-.84796-2.0972-1.7629-4.9668-2.23828l-.55469-.0918-.1289.54883c-.66528 2.85876.30516 5.80793.64648 6.77344-1.83418-.05015-3.66678.34794-5.0625 1.95703-.76583.8829-1.63338 2.08437-2.29687 3.32813-.6635 1.24376-1.15738 2.51226-1.00781 3.67187l.16601 1.28516.87305-.95703s.93627-1.0217 2.26367-1.84375c1.18777-.73558 2.59112-1.13084 3.90625-.74024-.22708.9141-.45448 1.89088-.68164 2.85157-.6839-.35058-1.03906-.56446-1.03906-.56446l-.50196-.30664-.3164.4961c-.96184 1.50816-1.41396 3.26028-1.64649 4.76757-.23253 1.5073-.24263 2.80256-.26953 3.28711l-.02539.45704 1.95313.65234c-.44162 2.42224-.84056 4.85814-1.10938 7.25.0917.01919.19018.04564.2832.0664-1.59248-.3526-3.00692-.508-4.19726-.54101-.55159-.0153-1.05627-.0052-1.51172.01953-1.82179.09888-2.89453.46094-2.89453.46094l-.34766.11914-.05078.36523-2.35156 17.04883c.40515-.10637.8209-.1753 1.24219-.22851l2.23632-16.22266c.19901-.06207.75899-.26584 2.23047-.3457 1.69443-.09197 4.16396.04383 7.23438.97656 6.02107 1.82908 8.64648 7.0957 8.64648 7.0957l.26367.52735.53125-.25391s5.45424-2.57735 11.61524-1.9082c5.80325.63029 8.47508 4.84175 8.71484 5.22851l-2.56836 5.35742c.0821-.03373.15046-.07239.23438-.10547.43981-.18147.89664-.32346 1.36133-.44726l2.35937-4.92383-.16211-.27539s-1.73648-2.90652-5.33789-4.70898c.87384-1.8847 1.66158-3.76874 2.4043-5.62305l.5664.17773 2.80274-7.4414-.44336-.2539s-.13597-.06908-.15235-.07813c.32001-.98204.62785-1.94445.86915-2.77344.45672.26322 1.00981.58772 1.6289 1.38086.79585 1.01958 1.52946 2.3911 1.86914 3.89648l.48047 2.1289.67578-2.07616c.41698-1.28054.77609-3.04784.88086-4.84375.10477-1.79591-.02828-3.61456-.7168-5.01758-1.03854-2.11633-2.934-3.41278-4.92968-3.82227 2.92281-2.2134 3.94717-6.21875 4.33984-7.59375l.30664-1.07422-1.06445.3379c-3.33904 1.05725-5.04971.60367-7.76367-.78516.16067-.18229.2298-.34791.50586-.53516.50496-.34252 1.15746-.66077 1.79882-.92187 1.28274-.5222 2.49805-.82031 2.49805-.82031l1.48438-.36329-1.33399-.74414c-2.23497-1.24467-4.50807-2.10772-6.74219-2.0703-2.02575.03391-3.96009.99329-5.66796 2.84765-1.01468-1.72512-2.6762-2.98597-4.50391-3.78907-2.06285-.90641-4.22138-1.35258-5.61328-1.52734l-1.16602-.14648zm2.21875 1.66407c1.23538.22601 2.60163.4606 4.07813 1.10937 1.91133.83984 3.62505 2.07747 4.35351 3.76758l.39453.91797.625-.78125c1.64629-2.06214 3.3967-2.83136 5.30274-2.86328 1.49502-.02503 3.11918.53348 4.77539 1.3086-.46542.14493-.55666.1356-1.1543.3789-.6897.28078-1.40686.62412-2.02148 1.04101-.61462.4169-1.15431.90365-1.38672 1.58008l-.16602.48242.44922.2422c2.96001 1.59685 5.1139 2.15823 8.29102 1.39843-.59113 2.05421-1.70295 5.57057-4.67774 6.82617l.26368 1.1504c2.0473-.10505 4.31902 1.05513 5.42773 3.31445.5267 1.07332.69376 2.73918.5957 4.41992-.0525.89925-.27782 1.60477-.43945 2.42968-.38492-.82137-.83144-1.57625-1.32227-2.20507-.89483-1.14641-1.81409-1.94492-2.7246-2.19336l-.57422-.1582-.16016.57617c-.27316.97834-.62218 2.12304-1.03711 3.38476-2.02696-.95366-6.68792-2.89902-14.27539-4.65234-6.51244-1.50491-10.93816-3.29072-13.33398-4.41406.29931-1.27687.60154-2.54596.90039-3.73829l.11914-.4746-.44336-.21094c-1.9717-.94315-4.03278-.1673-5.52344.75586-.60463.37444-.60676.48038-1.02148.83398.15406-.49336.12624-.86305.41601-1.40625.60897-1.14156 1.44101-2.29215 2.14649-3.10547 1.32927-1.53249 2.97503-1.83335 4.86132-1.61133l.98047.11524-.34765-.92188s-1.18899-3.47774-.85743-6.18554c2.02642.44057 2.91237 1.02623 3.71485 1.75586.90446.82236 1.96474 1.8271 4.66992 2.4746l.79492.19141-.05664-.8164c-.059-.82611-.11261-1.43248-.41211-2.25391-.20079-.55071-.74559-1.54877-1.22461-2.4629zM109.75977 18.9414c.57855.33611 3.55852 1.9534 9.62109 3.82226-.0759.3983-.23661 1.27489-.55664 2.63477-.19275.81902-.41166 1.66343-.62695 2.3418-.15942.50227-.28689.72591-.38672.92382l-9.52344-3.17968c.0256-.63548.0322-1.50955.21875-2.71876.19286-1.25016.60066-2.62186 1.25391-3.82421zm2.26562 3.5371a1.99614 1.38473 26.07276 00-1.33398.64454 1.99614 1.38473 26.07276 001.18554 2.1211 1.99614 1.38473 26.07276 002.40039-.3672 1.99614 1.38473 26.07276 00-1.18554-2.1211 1.99614 1.38473 26.07276 00-1.06641-.27733zm8.51367.60547c1.42062.41528 2.75108.83791 4.44141 1.22852 1.20977.27956 2.08587.56022 3.14453.84375-.61824 1.00472-1.04281 2.21908-1.27539 3.43164-.14884.77597-.2399 1.51484-.28711 2.11328-.0472.59844-.06802.99415-.01172 1.33203l.06055.36328 10.04883 3.15625c-.73424 1.81947-1.51027 3.66444-2.35743 5.49024-1.00352-.39207-2.12808-.6888-3.375-.82422-6.13573-.6664-11.10616 1.5432-11.78125 1.85156-.37722-.71003-2.9772-5.42331-9.05468-7.26953-.51093-.1552-.9985-.27878-1.47852-.39453.14432.03513.2826.06339.42969.10156.25928-2.34515.62999-4.7551 1.0625-7.15234l8.18555 2.73242.26171-.28125c.3967-.42523.55785-.97461.78907-1.70312.23121-.72851.45361-1.59547.65039-2.43164.31566-1.34134.46104-2.13916.54687-2.5879zm8.76563 2.38868c6.69147 1.88554 9.90232 3.49987 10.36914 3.75586l-2.02539 5.37695-9.90625-3.11133c-.003-.18407-.01182-.32684.01758-.69922.0437-.55439.13022-1.2542.26953-1.98047.24858-1.29598.72212-2.58812 1.27539-3.3418zm-6.07422 1.13671l-.23438.55274s-1.49553 3.5555-6.00586 7.8086l-.49218.46484.51953.4336s1.37475 1.16406 2.16601 2.45116l.31446.51172 1.02343-.6289-.31445-.51172c-.7774-1.26455-1.62483-1.93882-2-2.26563 4.31036-4.20674 5.89453-7.79492 5.89453-7.79492l.23438-.55273-1.10547-.46876zm8.16406 1.83985a1.99614 1.38473 26.07276 00-.12695.00195 1.99614 1.38473 26.07276 00-1.1543.64258 1.99614 1.38473 26.07276 001.18555 2.1211 1.99614 1.38473 26.07276 002.40039-.3672 1.99614 1.38473 26.07276 00-1.18555-2.12109 1.99614 1.38473 26.07276 00-1.11914-.27734zM0 43.40234v3.4961h1.45703v16.33593H0v3.52149h14.82617v-6.88477h-4.44726v3.36328H6.96289V46.89844h1.4043v-3.4961H0zm53.09375 3.4961l-4.8711 1.5625v5.05664h-1.42968v3.4414h1.42969v4.7129c.01765.84724.0622 1.61435.1328 2.30273.07061.68838.2372 1.27147.50196 1.74805.26477.47657.67158.84656 1.21875 1.11132.56483.26477 1.34163.39844 2.33008.39844.15886 0 .37-.01743.63477-.05273.2824-.01765.58267-.04478.90039-.08008.31771-.0353.62571-.0876.92578-.1582.30006-.05296.54803-.12464.74218-.2129v-3.38867c-.2471.1059-.54737.21246-.90039.31836-.33536.08825-.59106.13086-.76757.13086-.38832 0-.63629-.13172-.7422-.39648-.08824-.28242-.13085-.60011-.13085-.95313v-.39648c.01768-.12356.02539-.24754.02539-.3711v-4.71289h2.51563v-3.4414h-2.51563v-6.61914zm62.74414 0v3.4414h1.2168v3.91797c-.24712-.15886-.63454-.3603-1.16407-.60742-.51187-.26476-1.23638-.39844-2.17187-.39844-.81194 0-1.58874.15885-2.33008.47657-.74134.31771-1.39416.76908-1.95898 1.35156-.56483.58248-1.01425 1.29729-1.34961 2.14453-.33537.82959-.50391 1.75555-.50391 2.7793 0 .91784.14142 1.8012.42383 2.64843.30007.84725.71461 1.59692 1.24414 2.25.52953.63543 1.17461 1.14684 1.93359 1.53516.75899.37067 1.60553.55664 2.54102.55664.45892 0 .87347-.05425 1.24414-.16016.37067-.08825.69806-.19285.98047-.3164.28242-.1412.51099-.27488.6875-.39844.19416-.1412.33557-.2555.42383-.34375l.45117.98047h6.19531V63.3125h-1.27148V46.89844h-6.5918zm13.36914.05273c-.45892 0-.87347.08716-1.24414.26367-.35302.15886-.65328.37196-.90039.63672-.22946.26477-.40574.55533-.5293.87305-.12356.31771-.18554.62767-.18554.92773 0 .31772.07167.63541.21289.95313.1412.31771.33492.60828.58203.87305.26476.2471.56502.45051.90039.60937.35301.15886.74044.23828 1.16406.23828.95315 0 1.67765-.2557 2.17188-.76758.49422-.52952.74218-1.16491.74218-1.90625 0-.30006-.07168-.61002-.21289-.92773-.12355-.31772-.30952-.60828-.55664-.87305-.24711-.26476-.55511-.47786-.92578-.63672-.35301-.1765-.75982-.26367-1.21875-.26367zm12.0293 5.79883c-.61779 0-1.2183.06972-1.80078.21094-.56483.12355-1.10336.2921-1.61524.5039-.49422.19416-.94364.39757-1.34961.60938-.40597.21181-.7411.39583-1.00586.55469v3.65625c1.94251-1.5678 3.33172-1.7917 5.05664-1.80274.72369 0 1.32421.09686 1.80079.29102.47657.19416.71484.59127.71484 1.1914v.92774c-.0353-.0353-.12247-.10699-.26367-.2129-.12356-.1059-.30179-.2105-.53125-.3164-.21181-.1059-.4772-.19502-.79492-.26562-.30007-.08825-.64293-.13282-1.03125-.13282-.74133 0-1.44646.1143-2.11719.34375-.67073.22947-1.26352.55685-1.77539.98047-.49423.42362-.89135.93503-1.19141 1.53516-.28241.60013-.42383 1.27038-.42383 2.01172 0 .77663.15111 1.44884.45118 2.01367.31772.54718.72256.99659 1.21679 1.3496.49422.35302 1.05019.61842 1.66797.79493.61778.1765 1.24543.26563 1.88086.26563.22946 0 .50259-.02714.82031-.08008.31771-.05295.63542-.14207.95313-.26563.33537-.12355.65306-.29014.95312-.50195.31772-.22946.60055-.5123.84766-.84766l.63476 1.1914H150V63.3672h-1.58789v-5.16407c0-1.05905-.23053-1.94044-.68945-2.64648-.44128-.70603-1.01467-1.262-1.72071-1.66797-.68838-.42362-1.45549-.71614-2.30273-.875-.84724-.1765-1.66861-.26367-2.46289-.26367zm-117.68164.39648c-1.0061 0-1.94175.15885-2.80664.47657-.8649.30006-1.61652.75143-2.25196 1.35156-.63543.60013-1.13714 1.33042-1.5078 2.19531-.37068.84724-.55665 1.81002-.55665 2.88672 0 1.27086.2131 2.36536.63672 3.2832.42362.9002.9602 1.64213 1.61328 2.22461.67073.56483 1.42236.97938 2.25195 1.24414.8296.28242 1.6587.42383 2.48829.42383 1.37676 0 2.61267-.16854 3.70703-.5039.71747-.23145 1.41203-.57175 2.08398-1.01563-.17762-.30915-.34558-.63111-.5-.9668-.31272-.71073-.51224-1.50887-.6543-2.35156l-.0293-.0332c-.35301.30006-.70752.53833-1.06054.71484-.35302.15886-.68814.28089-1.00586.36914-.31771.08825-.61798.1425-.90039.16016-.26476.01766-.51077.02539-.74023.02539-.56483 0-1.0162-.07943-1.35157-.23828-.33536-.15886-.5988-.35257-.79297-.58203-.19416-.22946-.33557-.46774-.42382-.71485-.0706-.24711-.12486-.45825-.16016-.63476h8.3418c.1059-.30007.18533-.61776.23828-.95313.05295-.35301.07812-.70753.07812-1.06054 0-.9002-.14141-1.7293-.42383-2.48829-.2824-.77663-.7047-1.44689-1.26953-2.01171-.56482-.56483-1.2719-1.0065-2.11914-1.32422-.82959-.31772-1.79041-.47657-2.88476-.47657zm75.8086 0c-1.00612 0-1.94175.15885-2.80665.47657-.8649.30006-1.61457.75143-2.25 1.35156-.63543.60013-1.1391 1.33042-1.50977 2.19531-.37066.84724-.55468 1.81002-.55468 2.88672 0 1.27086.21114 2.36536.63476 3.2832.42362.9002.96216 1.64213 1.61524 2.22461.67073.56483 1.4204.97938 2.25 1.24414.82959.28242 1.65868.42383 2.48828.42383 1.37676 0 2.61268-.16854 3.70703-.5039.71748-.23145 1.41202-.57175 2.08398-1.01563-.17762-.30915-.34362-.63111-.49804-.9668-.31272-.71073-.51419-1.50887-.65625-2.35156l-.0293-.0332c-.35302.30006-.70558.53833-1.05859.71484-.35302.15886-.69011.28089-1.00782.36914-.31772.08825-.61601.1425-.89843.16016-.26476.01766-.51273.02539-.74219.02539-.56483 0-1.01424-.07943-1.34961-.23828-.33537-.15886-.60075-.35257-.79492-.58203-.19415-.22946-.33558-.46774-.42383-.71485-.0706-.24711-.1229-.45825-.1582-.63476h8.33984c.1059-.30007.18533-.61776.23828-.95313.053-.35301.07813-.70753.07813-1.06054 0-.9002-.13947-1.7293-.42188-2.48829-.28242-.77663-.70666-1.44689-1.27148-2.01171-.56483-.56483-1.26995-1.0065-2.11719-1.32422-.82959-.31772-1.79237-.47657-2.88672-.47657zm-61.32032.13282c-.84724 0-1.6686.13172-2.4629.39648-.77663.26476-1.46432.67931-2.06444 1.24414-.60013.54718-1.08637 1.25425-1.45704 2.11914-.35301.84724-.5293 1.85263-.5293 3.01758 0 1.1826.19372 2.21511.58204 3.09766.40597.88254.93676 1.62448 1.58984 2.2246.67074.58248 1.44754 1.02416 2.33008 1.32422.88254.28242 1.8085.42383 2.7793.42383.70603 0 1.38598-.07942 2.03906-.23828.65308-.15886 1.2536-.36226 1.80078-.60937.56483-.24712 1.06654-.52994 1.50781-.84766.0651-.04948.10556-.09896.16797-.14844-.0228-.03136-.05797-.04804-.08008-.08007-.28715-.41604-.51615-.8866-.69922-1.36133-.3027-.785-.42543-1.48241-.53124-2.06055l-.04883-.05664c-.42362.45892-.88273.83087-1.37696 1.11328-.49422.26476-1.07536.39648-1.74609.39648-.88254 0-1.57218-.29057-2.0664-.87304-.49423-.60013-.74024-1.35176-.74024-2.25196 0-.42361.0426-.83817.13086-1.24414.1059-.40597.25701-.76822.45117-1.08593.19416-.31772.43243-.57342.71484-.76758.30007-.19416.64489-.29102 1.0332-.29102.30007 0 .55578.08912.76759.26563.2118.15886.3784.3797.50195.6621.12355.26477.21267.56503.26562.9004.0706.31771.11516.6354.13282.95312h3.89062v-5.98437h-3.12305l-.45117 1.27148c-.1059-.12355-.25506-.27466-.44922-.45117-.19416-.1765-.43243-.3431-.71484-.50195-.26476-.15886-.58246-.29253-.95313-.39844-.35301-.1059-.75013-.1582-1.1914-.1582zm46.70703.02539c-.40597 0-.77596.04456-1.11133.13281-.33536.08825-.63563.1948-.90039.31836-.26476.1059-.50303.22989-.71484.3711-.19416.12355-.353.22815-.47656.3164l-.45118-.92578h-7.0039v3.52148h2.05273v14.49219H75.0332V75h7.91602v-3.46875h-1.42969v-5.51758c.05295.0353.1595.11473.31836.23828.15886.1059.37.2202.63477.34375.2824.12356.62723.23011 1.0332.31836.42362.08825.90985.13281 1.45703.13281.84724 0 1.64148-.15884 2.38281-.47656.74134-.31771 1.37673-.76908 1.90625-1.35156.54718-.58248.96947-1.2876 1.26953-2.11719.31772-.84724.47657-1.80032.47657-2.85937 0-.9355-.13172-1.81885-.39649-2.64844-.26476-.84724-.66188-1.58723-1.1914-2.22266-.51188-.63543-1.1647-1.1391-1.95899-1.50976-.77663-.37067-1.67742-.55664-2.70117-.55664zm-27.51172.21289v3.49414h1.11133v3.6543c0 1.09435.08912 2.04743.26562 2.85937.17651.81194.46708 1.4822.87305 2.01172.42362.52953.97185.92664 1.64258 1.1914.68838.26477 1.53492.39649 2.54102.39649.56482 0 1.05106-.07942 1.45703-.23828.40596-.1412.74883-.31749 1.03125-.5293.30006-.2118.54802-.43265.74218-.6621.21181-.24712.3881-.44857.5293-.60743l.71484 1.66797h5.94532v-3.52148h-2.23828v-9.7168h-6.85743v3.49414h1.74805v4.21094c0 .60013-.16854 1.0844-.5039 1.45507-.31772.37067-.70515.55665-1.16407.55665-.54718 0-.92686-.2654-1.13867-.79493-.19416-.54717-.29102-1.3937-.29102-2.54101v-6.38086h-6.4082zm68.36914 0v3.4414h1.11133v6.32813h-1.11133v3.46875h7.41406V63.2871H131.75v-9.76953h-6.14258zm-10.45898 3.17578c.28241 0 .53812.08912.76758.26562.24711.17651.45052.42448.60937.7422.17651.3177.30823.6877.39649 1.11132.08825.42362.13281.88273.13281 1.37695 0 .95315-.19371 1.70283-.58203 2.25-.37067.54718-.80265.82032-1.29688.82032-.30006 0-.56545-.09686-.79492-.29102-.22946-.19416-.43287-.44017-.60938-.74023-.15886-.30007-.28284-.64489-.37109-1.0332-.08825-.38833-.13086-.78544-.13086-1.19141 0-1.0061.16659-1.81003.50195-2.41016.35302-.60013.81213-.9004 1.37696-.9004zm-91.43555.02734c.42362 0 .75875.062 1.00586.18555.26476.12356.45847.29014.58203.50195.1412.19417.23806.42469.29102.68946.05295.2471.08008.49507.08008.74218h-3.99805c.01765-.15885.05446-.36226.10742-.60937.0706-.24712.1752-.47764.3164-.68945.15886-.22946.36227-.42318.60938-.58204.26476-.15885.59989-.23828 1.00586-.23828zm75.8086 0c.42361 0 .75874.062 1.00585.18555.26477.12356.46044.29014.58399.50195.14121.19417.23806.42469.29101.68946.053.2471.08008.49507.08008.74218h-3.99805c.0177-.15885.05253-.36226.10547-.60937.0706-.24712.1752-.47764.31641-.68945.15885-.22946.36226-.42318.60938-.58204.26477-.15885.59988-.23828 1.00585-.23828zm-16.1211.31836c.28241 0 .53812.09686.76758.29102.24711.19416.45052.44017.60937.74023.17651.30007.30824.65458.39649 1.06055.08825.38832.13281.77574.13281 1.16406 0 1.0061-.17628 1.81003-.5293 2.41016-.33536.60013-.78673.90039-1.35156.90039-.28241 0-.54586-.08912-.79297-.26563-.22946-.1765-.43286-.42447-.60937-.74218-.15886-.31772-.28284-.68771-.3711-1.11133-.08825-.42362-.1328-.88273-.1328-1.37696 0-.95314.18596-1.70282.55663-2.25.38832-.54717.83-.8203 1.32422-.8203zm58.07422 4.13086c.28242 0 .51295.03487.68945.10547.19416.07061.35301.15003.47656.23828s.21073.17542.26368.26367c.0706.0706.11516.12486.13281.16016v1.00586c-.12356.19416-.33471.38787-.63477.58203-.30007.19416-.65457.29102-1.06054.29102-.40597 0-.74109-.1143-1.00586-.34375-.26476-.22947-.39649-.52973-.39649-.9004 0-.40597.12399-.7411.3711-1.00585.24711-.26477.63454-.39649 1.16406-.39649z"/>
</svg>
