<?xml version="1.0" encoding="UTF-8" standalone="no"?>
<svg
   xmlns:dc="http://purl.org/dc/elements/1.1/"
   xmlns:cc="http://creativecommons.org/ns#"
   xmlns:rdf="http://www.w3.org/1999/02/22-rdf-syntax-ns#"
   xmlns:svg="http://www.w3.org/2000/svg"
   xmlns="http://www.w3.org/2000/svg"
   height="75"
   width="150"
   id="svg6"
   version="1.1"
   viewBox="0 0 150 75.000001">
  <metadata
     id="metadata12">
    <rdf:RDF>
      <cc:Work
         rdf:about="">
        <dc:format>image/svg+xml</dc:format>
        <dc:type
           rdf:resource="http://purl.org/dc/dcmitype/StillImage" />
        <dc:title></dc:title>
      </cc:Work>
    </rdf:RDF>
  </metadata>
  <defs
     id="defs10">
    <clipPath
       clipPathUnits="userSpaceOnUse"
       id="clipPath1556">
      <rect
         style="opacity:1;fill:#ead995;fill-opacity:0.58823529;stroke:none;stroke-width:0.37300003;stroke-linecap:round;stroke-linejoin:round;stroke-miterlimit:4;stroke-dasharray:none;stroke-dashoffset:0;stroke-opacity:1;paint-order:markers fill stroke"
         id="rect1558"
         width="28.000002"
         height="28.000006"
         x="45.999958"
         y="-51.463562" />
    </clipPath>
  </defs>
  <g
     id="g916"
     style="display:inline"
     transform="translate(-1.3499989,-15.006255)">
    <path
       id="path902"
       transform="translate(1.3499989,15.006255)"
       d="m 118.41406,0.00390625 0.56641,1.02929685 c 0.99638,1.817824 1.49644,2.8123925 1.75,3.5078125 0.12613,0.345942 0.12347,0.6682944 0.16992,0.9589844 -1.62062,-0.539363 -2.45901,-1.1503126 -3.23242,-1.8535156 -0.93263,-0.847967 -2.0972,-1.7628963 -4.9668,-2.2382813 l -0.55469,-0.091797 -0.1289,0.5488282 c -0.66528,2.858753 0.30516,5.8079235 0.64648,6.7734375 -1.83418,-0.05015 -3.66678,0.3479392 -5.0625,1.9570312 -0.76583,0.882901 -1.63338,2.084362 -2.29687,3.328125 -0.6635,1.243762 -1.15736,2.512264 -1.00781,3.671875 l 0.16601,1.285156 0.87305,-0.957031 c 0,0 0.93627,-1.0217 2.26367,-1.84375 1.18777,-0.73558 2.59112,-1.13084 3.90625,-0.740234 -0.22671,0.912605 -0.45245,1.892347 -0.67969,2.851562 -0.68476,-0.350979 -1.04101,-0.564453 -1.04101,-0.564453 l -0.50196,-0.306641 -0.3164,0.496094 c -0.96184,1.508163 -1.41396,3.260288 -1.64649,4.767578 -0.23253,1.50729 -0.24263,2.802554 -0.26953,3.28711 l -0.0254,0.457031 1.92969,0.644531 c -0.44406,2.426023 -0.80832,4.865126 -1.07813,7.259766 -2.20953,-0.463021 -4.05134,-0.532052 -5.43359,-0.457031 -1.82179,0.09888 -2.894532,0.460936 -2.894532,0.460937 l -0.347656,0.119141 -0.05078,0.365234 -2.382813,17.267578 c 0.40569,-0.111018 0.82228,-0.189715 1.246094,-0.246093 l 2.263667,-16.423829 c 0.19901,-0.06207 0.75899,-0.26584 2.23047,-0.345703 0.42361,-0.02299 0.89628,-0.03195 1.41407,-0.01758 1.55329,0.04312 3.51749,0.294592 5.82031,0.994141 6.02107,1.829084 8.64648,7.095703 8.64648,7.095703 l 0.26367,0.527344 0.53125,-0.253907 c 0,0 5.45424,-2.577352 11.61524,-1.908203 5.80325,0.630292 8.47508,4.841758 8.71484,5.228516 l -2.70312,5.636719 c 0.15353,-0.06571 0.28658,-0.137888 0.44726,-0.201172 0.37729,-0.15561 0.77047,-0.283118 1.16992,-0.396485 l 2.47266,-5.158203 -0.16211,-0.27539 c 0,0 -1.73873,-2.908679 -5.34375,-4.710938 0.86907,-1.875387 1.69077,-3.768908 2.42969,-5.615234 l 0.54687,0.171875 2.80274,-7.441406 -0.44336,-0.253907 c 0,0 -0.13744,-0.07075 -0.1543,-0.08008 0.31716,-0.975418 0.63127,-1.947523 0.8711,-2.771484 0.45672,0.263217 1.00981,0.587723 1.6289,1.380859 0.79585,1.019586 1.52946,2.391102 1.86914,3.896484 l 0.48047,2.128907 0.67578,-2.076172 c 0.41698,-1.280536 0.77609,-3.047839 0.88086,-4.84375 0.10477,-1.79591 -0.0283,-3.614557 -0.7168,-5.017578 -1.03854,-2.11633 -2.934,-3.412779 -4.92968,-3.822266 2.92281,-2.213402 3.94717,-6.218749 4.33984,-7.59375 l 0.30664,-1.0742187 -1.06445,0.3378906 c -3.33904,1.057258 -5.04971,0.6036797 -7.76367,-0.7851562 0.16067,-0.182287 0.2298,-0.3479093 0.50586,-0.5351563 0.50496,-0.342522 1.15746,-0.660773 1.79882,-0.921875 1.28274,-0.522204 2.49805,-0.8203125 2.49805,-0.8203125 L 143.4414,5.4335897 142.10741,4.689449 c -2.23497,-1.244673 -4.50807,-2.1077215 -6.74219,-2.0703125 -2.02575,0.03392 -3.96009,0.9932983 -5.66796,2.8476563 -1.01468,-1.725116 -2.6762,-2.9859685 -4.50391,-3.7890625 -2.06285,-0.90641416 -4.22138,-1.35258274 -5.61328,-1.52734378 z m 2.21875,1.66406255 c 1.23538,0.2260128 2.60163,0.4606049 4.07813,1.109375 1.91133,0.8398357 3.62505,2.0774701 4.35351,3.7675781 l 0.39453,0.9179687 0.625,-0.78125 c 1.64629,-2.062138 3.3967,-2.8313652 5.30274,-2.8632812 1.49502,-0.02503 3.11918,0.5334807 4.77539,1.3085937 -0.46542,0.144933 -0.55666,0.1356063 -1.1543,0.3789063 -0.6897,0.280777 -1.40686,0.6241176 -2.02148,1.0410156 -0.61462,0.416899 -1.15431,0.9036431 -1.38672,1.5800781 l -0.16602,0.4824219 0.44922,0.2421875 c 2.96001,1.5968625 5.1139,2.1582365 8.29102,1.3984375 -0.59113,2.054211 -1.70295,5.570573 -4.67774,6.826172 l 0.26368,1.15039 c 2.0473,-0.105039 4.31902,1.055133 5.42773,3.314454 0.5267,1.07332 0.69376,2.739182 0.5957,4.419922 -0.0525,0.899249 -0.27782,1.604771 -0.43945,2.429687 -0.38492,-0.821371 -0.83144,-1.576258 -1.32227,-2.205078 -0.89483,-1.14641 -1.81409,-1.944918 -2.7246,-2.193359 l -0.57422,-0.158204 -0.16016,0.576172 c -0.27108,0.970873 -0.63092,2.13008 -1.04102,3.38086 -2.02924,-0.95439 -6.68921,-2.896316 -14.27148,-4.648438 -6.51244,-1.504908 -10.93816,-3.29072 -13.33398,-4.414062 0.29944,-1.275297 0.60196,-2.547661 0.90039,-3.738282 l 0.11914,-0.474609 -0.44336,-0.210937 c -1.9717,-0.943147 -4.03278,-0.167305 -5.52344,0.755859 -0.60463,0.374447 -0.60676,0.480378 -1.02148,0.833984 0.15406,-0.493363 0.12624,-0.863049 0.41601,-1.40625 0.60897,-1.141562 1.44101,-2.292152 2.14649,-3.105469 1.32927,-1.5324906 2.97503,-1.8333526 4.86132,-1.6113276 l 0.98047,0.1152344 -0.34765,-0.921875 c 0,0 -1.18899,-3.4777439 -0.85743,-6.1855469 2.02642,0.440573 2.91237,1.0262317 3.71485,1.7558593 0.90446,0.822359 1.96474,1.8271074 4.66992,2.4746094 l 0.79492,0.1914063 -0.0566,-0.8164063 c -0.059,-0.826107 -0.11261,-1.4324772 -0.41211,-2.2539062 -0.20079,-0.550709 -0.74559,-1.5487718 -1.22461,-2.4628906 z M 109.75977,18.941406 c 0.57855,0.336115 3.55852,1.953397 9.62109,3.822266 -0.0759,0.398293 -0.23661,1.274884 -0.55664,2.634766 -0.19275,0.819019 -0.41166,1.663436 -0.62695,2.341796 -0.15942,0.502271 -0.28689,0.725921 -0.38672,0.923828 l -9.52344,-3.179687 c 0.0256,-0.635477 0.0322,-1.509543 0.21875,-2.71875 0.19286,-1.250166 0.60066,-2.621866 1.25391,-3.824219 z m 2.26562,3.53711 a 1.9961413,1.3847275 26.072764 0 0 -1.33398,0.644531 1.9961413,1.3847275 26.072764 0 0 1.18554,2.121094 1.9961413,1.3847275 26.072764 0 0 2.40039,-0.367188 1.9961413,1.3847275 26.072764 0 0 -1.18554,-2.121094 1.9961413,1.3847275 26.072764 0 0 -1.06641,-0.277343 z m 8.51367,0.605468 c 1.42062,0.415279 2.75108,0.837911 4.44141,1.228516 1.20977,0.279558 2.08587,0.560223 3.14453,0.84375 -0.61824,1.004715 -1.04281,2.219075 -1.27539,3.431641 -0.14884,0.775973 -0.2399,1.514839 -0.28711,2.113281 -0.0472,0.598443 -0.068,0.994152 -0.0117,1.332031 l 0.0605,0.363281 10.06445,3.160157 c -0.73183,1.815833 -1.5358,3.664131 -2.3789,5.484375 -1.00256,-0.391301 -2.12387,-0.687016 -3.36915,-0.822266 -6.13573,-0.666405 -11.10616,1.543202 -11.78125,1.851562 -0.37722,-0.71003 -2.9772,-5.423313 -9.05468,-7.269531 -0.35602,-0.108151 -0.70186,-0.202398 -1.04297,-0.291015 0.25956,-2.348371 0.61426,-4.754888 1.04883,-7.15625 l 8.19336,2.734375 0.26171,-0.28125 c 0.3967,-0.425229 0.55785,-0.974614 0.78907,-1.703125 0.23121,-0.728511 0.45361,-1.595467 0.65039,-2.431641 0.31566,-1.341337 0.46104,-2.139153 0.54687,-2.587891 z m 8.76563,2.388672 c 6.69147,1.885541 9.90232,3.49987 10.36914,3.75586 l -2.02539,5.376953 -9.90625,-3.111328 c -0.003,-0.184075 -0.0118,-0.326844 0.0176,-0.699219 0.0437,-0.554392 0.13022,-1.254211 0.26953,-1.980469 0.24858,-1.295987 0.72212,-2.588119 1.27539,-3.341797 z m -6.07422,1.136719 -0.23438,0.552734 c 0,0 -1.49553,3.555497 -6.00586,7.808594 l -0.49218,0.464844 0.51953,0.433594 c 0,0 1.37475,1.164073 2.16601,2.451171 l 0.31446,0.511719 1.02343,-0.628906 -0.31445,-0.511719 c -0.7774,-1.26455 -1.62483,-1.938818 -2,-2.265625 4.31036,-4.206738 5.89453,-7.794922 5.89453,-7.794922 l 0.23438,-0.552734 z m 8.03711,1.841797 a 1.9961413,1.3847275 26.072764 0 0 -1.1543,0.642578 1.9961413,1.3847275 26.072764 0 0 1.18555,2.121094 1.9961413,1.3847275 26.072764 0 0 2.40039,-0.367188 1.9961413,1.3847275 26.072764 0 0 -1.18555,-2.121094 1.9961413,1.3847275 26.072764 0 0 -1.24609,-0.27539 z"
       style="color:#000000;font-style:normal;font-variant:normal;font-weight:normal;font-stretch:normal;font-size:medium;line-height:normal;font-family:sans-serif;font-variant-ligatures:normal;font-variant-position:normal;font-variant-caps:normal;font-variant-numeric:normal;font-variant-alternates:normal;font-feature-settings:normal;text-indent:0;text-align:start;text-decoration:none;text-decoration-line:none;text-decoration-style:solid;text-decoration-color:#000000;letter-spacing:normal;word-spacing:normal;text-transform:none;writing-mode:lr-tb;direction:ltr;text-orientation:mixed;dominant-baseline:auto;baseline-shift:baseline;text-anchor:start;white-space:normal;shape-padding:0;clip-rule:nonzero;display:inline;overflow:visible;visibility:visible;opacity:1;isolation:auto;mix-blend-mode:normal;color-interpolation:sRGB;color-interpolation-filters:linearRGB;solid-color:#000000;solid-opacity:1;vector-effect:none;fill:#000000;fill-opacity:1;fill-rule:nonzero;stroke:none;stroke-width:1.20000005;stroke-linecap:square;stroke-linejoin:miter;stroke-miterlimit:4;stroke-dasharray:none;stroke-dashoffset:0;stroke-opacity:1;paint-order:markers fill stroke;color-rendering:auto;image-rendering:auto;shape-rendering:auto;text-rendering:auto;enable-background:accumulate" />
  </g>
  <g
     id="g902"
     style="display:inline">
    <path
       id="rect932"
       d="m 37.943359,69.255859 v 0.253907 h 1.660157 v -0.253907 z m -18.603515,0.734375 c -0.364143,0.0033 -0.709432,0.292203 -0.845703,0.677735 -0.08983,0.292999 -0.0298,0.658811 0.189453,0.855469 0.287503,0.267893 0.648472,0.395583 0.951172,0.634765 0.136198,0.108893 0.204826,0.300139 0.193359,0.488281 0.0091,0.264753 -0.168413,0.509293 -0.394531,0.550782 -0.27234,0.06806 -0.55625,-0.0481 -0.763672,-0.253907 -0.04742,-0.05338 -0.06096,-0.136652 -0.09375,-0.203125 -0.0476,-0.118724 -0.09498,-0.238698 -0.142578,-0.357422 -0.04962,-0.0073 -0.09002,-0.0037 -0.06836,0.06641 l 0.04102,0.769531 c 0.244812,0.147434 0.515956,0.235779 0.792969,0.234375 0.395042,0.02431 0.823559,-0.223422 0.96875,-0.664063 0.08571,-0.303623 0.05389,-0.685176 -0.164063,-0.90625 -0.275459,-0.277932 -0.637241,-0.39769 -0.933594,-0.638671 -0.173234,-0.11789 -0.242634,-0.365127 -0.207031,-0.585938 0.02923,-0.260837 0.25414,-0.454066 0.478516,-0.423828 0.188119,0.0085 0.359699,0.126596 0.501953,0.257813 l 0.203125,0.527343 c 0.0554,0.0117 0.08508,-0.0038 0.06641,-0.07227 -0.01363,-0.24753 -0.02737,-0.494657 -0.04102,-0.742188 -0.227913,-0.128177 -0.476432,-0.22055 -0.732422,-0.214844 z m 10.132812,0 c -0.577629,-0.01015 -1.112437,0.428342 -1.365234,1.013672 -0.266551,0.589788 -0.226182,1.371536 0.148437,1.888672 0.27808,0.386056 0.720321,0.571111 1.148438,0.560547 0.341674,0.0068 0.689379,-0.06019 0.992187,-0.25 0.01628,-0.269636 0.03255,-0.538959 0.04883,-0.808594 -0.05498,-0.01206 -0.09553,0.0052 -0.111328,0.07031 -0.07704,0.158156 -0.153425,0.316453 -0.230468,0.474609 -0.209729,0.157743 -0.452791,0.269632 -0.707032,0.255859 -0.329128,0.008 -0.647041,-0.200798 -0.818359,-0.523437 -0.214534,-0.382265 -0.258383,-0.863611 -0.207031,-1.306641 0.06526,-0.516036 0.405609,-0.997218 0.861328,-1.09375 0.220991,-0.05306 0.461974,-0.03073 0.654297,0.115235 0.07662,0.05553 0.169455,0.09936 0.197265,0.207031 0.07759,0.177741 0.15483,0.355463 0.232422,0.533203 0.05481,0.0082 0.09985,0.0054 0.07813,-0.07227 -0.0066,-0.273367 -0.01295,-0.546946 -0.01953,-0.820313 -0.279654,-0.163985 -0.587714,-0.25241 -0.902344,-0.244141 z m 3.175782,0 c -0.533139,-0.01195 -1.065847,0.33388 -1.308594,0.886719 -0.282976,0.633801 -0.220788,1.468834 0.189453,2.011719 0.29375,0.392902 0.753416,0.594824 1.199219,0.5625 0.52577,-0.01682 1.037225,-0.381758 1.255859,-0.939453 0.252956,-0.625129 0.187819,-1.428501 -0.212891,-1.953125 -0.277804,-0.367657 -0.702678,-0.572412 -1.123046,-0.56836 z m 25.660156,0 c -0.692108,-0.01774 -1.361974,0.557033 -1.53125,1.333985 -0.120044,0.543432 -0.03794,1.169434 0.302734,1.58789 0.374499,0.485172 0.992651,0.637906 1.527344,0.486329 0.248467,-0.07075 0.493519,-0.185007 0.693359,-0.373047 v -0.798829 c 0.102214,-0.07285 0.204427,-0.145895 0.306641,-0.21875 0.01946,-0.08148 -0.02298,-0.09337 -0.08398,-0.08203 h -1.019532 c -0.01779,0.07239 0.02041,0.103909 0.07617,0.121094 0.106804,0.05463 0.213509,0.109431 0.320313,0.164063 v 0.839843 c -0.267691,0.119397 -0.56761,0.136962 -0.847657,0.07227 -0.446197,-0.110796 -0.796295,-0.556651 -0.886718,-1.066406 -0.0786,-0.414254 -0.073,-0.88324 0.146484,-1.242188 0.264165,-0.45733 0.796577,-0.666358 1.251953,-0.525391 0.129449,0.05356 0.259043,0.12885 0.361328,0.232422 0.09355,0.184498 0.187697,0.368238 0.28125,0.552735 0.0712,0.02244 0.07998,-0.02535 0.06836,-0.0957 -0.0063,-0.248164 -0.01319,-0.495976 -0.01953,-0.744141 -0.259248,-0.149873 -0.544301,-0.244465 -0.835937,-0.242187 -0.03717,-0.0012 -0.07415,-0.002 -0.111328,-0.002 z m 13.207031,0 c -0.533139,-0.01195 -1.065847,0.333881 -1.308594,0.886719 -0.282977,0.633802 -0.220793,1.468835 0.189453,2.011719 0.293767,0.392931 0.75339,0.59484 1.199219,0.5625 0.526339,-0.01536 1.037039,-0.381946 1.255859,-0.939453 0.252959,-0.625127 0.187819,-1.428502 -0.21289,-1.953125 -0.277528,-0.36885 -0.70225,-0.572823 -1.123047,-0.56836 z M 37.5,70.041016 v 0.08203 l 0.355469,0.203125 v 2.791016 L 37.5,73.320312 v 0.08008 h 2.298828 v -0.925782 h -0.07227 l -0.27539,0.646485 h -1.195313 v -1.3125 h 0.75586 l 0.222656,0.412109 h 0.07031 v -1.115234 h -0.07031 l -0.222656,0.423828 h -0.75586 v -1.208985 h 1.072266 l 0.275391,0.595704 h 0.07031 v -0.875 z m -37.4375,0.002 v 0.08008 l 0.3828125,0.207031 -0.09375,2.78711 L 0,73.320312 v 0.08203 h 0.98632812 v -0.08203 l -0.359375,-0.197265 0.0566406,-2.474609 1.04492185,2.78125 h 0.2011719 l 1.0625,-2.816407 0.042969,2.509766 -0.328125,0.197265 v 0.08203 h 1.0214844 v -0.08203 l -0.3105468,-0.203124 -0.076172,-2.791016 0.375,-0.203125 v -0.08008 H 2.9335938 L 1.9121094,72.75 0.88476562,70.042969 Z m 4.2226562,0 c -0.018091,0.0725 0.021415,0.102748 0.076172,0.123047 0.093242,0.05319 0.186055,0.106966 0.2792969,0.160156 0.00216,0.638976 -0.00422,1.279128 0.00391,1.917969 0.010222,0.380784 0.1507409,0.771611 0.4335938,0.986328 0.3279744,0.244409 0.7520407,0.272804 1.1230469,0.162109 0.3402309,-0.09931 0.6241473,-0.419497 0.703125,-0.816406 0.073746,-0.344445 0.038839,-0.699783 0.046875,-1.050781 v -1.203125 c 0.1171875,-0.06609 0.234375,-0.133124 0.3515625,-0.199219 0.020182,-0.08282 -0.022897,-0.09102 -0.083984,-0.08008 H 6.1953125 c -0.018884,0.0746 0.020969,0.101308 0.078125,0.115234 0.1220838,0.05313 0.2451036,0.10508 0.3671875,0.158203 -0.00156,0.662821 0.00367,1.327498 -0.00195,1.990235 -0.00347,0.325573 -0.1510841,0.672197 -0.4296875,0.787109 C 5.9384266,73.211319 5.6178036,73.166221 5.375,72.988281 5.1020084,72.766381 5.0334426,72.355544 5.0410156,71.994141 v -1.667969 c 0.1184896,-0.06759 0.2369792,-0.135529 0.3554688,-0.203125 0.020182,-0.08282 -0.022897,-0.09102 -0.083984,-0.08008 z m 3.5761719,0 v 0.08008 l 0.3515625,0.214844 v 2.779297 l -0.3554687,0.203124 v 0.08203 H 8.96875 v -0.08203 L 8.5234375,73.123047 v -2.347656 l 1.8359375,2.654297 h 0.164063 V 70.322266 L 10.875,70.123047 v -0.08008 H 9.7675781 v 0.08008 l 0.4453129,0.193359 v 2.169922 L 8.515625,70.042969 Z m 3.5253909,0 c -0.01652,0.07018 0.01769,0.10381 0.07226,0.123047 0.09417,0.05373 0.189038,0.106435 0.283204,0.160156 v 2.791016 c -0.11849,0.06759 -0.236979,0.135527 -0.355469,0.203124 -0.01843,0.0796 0.02115,0.09393 0.08203,0.08203 0.438234,-0.0028 0.876371,0.0048 1.314453,-0.0059 0.574011,-0.03677 1.123544,-0.466883 1.328125,-1.09375 0.173156,-0.504548 0.174642,-1.120369 -0.09766,-1.580078 -0.262122,-0.454036 -0.747566,-0.662529 -1.205078,-0.677734 -0.474161,-0.0068 -0.947646,-1.53e-4 -1.421875,-0.002 z m 3.402343,0 c -0.01811,0.07252 0.02141,0.102745 0.07617,0.123047 0.09323,0.05318 0.186063,0.106969 0.279297,0.160156 0.0015,0.629634 -0.0034,1.259113 0.002,1.888672 0.0075,0.389359 0.146737,0.794098 0.435547,1.015625 0.32285,0.241705 0.73871,0.270679 1.105469,0.167969 0.333803,-0.09076 0.617239,-0.392001 0.708984,-0.775391 0.09025,-0.353899 0.0519,-0.726437 0.06055,-1.089844 v -1.210937 c 0.117188,-0.06609 0.234375,-0.133125 0.351563,-0.199219 0.0202,-0.08284 -0.02289,-0.09102 -0.08398,-0.08008 h -1.023437 c -0.01889,0.07458 0.021,0.101199 0.07813,0.115234 0.121438,0.05308 0.243796,0.105132 0.365234,0.158203 -0.0016,0.662819 0.0037,1.3275 -0.002,1.990235 -0.003,0.333723 -0.159484,0.690294 -0.449219,0.796875 -0.282302,0.108524 -0.619743,0.05777 -0.857421,-0.152344 -0.257019,-0.245389 -0.299632,-0.654836 -0.291016,-1.015625 v -1.609375 c 0.11849,-0.06759 0.236979,-0.135528 0.355469,-0.203125 0.0202,-0.08284 -0.0229,-0.09102 -0.08399,-0.08008 z m 7.066407,0 v 0.08008 l 0.357422,0.203125 v 2.791016 l -0.357422,0.203124 v 0.08203 h 2.298828 v -0.925782 h -0.07031 l -0.27539,0.646485 h -1.197266 v -1.314453 h 0.75586 l 0.222656,0.412109 h 0.07031 v -1.115234 h -0.07031 l -0.222656,0.423828 h -0.75586 v -1.207031 h 1.072266 l 0.27539,0.59375 h 0.07031 v -0.873047 z m 2.833984,0 v 0.08008 l 0.279297,0.177734 0.919922,1.427735 -0.941406,1.404296 -0.324219,0.1875 v 0.08203 h 1 v -0.08203 l -0.359375,-0.18164 v -0.02148 l 0.773437,-1.166016 0.753907,1.166016 v 0.02148 l -0.324219,0.18164 v 0.08203 h 1.134765 v -0.08203 l -0.3125,-0.197265 -0.982421,-1.482422 0.902343,-1.330078 0.28125,-0.1875 v -0.08008 h -0.933593 v 0.08008 l 0.33789,0.1875 v 0.01953 l -0.738281,1.082031 -0.710938,-1.074218 v -0.02734 l 0.355469,-0.1875 v -0.08008 z m 10.041016,0 v 0.08008 l 0.355469,0.203125 v 2.791016 l -0.355469,0.203124 v 0.08203 h 2.208984 v -1.128906 h -0.07031 l -0.302735,0.849609 h -1.080078 v -2.796875 l 0.400391,-0.203125 v -0.08008 z m 5.580078,0 v 1.027343 h 0.07227 l 0.302735,-0.748046 h 0.722656 v 2.794922 l -0.443359,0.203124 v 0.08203 h 1.289062 v -0.08203 l -0.445312,-0.203124 v -2.794922 h 0.724609 l 0.302735,0.748046 h 0.07031 v -1.027343 z m 3.083984,0 c -0.0181,0.07252 0.02141,0.102745 0.07617,0.123047 0.09323,0.05319 0.186063,0.106967 0.279297,0.160156 0.0015,0.629634 -0.0034,1.259112 0.002,1.888672 0.0075,0.389358 0.146737,0.794099 0.435547,1.015625 0.32285,0.241705 0.73871,0.27068 1.105469,0.167969 0.340546,-0.09296 0.631341,-0.404101 0.716797,-0.798829 0.0808,-0.347877 0.04449,-0.710757 0.05273,-1.066406 v -1.210937 c 0.117187,-0.06609 0.234375,-0.133124 0.351562,-0.199219 0.0202,-0.08284 -0.02289,-0.09102 -0.08398,-0.08008 h -1.023437 c -0.0189,0.07462 0.02097,0.101297 0.07813,0.115234 0.122075,0.05313 0.245112,0.10508 0.367187,0.158203 -0.0016,0.662818 0.0039,1.327511 -0.002,1.990235 -0.005,0.333495 -0.16139,0.690111 -0.451172,0.796875 -0.282302,0.108524 -0.619743,0.05777 -0.857422,-0.152344 -0.257018,-0.245389 -0.299631,-0.654835 -0.291015,-1.015625 v -1.609375 c 0.118489,-0.06759 0.236979,-0.135528 0.355468,-0.203125 0.0202,-0.08284 -0.02289,-0.09102 -0.08398,-0.08008 z m 3.595703,0 c -0.01531,0.06839 0.01589,0.102664 0.07031,0.121093 0.09488,0.05413 0.190276,0.107986 0.285156,0.16211 v 2.791016 c -0.11849,0.06759 -0.236979,0.135527 -0.355469,0.203124 -0.01708,0.07712 0.0174,0.09465 0.07813,0.08203 h 1.009766 c 0.01502,-0.06775 -0.01692,-0.104283 -0.07031,-0.125 -0.08751,-0.05464 -0.174205,-0.109426 -0.261718,-0.164063 v -1.253906 h 0.412109 l 0.863281,1.542969 h 0.638672 c 0.01503,-0.06776 -0.01688,-0.104344 -0.07031,-0.125 -0.07508,-0.05006 -0.15562,-0.0911 -0.226563,-0.146485 l -0.839843,-1.402343 c 0.298771,-0.120246 0.58866,-0.400711 0.615234,-0.78711 0.02696,-0.269381 -0.08544,-0.547035 -0.28711,-0.689453 C 48.572956,70.02949 48.22497,70.04014 47.900391,70.042969 Z m 4.044922,0 v 0.08008 l 0.355469,0.203125 v 2.791016 l -0.355469,0.203124 v 0.08203 h 2.208985 v -1.128906 h -0.07031 l -0.302734,0.849609 h -1.080078 v -2.796875 l 0.40039,-0.203125 v -0.08008 z m 2.769532,0 v 0.08008 l 0.355468,0.203125 v 2.791016 l -0.355468,0.203124 v 0.08203 h 2.298828 v -0.925782 h -0.07227 l -0.275391,0.646485 h -1.195312 v -1.314453 h 0.755859 l 0.220703,0.412109 h 0.07227 v -1.115234 h -0.07227 l -0.220703,0.423828 h -0.755859 v -1.207031 h 1.070312 l 0.275391,0.59375 h 0.07227 v -0.873047 z m 6.310546,0 v 0.08008 l 0.355469,0.203125 v 2.791016 l -0.355469,0.203124 v 0.08203 h 2.298828 v -0.925782 h -0.07031 l -0.277344,0.646485 h -1.195312 v -1.314453 h 0.755859 l 0.222656,0.412109 h 0.07031 v -1.115234 h -0.07031 l -0.222656,0.423828 h -0.755859 v -1.207031 h 1.072265 l 0.275391,0.59375 h 0.07031 v -0.873047 z m 2.882813,0 v 0.08008 l 0.351562,0.214844 v 2.779297 l -0.355468,0.203124 v 0.08203 h 1.111328 v -0.08203 l -0.445313,-0.197265 v -2.347656 l 1.835938,2.654297 h 0.164062 v -3.107422 l 0.351563,-0.199219 v -0.08008 h -1.107422 v 0.08008 l 0.445312,0.193359 v 2.169922 l -1.699218,-2.443359 z m 3.525391,0 c -0.01652,0.07018 0.0177,0.10381 0.07227,0.123047 0.09417,0.05373 0.189037,0.106435 0.283203,0.160156 v 2.791016 c -0.118489,0.06759 -0.23698,0.135527 -0.355468,0.203124 -0.01843,0.0796 0.02115,0.09393 0.08203,0.08203 0.438234,-0.0028 0.876372,0.0048 1.314453,-0.0059 0.574011,-0.03677 1.123544,-0.466883 1.328125,-1.09375 0.173138,-0.504541 0.174726,-1.120424 -0.09766,-1.580078 -0.269145,-0.462582 -0.767344,-0.668793 -1.234375,-0.677734 -0.464333,-0.0039 -0.928217,-9.4e-4 -1.392578,-0.002 z m -33.951172,0.197265 c 0.405517,-0.01203 0.773858,0.301729 0.949218,0.710938 0.18308,0.410243 0.22166,0.899029 0.140625,1.347656 -0.07928,0.411298 -0.34438,0.79679 -0.716797,0.876953 -0.36632,0.0896 -0.76357,-0.07358 -1,-0.408203 -0.320067,-0.431977 -0.396934,-1.043593 -0.314453,-1.589844 0.06628,-0.434405 0.34931,-0.833593 0.736329,-0.914062 0.06721,-0.01564 0.136553,-0.02345 0.205078,-0.02344 z m 38.867187,0 c 0.405517,-0.01203 0.773859,0.301729 0.949219,0.710938 0.183418,0.410271 0.21955,0.898714 0.140625,1.347656 -0.07785,0.412191 -0.344113,0.797679 -0.716797,0.876953 -0.366488,0.08952 -0.763453,-0.07326 -1,-0.408203 -0.319654,-0.43194 -0.398933,-1.043849 -0.314453,-1.589844 0.06728,-0.420022 0.331938,-0.812602 0.705078,-0.90625 0.07742,-0.02138 0.156783,-0.03128 0.236328,-0.03125 z m -59.296875,0.08203 c 0.347189,0.0084 0.710769,-0.04389 1.035156,0.132812 0.330906,0.16378 0.552797,0.543377 0.607422,0.947266 0.07107,0.490166 -0.008,1.0544 -0.339844,1.402344 -0.24038,0.258498 -0.579659,0.334549 -0.898437,0.318359 h -0.404297 z m 35.603516,0 c 0.256389,0.0055 0.536522,-0.03791 0.757812,0.146484 0.28166,0.209923 0.266436,0.739109 -0.0039,0.953125 -0.175355,0.166335 -0.40738,0.160039 -0.621094,0.15625 -0.04004,-0.01096 -0.118741,0.0233 -0.132812,-0.01758 z m 19.533203,0 c 0.347189,0.0084 0.710769,-0.04389 1.035156,0.132812 0.330906,0.16378 0.552797,0.543378 0.607422,0.947266 0.06968,0.483877 -0.0034,1.039946 -0.326172,1.388672 -0.236733,0.262111 -0.577198,0.348572 -0.896484,0.332031 h -0.419922 z m -46.134766,0.992187 -0.353515,0.408203 0.353515,0.408203 0.353516,-0.408203 z m 29.087891,0 -0.353516,0.408203 0.353516,0.408203 0.353516,-0.408203 z"
       style="opacity:1;fill:#d07d40;fill-opacity:1;stroke:none;stroke-width:0.5;stroke-linecap:butt;stroke-linejoin:miter;stroke-miterlimit:4;stroke-dasharray:none;stroke-dashoffset:0;stroke-opacity:1;paint-order:markers fill stroke" />
  </g>
  <g
     transform="translate(-1.3499989,-15.006255)"
     style="display:inline"
     id="layer3">
    <path
       id="path1573"
       transform="translate(1.3499989,15.006255)"
       d="m 0,43.402344 v 3.496094 H 1.4570312 V 63.234375 H 0 v 3.521484 h 14.826172 v -6.884765 h -4.447266 v 3.363281 H 6.9628906 V 46.898438 h 1.4042969 v -3.496094 z m 53.09375,3.496094 -4.871094,1.5625 v 5.05664 h -1.429687 v 3.441406 h 1.429687 v 4.712891 c 0.01765,0.847241 0.06221,1.614351 0.132813,2.302734 0.0706,0.688383 0.23719,1.271474 0.501953,1.748047 0.264763,0.476573 0.671573,0.846565 1.21875,1.111328 0.564827,0.264763 1.341631,0.398438 2.330078,0.398438 0.158858,0 0.370003,-0.01743 0.634766,-0.05273 0.282413,-0.01765 0.582675,-0.04478 0.90039,-0.08008 0.317715,-0.0353 0.625716,-0.0876 0.925782,-0.158203 0.300065,-0.05295 0.548028,-0.12464 0.742187,-0.21289 v -3.388672 c -0.247112,0.105905 -0.547374,0.212454 -0.900391,0.318359 -0.335366,0.08825 -0.591069,0.130859 -0.767578,0.130859 -0.388319,0 -0.636282,-0.131721 -0.742187,-0.396484 -0.08825,-0.282413 -0.13086,-0.600108 -0.13086,-0.953125 v -0.396484 c 0.01768,-0.123556 0.02539,-0.247538 0.02539,-0.371094 v -4.712891 h 2.515625 V 53.517578 H 53.09375 Z m 62.74414,0 v 3.441406 h 1.2168 v 3.917968 c -0.24712,-0.158858 -0.63454,-0.36031 -1.16407,-0.607421 -0.51187,-0.264764 -1.23638,-0.398438 -2.17187,-0.398438 -0.81194,0 -1.58874,0.158847 -2.33008,0.476563 -0.74134,0.317715 -1.39416,0.769083 -1.95898,1.351562 -0.56483,0.582478 -1.01425,1.297291 -1.34961,2.144531 -0.33537,0.82959 -0.50391,1.755548 -0.50391,2.779297 0,0.917844 0.14142,1.801197 0.42383,2.648438 0.30007,0.847241 0.71461,1.596918 1.24414,2.25 0.52953,0.63543 1.17461,1.146837 1.93359,1.535156 0.75899,0.370668 1.60553,0.556641 2.54102,0.556641 0.45892,0 0.87347,-0.05425 1.24414,-0.160157 0.37067,-0.08825 0.69806,-0.19285 0.98047,-0.316406 0.28242,-0.141207 0.51099,-0.274882 0.6875,-0.398437 0.19416,-0.141208 0.33557,-0.255496 0.42383,-0.34375 l 0.45117,0.980468 h 6.19531 V 63.3125 h -1.27148 V 46.898438 Z m 13.36914,0.05273 c -0.45892,0 -0.87347,0.08716 -1.24414,0.263672 -0.35302,0.158857 -0.65328,0.371955 -0.90039,0.636718 -0.22946,0.264763 -0.40574,0.555332 -0.5293,0.873047 -0.12356,0.317716 -0.18554,0.627671 -0.18554,0.927735 0,0.317715 0.0717,0.635409 0.21289,0.953125 0.1412,0.317715 0.33492,0.608284 0.58203,0.873047 0.26476,0.247112 0.56502,0.450517 0.90039,0.609375 0.35301,0.158858 0.74044,0.238281 1.16406,0.238281 0.95315,0 1.67765,-0.255704 2.17188,-0.767578 0.49422,-0.529526 0.74218,-1.164914 0.74218,-1.90625 0,-0.300064 -0.0717,-0.610019 -0.21289,-0.927735 -0.12355,-0.317715 -0.30952,-0.608284 -0.55664,-0.873047 -0.24711,-0.264763 -0.55511,-0.477861 -0.92578,-0.636718 -0.35301,-0.176509 -0.75982,-0.263672 -1.21875,-0.263672 z M 141.23633,52.75 c -0.61779,0 -1.2183,0.06972 -1.80078,0.210938 -0.56483,0.123553 -1.10336,0.292096 -1.61524,0.503906 -0.49422,0.194158 -0.94364,0.397565 -1.34961,0.609375 -0.40597,0.211811 -0.7411,0.395829 -1.00586,0.554687 v 3.65625 c 1.94251,-1.567789 3.33172,-1.791696 5.05664,-1.802734 0.72369,0 1.32421,0.09686 1.80079,0.291016 0.47657,0.194158 0.71484,0.591275 0.71484,1.191406 v 0.927734 c -0.0353,-0.03529 -0.12247,-0.106985 -0.26367,-0.21289 -0.12356,-0.105906 -0.30179,-0.210502 -0.53125,-0.316407 -0.21181,-0.105905 -0.4772,-0.19502 -0.79492,-0.265625 -0.30007,-0.08825 -0.64293,-0.132812 -1.03125,-0.132812 -0.74133,0 -1.44646,0.114287 -2.11719,0.34375 -0.67073,0.229462 -1.26352,0.556848 -1.77539,0.980468 -0.49423,0.42362 -0.89135,0.935027 -1.19141,1.535157 -0.28241,0.60013 -0.42383,1.270382 -0.42383,2.011719 0,0.776635 0.15111,1.448845 0.45118,2.013671 0.31772,0.547178 0.72256,0.99659 1.21679,1.34961 0.49422,0.353015 1.05019,0.618412 1.66797,0.794922 0.61778,0.176506 1.24543,0.265625 1.88086,0.265625 0.22946,0 0.50259,-0.02714 0.82031,-0.08008 0.31771,-0.05295 0.63542,-0.142069 0.95313,-0.265626 0.33537,-0.123553 0.65306,-0.290143 0.95312,-0.501953 0.31772,-0.229458 0.60055,-0.512293 0.84766,-0.847656 l 0.63476,1.191406 H 150 v -3.388671 h -1.58789 v -5.164063 c 0,-1.059051 -0.23053,-1.940449 -0.68945,-2.646484 -0.44128,-0.706036 -1.01467,-1.262001 -1.72071,-1.667969 -0.68838,-0.423621 -1.45549,-0.716142 -2.30273,-0.875 -0.84724,-0.17651 -1.66861,-0.263671 -2.46289,-0.263672 z M 23.554688,53.146484 c -1.006099,0 -1.941749,0.158848 -2.806641,0.476563 -0.864891,0.300063 -1.616522,0.751435 -2.251953,1.351562 -0.63543,0.60013 -1.137145,1.33042 -1.507813,2.195313 -0.370667,0.84724 -0.55664,1.81002 -0.55664,2.886719 0,1.270862 0.213097,2.365358 0.636718,3.283203 0.42362,0.900194 0.960201,1.64213 1.613282,2.224609 0.670733,0.56483 1.422362,0.979378 2.251953,1.244141 0.82959,0.282411 1.65869,0.423828 2.488281,0.423828 1.376766,0 2.612678,-0.168538 3.707031,-0.503906 0.717474,-0.231444 1.412032,-0.57175 2.083985,-1.015625 -0.177616,-0.309152 -0.345586,-0.631115 -0.5,-0.966797 -0.312723,-0.710735 -0.51224,-1.508877 -0.654297,-2.351563 l -0.0293,-0.0332 c -0.353017,0.300067 -0.70753,0.538334 -1.060547,0.714844 -0.353017,0.158857 -0.688144,0.280889 -1.005859,0.36914 -0.317715,0.08825 -0.617977,0.142504 -0.900391,0.160157 -0.264762,0.01766 -0.510773,0.02539 -0.740234,0.02539 -0.564827,0 -1.016196,-0.07942 -1.351563,-0.238281 -0.335366,-0.158858 -0.598809,-0.352569 -0.792969,-0.582031 -0.194159,-0.229458 -0.335574,-0.467734 -0.423828,-0.714844 -0.0706,-0.247115 -0.124854,-0.458255 -0.160156,-0.634765 h 8.341797 c 0.105905,-0.300063 0.185329,-0.617757 0.238281,-0.953126 0.05295,-0.353015 0.07813,-0.707531 0.07813,-1.060546 0,-0.900194 -0.141415,-1.729294 -0.423828,-2.488282 -0.282414,-0.776636 -0.704704,-1.446893 -1.269531,-2.011718 -0.564827,-0.564826 -1.2719,-1.006504 -2.119141,-1.324219 -0.82959,-0.317715 -1.790413,-0.476563 -2.884765,-0.476563 z m 75.808593,0 c -1.006106,0 -1.941743,0.158848 -2.80664,0.476563 -0.864893,0.300063 -1.61457,0.751435 -2.25,1.351562 -0.635431,0.60013 -1.139098,1.33042 -1.509766,2.195313 -0.370668,0.84724 -0.554688,1.81002 -0.554687,2.886719 0,1.270862 0.211144,2.365358 0.634765,3.283203 0.42362,0.900194 0.962153,1.64213 1.615235,2.224609 0.670732,0.56483 1.420411,0.979378 2.25,1.244141 0.829589,0.282411 1.658685,0.423828 2.488281,0.423828 1.376761,0 2.612681,-0.168538 3.707031,-0.503906 0.71748,-0.231444 1.41202,-0.57175 2.08398,-1.015625 -0.17762,-0.309152 -0.34362,-0.631115 -0.49804,-0.966797 -0.31272,-0.710735 -0.51419,-1.508877 -0.65625,-2.351563 l -0.0293,-0.0332 c -0.35302,0.300067 -0.70558,0.538334 -1.05859,0.714844 -0.35302,0.158857 -0.69011,0.280889 -1.00782,0.36914 -0.31772,0.08825 -0.61601,0.142504 -0.89843,0.160157 -0.26476,0.01766 -0.51273,0.02539 -0.74219,0.02539 -0.564831,0 -1.01424,-0.07942 -1.34961,-0.238281 C 98.445884,63.23372 98.180498,63.040009 97.986328,62.810547 97.792178,62.581089 97.65075,62.342813 97.5625,62.095703 97.4919,61.848588 97.439597,61.637448 97.404297,61.460938 h 8.339843 c 0.1059,-0.300063 0.18533,-0.617757 0.23828,-0.953126 0.053,-0.353015 0.0781,-0.707531 0.0781,-1.060546 0,-0.900194 -0.13947,-1.729294 -0.42188,-2.488282 -0.28242,-0.776636 -0.70666,-1.446893 -1.27148,-2.011718 -0.56483,-0.564826 -1.26995,-1.006504 -2.11719,-1.324219 -0.82959,-0.317715 -1.79237,-0.476563 -2.886719,-0.476563 z m -61.320312,0.132813 c -0.847241,0 -1.668604,0.131721 -2.462891,0.396484 -0.776638,0.264762 -1.464324,0.679314 -2.064453,1.244141 -0.600129,0.547176 -1.086363,1.254248 -1.457031,2.11914 -0.353017,0.847241 -0.529297,1.852623 -0.529297,3.017579 0,1.182607 0.193712,2.215114 0.582031,3.097656 0.405969,0.882542 0.936763,1.624479 1.589844,2.224609 0.670733,0.582478 1.447536,1.024155 2.330078,1.324219 0.882543,0.282414 1.808501,0.423828 2.779297,0.423828 0.706034,0 1.38598,-0.07942 2.039062,-0.238281 0.653081,-0.158858 1.253605,-0.362263 1.800782,-0.609375 0.564827,-0.247112 1.066541,-0.529941 1.507812,-0.847656 0.0651,-0.04948 0.105554,-0.09896 0.167969,-0.148438 -0.0228,-0.03136 -0.05797,-0.04805 -0.08008,-0.08008 -0.287158,-0.416036 -0.516158,-0.886603 -0.699219,-1.361328 -0.302708,-0.785003 -0.425436,-1.482408 -0.53125,-2.060547 l -0.04883,-0.05664 c -0.42362,0.458922 -0.88273,0.830869 -1.376953,1.113282 -0.494224,0.264763 -1.075361,0.396484 -1.746094,0.396484 -0.882542,0 -1.572182,-0.29057 -2.066406,-0.873047 -0.494224,-0.600129 -0.740235,-1.351759 -0.740235,-2.251953 0,-0.42362 0.0426,-0.838172 0.13086,-1.244141 0.105905,-0.40597 0.257013,-0.768221 0.451172,-1.085937 0.194159,-0.317715 0.432429,-0.573419 0.714843,-0.767578 0.300064,-0.194159 0.644884,-0.291016 1.033204,-0.291016 0.300065,0 0.555768,0.08912 0.767578,0.265625 0.211811,0.158858 0.378397,0.379697 0.501953,0.66211 0.123555,0.264763 0.212672,0.565023 0.265625,0.90039 0.0706,0.317715 0.115158,0.63541 0.132812,0.953125 h 3.890625 V 53.517577 H 41.80273 l -0.451172,1.271484 C 41.245658,54.665508 41.096503,54.5144 40.902344,54.337891 40.708185,54.161382 40.469914,53.994794 40.1875,53.835938 39.922738,53.67708 39.605043,53.543406 39.234375,53.4375 38.881359,53.331596 38.48424,53.279297 38.042969,53.279297 Z M 84.75,53.304688 c -0.40597,0 -0.775962,0.04456 -1.111328,0.132812 -0.335366,0.08825 -0.635628,0.194803 -0.900391,0.318359 -0.264763,0.105905 -0.503033,0.229887 -0.714843,0.371094 -0.194159,0.123556 -0.353007,0.228156 -0.476563,0.316406 l -0.451172,-0.925781 h -7.003906 v 3.521484 h 2.052734 v 12.947266 h -1.111328 v 3.46875 h 7.916016 v -3.46875 h -1.429688 v -3.972656 c 0.05295,0.0353 0.159503,0.114725 0.31836,0.238281 0.158858,0.105905 0.370002,0.220195 0.634765,0.34375 0.282413,0.123556 0.627233,0.230109 1.033203,0.318359 0.42362,0.08825 0.909855,0.132813 1.457032,0.132813 0.847241,0 1.641476,-0.158847 2.382812,-0.476563 0.741335,-0.317714 1.376724,-0.769084 1.90625,-1.351562 0.547176,-0.582478 0.969466,-1.287598 1.269531,-2.117188 0.317715,-0.847241 0.476563,-1.800324 0.476563,-2.859374 0,-0.935496 -0.131721,-1.818848 -0.396485,-2.648438 -0.264763,-0.847241 -0.66188,-1.587226 -1.191406,-2.222656 C 88.898281,54.735663 88.24546,54.231996 87.451172,53.861328 86.674535,53.49066 85.773749,53.304688 84.75,53.304688 Z m -27.511719,0.21289 v 3.494141 h 1.111328 v 3.654297 c 0,1.094353 0.08912,2.047436 0.265625,2.859375 0.176509,0.811939 0.467078,1.482193 0.873047,2.011718 0.423621,0.529526 0.971846,0.926644 1.642578,1.191407 0.688383,0.264763 1.534917,0.396484 2.541016,0.396484 0.564827,0 1.051062,-0.07942 1.457031,-0.238281 0.405969,-0.141207 0.748836,-0.317487 1.03125,-0.529297 0.300065,-0.21181 0.548029,-0.432648 0.742188,-0.66211 0.21181,-0.247112 0.38809,-0.448564 0.529297,-0.607421 l 0.714843,1.667968 h 5.945313 v -3.521484 h -2.238281 v -9.716797 h -6.857422 v 3.494141 h 1.748047 v 4.210937 c 0,0.600129 -0.168541,1.08441 -0.503907,1.455078 -0.317715,0.370667 -0.70514,0.556641 -1.164062,0.556641 -0.547177,0 -0.926862,-0.265397 -1.138672,-0.794922 -0.194159,-0.547176 -0.291016,-1.39371 -0.291016,-2.541015 v -6.38086 z m 68.369139,0 v 3.441406 h 1.11133 v 6.328125 h -1.11133 v 3.46875 h 7.41406 v -3.46875 H 131.75 v -9.769531 z m -10.45898,3.175781 c 0.28241,0 0.53812,0.08912 0.76758,0.265625 0.24711,0.176509 0.45052,0.424473 0.60937,0.742188 0.17651,0.317715 0.30823,0.687708 0.39649,1.111328 0.0883,0.423621 0.13281,0.882729 0.13281,1.376953 0,0.953146 -0.19371,1.702824 -0.58203,2.25 -0.37067,0.547177 -0.80265,0.820313 -1.29688,0.820313 -0.30006,0 -0.56545,-0.09686 -0.79492,-0.291016 -0.22946,-0.194159 -0.43287,-0.44017 -0.60938,-0.740234 -0.15886,-0.300065 -0.28284,-0.644885 -0.37109,-1.033204 -0.0883,-0.388318 -0.13086,-0.785436 -0.13086,-1.191406 0,-1.006098 0.16659,-1.810027 0.50195,-2.410156 0.35302,-0.600129 0.81213,-0.900391 1.37696,-0.900391 z m -91.435549,0.02734 c 0.42362,0 0.758747,0.06199 1.005859,0.185547 0.264763,0.123557 0.458475,0.290143 0.582031,0.501953 0.141207,0.194163 0.238063,0.424686 0.291016,0.689453 0.05295,0.24711 0.08008,0.495078 0.08008,0.742188 H 21.67383 c 0.01765,-0.158857 0.05447,-0.362264 0.107422,-0.609375 0.0706,-0.247115 0.175199,-0.477639 0.316406,-0.689453 0.158857,-0.229458 0.362263,-0.423174 0.609375,-0.582032 0.264762,-0.158857 0.599889,-0.238281 1.00586,-0.238281 z m 75.808593,0 c 0.42362,0 0.758746,0.06199 1.005856,0.185547 0.26477,0.123557 0.46044,0.290143 0.58399,0.501953 0.14121,0.194163 0.23806,0.424686 0.29101,0.689453 0.053,0.24711 0.0801,0.495078 0.0801,0.742188 h -3.998045 c 0.0177,-0.158857 0.05253,-0.362264 0.105469,-0.609375 0.0706,-0.247115 0.175196,-0.477639 0.316406,-0.689453 0.15885,-0.229458 0.362265,-0.423174 0.609375,-0.582032 0.264776,-0.158857 0.599889,-0.238281 1.005859,-0.238281 z m -16.121093,0.318359 c 0.282413,0 0.538117,0.09686 0.767578,0.291016 0.247111,0.194159 0.450517,0.440169 0.609375,0.740234 0.176509,0.300064 0.308234,0.654577 0.396484,1.060547 0.08825,0.388319 0.132813,0.775744 0.132813,1.164063 0,1.006099 -0.17628,1.810027 -0.529297,2.410156 -0.335366,0.600129 -0.786736,0.900391 -1.351563,0.900391 -0.282414,0 -0.545857,-0.08912 -0.792969,-0.265625 -0.229461,-0.176509 -0.432866,-0.424473 -0.609374,-0.742188 -0.158857,-0.317715 -0.282834,-0.687707 -0.371094,-1.111328 -0.08825,-0.42362 -0.132813,-0.882729 -0.132813,-1.376953 0,-0.953146 0.185973,-1.702823 0.556641,-2.25 0.388319,-0.547176 0.829995,-0.820313 1.324219,-0.820313 z m 58.074219,4.13086 c 0.28242,0 0.51295,0.03487 0.68945,0.105469 0.19416,0.07061 0.35301,0.150028 0.47656,0.238281 0.12355,0.08825 0.21073,0.175415 0.26368,0.263672 0.0706,0.0706 0.11516,0.124855 0.13281,0.160156 v 1.005859 c -0.12356,0.194158 -0.33471,0.387874 -0.63477,0.582032 -0.30007,0.194162 -0.65457,0.291015 -1.06054,0.291015 -0.40597,0 -0.74109,-0.114288 -1.00586,-0.34375 -0.26476,-0.229462 -0.39649,-0.529723 -0.39649,-0.90039 0,-0.405973 0.12399,-0.741097 0.3711,-1.00586 0.24711,-0.264763 0.63454,-0.396484 1.16406,-0.396484 z"
       style="fill:#000000;fill-opacity:1;stroke:none;stroke-width:1" />
    <path
       transform="translate(1.3499989,15.006255)"
       style="fill:#000000;fill-opacity:1;stroke:none;stroke-width:1"
       d="m 0,43.402344 v 3.496094 H 1.4570312 V 63.234375 H 0 v 3.521484 h 14.826172 v -6.884765 h -4.447266 v 3.363281 H 6.9628906 V 46.898438 h 1.4042969 v -3.496094 z m 53.09375,3.496094 -4.871094,1.5625 v 5.05664 h -1.429687 v 3.441406 h 1.429687 v 4.712891 c 0.01765,0.847241 0.06221,1.614351 0.132813,2.302734 0.0706,0.688383 0.23719,1.271474 0.501953,1.748047 0.264763,0.476573 0.671573,0.846565 1.21875,1.111328 0.564827,0.264763 1.341631,0.398438 2.330078,0.398438 0.158858,0 0.370003,-0.01743 0.634766,-0.05273 0.282413,-0.01765 0.582675,-0.04478 0.90039,-0.08008 0.317715,-0.0353 0.625716,-0.0876 0.925782,-0.158203 0.300065,-0.05295 0.548028,-0.12464 0.742187,-0.21289 v -3.388672 c -0.247112,0.105905 -0.547374,0.212454 -0.900391,0.318359 -0.335366,0.08825 -0.591069,0.130859 -0.767578,0.130859 -0.388319,0 -0.636282,-0.131721 -0.742187,-0.396484 -0.08825,-0.282413 -0.13086,-0.600108 -0.13086,-0.953125 v -0.396484 c 0.01768,-0.123556 0.02539,-0.247538 0.02539,-0.371094 v -4.712891 h 2.515625 V 53.517578 H 53.09375 Z m 62.74414,0 v 3.441406 h 1.2168 v 3.917968 c -0.24712,-0.158858 -0.63454,-0.36031 -1.16407,-0.607421 -0.51187,-0.264764 -1.23638,-0.398438 -2.17187,-0.398438 -0.81194,0 -1.58874,0.158847 -2.33008,0.476563 -0.74134,0.317715 -1.39416,0.769083 -1.95898,1.351562 -0.56483,0.582478 -1.01425,1.297291 -1.34961,2.144531 -0.33537,0.82959 -0.50391,1.755548 -0.50391,2.779297 0,0.917844 0.14142,1.801197 0.42383,2.648438 0.30007,0.847241 0.71461,1.596918 1.24414,2.25 0.52953,0.63543 1.17461,1.146837 1.93359,1.535156 0.75899,0.370668 1.60553,0.556641 2.54102,0.556641 0.45892,0 0.87347,-0.05425 1.24414,-0.160157 0.37067,-0.08825 0.69806,-0.19285 0.98047,-0.316406 0.28242,-0.141207 0.51099,-0.274882 0.6875,-0.398437 0.19416,-0.141208 0.33557,-0.255496 0.42383,-0.34375 l 0.45117,0.980468 h 6.19531 V 63.3125 h -1.27148 V 46.898438 Z m 13.36914,0.05273 c -0.45892,0 -0.87347,0.08716 -1.24414,0.263672 -0.35302,0.158857 -0.65328,0.371955 -0.90039,0.636718 -0.22946,0.264763 -0.40574,0.555332 -0.5293,0.873047 -0.12356,0.317716 -0.18554,0.627671 -0.18554,0.927735 0,0.317715 0.0717,0.635409 0.21289,0.953125 0.1412,0.317715 0.33492,0.608284 0.58203,0.873047 0.26476,0.247112 0.56502,0.450517 0.90039,0.609375 0.35301,0.158858 0.74044,0.238281 1.16406,0.238281 0.95315,0 1.67765,-0.255704 2.17188,-0.767578 0.49422,-0.529526 0.74218,-1.164914 0.74218,-1.90625 0,-0.300064 -0.0717,-0.610019 -0.21289,-0.927735 -0.12355,-0.317715 -0.30952,-0.608284 -0.55664,-0.873047 -0.24711,-0.264763 -0.55511,-0.477861 -0.92578,-0.636718 -0.35301,-0.176509 -0.75982,-0.263672 -1.21875,-0.263672 z M 141.23633,52.75 c -0.61779,0 -1.2183,0.06972 -1.80078,0.210938 -0.56483,0.123553 -1.10336,0.292096 -1.61524,0.503906 -0.49422,0.194158 -0.94364,0.397565 -1.34961,0.609375 -0.40597,0.211811 -0.7411,0.395829 -1.00586,0.554687 v 3.65625 c 1.94251,-1.567789 3.33172,-1.791696 5.05664,-1.802734 0.72369,0 1.32421,0.09686 1.80079,0.291016 0.47657,0.194158 0.71484,0.591275 0.71484,1.191406 v 0.927734 c -0.0353,-0.03529 -0.12247,-0.106985 -0.26367,-0.21289 -0.12356,-0.105906 -0.30179,-0.210502 -0.53125,-0.316407 -0.21181,-0.105905 -0.4772,-0.19502 -0.79492,-0.265625 -0.30007,-0.08825 -0.64293,-0.132812 -1.03125,-0.132812 -0.74133,0 -1.44646,0.114287 -2.11719,0.34375 -0.67073,0.229462 -1.26352,0.556848 -1.77539,0.980468 -0.49423,0.42362 -0.89135,0.935027 -1.19141,1.535157 -0.28241,0.60013 -0.42383,1.270382 -0.42383,2.011719 0,0.776635 0.15111,1.448845 0.45118,2.013671 0.31772,0.547178 0.72256,0.99659 1.21679,1.34961 0.49422,0.353015 1.05019,0.618412 1.66797,0.794922 0.61778,0.176506 1.24543,0.265625 1.88086,0.265625 0.22946,0 0.50259,-0.02714 0.82031,-0.08008 0.31771,-0.05295 0.63542,-0.142069 0.95313,-0.265626 0.33537,-0.123553 0.65306,-0.290143 0.95312,-0.501953 0.31772,-0.229458 0.60055,-0.512293 0.84766,-0.847656 l 0.63476,1.191406 H 150 v -3.388671 h -1.58789 v -5.164063 c 0,-1.059051 -0.23053,-1.940449 -0.68945,-2.646484 -0.44128,-0.706036 -1.01467,-1.262001 -1.72071,-1.667969 -0.68838,-0.423621 -1.45549,-0.716142 -2.30273,-0.875 -0.84724,-0.17651 -1.66861,-0.263671 -2.46289,-0.263672 z M 23.554688,53.146484 c -1.006099,0 -1.941749,0.158848 -2.806641,0.476563 -0.864891,0.300063 -1.616522,0.751435 -2.251953,1.351562 -0.63543,0.60013 -1.137145,1.33042 -1.507813,2.195313 -0.370667,0.84724 -0.55664,1.81002 -0.55664,2.886719 0,1.270862 0.213097,2.365358 0.636718,3.283203 0.42362,0.900194 0.960201,1.64213 1.613282,2.224609 0.670733,0.56483 1.422362,0.979378 2.251953,1.244141 0.82959,0.282411 1.65869,0.423828 2.488281,0.423828 1.376766,0 2.612678,-0.168538 3.707031,-0.503906 0.717474,-0.231444 1.412032,-0.57175 2.083985,-1.015625 -0.177616,-0.309152 -0.345586,-0.631115 -0.5,-0.966797 -0.312723,-0.710735 -0.51224,-1.508877 -0.654297,-2.351563 l -0.0293,-0.0332 c -0.353017,0.300067 -0.70753,0.538334 -1.060547,0.714844 -0.353017,0.158857 -0.688144,0.280889 -1.005859,0.36914 -0.317715,0.08825 -0.617977,0.142504 -0.900391,0.160157 -0.264762,0.01766 -0.510773,0.02539 -0.740234,0.02539 -0.564827,0 -1.016196,-0.07942 -1.351563,-0.238281 -0.335366,-0.158858 -0.598809,-0.352569 -0.792969,-0.582031 -0.194159,-0.229458 -0.335574,-0.467734 -0.423828,-0.714844 -0.0706,-0.247115 -0.124854,-0.458255 -0.160156,-0.634765 h 8.341797 c 0.105905,-0.300063 0.185329,-0.617757 0.238281,-0.953126 0.05295,-0.353015 0.07813,-0.707531 0.07813,-1.060546 0,-0.900194 -0.141415,-1.729294 -0.423828,-2.488282 -0.282414,-0.776636 -0.704704,-1.446893 -1.269531,-2.011718 -0.564827,-0.564826 -1.2719,-1.006504 -2.119141,-1.324219 -0.82959,-0.317715 -1.790413,-0.476563 -2.884765,-0.476563 z m 75.808593,0 c -1.006106,0 -1.941743,0.158848 -2.80664,0.476563 -0.864893,0.300063 -1.61457,0.751435 -2.25,1.351562 -0.635431,0.60013 -1.139098,1.33042 -1.509766,2.195313 -0.370668,0.84724 -0.554688,1.81002 -0.554687,2.886719 0,1.270862 0.211144,2.365358 0.634765,3.283203 0.42362,0.900194 0.962153,1.64213 1.615235,2.224609 0.670732,0.56483 1.420411,0.979378 2.25,1.244141 0.829589,0.282411 1.658685,0.423828 2.488281,0.423828 1.376761,0 2.612681,-0.168538 3.707031,-0.503906 0.71748,-0.231444 1.41202,-0.57175 2.08398,-1.015625 -0.17762,-0.309152 -0.34362,-0.631115 -0.49804,-0.966797 -0.31272,-0.710735 -0.51419,-1.508877 -0.65625,-2.351563 l -0.0293,-0.0332 c -0.35302,0.300067 -0.70558,0.538334 -1.05859,0.714844 -0.35302,0.158857 -0.69011,0.280889 -1.00782,0.36914 -0.31772,0.08825 -0.61601,0.142504 -0.89843,0.160157 -0.26476,0.01766 -0.51273,0.02539 -0.74219,0.02539 -0.564831,0 -1.01424,-0.07942 -1.34961,-0.238281 C 98.445884,63.23372 98.180498,63.040009 97.986328,62.810547 97.792178,62.581089 97.65075,62.342813 97.5625,62.095703 97.4919,61.848588 97.439597,61.637448 97.404297,61.460938 h 8.339843 c 0.1059,-0.300063 0.18533,-0.617757 0.23828,-0.953126 0.053,-0.353015 0.0781,-0.707531 0.0781,-1.060546 0,-0.900194 -0.13947,-1.729294 -0.42188,-2.488282 -0.28242,-0.776636 -0.70666,-1.446893 -1.27148,-2.011718 -0.56483,-0.564826 -1.26995,-1.006504 -2.11719,-1.324219 -0.82959,-0.317715 -1.79237,-0.476563 -2.886719,-0.476563 z m -61.320312,0.132813 c -0.847241,0 -1.668604,0.131721 -2.462891,0.396484 -0.776638,0.264762 -1.464324,0.679314 -2.064453,1.244141 -0.600129,0.547176 -1.086363,1.254248 -1.457031,2.11914 -0.353017,0.847241 -0.529297,1.852623 -0.529297,3.017579 0,1.182607 0.193712,2.215114 0.582031,3.097656 0.405969,0.882542 0.936763,1.624479 1.589844,2.224609 0.670733,0.582478 1.447536,1.024155 2.330078,1.324219 0.882543,0.282414 1.808501,0.423828 2.779297,0.423828 0.706034,0 1.38598,-0.07942 2.039062,-0.238281 0.653081,-0.158858 1.253605,-0.362263 1.800782,-0.609375 0.564827,-0.247112 1.066541,-0.529941 1.507812,-0.847656 0.0651,-0.04948 0.105554,-0.09896 0.167969,-0.148438 -0.0228,-0.03136 -0.05797,-0.04805 -0.08008,-0.08008 -0.287158,-0.416036 -0.516158,-0.886603 -0.699219,-1.361328 -0.302708,-0.785003 -0.425436,-1.482408 -0.53125,-2.060547 l -0.04883,-0.05664 c -0.42362,0.458922 -0.88273,0.830869 -1.376953,1.113282 -0.494224,0.264763 -1.075361,0.396484 -1.746094,0.396484 -0.882542,0 -1.572182,-0.29057 -2.066406,-0.873047 -0.494224,-0.600129 -0.740235,-1.351759 -0.740235,-2.251953 0,-0.42362 0.0426,-0.838172 0.13086,-1.244141 0.105905,-0.40597 0.257013,-0.768221 0.451172,-1.085937 0.194159,-0.317715 0.432429,-0.573419 0.714843,-0.767578 0.300064,-0.194159 0.644884,-0.291016 1.033204,-0.291016 0.300065,0 0.555768,0.08912 0.767578,0.265625 0.211811,0.158858 0.378397,0.379697 0.501953,0.66211 0.123555,0.264763 0.212672,0.565023 0.265625,0.90039 0.0706,0.317715 0.115158,0.63541 0.132812,0.953125 h 3.890625 V 53.517577 H 41.80273 l -0.451172,1.271484 C 41.245658,54.665508 41.096503,54.5144 40.902344,54.337891 40.708185,54.161382 40.469914,53.994794 40.1875,53.835938 39.922738,53.67708 39.605043,53.543406 39.234375,53.4375 38.881359,53.331596 38.48424,53.279297 38.042969,53.279297 Z M 84.75,53.304688 c -0.40597,0 -0.775962,0.04456 -1.111328,0.132812 -0.335366,0.08825 -0.635628,0.194803 -0.900391,0.318359 -0.264763,0.105905 -0.503033,0.229887 -0.714843,0.371094 -0.194159,0.123556 -0.353007,0.228156 -0.476563,0.316406 l -0.451172,-0.925781 h -7.003906 v 3.521484 h 2.052734 v 12.947266 h -1.111328 v 3.46875 h 7.916016 v -3.46875 h -1.429688 v -3.972656 c 0.05295,0.0353 0.159503,0.114725 0.31836,0.238281 0.158858,0.105905 0.370002,0.220195 0.634765,0.34375 0.282413,0.123556 0.627233,0.230109 1.033203,0.318359 0.42362,0.08825 0.909855,0.132813 1.457032,0.132813 0.847241,0 1.641476,-0.158847 2.382812,-0.476563 0.741335,-0.317714 1.376724,-0.769084 1.90625,-1.351562 0.547176,-0.582478 0.969466,-1.287598 1.269531,-2.117188 0.317715,-0.847241 0.476563,-1.800324 0.476563,-2.859374 0,-0.935496 -0.131721,-1.818848 -0.396485,-2.648438 -0.264763,-0.847241 -0.66188,-1.587226 -1.191406,-2.222656 C 88.898281,54.735663 88.24546,54.231996 87.451172,53.861328 86.674535,53.49066 85.773749,53.304688 84.75,53.304688 Z m -27.511719,0.21289 v 3.494141 h 1.111328 v 3.654297 c 0,1.094353 0.08912,2.047436 0.265625,2.859375 0.176509,0.811939 0.467078,1.482193 0.873047,2.011718 0.423621,0.529526 0.971846,0.926644 1.642578,1.191407 0.688383,0.264763 1.534917,0.396484 2.541016,0.396484 0.564827,0 1.051062,-0.07942 1.457031,-0.238281 0.405969,-0.141207 0.748836,-0.317487 1.03125,-0.529297 0.300065,-0.21181 0.548029,-0.432648 0.742188,-0.66211 0.21181,-0.247112 0.38809,-0.448564 0.529297,-0.607421 l 0.714843,1.667968 h 5.945313 v -3.521484 h -2.238281 v -9.716797 h -6.857422 v 3.494141 h 1.748047 v 4.210937 c 0,0.600129 -0.168541,1.08441 -0.503907,1.455078 -0.317715,0.370667 -0.70514,0.556641 -1.164062,0.556641 -0.547177,0 -0.926862,-0.265397 -1.138672,-0.794922 -0.194159,-0.547176 -0.291016,-1.39371 -0.291016,-2.541015 v -6.38086 z m 68.369139,0 v 3.441406 h 1.11133 v 6.328125 h -1.11133 v 3.46875 h 7.41406 v -3.46875 H 131.75 v -9.769531 z m -10.45898,3.175781 c 0.28241,0 0.53812,0.08912 0.76758,0.265625 0.24711,0.176509 0.45052,0.424473 0.60937,0.742188 0.17651,0.317715 0.30823,0.687708 0.39649,1.111328 0.0883,0.423621 0.13281,0.882729 0.13281,1.376953 0,0.953146 -0.19371,1.702824 -0.58203,2.25 -0.37067,0.547177 -0.80265,0.820313 -1.29688,0.820313 -0.30006,0 -0.56545,-0.09686 -0.79492,-0.291016 -0.22946,-0.194159 -0.43287,-0.44017 -0.60938,-0.740234 -0.15886,-0.300065 -0.28284,-0.644885 -0.37109,-1.033204 -0.0883,-0.388318 -0.13086,-0.785436 -0.13086,-1.191406 0,-1.006098 0.16659,-1.810027 0.50195,-2.410156 0.35302,-0.600129 0.81213,-0.900391 1.37696,-0.900391 z m -91.435549,0.02734 c 0.42362,0 0.758747,0.06199 1.005859,0.185547 0.264763,0.123557 0.458475,0.290143 0.582031,0.501953 0.141207,0.194163 0.238063,0.424686 0.291016,0.689453 0.05295,0.24711 0.08008,0.495078 0.08008,0.742188 H 21.67383 c 0.01765,-0.158857 0.05447,-0.362264 0.107422,-0.609375 0.0706,-0.247115 0.175199,-0.477639 0.316406,-0.689453 0.158857,-0.229458 0.362263,-0.423174 0.609375,-0.582032 0.264762,-0.158857 0.599889,-0.238281 1.00586,-0.238281 z m 75.808593,0 c 0.42362,0 0.758746,0.06199 1.005856,0.185547 0.26477,0.123557 0.46044,0.290143 0.58399,0.501953 0.14121,0.194163 0.23806,0.424686 0.29101,0.689453 0.053,0.24711 0.0801,0.495078 0.0801,0.742188 h -3.998045 c 0.0177,-0.158857 0.05253,-0.362264 0.105469,-0.609375 0.0706,-0.247115 0.175196,-0.477639 0.316406,-0.689453 0.15885,-0.229458 0.362265,-0.423174 0.609375,-0.582032 0.264776,-0.158857 0.599889,-0.238281 1.005859,-0.238281 z m -16.121093,0.318359 c 0.282413,0 0.538117,0.09686 0.767578,0.291016 0.247111,0.194159 0.450517,0.440169 0.609375,0.740234 0.176509,0.300064 0.308234,0.654577 0.396484,1.060547 0.08825,0.388319 0.132813,0.775744 0.132813,1.164063 0,1.006099 -0.17628,1.810027 -0.529297,2.410156 -0.335366,0.600129 -0.786736,0.900391 -1.351563,0.900391 -0.282414,0 -0.545857,-0.08912 -0.792969,-0.265625 -0.229461,-0.176509 -0.432866,-0.424473 -0.609374,-0.742188 -0.158857,-0.317715 -0.282834,-0.687707 -0.371094,-1.111328 -0.08825,-0.42362 -0.132813,-0.882729 -0.132813,-1.376953 0,-0.953146 0.185973,-1.702823 0.556641,-2.25 0.388319,-0.547176 0.829995,-0.820313 1.324219,-0.820313 z m 58.074219,4.13086 c 0.28242,0 0.51295,0.03487 0.68945,0.105469 0.19416,0.07061 0.35301,0.150028 0.47656,0.238281 0.12355,0.08825 0.21073,0.175415 0.26368,0.263672 0.0706,0.0706 0.11516,0.124855 0.13281,0.160156 v 1.005859 c -0.12356,0.194158 -0.33471,0.387874 -0.63477,0.582032 -0.30007,0.194162 -0.65457,0.291015 -1.06054,0.291015 -0.40597,0 -0.74109,-0.114288 -1.00586,-0.34375 -0.26476,-0.229462 -0.39649,-0.529723 -0.39649,-0.90039 0,-0.405973 0.12399,-0.741097 0.3711,-1.00586 0.24711,-0.264763 0.63454,-0.396484 1.16406,-0.396484 z"
       id="path1540" />
  </g>
</svg>
