<?xml version="1.0" encoding="UTF-8" standalone="no"?>
<svg
   xmlns:dc="http://purl.org/dc/elements/1.1/"
   xmlns:cc="http://creativecommons.org/ns#"
   xmlns:rdf="http://www.w3.org/1999/02/22-rdf-syntax-ns#"
   xmlns:svg="http://www.w3.org/2000/svg"
   xmlns="http://www.w3.org/2000/svg"
   height="75"
   width="150"
   version="1.1"
   viewBox="0 0 150 75">
  <metadata>
    <rdf:RDF>
      <rdf:Description
         dc:title="Lectupedia - Logo"
         dc:description="Lectupedia"
         dc:publisher="Lectupedia"
         dc:date="2020-12-01"
         dc:format="image/svg+xml"
         dc:language="es">
        <dc:creator>
          <rdf:Bag>
            <rdf:li>Paula Peña</rdf:li>
            <rdf:li>pauladorada</rdf:li>
            <rdf:li>Andrés Peña</rdf:li>
          </rdf:Bag>
        </dc:creator>
      </rdf:Description>
      <cc:Work
         rdf:about="">
        <dc:format>image/svg+xml</dc:format>
        <dc:type
           rdf:resource="http://purl.org/dc/dcmitype/StillImage" />
        <dc:title>Lectupedia</dc:title>
        <cc:license
           rdf:resource="http://creativecommons.org/licenses/by-nc-nd/4.0/" />
      </cc:Work>
      <cc:License
         rdf:about="http://creativecommons.org/licenses/by-nc-nd/4.0/">
        <cc:permits
           rdf:resource="http://creativecommons.org/ns#Reproduction" />
        <cc:permits
           rdf:resource="http://creativecommons.org/ns#Distribution" />
        <cc:requires
           rdf:resource="http://creativecommons.org/ns#Notice" />
        <cc:requires
           rdf:resource="http://creativecommons.org/ns#Attribution" />
        <cc:prohibits
           rdf:resource="http://creativecommons.org/ns#CommercialUse" />
      </cc:License>
    </rdf:RDF>
  </metadata>
  <path d="m 118.414,0.004 0.566,1.03 c 0.997,1.817 1.497,2.812 1.75,3.507 0.127,0.346 0.124,0.668 0.17,0.959 -1.62,-0.54 -2.459,-1.15 -3.232,-1.854 -0.933,-0.847 -2.097,-1.762 -4.967,-2.238 l -0.555,-0.092 -0.128,0.55 c -0.666,2.858 0.305,5.807 0.646,6.773 -1.834,-0.05 -3.667,0.348 -5.062,1.957 -0.88269,1.023831 -1.65278,2.139573 -2.297,3.328 -0.664,1.244 -1.158,2.512 -1.008,3.672 l 0.166,1.285 0.873,-0.957 c 0,0 0.936,-1.022 2.264,-1.844 1.187,-0.736 2.59,-1.13 3.906,-0.74 -0.227,0.914 -0.455,1.89 -0.682,2.851 -0.683,-0.35 -1.039,-0.564 -1.039,-0.564 l -0.502,-0.307 c -1.79423,2.861913 -2.09674,5.975337 -2.258,9.008 l 1.954,0.652 c -0.442,2.423 -0.841,4.859 -1.11,7.25 -1.30088,-0.186612 -2.60071,-0.425145 -3.914,-0.474 -0.50406,-0.01402 -1.00849,-0.0073 -1.512,0.02 -1.11325,0.01666 -2.18644,0.26205 -3.242,0.58 -0.799976,5.804761 -1.601218,11.609349 -2.402,17.414 0.405,-0.107 0.82,-0.176 1.242,-0.229 l 2.236,-16.223 c 0.2,-0.062 0.76,-0.265 2.23,-0.345 0.424,-0.023 0.897,-0.032 1.415,-0.018 1.553,0.043 3.517,0.295 5.82,0.994 6.021,1.83 8.647,7.096 8.647,7.096 l 0.263,0.527 0.532,-0.254 c 0,0 5.454,-2.577 11.615,-1.908 5.803,0.63 8.475,4.842 8.715,5.229 l -2.569,5.357 c 0.082,-0.034 0.15,-0.072 0.235,-0.105 0.44,-0.182 0.896,-0.324 1.361,-0.448 l 2.36,-4.923 -0.163,-0.276 c 0,0 -1.736,-2.906 -5.338,-4.709 0.85146,-1.852641 1.65342,-3.72764 2.405,-5.623 l 0.566,0.178 2.803,-7.442 c -0.19386,-0.119305 -0.39742,-0.221381 -0.596,-0.332 0.32,-0.982 0.628,-1.944 0.87,-2.773 0.456,0.263 1.01,0.588 1.628,1.38 0.796,1.02 1.53,2.392 1.87,3.897 l 0.48,2.13 0.676,-2.077 c 0.417,-1.28 0.776,-3.048 0.88,-4.844 0.105,-1.796 -0.028,-3.614 -0.716,-5.017 -0.96026,-1.970963 -2.78203,-3.383669 -4.93,-3.823 2.923,-2.213 3.947,-6.218 4.34,-7.593 l 0.306,-1.075 -1.064,0.338 c -3.34,1.058 -5.05,0.604 -7.764,-0.785 0.161,-0.182 0.23,-0.348 0.506,-0.535 0.505,-0.342 1.158,-0.66 1.799,-0.922 0.81409,-0.3269872 1.6485,-0.600894 2.498,-0.82 l 1.484,-0.363 -1.334,-0.745 c -2.235,-1.244 -4.508,-2.107 -6.742,-2.07 -2.026,0.034 -3.96,0.993 -5.668,2.848 -1.014,-1.725 -2.676,-2.986 -4.504,-3.79 -2.062,-0.905 -4.221,-1.351 -5.613,-1.527 z m 2.219,1.664 c 1.235,0.226 2.601,0.46 4.078,1.11 1.911,0.84 3.625,2.077 4.353,3.767 l 0.395,0.918 0.625,-0.781 c 1.646,-2.062 3.397,-2.832 5.303,-2.864 1.495,-0.025 3.119,0.534 4.775,1.309 -0.465,0.145 -0.557,0.136 -1.154,0.379 -0.69,0.28 -1.407,0.624 -2.022,1.04 -0.614,0.418 -1.154,0.905 -1.386,1.581 l -0.166,0.482 0.449,0.243 c 2.96,1.596 5.114,2.158 8.29,1.398 -0.59,2.054 -1.702,5.57 -4.677,6.826 l 0.264,1.15 c 2.047,-0.104 4.319,1.056 5.428,3.315 0.526,1.073 0.693,2.74 0.595,4.42 -0.052,0.9 -0.278,1.605 -0.44,2.43 -0.384,-0.822 -0.83,-1.577 -1.322,-2.205 -1.00855,-1.194565 -1.92402,-1.957786 -3.298,-2.352 -0.37852,1.364471 -0.81364,2.797446 -1.198,3.961 -2.027,-0.954 -6.688,-2.9 -14.275,-4.652 -6.512,-1.505 -10.938,-3.291 -13.334,-4.414 0.3,-1.277 0.602,-2.546 0.9,-3.739 l 0.12,-0.474 -0.444,-0.211 c -1.972,-0.943 -4.033,-0.168 -5.523,0.756 -0.605,0.374 -0.607,0.48 -1.022,0.834 0.154,-0.494 0.127,-0.864 0.416,-1.407 0.60406,-1.107885 1.32374,-2.148688 2.147,-3.105 1.329,-1.533 2.975,-1.834 4.861,-1.612 l 0.98,0.116 -0.347,-0.922 c 0,0 -1.19,-3.478 -0.858,-6.186 2.027,0.44 2.913,1.027 3.715,1.756 0.905,0.823 1.965,1.827 4.67,2.475 l 0.795,0.191 -0.056,-0.816 c -0.06,-0.826 -0.113,-1.433 -0.413,-2.254 -0.2,-0.55 -0.745,-1.549 -1.224,-2.463 z M 109.76,18.941 c 0.578,0.337 3.558,1.954 9.62,3.823 -0.42773,2.047081 -0.77923,4.05519 -1.569,5.9 l -9.524,-3.18 c 0.0663,-2.284973 0.43727,-4.60032 1.473,-6.543 z m 2.265,3.538 c -0.62465,-0.02173 -1.12717,0.220865 -1.334,0.644 -0.33539,0.687441 0.19559,1.637032 1.186,2.121 0.98964,0.483586 2.06371,0.319342 2.4,-0.367 0.33567,-0.687223 -0.19484,-1.636768 -1.185,-2.121 -0.34404,-0.168399 -0.71444,-0.264558 -1.067,-0.277 z m 8.514,0.605 c 1.42,0.415 2.751,0.838 4.441,1.228 1.21,0.28 2.086,0.56 3.145,0.844 -1.27025,2.27294 -1.64292,4.860279 -1.514,7.24 l 10.05,3.157 c -0.735,1.82 -1.511,3.664 -2.358,5.49 -1.08358,-0.42281 -2.21849,-0.699898 -3.375,-0.824 -6.136,-0.667 -11.106,1.543 -11.782,1.851 -0.377,-0.71 -2.977,-5.423 -9.054,-7.27 -0.35029,-0.09505 -0.69897,-0.195969 -1.049,-0.292 0.26,-2.345 0.63,-4.755 1.062,-7.153 l 8.186,2.733 c 0.59985,-0.559854 0.84036,-1.384169 1.051,-1.984 0.51596,-1.70511 0.84881,-3.240466 1.197,-5.02 z m 8.766,2.389 c 6.691,1.885 9.902,3.5 10.369,3.756 l -2.026,5.376 -9.906,-3.11 c 0.13135,-2.043495 0.37993,-4.361662 1.563,-6.022 z m -6.075,1.136 -0.234,0.553 c 0,0 -1.495,3.556 -6.006,7.809 l -0.492,0.465 0.52,0.433 c 0,0 1.374,1.164 2.166,2.451 l 0.314,0.512 1.023,-0.629 -0.314,-0.512 c -0.777,-1.264 -1.625,-1.938 -2,-2.265 4.31,-4.207 5.895,-7.795 5.895,-7.795 l 0.234,-0.553 z m 8.038,1.842 c -0.54407,0.02641 -0.96942,0.263203 -1.155,0.643 -0.33454,0.687333 0.19627,1.636178 1.186,2.12 0.98927,0.483591 2.06318,0.31982 2.4,-0.366 0.33567,-0.687223 -0.19484,-1.636768 -1.185,-2.121 -0.40441,-0.209587 -0.84633,-0.221812 -1.246,-0.276 z" fill="#000000"/>
  <path d="m 37.855469,69.814453 v 0.220703 h 1.818359 v -0.21875 z m -18.515625,0.636719 a 0.954,0.954 0 0 0 -0.845703,0.58789 c -0.09,0.254002 -0.03055,0.569235 0.189453,0.740235 0.287,0.233 0.649172,0.343781 0.951172,0.550781 0.136,0.095 0.204359,0.259828 0.193359,0.423828 a 0.476,0.476 0 0 1 -0.392578,0.476563 c -0.273,0.059 -0.557625,-0.03975 -0.765625,-0.21875 -0.047,-0.046 -0.05975,-0.117783 -0.09375,-0.175781 l -0.142578,-0.310547 c -0.05,-0.006 -0.09031,-0.0044 -0.07031,0.05664 0.015,0.222 0.02897,0.446922 0.04297,0.669922 0.245,0.128 0.515969,0.202172 0.792969,0.201172 0.395,0.021 0.82375,-0.194172 0.96875,-0.576172 0.086,-0.263 0.05394,-0.593156 -0.164063,-0.785156 -0.276,-0.24 -0.637594,-0.345688 -0.933594,-0.554688 -0.172999,-0.102 -0.243031,-0.315812 -0.207031,-0.507812 a 0.44,0.44 0 0 1 0.478516,-0.365235 c 0.188,0.007 0.360906,0.108657 0.503906,0.222657 l 0.201172,0.458984 c 0.055,0.01 0.08541,-0.0045 0.06641,-0.06445 l -0.04102,-0.642578 a 1.616,1.616 0 0 0 -0.732422,-0.1875 z m 10.132812,0 c -0.578,-0.009 -1.112234,0.372859 -1.365234,0.880859 -0.266,0.51 -0.226563,1.187719 0.148437,1.636719 0.278,0.334 0.720438,0.493375 1.148438,0.484375 0.342,0.006 0.690187,-0.0518 0.992187,-0.216797 l 0.04883,-0.701172 c -0.056,-0.01 -0.09437,0.0065 -0.109374,0.0625 l -0.232422,0.41211 c -0.21,0.136 -0.452032,0.23075 -0.707032,0.21875 a 0.955,0.955 0 0 1 -0.820312,-0.453125 c -0.214,-0.332 -0.257078,-0.748813 -0.205078,-1.132813 0.065,-0.447 0.405328,-0.864266 0.861328,-0.947266 0.221,-0.046 0.462297,-0.02739 0.654297,0.09961 0.077,0.048 0.169265,0.08569 0.197265,0.179687 l 0.232422,0.460938 c 0.055,0.007 0.09913,0.0045 0.07813,-0.0625 L 30.375,70.662109 a 1.895,1.895 0 0 0 -0.902344,-0.210937 z m 3.175782,0 c -0.533001,-0.01 -1.065594,0.290531 -1.308594,0.769531 -0.283,0.55 -0.220547,1.273141 0.189453,1.744141 0.293,0.34 0.753219,0.514328 1.199219,0.486328 0.525,-0.014 1.036859,-0.330453 1.255859,-0.814453 0.253,-0.542 0.188109,-1.23936 -0.212891,-1.69336 a 1.487,1.487 0 0 0 -1.123046,-0.492187 z m 25.660156,0 c -0.693,-0.015 -1.36225,0.484203 -1.53125,1.158203 -0.12,0.47 -0.03827,1.013 0.302734,1.375 0.374,0.421 0.992344,0.552875 1.527344,0.421875 a 1.75,1.75 0 0 0 0.693359,-0.324219 v -0.693359 l 0.306641,-0.189453 c 0.02,-0.07 -0.02298,-0.07836 -0.08398,-0.06836 H 58.50391 c -0.018,0.062 0.02017,0.08852 0.07617,0.103516 l 0.320313,0.142578 v 0.726563 a 1.536,1.536 0 0 1 -0.847657,0.06445 c -0.446,-0.097 -0.795718,-0.483781 -0.886718,-0.925781 -0.078,-0.36 -0.07252,-0.765172 0.146484,-1.076172 0.264,-0.396 0.795953,-0.57708 1.251953,-0.455078 0.13,0.047 0.260328,0.111171 0.361328,0.201171 l 0.28125,0.480469 c 0.071,0.019 0.08036,-0.02298 0.06836,-0.08398 l -0.01953,-0.646485 a 1.847,1.847 0 0 0 -0.835937,-0.208984 4.148,4.148 0 0 0 -0.111328,-0.002 z m 13.207031,0 c -0.534,-0.01 -1.066594,0.290531 -1.308594,0.769531 -0.283,0.55 -0.221547,1.273141 0.189453,1.744141 0.294,0.34 0.753219,0.514328 1.199219,0.486328 0.526,-0.013 1.036859,-0.330453 1.255859,-0.814453 0.253001,-0.542 0.18811,-1.23936 -0.21289,-1.69336 A 1.482,1.482 0 0 0 71.515625,70.451172 Z M 0.0625,70.496094 v 0.07031 l 0.3828125,0.179688 -0.09375,2.416015 L 0,73.339844 v 0.06836 h 0.98632812 v -0.06836 l -0.359375,-0.171875 0.0566406,-2.146485 1.04492188,2.410157 h 0.2011719 l 1.0625,-2.441407 0.042969,2.177735 -0.328125,0.171875 v 0.06836 h 1.0214844 v -0.06836 l -0.3105468,-0.177735 -0.076172,-2.419921 0.375,-0.175782 v -0.07031 H 2.9335938 L 1.9121094,72.845703 0.88476562,70.496094 Z m 4.2226562,0 c -0.018,0.063 0.021172,0.09137 0.076172,0.109375 l 0.2792969,0.136719 c 0.002,0.554 -0.00409,1.108109 0.00391,1.662109 0.01,0.33 0.1505938,0.671422 0.4335938,0.857422 0.328,0.211 0.7510469,0.234672 1.1230469,0.138672 a 0.972,0.972 0 0 0 0.703125,-0.707032 c 0.074,-0.299 0.039875,-0.608109 0.046875,-0.912109 v -1.042969 l 0.3515625,-0.171875 c 0.02,-0.072 -0.022984,-0.08031 -0.083984,-0.07031 H 6.1953125 c -0.019,0.065 0.022078,0.08956 0.080078,0.101562 l 0.3652344,0.136719 c -0.002,0.575 0.00405,1.150609 -0.00195,1.724609 -0.003,0.282 -0.1516405,0.583594 -0.4316407,0.683594 a 0.96,0.96 0 0 1 -0.8339843,-0.0918 c -0.273,-0.192 -0.3390313,-0.549281 -0.3320313,-0.863281 v -1.445312 l 0.3554688,-0.175782 c 0.02,-0.072 -0.022984,-0.08031 -0.083984,-0.07031 z m 3.5761719,0 v 0.07031 l 0.3515625,0.1875 v 2.408203 l -0.3554687,0.177735 v 0.06836 h 1.1132812 v -0.06836 L 8.5234375,73.167969 v -2.035157 l 1.8359375,2.298829 h 0.164063 v -2.691407 l 0.353515,-0.171875 v -0.07031 H 9.7675781 v 0.07031 l 0.4453129,0.167969 v 1.88086 L 8.515625,70.496094 Z m 3.5253909,0 c -0.017,0.06 0.01922,0.09142 0.07422,0.107422 l 0.28125,0.138672 v 2.419921 l -0.355469,0.177735 c -0.019,0.069 0.02103,0.07836 0.08203,0.06836 0.438,-0.002 0.876453,0.0051 1.314453,-0.0039 0.574,-0.032 1.124125,-0.405219 1.328125,-0.949219 0.173,-0.436 0.174348,-0.970141 -0.09766,-1.36914 C 13.751676,70.69293 13.266594,70.513 12.808594,70.5 c -0.474,-0.006 -0.947875,-0.0029 -1.421875,-0.0039 z m 3.402343,0 c -0.019,0.063 0.02117,0.09137 0.07617,0.109375 l 0.279297,0.136719 c 10e-4,0.546 -0.003,1.093671 0.002,1.638671 0.007,0.338 0.146547,0.687907 0.435547,0.878907 0.323,0.21 0.739469,0.235484 1.105469,0.146484 a 0.973,0.973 0 0 0 0.710938,-0.671875 c 0.09,-0.307 0.04959,-0.631311 0.05859,-0.945313 v -1.048828 l 0.351563,-0.173828 c 0.02,-0.072 -0.02298,-0.08031 -0.08398,-0.07031 h -1.023437 c -0.019,0.065 0.02208,0.08956 0.08008,0.101562 l 0.363281,0.136719 c -0.002,0.575 0.004,1.150609 -0.002,1.724609 -0.003,0.29 -0.161172,0.599407 -0.451172,0.691407 A 0.947,0.947 0 0 1 15.837893,73.01758 c -0.257,-0.213 -0.300969,-0.566906 -0.292969,-0.878906 V 70.74219 l 0.355469,-0.175782 c 0.02,-0.072 -0.02299,-0.08031 -0.08399,-0.07031 z m 7.066407,0 v 0.07031 l 0.357422,0.175782 v 2.419921 l -0.357422,0.177735 v 0.06836 h 2.298828 v -0.802734 h -0.07031 l -0.27539,0.560547 h -1.199219 v -1.138672 h 0.755859 l 0.22461,0.359375 h 0.06836 v -0.966797 h -0.06836 l -0.22461,0.365234 H 22.609378 V 70.73828 h 1.074219 l 0.273437,0.517578 h 0.07031 v -0.759765 z m 2.833984,0 v 0.07031 l 0.279297,0.15625 0.919922,1.234375 -0.941406,1.220703 -0.324219,0.16211 v 0.06836 h 1 v -0.06836 l -0.359375,-0.160156 v -0.01758 l 0.773437,-1.011718 0.753907,1.011718 v 0.01758 l -0.324219,0.160156 v 0.06836 h 1.134765 v -0.06836 l -0.3125,-0.171875 -0.982421,-1.285157 0.902343,-1.154296 0.28125,-0.16211 v -0.07031 h -0.933593 v 0.07031 l 0.33789,0.16211 v 0.01758 l -0.738281,0.9375 -0.710938,-0.929688 v -0.02539 l 0.355469,-0.16211 v -0.07031 z m 10.041016,0 v 0.07031 l 0.355469,0.175782 v 2.419921 l -0.355469,0.177735 v 0.06836 h 2.208984 v -0.978515 h -0.07031 l -0.302735,0.738281 H 35.48633 v -2.425781 l 0.400391,-0.175782 v -0.07031 z m 2.769531,0 v 0.07031 l 0.355469,0.175782 v 2.419921 L 37.5,73.339844 v 0.06836 h 2.298828 V 72.60547 h -0.07227 l -0.27539,0.560547 h -1.195313 v -1.138672 h 0.75586 l 0.222656,0.359375 h 0.07031 v -0.966797 h -0.07031 l -0.222656,0.365234 h -0.75586 v -1.046875 h 1.072266 l 0.275391,0.517578 h 0.07031 v -0.759765 z m 2.810547,0 v 0.890625 h 0.07227 l 0.302735,-0.648438 h 0.722656 v 2.423828 l -0.443359,0.177735 v 0.06836 h 1.289062 v -0.06836 l -0.445312,-0.177735 v -2.423828 h 0.724609 l 0.302735,0.650391 h 0.07031 v -0.892578 z m 3.083984,0 c -0.019,0.063 0.02117,0.09137 0.07617,0.109375 L 43.75,70.742188 c 0.002,0.546 -0.003,1.093671 0.002,1.638671 0.008,0.338 0.147547,0.687907 0.435547,0.878907 0.323,0.21 0.741422,0.235484 1.107422,0.146484 0.34,-0.08 0.628844,-0.349406 0.714844,-0.691406 0.08,-0.302 0.04473,-0.61778 0.05273,-0.925782 v -1.048828 l 0.351562,-0.173828 c 0.02,-0.072 -0.02298,-0.08031 -0.08398,-0.07031 h -1.023437 c -0.02,0.065 0.02308,0.08956 0.08008,0.101562 l 0.365234,0.136719 c -0.002,0.575 0.0021,1.150609 -0.0039,1.724609 -0.005,0.289 -0.159219,0.599407 -0.449219,0.691407 A 0.947,0.947 0 0 1 44.441461,73.01758 c -0.257,-0.213 -0.299015,-0.566906 -0.291015,-0.878906 V 70.74219 l 0.355468,-0.175782 c 0.02,-0.072 -0.02298,-0.08031 -0.08398,-0.07031 z m 3.595703,0 c -0.015,0.06 0.01631,0.09047 0.07031,0.105468 l 0.285156,0.140626 v 2.419921 l -0.355469,0.177735 c -0.017,0.067 0.01908,0.07836 0.08008,0.06836 h 1.007813 c 0.015,-0.059 -0.01631,-0.08942 -0.07031,-0.107422 l -0.261718,-0.142578 v -1.087891 h 0.412109 l 0.863281,1.337891 h 0.638672 c 0.014,-0.059 -0.01536,-0.08942 -0.06836,-0.107422 -0.075,-0.043 -0.157516,-0.07895 -0.228516,-0.126953 l -0.839843,-1.216797 c 0.299998,-0.104 0.588234,-0.344687 0.615234,-0.679687 a 0.625,0.625 0 0 0 -0.28711,-0.59961 c -0.277999,-0.193 -0.627171,-0.18464 -0.951171,-0.18164 z m 4.044922,0 v 0.07031 l 0.355469,0.175782 v 2.419921 l -0.355469,0.177735 v 0.06836 h 2.208985 v -0.978515 h -0.07031 l -0.302734,0.738281 h -1.080078 v -2.425781 l 0.40039,-0.175782 v -0.07031 z m 2.769532,0 v 0.07031 l 0.355468,0.175782 v 2.419921 l -0.355468,0.177735 v 0.06836 h 2.298828 v -0.802734 h -0.07227 l -0.275391,0.560547 h -1.195312 v -1.138672 h 0.753906 l 0.220703,0.359375 h 0.07227 v -0.966797 h -0.07227 l -0.21875,0.365234 H 54.560543 V 70.73828 h 1.070312 l 0.273438,0.517578 h 0.07422 v -0.759765 z m 6.310546,0 v 0.07031 l 0.355469,0.175782 v 2.419921 l -0.355469,0.177735 v 0.06836 h 2.298828 v -0.802734 h -0.07031 l -0.277344,0.560547 h -1.195312 v -1.138672 h 0.755859 l 0.222656,0.359375 h 0.07031 v -0.966797 h -0.07031 l -0.222656,0.365234 H 60.871096 V 70.73828 h 1.072265 l 0.275391,0.517578 h 0.07031 v -0.759765 z m 2.882813,0 v 0.07031 l 0.351562,0.1875 v 2.408203 l -0.355468,0.177735 v 0.06836 h 1.111328 v -0.06836 L 63.660156,73.167967 V 71.13281 l 1.835938,2.298829 h 0.164062 v -2.691407 l 0.351563,-0.171875 v -0.07031 h -1.107422 v 0.07031 l 0.445312,0.167969 v 1.88086 l -1.699218,-2.121094 z m 3.525391,0 c -0.016,0.06 0.01825,0.09142 0.07227,0.107422 l 0.283203,0.138672 v 2.419921 l -0.355468,0.177735 c -0.018,0.069 0.02103,0.07836 0.08203,0.06836 0.438,-0.002 0.876453,0.0051 1.314453,-0.0039 0.574,-0.032 1.123125,-0.405219 1.328125,-0.949219 0.173,-0.436 0.174348,-0.970141 -0.09766,-1.36914 -0.27,-0.400002 -0.765422,-0.579891 -1.232422,-0.587891 -0.465,-0.003 -0.930532,-9.06e-4 -1.394531,-0.002 z m -33.951172,0.171875 v 0.002 c 0.406,-0.01 0.773218,0.261234 0.949218,0.615234 0.183,0.356 0.220625,0.778969 0.140625,1.167969 -0.08,0.356 -0.344797,0.690766 -0.716797,0.759766 a 1.036,1.036 0 0 1 -1,-0.353516 c -0.32,-0.374 -0.396453,-0.903953 -0.314453,-1.376953 0.066,-0.377 0.348328,-0.724922 0.736329,-0.794922 0.067,-0.013 0.137078,-0.01953 0.205078,-0.01953 z m 38.867187,0.002 c 0.406,-0.01 0.773219,0.261234 0.949219,0.615234 0.183,0.356 0.220625,0.778969 0.140625,1.167969 -0.077,0.357 -0.344797,0.691766 -0.716797,0.759766 a 1.036,1.036 0 0 1 -1,-0.353516 c -0.32,-0.374 -0.398453,-0.903953 -0.314453,-1.376953 0.067,-0.365 0.332078,-0.706108 0.705078,-0.78711 0.077,-0.019 0.157328,-0.02539 0.236328,-0.02539 z m -59.296875,0.06836 c 0.347,0.007 0.711156,-0.03777 1.035156,0.115235 0.331,0.142 0.552422,0.472265 0.607422,0.822265 0.071,0.425 -0.0078,0.913844 -0.339844,1.214844 -0.24,0.225 -0.578437,0.291344 -0.898437,0.277344 h -0.404297 z m 35.603516,0 c 0.256,0.005 0.536812,-0.03305 0.757812,0.126953 0.282,0.182 0.267088,0.643125 -0.0039,0.828125 -0.175,0.145 -0.407094,0.138766 -0.621094,0.134766 -0.04,-0.01 -0.118812,0.02039 -0.132812,-0.01563 v -1.072266 z m 19.533203,0 c 0.347,0.007 0.711156,-0.03777 1.035156,0.115235 0.331,0.142 0.552422,0.472265 0.607422,0.822265 0.07,0.42 -0.0032,0.901125 -0.326172,1.203125 -0.237,0.227 -0.577484,0.303063 -0.896484,0.289063 h -0.419922 z m -46.134766,0.861328 -0.351562,0.353516 0.351562,0.353516 0.353516,-0.353516 z m 29.087891,0 -0.351563,0.353516 0.351563,0.353516 0.353516,-0.353516 z" fill="#ff4800"/>
  <path d="m 0,43.402344 v 3.496094 H 1.4570312 V 63.234375 H 0 v 3.521484 h 14.826172 v -6.886718 h -4.445313 v 3.363281 H 6.9628906 V 46.898438 h 1.4042969 v -3.496094 z m 53.09375,3.496094 -4.871094,1.5625 v 5.05664 h -1.429687 v 3.441406 h 1.429687 c 0.02676,2.251424 -0.07521,4.50725 0.107422,6.753907 0.06352,1.187175 0.490582,2.525729 1.646484,3.070312 1.459578,0.685049 3.127704,0.433357 4.664063,0.207031 0.429324,-0.106524 1.149003,-0.09245 0.96875,-0.705078 v -2.945312 c -0.646296,0.229055 -2.21717,0.971284 -2.46875,-0.166016 -0.151939,-0.892855 -0.0045,-1.798502 -0.04687,-2.699219 v -3.515625 h 2.515625 v -3.441406 h -2.51563 z m 62.74414,0 v 3.441406 h 1.2168 v 3.917968 c -0.99613,-0.633442 -2.13667,-1.076178 -3.33594,-1.005859 -2.59554,-0.04386 -4.99709,1.831399 -5.75586,4.289063 -1.06414,3.211559 0.055,7.304524 3.21484,8.896484 1.86406,0.895356 4.30055,0.739785 5.87696,-0.662109 l 0.45117,0.980468 h 6.19531 V 63.3125 h -1.27148 V 46.898438 Z m 13.36914,0.05273 c -0.459,0 -0.87314,0.08667 -1.24414,0.263672 a 2.773,2.773 0 0 0 -0.90039,0.636718 c -0.23,0.264002 -0.4053,0.555047 -0.5293,0.873047 a 2.554,2.554 0 0 0 -0.18554,0.927735 c 0,0.318 0.0709,0.636125 0.21289,0.953125 0.14,0.318 0.33403,0.608047 0.58203,0.873047 0.264,0.247 0.56539,0.450375 0.90039,0.609375 0.353,0.159 0.74006,0.238281 1.16406,0.238281 0.953,0 1.67788,-0.256578 2.17188,-0.767578 0.494,-0.53 0.74218,-1.16425 0.74218,-1.90625 0,-0.3 -0.0719,-0.610735 -0.21289,-0.927735 a 2.718,2.718 0 0 0 -1.48242,-1.509765 2.692,2.692 0 0 0 -1.21875,-0.263672 z M 141.23633,52.75 c -2.06192,0.0023 -4.01869,0.853351 -5.77149,1.878906 v 3.65625 c 1.27594,-1.080899 2.88729,-1.8016 4.58008,-1.792968 0.89111,-0.0075 1.91205,-0.0484 2.6543,0.523437 0.48875,0.502466 0.29905,1.24606 0.33789,1.876953 -1.4327,-1.240377 -3.57742,-1.098913 -5.22656,-0.392578 -1.7161,0.702591 -2.97292,2.458232 -2.90235,4.335938 -0.0611,1.355997 0.62146,2.690958 1.76172,3.427734 1.87559,1.245681 4.60598,1.425379 6.41406,-0.0332 0.38282,-0.377613 0.66524,-0.920973 0.8711,-0.185547 l 0.3789,0.710937 H 150 v -3.388671 h -1.58789 c -0.01,-1.882388 0.0199,-3.766692 -0.0176,-5.648438 -0.0692,-1.816885 -1.32988,-3.441937 -2.98242,-4.150391 -1.29484,-0.6108 -2.76012,-0.784472 -4.17576,-0.818362 z M 23.554688,53.146484 c -2.459179,-0.04715 -5.070829,1.102421 -6.246094,3.361328 -1.049828,1.87213 -1.101954,4.184206 -0.488282,6.205079 0.572196,1.697055 1.825936,3.190221 3.50586,3.86914 1.903472,0.84055 4.06673,0.766852 6.064453,0.341797 1.006809,-0.217511 1.966738,-0.638408 2.822266,-1.210937 -0.616794,-1.010134 -0.971749,-2.154358 -1.154297,-3.31836 -0.804987,0.559513 -1.877724,1.172545 -2.960938,1.208985 -1.019118,0.08087 -2.203267,0.06842 -2.919922,-0.792969 -0.254187,-0.312053 -0.709315,-1.06137 -0.505859,-1.349609 h 8.263672 c 0.626693,-1.962745 0.3331,-4.247073 -0.873047,-5.931641 -1.259587,-1.709776 -3.457067,-2.410067 -5.507812,-2.382813 z m 75.808593,0 c -2.304842,-0.04714 -4.748677,0.962535 -6.003906,2.964844 -1.257915,1.897725 -1.379334,4.363235 -0.759766,6.50586 0.563941,1.762644 1.865926,3.314328 3.609375,3.996093 1.955708,0.836151 4.171116,0.727994 6.205076,0.259766 0.9299,-0.222991 1.81225,-0.631694 2.60742,-1.160156 -0.61273,-1.011984 -0.97132,-2.15437 -1.15429,-3.31836 -0.80302,0.560439 -1.87531,1.171138 -2.95703,1.208985 -1.020335,0.08142 -2.205308,0.06801 -2.923832,-0.792969 -0.25436,-0.31191 -0.709222,-1.06093 -0.503906,-1.349609 h 8.261718 c 0.62561,-1.96252 0.33521,-4.24793 -0.87305,-5.931641 -1.26088,-1.709505 -3.45629,-2.41082 -5.507809,-2.382813 z m -61.320312,0.132813 c -2.023061,-0.02409 -4.123366,0.813526 -5.294922,2.515625 -1.255817,1.749518 -1.429419,4.054774 -1.035156,6.115234 0.464159,2.205737 2.132269,4.140656 4.318359,4.792969 2.641723,0.892388 6.366894,0.356126 8.214844,-1.5 -0.727593,-1.01696 -1.004706,-2.259465 -1.25586,-3.449219 -0.454937,0.365043 -0.980937,0.921253 -1.589843,1.177735 -1.208281,0.508469 -2.875356,0.458203 -3.712891,-0.685547 -0.798446,-1.089712 -0.793926,-2.580555 -0.380859,-3.81836 0.310628,-0.95532 1.19327,-1.868855 2.277343,-1.689453 0.937121,0.175252 1.246967,1.230901 1.365235,2.048828 0.01148,0.470893 0.04469,0.855944 0.585937,0.714844 h 3.390625 v -5.984375 h -3.123047 l -0.451172,1.271484 C 40.536744,53.83704 39.299563,53.258703 38.042969,53.279297 Z M 84.75,53.304688 c -1.415411,0.0092 -2.632273,0.623292 -3.271484,0.996093 -0.179152,-0.234529 -0.211503,-0.704854 -0.488282,-0.783203 h -6.898437 v 3.521484 h 2.052734 v 12.947266 h -1.111328 v 3.46875 h 7.916016 v -3.46875 h -1.429688 v -3.972656 c 1.505647,1.170459 3.634016,1.267213 5.404297,0.71875 2.58508,-0.809794 4.028404,-3.517932 4.066406,-6.097656 0.15606,-2.765041 -1.09175,-5.867506 -3.835937,-6.904297 C 86.392987,53.424282 85.561534,53.299425 84.75,53.304688 Z m -27.511719,0.21289 v 3.494141 h 1.111328 c 0.02369,1.759322 -0.05983,3.523645 0.07617,5.279297 0.129525,1.570714 0.632326,3.337997 2.111328,4.15039 1.207582,0.668473 2.664594,0.784314 4.013672,0.607422 1.136221,-0.199429 2.081006,-0.938065 2.767578,-1.833984 0.21464,-0.264176 0.276788,0.413069 0.419922,0.589844 l 0.408203,0.951171 h 5.945313 v -3.521484 h -2.238281 v -9.716797 h -6.857422 v 3.494141 h 1.748047 c -0.01092,1.51161 0.02255,3.024593 -0.01758,4.535156 -0.05397,1.010512 -1.083132,1.988391 -2.115234,1.609375 -0.838646,-0.348604 -0.843782,-1.416134 -0.93164,-2.181641 -0.07043,-2.090292 -0.0172,-4.181918 -0.0332,-6.273437 v -1.183594 z m 68.369139,0 v 3.441406 h 1.11133 v 6.328125 h -1.11133 v 3.46875 h 7.41406 v -3.46875 H 131.75 v -9.769531 z m -10.45898,3.175781 c 1.13759,0.06008 1.63076,1.319116 1.80468,2.279297 0.22582,1.39853 0.18104,3.170994 -1.08203,4.082032 -1.22662,0.767108 -2.33996,-0.76252 -2.4707,-1.859376 -0.22494,-1.350745 -0.24212,-2.991755 0.73242,-4.076171 0.26551,-0.268561 0.63587,-0.431647 1.01563,-0.425782 z m -91.435549,0.02734 c 0.756106,-0.05785 1.570594,0.33229 1.800781,1.09375 0.04221,0.323301 0.437565,1.162426 -0.158203,1.025391 h -3.681641 c 0.04477,-0.974385 0.696392,-2.029166 1.748047,-2.103516 l 0.142578,-0.01172 z m 75.808593,0 c 0.755866,-0.0573 1.572696,0.331843 1.802736,1.09375 0.0418,0.323344 0.43758,1.162415 -0.1582,1.025391 h -3.681645 c 0.04148,-0.974618 0.695552,-2.02904 1.746094,-2.103516 l 0.142578,-0.01172 z m -16.121093,0.318359 c 1.147677,0.109756 1.664663,1.389241 1.832031,2.382813 0.174518,1.30374 0.08675,2.839152 -0.88086,3.832031 -1.228036,1.073743 -2.665022,-0.501422 -2.699218,-1.767578 -0.2416,-1.415252 -0.286713,-3.321261 1.046875,-4.242187 0.209124,-0.131151 0.453629,-0.20656 0.701172,-0.205079 z m 58.074219,4.13086 c 0.59985,-0.0088 1.40963,0.266159 1.5625,0.892578 v 0.880859 c -0.59809,0.898606 -2.09975,1.248326 -2.85742,0.365235 -0.58533,-0.754676 -0.07,-2.068297 0.92383,-2.113282 0.12272,-0.01768 0.24716,-0.02536 0.37109,-0.02539 z" fill="#000000"/>
</svg>
