<?xml version="1.0" encoding="UTF-8" standalone="no"?>
<svg
   xmlns:dc="http://purl.org/dc/elements/1.1/"
   xmlns:cc="http://creativecommons.org/ns#"
   xmlns:rdf="http://www.w3.org/1999/02/22-rdf-syntax-ns#"
   xmlns:svg="http://www.w3.org/2000/svg"
   xmlns="http://www.w3.org/2000/svg"
   height="75"
   width="150"
   id="svg6"
   version="1.1"
   viewBox="0 0 150 75.000001">
  <metadata
     id="metadata12">
    <rdf:RDF>
      <cc:Work
         rdf:about="">
        <dc:format>image/svg+xml</dc:format>
        <dc:type
           rdf:resource="http://purl.org/dc/dcmitype/StillImage" />
        <dc:title></dc:title>
      </cc:Work>
    </rdf:RDF>
  </metadata>
  <defs
     id="defs10">
    <clipPath
       clipPathUnits="userSpaceOnUse"
       id="clipPath1556">
      <rect
         style="opacity:1;fill:#ead995;fill-opacity:0.58823529;stroke:none;stroke-width:0.37300003;stroke-linecap:round;stroke-linejoin:round;stroke-miterlimit:4;stroke-dasharray:none;stroke-dashoffset:0;stroke-opacity:1;paint-order:markers fill stroke"
         id="rect1558"
         width="28.000002"
         height="28.000006"
         x="45.999958"
         y="-51.463562" />
    </clipPath>
  </defs>
  <g
     id="g916"
     style="display:inline"
     transform="translate(-1.3499989,-15.006255)">
    <path
       id="path902"
       transform="translate(1.3499989,15.006255)"
       d="m 118.41406,0.00390625 0.56641,1.02929685 c 0.99638,1.817824 1.49644,2.8123925 1.75,3.5078125 0.12613,0.345942 0.12347,0.6682944 0.16992,0.9589844 -1.62062,-0.539363 -2.45901,-1.1503126 -3.23242,-1.8535156 -0.93263,-0.847967 -2.0972,-1.7628963 -4.9668,-2.2382813 l -0.55469,-0.091797 -0.1289,0.5488282 c -0.66528,2.858753 0.30516,5.8079235 0.64648,6.7734375 -1.83418,-0.05015 -3.66678,0.3479392 -5.0625,1.9570312 -0.76583,0.882901 -1.63338,2.084362 -2.29687,3.328125 -0.6635,1.243762 -1.15736,2.512264 -1.00781,3.671875 l 0.16601,1.285156 0.87305,-0.957031 c 0,0 0.93627,-1.0217 2.26367,-1.84375 1.18777,-0.73558 2.59112,-1.13084 3.90625,-0.740234 -0.22708,0.914104 -0.45448,1.890879 -0.68164,2.851562 -0.6839,-0.350577 -1.03906,-0.564453 -1.03906,-0.564453 l -0.50196,-0.306641 -0.3164,0.496094 c -0.96184,1.508163 -1.41396,3.260288 -1.64649,4.767578 -0.23253,1.50729 -0.24263,2.802554 -0.26953,3.28711 l -0.0254,0.457031 1.95313,0.652344 c -0.44162,2.422236 -0.84056,4.858143 -1.10938,7.25 -2.20612,-0.461572 -4.04513,-0.530013 -5.42578,-0.455078 -1.82179,0.09888 -2.894532,0.460936 -2.894532,0.460937 l -0.347656,0.119141 -0.05078,0.365234 -2.382813,17.267578 c 0.40569,-0.111018 0.82228,-0.189715 1.246094,-0.246093 l 2.263667,-16.423829 c 0.19901,-0.06207 0.75899,-0.26584 2.23047,-0.345703 0.42361,-0.02299 0.89627,-0.03195 1.41407,-0.01758 1.55329,0.04312 3.51749,0.294592 5.82031,0.994141 6.02107,1.829084 8.64648,7.095703 8.64648,7.095703 l 0.26367,0.527344 0.53125,-0.253907 c 0,0 5.45424,-2.577352 11.61524,-1.908203 5.80325,0.630292 8.47508,4.841758 8.71484,5.228516 l -2.70312,5.636719 c 0.15353,-0.06571 0.28658,-0.137888 0.44726,-0.201172 0.37729,-0.15561 0.77047,-0.283118 1.16992,-0.396485 l 2.47266,-5.158203 -0.16211,-0.27539 c 0,0 -1.73664,-2.906514 -5.33789,-4.708985 0.87384,-1.884695 1.66158,-3.768741 2.4043,-5.623047 l 0.5664,0.177735 2.80274,-7.441406 -0.44336,-0.253907 c 0,0 -0.13598,-0.06908 -0.15235,-0.07813 0.32001,-0.982036 0.62785,-1.944444 0.86915,-2.773437 0.45672,0.263217 1.00981,0.587723 1.6289,1.380859 0.79585,1.019586 1.52946,2.391099 1.86914,3.896484 l 0.48047,2.128907 0.67578,-2.076172 c 0.41698,-1.280536 0.77609,-3.047839 0.88086,-4.84375 0.10477,-1.79591 -0.0283,-3.614557 -0.7168,-5.017578 -1.03854,-2.11633 -2.934,-3.412779 -4.92968,-3.822266 2.92281,-2.213402 3.94717,-6.218749 4.33984,-7.59375 l 0.30664,-1.0742187 -1.06445,0.3378906 c -3.33904,1.057258 -5.04971,0.6036797 -7.76367,-0.7851562 0.16067,-0.182287 0.2298,-0.3479093 0.50586,-0.5351563 0.50496,-0.342522 1.15746,-0.660773 1.79882,-0.921875 1.28274,-0.522204 2.49805,-0.8203125 2.49805,-0.8203125 L 143.4414,5.4335867 142.10741,4.689446 c -2.23497,-1.244673 -4.50807,-2.1077215 -6.74219,-2.0703125 -2.02575,0.03392 -3.96009,0.9932983 -5.66796,2.8476563 -1.01468,-1.725116 -2.6762,-2.9859685 -4.50391,-3.7890625 -2.06285,-0.90641416 -4.22138,-1.35258274 -5.61328,-1.52734378 z m 2.21875,1.66406255 c 1.23538,0.2260127 2.60163,0.4606048 4.07813,1.109375 1.91133,0.8398357 3.62505,2.0774701 4.35351,3.7675781 l 0.39453,0.9179687 0.625,-0.78125 c 1.64629,-2.062138 3.3967,-2.8313652 5.30274,-2.8632812 1.49502,-0.02503 3.11918,0.5334807 4.77539,1.3085937 -0.46542,0.144933 -0.55666,0.1356063 -1.1543,0.3789063 -0.6897,0.280777 -1.40686,0.6241176 -2.02148,1.0410156 -0.61462,0.416899 -1.15431,0.9036431 -1.38672,1.5800781 l -0.16602,0.4824219 0.44922,0.2421875 c 2.96001,1.5968625 5.1139,2.1582365 8.29102,1.3984375 -0.59113,2.054211 -1.70295,5.570573 -4.67774,6.826172 l 0.26368,1.15039 c 2.0473,-0.105039 4.31902,1.055133 5.42773,3.314454 0.5267,1.07332 0.69376,2.739182 0.5957,4.419922 -0.0525,0.899249 -0.27782,1.604771 -0.43945,2.429687 -0.38492,-0.821371 -0.83144,-1.576258 -1.32227,-2.205078 -0.89483,-1.14641 -1.81409,-1.944918 -2.7246,-2.193359 l -0.57422,-0.158204 -0.16016,0.576172 c -0.27298,0.977668 -0.62255,2.122121 -1.03711,3.382813 -2.02732,-0.953778 -6.68873,-2.897254 -14.27539,-4.650391 -6.51244,-1.504908 -10.93816,-3.29072 -13.33398,-4.414062 0.29931,-1.276867 0.60154,-2.545959 0.90039,-3.738282 l 0.11914,-0.474609 -0.44336,-0.210937 c -1.9717,-0.943147 -4.03278,-0.167305 -5.52344,0.755859 -0.60463,0.374447 -0.60676,0.480378 -1.02148,0.833984 0.15406,-0.493363 0.12624,-0.863049 0.41601,-1.40625 0.60897,-1.141562 1.44101,-2.292152 2.14649,-3.105469 1.32927,-1.5324907 2.97503,-1.8333526 4.86132,-1.6113276 l 0.98047,0.1152344 -0.34765,-0.921875 c 0,0 -1.18899,-3.4777439 -0.85743,-6.1855469 2.02642,0.440573 2.91237,1.0262317 3.71485,1.7558593 0.90446,0.822359 1.96474,1.8271074 4.66992,2.4746094 l 0.79492,0.1914063 -0.0566,-0.8164063 c -0.059,-0.826107 -0.11261,-1.4324772 -0.41211,-2.2539062 -0.20079,-0.550709 -0.74559,-1.5487718 -1.22461,-2.4628906 z M 109.75977,18.941406 c 0.57855,0.336115 3.55852,1.953397 9.62109,3.822266 -0.0759,0.398293 -0.23661,1.274884 -0.55664,2.634766 -0.19275,0.819019 -0.41166,1.663436 -0.62695,2.341796 -0.15942,0.502271 -0.28689,0.725921 -0.38672,0.923828 l -9.52344,-3.179687 c 0.0256,-0.635477 0.0322,-1.509543 0.21875,-2.71875 0.19286,-1.250166 0.60066,-2.621866 1.25391,-3.824219 z m 2.26562,3.53711 a 1.9961413,1.3847275 26.072764 0 0 -1.33398,0.644531 1.9961413,1.3847275 26.072764 0 0 1.18554,2.121094 1.9961413,1.3847275 26.072764 0 0 2.40039,-0.367188 1.9961413,1.3847275 26.072764 0 0 -1.18554,-2.121094 1.9961413,1.3847275 26.072764 0 0 -1.06641,-0.277343 z m 8.51367,0.605468 c 1.42062,0.415279 2.75108,0.837911 4.44141,1.228516 1.20977,0.279558 2.08587,0.560223 3.14453,0.84375 -0.61824,1.004715 -1.04281,2.219075 -1.27539,3.431641 -0.14884,0.775973 -0.2399,1.514839 -0.28711,2.113281 -0.0472,0.598443 -0.068,0.994152 -0.0117,1.332031 l 0.0605,0.363281 10.04883,3.15625 c -0.73424,1.819462 -1.51027,3.664432 -2.35743,5.490235 -1.00395,-0.392391 -2.12739,-0.688716 -3.375,-0.824219 -6.13573,-0.666405 -11.10616,1.543203 -11.78125,1.851562 -0.37722,-0.71003 -2.9772,-5.423313 -9.05468,-7.269531 -0.35805,-0.108768 -0.70586,-0.203952 -1.04883,-0.292969 0.25928,-2.345151 0.62999,-4.755099 1.0625,-7.152343 l 8.18555,2.732422 0.26171,-0.28125 c 0.3967,-0.425229 0.55785,-0.974614 0.78907,-1.703125 0.23121,-0.728511 0.45361,-1.595467 0.65039,-2.431641 0.31566,-1.341337 0.46104,-2.139153 0.54687,-2.587891 z m 8.76563,2.388672 c 6.69147,1.885541 9.90232,3.49987 10.36914,3.75586 l -2.02539,5.376953 -9.90625,-3.111328 c -0.003,-0.184075 -0.0118,-0.326844 0.0176,-0.699219 0.0437,-0.554392 0.13022,-1.254211 0.26953,-1.980469 0.24858,-1.295987 0.72212,-2.588119 1.27539,-3.341797 z m -6.07422,1.136719 -0.23438,0.552734 c 0,0 -1.49553,3.555497 -6.00586,7.808594 l -0.49218,0.464844 0.51953,0.433594 c 0,0 1.37475,1.164073 2.16601,2.451171 l 0.31446,0.511719 1.02343,-0.628906 -0.31445,-0.511719 c -0.7774,-1.26455 -1.62483,-1.938818 -2,-2.265625 4.31036,-4.206738 5.89453,-7.794922 5.89453,-7.794922 l 0.23438,-0.552734 z m 8.16406,1.839844 a 1.9961413,1.3847275 26.072764 0 0 -0.12695,0.002 1.9961413,1.3847275 26.072764 0 0 -1.1543,0.642578 1.9961413,1.3847275 26.072764 0 0 1.18555,2.121094 1.9961413,1.3847275 26.072764 0 0 2.40039,-0.367188 1.9961413,1.3847275 26.072764 0 0 -1.18555,-2.121094 1.9961413,1.3847275 26.072764 0 0 -1.11914,-0.277343 z"
       style="color:#000000;font-style:normal;font-variant:normal;font-weight:normal;font-stretch:normal;font-size:medium;line-height:normal;font-family:sans-serif;font-variant-ligatures:normal;font-variant-position:normal;font-variant-caps:normal;font-variant-numeric:normal;font-variant-alternates:normal;font-feature-settings:normal;text-indent:0;text-align:start;text-decoration:none;text-decoration-line:none;text-decoration-style:solid;text-decoration-color:#000000;letter-spacing:normal;word-spacing:normal;text-transform:none;writing-mode:lr-tb;direction:ltr;text-orientation:mixed;dominant-baseline:auto;baseline-shift:baseline;text-anchor:start;white-space:normal;shape-padding:0;clip-rule:nonzero;display:inline;overflow:visible;visibility:visible;opacity:1;isolation:auto;mix-blend-mode:normal;color-interpolation:sRGB;color-interpolation-filters:linearRGB;solid-color:#000000;solid-opacity:1;vector-effect:none;fill:#000000;fill-opacity:1;fill-rule:nonzero;stroke:none;stroke-width:1.20000005;stroke-linecap:square;stroke-linejoin:miter;stroke-miterlimit:4;stroke-dasharray:none;stroke-dashoffset:0;stroke-opacity:1;paint-order:markers fill stroke;color-rendering:auto;image-rendering:auto;shape-rendering:auto;text-rendering:auto;enable-background:accumulate" />
  </g>
  <g
     id="g902"
     style="display:inline">
    <g
       style="fill:#b67f58;fill-opacity:1;stroke-width:0.93102926"
       transform="matrix(1,0,0,1.1536481,0,-11.28623)"
       id="g1766">
      <rect
         style="opacity:1;fill:#b67f58;fill-opacity:1;stroke:none;stroke-width:0.46551463;stroke-linecap:butt;stroke-linejoin:miter;stroke-miterlimit:4;stroke-dasharray:none;stroke-dashoffset:0;stroke-opacity:1;paint-order:markers fill stroke"
         id="rect932"
         width="0.5"
         height="0.5"
         x="-36.17651"
         y="65.580322"
         transform="rotate(-45)" />
      <path
         style="fill:#b67f58;fill-opacity:1;stroke:none;stroke-width:0.9310292"
         d="m 37.943359,69.814453 v 0.220703 h 1.660157 V 69.814453 Z M 37.5,70.496094 v 0.07031 l 0.355469,0.175782 v 2.419921 L 37.5,73.337891 v 0.07031 h 2.298828 v -0.802734 h -0.07227 l -0.27539,0.560547 h -1.195313 v -1.138672 h 0.75586 l 0.222656,0.357422 h 0.07031 v -0.966797 h -0.07031 l -0.222656,0.367187 h -0.75586 v -1.046875 h 1.072266 l 0.275391,0.515625 h 0.07031 v -0.757812 z"
         id="path1739" />
      <path
         style="fill:#b67f58;fill-opacity:1;stroke:none;stroke-width:0.93102926"
         d="m 19.339844,70.451971 c -0.364143,0.0029 -0.709169,0.252874 -0.84544,0.587059 -0.08983,0.253976 -0.03036,0.570876 0.188895,0.741341 0.287503,0.232214 0.649236,0.342413 0.951936,0.54974 0.136198,0.09439 0.204212,0.260413 0.192745,0.423497 0.0091,0.229492 -0.167308,0.441187 -0.393426,0.47715 -0.27234,0.059 -0.55678,-0.04115 -0.764202,-0.219547 -0.04742,-0.04627 -0.06118,-0.118664 -0.09397,-0.176284 -0.0476,-0.102912 -0.09519,-0.205823 -0.14279,-0.308735 -0.04962,-0.0063 -0.09044,-0.0044 -0.06878,0.05631 0.01381,0.222767 0.02762,0.445534 0.04143,0.668301 0.244812,0.127798 0.516734,0.203574 0.793747,0.202357 0.395042,0.02107 0.823006,-0.193728 0.968197,-0.575681 0.08571,-0.263185 0.05357,-0.593505 -0.164381,-0.785136 -0.275459,-0.240915 -0.636577,-0.345012 -0.932929,-0.553898 -0.173235,-0.102189 -0.24346,-0.316674 -0.207857,-0.508076 0.02923,-0.226098 0.254466,-0.39276 0.478842,-0.36655 0.188119,0.0074 0.360521,0.10861 0.502775,0.22235 0.06741,0.152797 0.134821,0.305595 0.202232,0.458392 0.0554,0.01014 0.08496,-0.004 0.06629,-0.06334 -0.01363,-0.214563 -0.02726,-0.429127 -0.0409,-0.64369 -0.227913,-0.111106 -0.476426,-0.190503 -0.732416,-0.185557 z"
         id="path911" />
      <path
         style="fill:#b67f58;fill-opacity:1;stroke:none;stroke-width:0.93102926"
         d="m 29.472656,70.451971 c -0.577629,-0.0088 -1.111568,0.371708 -1.364365,0.879081 -0.266551,0.511238 -0.227285,1.18821 0.147334,1.636472 0.27808,0.334639 0.720555,0.495557 1.148672,0.4864 0.341674,0.0059 0.689379,-0.05227 0.992187,-0.216795 0.01628,-0.233724 0.03255,-0.467448 0.04883,-0.701172 -0.05498,-0.01045 -0.09487,0.0049 -0.110665,0.06138 -0.07704,0.137092 -0.154087,0.274184 -0.23113,0.411276 -0.209729,0.136734 -0.452791,0.232645 -0.707032,0.220706 -0.329128,0.0069 -0.647706,-0.174081 -0.819024,-0.453749 -0.214534,-0.331353 -0.257141,-0.748564 -0.205789,-1.132589 0.06526,-0.447308 0.40459,-0.864509 0.860309,-0.948184 0.220991,-0.04599 0.462178,-0.02653 0.654501,0.09999 0.07662,0.04813 0.169339,0.08602 0.197149,0.179351 0.07759,0.154068 0.155184,0.308136 0.232776,0.462204 0.05481,0.0071 0.100065,0.0048 0.07834,-0.06256 -0.0066,-0.236959 -0.01317,-0.473918 -0.01975,-0.710877 C 30.095345,70.52076 29.787285,70.4448 29.472655,70.451968 Z"
         id="path909" />
      <path
         style="fill:#b67f58;fill-opacity:1;stroke:none;stroke-width:0.93102926"
         d="m 32.648438,70.451971 c -0.533139,-0.01036 -1.06537,0.28897 -1.308117,0.768179 -0.282976,0.549389 -0.221016,1.274193 0.189225,1.744774 0.29375,0.340574 0.752277,0.515253 1.19808,0.487234 0.52577,-0.01458 1.038367,-0.331408 1.257001,-0.814827 0.252956,-0.541871 0.187318,-1.23894 -0.213392,-1.693692 -0.277804,-0.318691 -0.702429,-0.495181 -1.122797,-0.491668 z m -0.07617,0.216797 c 0.405517,-0.01043 0.773851,0.261896 0.949211,0.616605 0.18308,0.355605 0.221028,0.778646 0.139993,1.167523 -0.07928,0.35652 -0.344059,0.691176 -0.716476,0.760663 -0.366321,0.07767 -0.764042,-0.06414 -1.000472,-0.354197 -0.320067,-0.374444 -0.396987,-0.904336 -0.314506,-1.377835 0.06628,-0.376549 0.350899,-0.723345 0.737917,-0.793097 0.06721,-0.01356 0.135808,-0.01967 0.204333,-0.01966 z"
         id="path907" />
      <path
         style="fill:#b67f58;fill-opacity:1;stroke:none;stroke-width:0.93102926"
         d="m 58.308594,70.451971 c -0.692108,-0.01538 -1.361705,0.483212 -1.530981,1.156686 -0.120044,0.471055 -0.0373,1.013061 0.30337,1.375785 0.374499,0.420555 0.992213,0.552861 1.526906,0.421471 0.248467,-0.06133 0.493052,-0.160087 0.692892,-0.323083 0,-0.23112 0,-0.462239 0,-0.693359 0.102214,-0.06315 0.204427,-0.126302 0.306641,-0.189453 0.01946,-0.07063 -0.02221,-0.08014 -0.08321,-0.07031 -0.340101,0 -0.680202,0 -1.020303,0 -0.01779,0.06275 0.02031,0.08914 0.07607,0.104036 0.106804,0.04735 0.213609,0.0947 0.320413,0.142055 0,0.242839 0,0.485677 0,0.728516 -0.267691,0.103495 -0.568035,0.118282 -0.848082,0.0622 -0.446197,-0.09604 -0.795555,-0.48189 -0.885978,-0.923753 -0.0786,-0.359082 -0.07278,-0.76563 0.146701,-1.076771 0.264165,-0.396421 0.796437,-0.578069 1.251813,-0.455877 0.129449,0.04643 0.259242,0.111763 0.361527,0.201541 0.09355,0.159926 0.187106,0.319851 0.280659,0.479776 0.0712,0.01945 0.07948,-0.0222 0.06786,-0.08318 -0.0063,-0.215113 -0.01269,-0.430226 -0.01903,-0.645339 -0.259248,-0.129912 -0.544089,-0.211425 -0.835725,-0.209451 -0.03717,-0.001 -0.07436,-0.0015 -0.111542,-0.0015 z"
         id="path905" />
      <path
         style="fill:#b67f58;fill-opacity:1;stroke:none;stroke-width:0.93102926"
         d="m 71.515625,70.451971 c -0.533139,-0.01036 -1.065369,0.288971 -1.308116,0.768179 -0.282977,0.54939 -0.221021,1.274194 0.189225,1.744774 0.293767,0.340599 0.752334,0.515267 1.198163,0.487234 0.526339,-0.01331 1.038098,-0.331571 1.256918,-0.814827 0.252958,-0.54187 0.187317,-1.238941 -0.213392,-1.693692 -0.277528,-0.319725 -0.702001,-0.495537 -1.122798,-0.491668 z m -0.07617,0.216797 c 0.405517,-0.01043 0.773851,0.261896 0.949211,0.616605 0.183418,0.355629 0.220076,0.778373 0.141151,1.167523 -0.07785,0.357294 -0.344333,0.691947 -0.717017,0.760663 -0.366488,0.0776 -0.764541,-0.06386 -1.001088,-0.354197 -0.319654,-0.374412 -0.398007,-0.904558 -0.313527,-1.377835 0.06728,-0.364081 0.331476,-0.704806 0.704616,-0.785981 0.07742,-0.01853 0.157109,-0.0268 0.236654,-0.02678 z"
         id="path903" />
      <path
         style="fill:#b67f58;fill-opacity:1;stroke:none;stroke-width:0.93102926"
         d="m 0.0625,70.496893 v 0.07031 l 0.3828125,0.179688 -0.09375,2.416015 L 0,73.33869 V 73.409 h 0.98632812 v -0.07031 l -0.359375,-0.171875 0.0566406,-2.144532 1.04492188,2.410157 h 0.2011719 l 1.0625,-2.441407 0.042969,2.175782 -0.328125,0.171875 V 73.409 h 1.0214844 v -0.07031 l -0.3105468,-0.175782 -0.076172,-2.419922 0.375,-0.175781 v -0.07031 H 2.9335938 L 1.9121094,72.844549 0.88476562,70.496893 Z"
         id="path900" />
      <path
         style="fill:#b67f58;fill-opacity:1;stroke:none;stroke-width:0.93102926"
         d="m 4.2851562,70.496893 c -0.018091,0.06284 0.020986,0.09017 0.075743,0.107765 0.093242,0.04611 0.1864838,0.09222 0.2797257,0.138326 0.00216,0.553874 -0.00449,1.107921 0.00364,1.661678 0.010222,0.33007 0.1516258,0.669822 0.4344787,0.855942 0.3279744,0.211858 0.751161,0.236447 1.1221672,0.140495 0.3402309,-0.08608 0.6239019,-0.36322 0.7028796,-0.707267 0.073746,-0.29857 0.039344,-0.608024 0.04738,-0.912275 0,-0.347492 0,-0.694985 0,-1.042477 0.1171875,-0.05729 0.234375,-0.114583 0.3515625,-0.171875 0.020182,-0.07179 -0.023411,-0.07979 -0.084498,-0.07031 -0.3409746,0 -0.6819492,0 -1.0229238,0 -0.018884,0.06466 0.021905,0.08806 0.079061,0.100131 0.1220838,0.04605 0.2441677,0.0921 0.3662516,0.138148 -0.00156,0.574543 0.00317,1.149199 -0.00245,1.723669 -0.00347,0.282212 -0.1507915,0.584145 -0.4293949,0.683752 -0.2705578,0.101911 -0.5918724,0.06195 -0.834676,-0.09229 -0.2729916,-0.192346 -0.3406596,-0.54869 -0.3330866,-0.86196 0,-0.481785 0,-0.96357 0,-1.445355 0.1184896,-0.05859 0.2369792,-0.117187 0.3554688,-0.175781 0.020182,-0.07179 -0.023411,-0.07979 -0.084498,-0.07031 -0.3422767,-10e-7 -0.6845534,-10e-7 -1.0268301,-2e-6 z"
         id="path898" />
      <path
         style="fill:#b67f58;fill-opacity:1;stroke:none;stroke-width:0.93102926"
         d="m 7.8613281,70.496893 v 0.07031 l 0.3515625,0.185547 v 2.410156 l -0.3554687,0.175782 v 0.07031 H 8.96875 v -0.07031 L 8.5234375,73.166815 v -2.035157 l 1.8359375,2.300782 h 0.164063 V 70.73908 L 10.875,70.567205 v -0.07031 H 9.7675781 v 0.07031 l 0.4453129,0.167969 v 1.880859 l -1.697266,-2.11914 z"
         id="path896" />
      <path
         style="fill:#b67f58;fill-opacity:1;stroke:none;stroke-width:0.93102926"
         d="m 11.386719,70.496893 c -0.01652,0.06083 0.0184,0.08972 0.07297,0.106395 0.09417,0.04657 0.188332,0.09313 0.282498,0.139696 0,0.806641 0,1.613281 0,2.419922 -0.11849,0.05859 -0.236979,0.117188 -0.355469,0.175782 -0.01843,0.069 0.02053,0.08062 0.08141,0.07031 0.438234,-0.0024 0.876692,0.0051 1.314774,-0.0042 0.574011,-0.03187 1.123848,-0.405562 1.328429,-0.94894 0.173156,-0.43735 0.174998,-0.971141 -0.0973,-1.369624 -0.262122,-0.393565 -0.747041,-0.573503 -1.204553,-0.586683 -0.474161,-0.0059 -0.948531,-0.0011 -1.42276,-0.0027 z m 0.755859,0.242187 c 0.347189,0.0073 0.711429,-0.03797 1.035816,0.115198 0.330906,0.141967 0.551979,0.47086 0.606604,0.820957 0.07107,0.424884 -0.0069,0.914607 -0.338741,1.21621 -0.240381,0.22407 -0.580963,0.289404 -0.899741,0.27537 -0.134646,0 -0.269292,0 -0.403938,0 0,-0.809245 0,-1.61849 0,-2.427735 z"
         id="path894" />
      <path
         style="fill:#b67f58;fill-opacity:1;stroke:none;stroke-width:0.93102926"
         d="m 14.789062,70.496893 c -0.01811,0.06286 0.02101,0.09018 0.07577,0.107778 0.09323,0.0461 0.186467,0.09221 0.279701,0.138313 0.0015,0.545776 -0.003,1.091649 0.0024,1.637361 0.0075,0.337502 0.147201,0.688236 0.436011,0.880259 0.32285,0.209514 0.738686,0.23445 1.105445,0.145418 0.333803,-0.07867 0.61702,-0.339784 0.708765,-0.672112 0.09025,-0.306765 0.05122,-0.62906 0.05987,-0.944067 0,-0.350255 0,-0.70051 0,-1.050765 0.117188,-0.05729 0.234375,-0.114583 0.351563,-0.171875 0.0202,-0.07181 -0.02344,-0.07979 -0.08453,-0.07031 -0.340965,0 -0.681931,0 -1.022896,0 -0.01889,0.06465 0.02192,0.08809 0.07904,0.100256 0.121438,0.04601 0.242877,0.09202 0.364315,0.138023 -0.0016,0.574542 0.0032,1.149199 -0.0025,1.723668 -0.003,0.289276 -0.159378,0.599565 -0.449113,0.691951 -0.282302,0.09407 -0.618491,0.04887 -0.85617,-0.13326 -0.257018,-0.212707 -0.30049,-0.567183 -0.291874,-0.879921 0,-0.464877 0,-0.929754 0,-1.394631 0.11849,-0.05859 0.236979,-0.117187 0.355469,-0.175781 0.0202,-0.07181 -0.02344,-0.07979 -0.08453,-0.07031 -0.342268,2e-6 -0.684535,3e-6 -1.026803,5e-6 z"
         id="path892" />
      <path
         style="fill:#b67f58;fill-opacity:1;stroke:none;stroke-width:0.93102926"
         d="m 21.855469,70.496893 v 0.07031 l 0.357422,0.175781 v 2.419922 l -0.357422,0.175782 v 0.07031 h 2.298828 v -0.802734 h -0.07031 l -0.27539,0.560547 h -1.197266 v -1.138672 h 0.75586 l 0.222656,0.357422 h 0.07031 v -0.966797 h -0.07031 l -0.222656,0.367187 h -0.75586 v -1.046875 h 1.072266 l 0.27539,0.515625 h 0.07031 v -0.757812 z"
         id="path890" />
      <path
         style="fill:#b67f58;fill-opacity:1;stroke:none;stroke-width:0.93102926"
         d="m 24.689453,70.496893 v 0.07031 l 0.279297,0.154297 0.919922,1.236328 -0.941406,1.21875 -0.324219,0.16211 v 0.07031 h 1 v -0.07031 l -0.359375,-0.158204 v -0.01758 l 0.773437,-1.011718 0.753907,1.011718 v 0.01758 l -0.324219,0.158204 v 0.07031 h 1.134765 v -0.07031 l -0.3125,-0.171875 -0.982421,-1.285157 0.902343,-1.152343 0.28125,-0.16211 v -0.07031 h -0.933593 v 0.07031 l 0.33789,0.16211 v 0.01758 l -0.738281,0.9375 -0.710938,-0.931641 v -0.02344 l 0.355469,-0.16211 v -0.07031 z"
         id="path888" />
      <path
         style="fill:#b67f58;fill-opacity:1;stroke:none;stroke-width:0.93102926"
         d="m 34.730469,70.496893 v 0.07031 l 0.355469,0.175781 v 2.419922 l -0.355469,0.175782 v 0.07031 h 2.208984 v -0.978516 h -0.07031 l -0.302735,0.736329 H 35.48633 v -2.423829 l 0.400391,-0.175781 v -0.07031 z"
         id="path886" />
      <path
         style="fill:#b67f58;fill-opacity:1;stroke:none;stroke-width:0.93102926"
         d="m 40.310547,70.496893 v 0.890625 h 0.07227 l 0.302735,-0.648438 h 0.722656 v 2.423828 L 40.964849,73.33869 V 73.409 h 1.289062 V 73.33869 L 41.808599,73.162908 V 70.73908 h 0.724609 l 0.302735,0.648438 h 0.07031 v -0.890625 z"
         id="path882" />
      <path
         style="fill:#b67f58;fill-opacity:1;stroke:none;stroke-width:0.93102926"
         d="m 43.394531,70.496893 c -0.0181,0.06286 0.02101,0.09018 0.07577,0.107778 0.09323,0.04611 0.186467,0.09221 0.279701,0.138315 0.0015,0.545776 -0.003,1.091649 0.0024,1.637361 0.0075,0.337502 0.147201,0.688237 0.436011,0.880259 0.32285,0.209514 0.738686,0.23445 1.105445,0.145418 0.340546,-0.08058 0.630366,-0.349849 0.715822,-0.692006 0.0808,-0.301545 0.04457,-0.615891 0.05281,-0.924173 0,-0.350255 0,-0.70051 0,-1.050765 0.117187,-0.05729 0.234375,-0.114583 0.351562,-0.171875 0.0202,-0.07181 -0.02344,-0.07979 -0.08453,-0.07031 -0.340965,0 -0.68193,0 -1.022895,0 -0.0189,0.06468 0.02193,0.08806 0.07909,0.100141 0.122075,0.04605 0.24415,0.09209 0.366225,0.138138 -0.0016,0.574541 0.0033,1.149208 -0.0026,1.723668 -0.005,0.289078 -0.161156,0.599406 -0.450938,0.691951 -0.282302,0.09407 -0.618491,0.04887 -0.85617,-0.13326 -0.257018,-0.212707 -0.30049,-0.567183 -0.291874,-0.879921 0,-0.464877 0,-0.929754 0,-1.394631 0.118489,-0.05859 0.236979,-0.117187 0.355468,-0.175781 0.0202,-0.07181 -0.02344,-0.07979 -0.08453,-0.07031 -0.342267,1e-6 -0.684535,2e-6 -1.026802,3e-6 z"
         id="path880" />
      <path
         style="fill:#b67f58;fill-opacity:1;stroke:none;stroke-width:0.93102926"
         d="m 46.990234,70.496893 c -0.01531,0.05928 0.01641,0.08936 0.07083,0.105335 0.09488,0.04692 0.18976,0.09384 0.28464,0.140756 0,0.806641 0,1.613281 0,2.419922 -0.11849,0.05859 -0.236979,0.117188 -0.355469,0.175782 -0.01708,0.06685 0.0183,0.08125 0.07902,0.07031 0.336292,0 0.672583,0 1.008875,0 0.01502,-0.05873 -0.0161,-0.08996 -0.06949,-0.107918 -0.08751,-0.04736 -0.175026,-0.09472 -0.262539,-0.14208 0,-0.36263 0,-0.72526 0,-1.08789 0.13737,0 0.274739,0 0.412109,0 0.28776,0.445963 0.575521,0.891927 0.863281,1.33789 0.212891,0 0.425781,0 0.638672,0 0.01503,-0.05874 -0.0161,-0.08995 -0.06953,-0.107855 -0.07508,-0.04339 -0.156986,-0.07916 -0.227929,-0.127162 -0.279754,-0.405385 -0.559508,-0.810769 -0.839262,-1.216153 0.298771,-0.104231 0.588014,-0.346227 0.614588,-0.681163 0.02696,-0.233504 -0.08408,-0.474914 -0.285746,-0.598364 -0.278606,-0.192834 -0.62803,-0.183862 -0.952609,-0.18141 -0.303146,0 -0.606291,0 -0.909437,0 z m 0.75586,0.242187 c 0.256389,0.0048 0.536668,-0.03293 0.757958,0.126902 0.28166,0.181964 0.266542,0.641842 -0.0038,0.827354 -0.175355,0.144182 -0.407744,0.138873 -0.621458,0.135588 -0.04004,-0.0095 -0.118645,0.01963 -0.132716,-0.0158 0,-0.358014 0,-0.716027 0,-1.074041 z"
         id="path878" />
      <path
         style="fill:#b67f58;fill-opacity:1;stroke:none;stroke-width:0.93102926"
         d="m 51.035156,70.496893 v 0.07031 l 0.355469,0.175781 v 2.419922 l -0.355469,0.175782 v 0.07031 h 2.208985 v -0.978516 h -0.07031 l -0.302734,0.736329 h -1.080078 v -2.423829 l 0.40039,-0.175781 v -0.07031 z"
         id="path876" />
      <path
         style="fill:#b67f58;fill-opacity:1;stroke:none;stroke-width:0.93102926"
         d="m 53.804688,70.496893 v 0.07031 l 0.355468,0.175781 v 2.419922 l -0.355468,0.175782 v 0.07031 h 2.298828 v -0.802734 h -0.07227 l -0.275391,0.560547 h -1.195312 v -1.138672 h 0.755859 l 0.220703,0.357422 h 0.07227 v -0.966797 h -0.07227 l -0.220703,0.367187 h -0.755859 v -1.046875 h 1.070312 l 0.275391,0.515625 h 0.07227 v -0.757812 z"
         id="path874" />
      <path
         style="fill:#b67f58;fill-opacity:1;stroke:none;stroke-width:0.93102926"
         d="m 60.115234,70.496893 v 0.07031 l 0.355469,0.175781 v 2.419922 l -0.355469,0.175782 v 0.07031 h 2.298828 v -0.802734 h -0.07031 l -0.277344,0.560547 h -1.195312 v -1.138672 h 0.755859 l 0.222656,0.357422 h 0.07031 v -0.966797 h -0.07031 l -0.222656,0.367187 h -0.755859 v -1.046875 h 1.072265 l 0.275391,0.515625 h 0.07031 v -0.757812 z"
         id="path872" />
      <path
         style="fill:#b67f58;fill-opacity:1;stroke:none;stroke-width:0.93102926"
         d="m 62.998047,70.496893 v 0.07031 l 0.351562,0.185547 v 2.410156 l -0.355468,0.175782 v 0.07031 h 1.111328 v -0.07031 l -0.445313,-0.171875 v -2.035157 l 1.835938,2.300782 h 0.164062 v -2.69336 l 0.351563,-0.171875 v -0.07031 h -1.107422 v 0.07031 l 0.445312,0.167969 v 1.880859 l -1.699218,-2.11914 z"
         id="path870" />
      <path
         style="fill:#b67f58;fill-opacity:1;stroke:none;stroke-width:0.93102926"
         d="m 66.523438,70.496893 c -0.01652,0.06083 0.0184,0.08972 0.07297,0.106395 0.09417,0.04657 0.188331,0.09313 0.282497,0.139696 0,0.806641 0,1.613281 0,2.419922 -0.118489,0.05859 -0.236979,0.117188 -0.355468,0.175782 -0.01843,0.069 0.02053,0.08062 0.08141,0.07031 0.438234,-0.0024 0.876692,0.0051 1.314773,-0.0042 0.574011,-0.03187 1.123849,-0.405562 1.32843,-0.94894 0.173138,-0.437344 0.175042,-0.971189 -0.09734,-1.369624 -0.269145,-0.400973 -0.767114,-0.580104 -1.234145,-0.587854 -0.464333,-0.0034 -0.928759,-5.96e-4 -1.39312,-0.0015 z m 0.755859,0.242187 c 0.347189,0.0073 0.711429,-0.03797 1.035816,0.115198 0.330906,0.141967 0.551978,0.470861 0.606603,0.820957 0.06968,0.419432 -0.0039,0.901701 -0.326708,1.203982 -0.236733,0.227202 -0.576206,0.301936 -0.895492,0.287598 -0.140073,0 -0.280146,0 -0.420219,0 0,-0.809245 0,-1.61849 0,-2.427735 z"
         id="path868" />
      <rect
         transform="rotate(-45)"
         y="86.14801"
         x="-15.608821"
         height="0.5"
         width="0.5"
         id="rect934"
         style="opacity:1;fill:#b67f58;fill-opacity:1;stroke:none;stroke-width:0.46551463;stroke-linecap:butt;stroke-linejoin:miter;stroke-miterlimit:4;stroke-dasharray:none;stroke-dashoffset:0;stroke-opacity:1;paint-order:markers fill stroke" />
    </g>
  </g>
  <g
     transform="translate(-1.3499989,-15.006255)"
     style="display:inline"
     id="layer3">
    <path
       id="path1573"
       transform="translate(1.3499989,15.006255)"
       d="m 0,43.402344 v 3.496094 H 1.4570312 V 63.234375 H 0 v 3.521484 h 14.826172 v -6.884765 h -4.447266 v 3.363281 H 6.9628906 V 46.898438 h 1.4042969 v -3.496094 z m 53.09375,3.496094 -4.871094,1.5625 v 5.05664 h -1.429687 v 3.441406 h 1.429687 v 4.712891 c 0.01765,0.847241 0.06221,1.614351 0.132813,2.302734 0.0706,0.688383 0.23719,1.271474 0.501953,1.748047 0.264763,0.476573 0.671573,0.846565 1.21875,1.111328 0.564827,0.264763 1.341631,0.398438 2.330078,0.398438 0.158858,0 0.370003,-0.01743 0.634766,-0.05273 0.282413,-0.01765 0.582675,-0.04478 0.90039,-0.08008 0.317715,-0.0353 0.625716,-0.0876 0.925782,-0.158203 0.300065,-0.05295 0.548028,-0.12464 0.742187,-0.21289 v -3.388672 c -0.247112,0.105905 -0.547374,0.212454 -0.900391,0.318359 -0.335366,0.08825 -0.591069,0.130859 -0.767578,0.130859 -0.388319,0 -0.636282,-0.131721 -0.742187,-0.396484 -0.08825,-0.282413 -0.13086,-0.600108 -0.13086,-0.953125 v -0.396484 c 0.01768,-0.123556 0.02539,-0.247538 0.02539,-0.371094 v -4.712891 h 2.515625 V 53.517578 H 53.09375 Z m 62.74414,0 v 3.441406 h 1.2168 v 3.917968 c -0.24712,-0.158858 -0.63454,-0.36031 -1.16407,-0.607421 -0.51187,-0.264764 -1.23638,-0.398438 -2.17187,-0.398438 -0.81194,0 -1.58874,0.158847 -2.33008,0.476563 -0.74134,0.317715 -1.39416,0.769083 -1.95898,1.351562 -0.56483,0.582478 -1.01425,1.297291 -1.34961,2.144531 -0.33537,0.82959 -0.50391,1.755548 -0.50391,2.779297 0,0.917844 0.14142,1.801197 0.42383,2.648438 0.30007,0.847241 0.71461,1.596918 1.24414,2.25 0.52953,0.63543 1.17461,1.146837 1.93359,1.535156 0.75899,0.370668 1.60553,0.556641 2.54102,0.556641 0.45892,0 0.87347,-0.05425 1.24414,-0.160157 0.37067,-0.08825 0.69806,-0.19285 0.98047,-0.316406 0.28242,-0.141207 0.51099,-0.274882 0.6875,-0.398437 0.19416,-0.141208 0.33557,-0.255496 0.42383,-0.34375 l 0.45117,0.980468 h 6.19531 V 63.3125 h -1.27148 V 46.898438 Z m 13.36914,0.05273 c -0.45892,0 -0.87347,0.08716 -1.24414,0.263672 -0.35302,0.158857 -0.65328,0.371955 -0.90039,0.636718 -0.22946,0.264763 -0.40574,0.555332 -0.5293,0.873047 -0.12356,0.317716 -0.18554,0.627671 -0.18554,0.927735 0,0.317715 0.0717,0.635409 0.21289,0.953125 0.1412,0.317715 0.33492,0.608284 0.58203,0.873047 0.26476,0.247112 0.56502,0.450517 0.90039,0.609375 0.35301,0.158858 0.74044,0.238281 1.16406,0.238281 0.95315,0 1.67765,-0.255704 2.17188,-0.767578 0.49422,-0.529526 0.74218,-1.164914 0.74218,-1.90625 0,-0.300064 -0.0717,-0.610019 -0.21289,-0.927735 -0.12355,-0.317715 -0.30952,-0.608284 -0.55664,-0.873047 -0.24711,-0.264763 -0.55511,-0.477861 -0.92578,-0.636718 -0.35301,-0.176509 -0.75982,-0.263672 -1.21875,-0.263672 z M 141.23633,52.75 c -0.61779,0 -1.2183,0.06972 -1.80078,0.210938 -0.56483,0.123553 -1.10336,0.292096 -1.61524,0.503906 -0.49422,0.194158 -0.94364,0.397565 -1.34961,0.609375 -0.40597,0.211811 -0.7411,0.395829 -1.00586,0.554687 v 3.65625 c 1.94251,-1.567789 3.33172,-1.791696 5.05664,-1.802734 0.72369,0 1.32421,0.09686 1.80079,0.291016 0.47657,0.194158 0.71484,0.591275 0.71484,1.191406 v 0.927734 c -0.0353,-0.03529 -0.12247,-0.106985 -0.26367,-0.21289 -0.12356,-0.105906 -0.30179,-0.210502 -0.53125,-0.316407 -0.21181,-0.105905 -0.4772,-0.19502 -0.79492,-0.265625 -0.30007,-0.08825 -0.64293,-0.132812 -1.03125,-0.132812 -0.74133,0 -1.44646,0.114287 -2.11719,0.34375 -0.67073,0.229462 -1.26352,0.556848 -1.77539,0.980468 -0.49423,0.42362 -0.89135,0.935027 -1.19141,1.535157 -0.28241,0.60013 -0.42383,1.270382 -0.42383,2.011719 0,0.776635 0.15111,1.448845 0.45118,2.013671 0.31772,0.547178 0.72256,0.99659 1.21679,1.34961 0.49422,0.353015 1.05019,0.618412 1.66797,0.794922 0.61778,0.176506 1.24543,0.265625 1.88086,0.265625 0.22946,0 0.50259,-0.02714 0.82031,-0.08008 0.31771,-0.05295 0.63542,-0.142069 0.95313,-0.265626 0.33537,-0.123553 0.65306,-0.290143 0.95312,-0.501953 0.31772,-0.229458 0.60055,-0.512293 0.84766,-0.847656 l 0.63476,1.191406 H 150 v -3.388671 h -1.58789 v -5.164063 c 0,-1.059051 -0.23053,-1.940449 -0.68945,-2.646484 -0.44128,-0.706036 -1.01467,-1.262001 -1.72071,-1.667969 -0.68838,-0.423621 -1.45549,-0.716142 -2.30273,-0.875 -0.84724,-0.17651 -1.66861,-0.263671 -2.46289,-0.263672 z M 23.554688,53.146484 c -1.006099,0 -1.941749,0.158848 -2.806641,0.476563 -0.864891,0.300063 -1.616522,0.751435 -2.251953,1.351562 -0.63543,0.60013 -1.137145,1.33042 -1.507813,2.195313 -0.370667,0.84724 -0.55664,1.81002 -0.55664,2.886719 0,1.270862 0.213097,2.365358 0.636718,3.283203 0.42362,0.900194 0.960201,1.64213 1.613282,2.224609 0.670733,0.56483 1.422362,0.979378 2.251953,1.244141 0.82959,0.282411 1.65869,0.423828 2.488281,0.423828 1.376766,0 2.612678,-0.168538 3.707031,-0.503906 0.717474,-0.231444 1.412032,-0.57175 2.083985,-1.015625 -0.177616,-0.309152 -0.345586,-0.631115 -0.5,-0.966797 -0.312723,-0.710735 -0.51224,-1.508877 -0.654297,-2.351563 l -0.0293,-0.0332 c -0.353017,0.300067 -0.70753,0.538334 -1.060547,0.714844 -0.353017,0.158857 -0.688144,0.280889 -1.005859,0.36914 -0.317715,0.08825 -0.617977,0.142504 -0.900391,0.160157 -0.264762,0.01766 -0.510773,0.02539 -0.740234,0.02539 -0.564827,0 -1.016196,-0.07942 -1.351563,-0.238281 -0.335366,-0.158858 -0.598809,-0.352569 -0.792969,-0.582031 -0.194159,-0.229458 -0.335574,-0.467734 -0.423828,-0.714844 -0.0706,-0.247115 -0.124854,-0.458255 -0.160156,-0.634765 h 8.341797 c 0.105905,-0.300063 0.185329,-0.617757 0.238281,-0.953126 0.05295,-0.353015 0.07813,-0.707531 0.07813,-1.060546 0,-0.900194 -0.141415,-1.729294 -0.423828,-2.488282 -0.282414,-0.776636 -0.704704,-1.446893 -1.269531,-2.011718 -0.564827,-0.564826 -1.2719,-1.006504 -2.119141,-1.324219 -0.82959,-0.317715 -1.790413,-0.476563 -2.884765,-0.476563 z m 75.808593,0 c -1.006106,0 -1.941743,0.158848 -2.80664,0.476563 -0.864893,0.300063 -1.61457,0.751435 -2.25,1.351562 -0.635431,0.60013 -1.139098,1.33042 -1.509766,2.195313 -0.370668,0.84724 -0.554688,1.81002 -0.554687,2.886719 0,1.270862 0.211144,2.365358 0.634765,3.283203 0.42362,0.900194 0.962153,1.64213 1.615235,2.224609 0.670732,0.56483 1.420411,0.979378 2.25,1.244141 0.829589,0.282411 1.658685,0.423828 2.488281,0.423828 1.376761,0 2.612681,-0.168538 3.707031,-0.503906 0.71748,-0.231444 1.41202,-0.57175 2.08398,-1.015625 -0.17762,-0.309152 -0.34362,-0.631115 -0.49804,-0.966797 -0.31272,-0.710735 -0.51419,-1.508877 -0.65625,-2.351563 l -0.0293,-0.0332 c -0.35302,0.300067 -0.70558,0.538334 -1.05859,0.714844 -0.35302,0.158857 -0.69011,0.280889 -1.00782,0.36914 -0.31772,0.08825 -0.61601,0.142504 -0.89843,0.160157 -0.26476,0.01766 -0.51273,0.02539 -0.74219,0.02539 -0.564831,0 -1.01424,-0.07942 -1.34961,-0.238281 C 98.445884,63.23372 98.180498,63.040009 97.986328,62.810547 97.792178,62.581089 97.65075,62.342813 97.5625,62.095703 97.4919,61.848588 97.439597,61.637448 97.404297,61.460938 h 8.339843 c 0.1059,-0.300063 0.18533,-0.617757 0.23828,-0.953126 0.053,-0.353015 0.0781,-0.707531 0.0781,-1.060546 0,-0.900194 -0.13947,-1.729294 -0.42188,-2.488282 -0.28242,-0.776636 -0.70666,-1.446893 -1.27148,-2.011718 -0.56483,-0.564826 -1.26995,-1.006504 -2.11719,-1.324219 -0.82959,-0.317715 -1.79237,-0.476563 -2.886719,-0.476563 z m -61.320312,0.132813 c -0.847241,0 -1.668604,0.131721 -2.462891,0.396484 -0.776638,0.264762 -1.464324,0.679314 -2.064453,1.244141 -0.600129,0.547176 -1.086363,1.254248 -1.457031,2.11914 -0.353017,0.847241 -0.529297,1.852623 -0.529297,3.017579 0,1.182607 0.193712,2.215114 0.582031,3.097656 0.405969,0.882542 0.936763,1.624479 1.589844,2.224609 0.670733,0.582478 1.447536,1.024155 2.330078,1.324219 0.882543,0.282414 1.808501,0.423828 2.779297,0.423828 0.706034,0 1.38598,-0.07942 2.039062,-0.238281 0.653081,-0.158858 1.253605,-0.362263 1.800782,-0.609375 0.564827,-0.247112 1.066541,-0.529941 1.507812,-0.847656 0.0651,-0.04948 0.105554,-0.09896 0.167969,-0.148438 -0.0228,-0.03136 -0.05797,-0.04805 -0.08008,-0.08008 -0.287158,-0.416036 -0.516158,-0.886603 -0.699219,-1.361328 -0.302708,-0.785003 -0.425436,-1.482408 -0.53125,-2.060547 l -0.04883,-0.05664 c -0.42362,0.458922 -0.88273,0.830869 -1.376953,1.113282 -0.494224,0.264763 -1.075361,0.396484 -1.746094,0.396484 -0.882542,0 -1.572182,-0.29057 -2.066406,-0.873047 -0.494224,-0.600129 -0.740235,-1.351759 -0.740235,-2.251953 0,-0.42362 0.0426,-0.838172 0.13086,-1.244141 0.105905,-0.40597 0.257013,-0.768221 0.451172,-1.085937 0.194159,-0.317715 0.432429,-0.573419 0.714843,-0.767578 0.300064,-0.194159 0.644884,-0.291016 1.033204,-0.291016 0.300065,0 0.555768,0.08912 0.767578,0.265625 0.211811,0.158858 0.378397,0.379697 0.501953,0.66211 0.123555,0.264763 0.212672,0.565023 0.265625,0.90039 0.0706,0.317715 0.115158,0.63541 0.132812,0.953125 h 3.890625 V 53.517577 H 41.80273 l -0.451172,1.271484 C 41.245658,54.665508 41.096503,54.5144 40.902344,54.337891 40.708185,54.161382 40.469914,53.994794 40.1875,53.835938 39.922738,53.67708 39.605043,53.543406 39.234375,53.4375 38.881359,53.331596 38.48424,53.279297 38.042969,53.279297 Z M 84.75,53.304688 c -0.40597,0 -0.775962,0.04456 -1.111328,0.132812 -0.335366,0.08825 -0.635628,0.194803 -0.900391,0.318359 -0.264763,0.105905 -0.503033,0.229887 -0.714843,0.371094 -0.194159,0.123556 -0.353007,0.228156 -0.476563,0.316406 l -0.451172,-0.925781 h -7.003906 v 3.521484 h 2.052734 v 12.947266 h -1.111328 v 3.46875 h 7.916016 v -3.46875 h -1.429688 v -3.972656 c 0.05295,0.0353 0.159503,0.114725 0.31836,0.238281 0.158858,0.105905 0.370002,0.220195 0.634765,0.34375 0.282413,0.123556 0.627233,0.230109 1.033203,0.318359 0.42362,0.08825 0.909855,0.132813 1.457032,0.132813 0.847241,0 1.641476,-0.158847 2.382812,-0.476563 0.741335,-0.317714 1.376724,-0.769084 1.90625,-1.351562 0.547176,-0.582478 0.969466,-1.287598 1.269531,-2.117188 0.317715,-0.847241 0.476563,-1.800324 0.476563,-2.859374 0,-0.935496 -0.131721,-1.818848 -0.396485,-2.648438 -0.264763,-0.847241 -0.66188,-1.587226 -1.191406,-2.222656 C 88.898281,54.735663 88.24546,54.231996 87.451172,53.861328 86.674535,53.49066 85.773749,53.304688 84.75,53.304688 Z m -27.511719,0.21289 v 3.494141 h 1.111328 v 3.654297 c 0,1.094353 0.08912,2.047436 0.265625,2.859375 0.176509,0.811939 0.467078,1.482193 0.873047,2.011718 0.423621,0.529526 0.971846,0.926644 1.642578,1.191407 0.688383,0.264763 1.534917,0.396484 2.541016,0.396484 0.564827,0 1.051062,-0.07942 1.457031,-0.238281 0.405969,-0.141207 0.748836,-0.317487 1.03125,-0.529297 0.300065,-0.21181 0.548029,-0.432648 0.742188,-0.66211 0.21181,-0.247112 0.38809,-0.448564 0.529297,-0.607421 l 0.714843,1.667968 h 5.945313 v -3.521484 h -2.238281 v -9.716797 h -6.857422 v 3.494141 h 1.748047 v 4.210937 c 0,0.600129 -0.168541,1.08441 -0.503907,1.455078 -0.317715,0.370667 -0.70514,0.556641 -1.164062,0.556641 -0.547177,0 -0.926862,-0.265397 -1.138672,-0.794922 -0.194159,-0.547176 -0.291016,-1.39371 -0.291016,-2.541015 v -6.38086 z m 68.369139,0 v 3.441406 h 1.11133 v 6.328125 h -1.11133 v 3.46875 h 7.41406 v -3.46875 H 131.75 v -9.769531 z m -10.45898,3.175781 c 0.28241,0 0.53812,0.08912 0.76758,0.265625 0.24711,0.176509 0.45052,0.424473 0.60937,0.742188 0.17651,0.317715 0.30823,0.687708 0.39649,1.111328 0.0883,0.423621 0.13281,0.882729 0.13281,1.376953 0,0.953146 -0.19371,1.702824 -0.58203,2.25 -0.37067,0.547177 -0.80265,0.820313 -1.29688,0.820313 -0.30006,0 -0.56545,-0.09686 -0.79492,-0.291016 -0.22946,-0.194159 -0.43287,-0.44017 -0.60938,-0.740234 -0.15886,-0.300065 -0.28284,-0.644885 -0.37109,-1.033204 -0.0883,-0.388318 -0.13086,-0.785436 -0.13086,-1.191406 0,-1.006098 0.16659,-1.810027 0.50195,-2.410156 0.35302,-0.600129 0.81213,-0.900391 1.37696,-0.900391 z m -91.435549,0.02734 c 0.42362,0 0.758747,0.06199 1.005859,0.185547 0.264763,0.123557 0.458475,0.290143 0.582031,0.501953 0.141207,0.194163 0.238063,0.424686 0.291016,0.689453 0.05295,0.24711 0.08008,0.495078 0.08008,0.742188 H 21.67383 c 0.01765,-0.158857 0.05447,-0.362264 0.107422,-0.609375 0.0706,-0.247115 0.175199,-0.477639 0.316406,-0.689453 0.158857,-0.229458 0.362263,-0.423174 0.609375,-0.582032 0.264762,-0.158857 0.599889,-0.238281 1.00586,-0.238281 z m 75.808593,0 c 0.42362,0 0.758746,0.06199 1.005856,0.185547 0.26477,0.123557 0.46044,0.290143 0.58399,0.501953 0.14121,0.194163 0.23806,0.424686 0.29101,0.689453 0.053,0.24711 0.0801,0.495078 0.0801,0.742188 h -3.998045 c 0.0177,-0.158857 0.05253,-0.362264 0.105469,-0.609375 0.0706,-0.247115 0.175196,-0.477639 0.316406,-0.689453 0.15885,-0.229458 0.362265,-0.423174 0.609375,-0.582032 0.264776,-0.158857 0.599889,-0.238281 1.005859,-0.238281 z m -16.121093,0.318359 c 0.282413,0 0.538117,0.09686 0.767578,0.291016 0.247111,0.194159 0.450517,0.440169 0.609375,0.740234 0.176509,0.300064 0.308234,0.654577 0.396484,1.060547 0.08825,0.388319 0.132813,0.775744 0.132813,1.164063 0,1.006099 -0.17628,1.810027 -0.529297,2.410156 -0.335366,0.600129 -0.786736,0.900391 -1.351563,0.900391 -0.282414,0 -0.545857,-0.08912 -0.792969,-0.265625 -0.229461,-0.176509 -0.432866,-0.424473 -0.609374,-0.742188 -0.158857,-0.317715 -0.282834,-0.687707 -0.371094,-1.111328 -0.08825,-0.42362 -0.132813,-0.882729 -0.132813,-1.376953 0,-0.953146 0.185973,-1.702823 0.556641,-2.25 0.388319,-0.547176 0.829995,-0.820313 1.324219,-0.820313 z m 58.074219,4.13086 c 0.28242,0 0.51295,0.03487 0.68945,0.105469 0.19416,0.07061 0.35301,0.150028 0.47656,0.238281 0.12355,0.08825 0.21073,0.175415 0.26368,0.263672 0.0706,0.0706 0.11516,0.124855 0.13281,0.160156 v 1.005859 c -0.12356,0.194158 -0.33471,0.387874 -0.63477,0.582032 -0.30007,0.194162 -0.65457,0.291015 -1.06054,0.291015 -0.40597,0 -0.74109,-0.114288 -1.00586,-0.34375 -0.26476,-0.229462 -0.39649,-0.529723 -0.39649,-0.90039 0,-0.405973 0.12399,-0.741097 0.3711,-1.00586 0.24711,-0.264763 0.63454,-0.396484 1.16406,-0.396484 z"
       style="fill:#000000;fill-opacity:1;stroke:none;stroke-width:1" />
    <path
       style="fill:#000000;fill-opacity:1;stroke:none;stroke-width:1"
       d="m 0,43.402344 v 3.496094 H 1.4570312 V 63.234375 H 0 v 3.521484 h 14.826172 v -6.884765 h -4.447266 v 3.363281 H 6.9628906 V 46.898438 h 1.4042969 v -3.496094 z m 53.09375,3.496094 -4.871094,1.5625 v 5.05664 h -1.429687 v 3.441406 h 1.429687 v 4.712891 c 0.01765,0.847241 0.06221,1.614351 0.132813,2.302734 0.0706,0.688383 0.23719,1.271474 0.501953,1.748047 0.264763,0.476573 0.671573,0.846565 1.21875,1.111328 0.564827,0.264763 1.341631,0.398438 2.330078,0.398438 0.158858,0 0.370003,-0.01743 0.634766,-0.05273 0.282413,-0.01765 0.582675,-0.04478 0.90039,-0.08008 0.317715,-0.0353 0.625716,-0.0876 0.925782,-0.158203 0.300065,-0.05295 0.548028,-0.12464 0.742187,-0.21289 v -3.388672 c -0.247112,0.105905 -0.547374,0.212454 -0.900391,0.318359 -0.335366,0.08825 -0.591069,0.130859 -0.767578,0.130859 -0.388319,0 -0.636282,-0.131721 -0.742187,-0.396484 -0.08825,-0.282413 -0.13086,-0.600108 -0.13086,-0.953125 v -0.396484 c 0.01768,-0.123556 0.02539,-0.247538 0.02539,-0.371094 v -4.712891 h 2.515625 V 53.517578 H 53.09375 Z m 62.74414,0 v 3.441406 h 1.2168 v 3.917968 c -0.24712,-0.158858 -0.63454,-0.36031 -1.16407,-0.607421 -0.51187,-0.264764 -1.23638,-0.398438 -2.17187,-0.398438 -0.81194,0 -1.58874,0.158847 -2.33008,0.476563 -0.74134,0.317715 -1.39416,0.769083 -1.95898,1.351562 -0.56483,0.582478 -1.01425,1.297291 -1.34961,2.144531 -0.33537,0.82959 -0.50391,1.755548 -0.50391,2.779297 0,0.917844 0.14142,1.801197 0.42383,2.648438 0.30007,0.847241 0.71461,1.596918 1.24414,2.25 0.52953,0.63543 1.17461,1.146837 1.93359,1.535156 0.75899,0.370668 1.60553,0.556641 2.54102,0.556641 0.45892,0 0.87347,-0.05425 1.24414,-0.160157 0.37067,-0.08825 0.69806,-0.19285 0.98047,-0.316406 0.28242,-0.141207 0.51099,-0.274882 0.6875,-0.398437 0.19416,-0.141208 0.33557,-0.255496 0.42383,-0.34375 l 0.45117,0.980468 h 6.19531 V 63.3125 h -1.27148 V 46.898438 Z m 13.36914,0.05273 c -0.45892,0 -0.87347,0.08716 -1.24414,0.263672 -0.35302,0.158857 -0.65328,0.371955 -0.90039,0.636718 -0.22946,0.264763 -0.40574,0.555332 -0.5293,0.873047 -0.12356,0.317716 -0.18554,0.627671 -0.18554,0.927735 0,0.317715 0.0717,0.635409 0.21289,0.953125 0.1412,0.317715 0.33492,0.608284 0.58203,0.873047 0.26476,0.247112 0.56502,0.450517 0.90039,0.609375 0.35301,0.158858 0.74044,0.238281 1.16406,0.238281 0.95315,0 1.67765,-0.255704 2.17188,-0.767578 0.49422,-0.529526 0.74218,-1.164914 0.74218,-1.90625 0,-0.300064 -0.0717,-0.610019 -0.21289,-0.927735 -0.12355,-0.317715 -0.30952,-0.608284 -0.55664,-0.873047 -0.24711,-0.264763 -0.55511,-0.477861 -0.92578,-0.636718 -0.35301,-0.176509 -0.75982,-0.263672 -1.21875,-0.263672 z M 141.23633,52.75 c -0.61779,0 -1.2183,0.06972 -1.80078,0.210938 -0.56483,0.123553 -1.10336,0.292096 -1.61524,0.503906 -0.49422,0.194158 -0.94364,0.397565 -1.34961,0.609375 -0.40597,0.211811 -0.7411,0.395829 -1.00586,0.554687 v 3.65625 c 1.94251,-1.567789 3.33172,-1.791696 5.05664,-1.802734 0.72369,0 1.32421,0.09686 1.80079,0.291016 0.47657,0.194158 0.71484,0.591275 0.71484,1.191406 v 0.927734 c -0.0353,-0.03529 -0.12247,-0.106985 -0.26367,-0.21289 -0.12356,-0.105906 -0.30179,-0.210502 -0.53125,-0.316407 -0.21181,-0.105905 -0.4772,-0.19502 -0.79492,-0.265625 -0.30007,-0.08825 -0.64293,-0.132812 -1.03125,-0.132812 -0.74133,0 -1.44646,0.114287 -2.11719,0.34375 -0.67073,0.229462 -1.26352,0.556848 -1.77539,0.980468 -0.49423,0.42362 -0.89135,0.935027 -1.19141,1.535157 -0.28241,0.60013 -0.42383,1.270382 -0.42383,2.011719 0,0.776635 0.15111,1.448845 0.45118,2.013671 0.31772,0.547178 0.72256,0.99659 1.21679,1.34961 0.49422,0.353015 1.05019,0.618412 1.66797,0.794922 0.61778,0.176506 1.24543,0.265625 1.88086,0.265625 0.22946,0 0.50259,-0.02714 0.82031,-0.08008 0.31771,-0.05295 0.63542,-0.142069 0.95313,-0.265626 0.33537,-0.123553 0.65306,-0.290143 0.95312,-0.501953 0.31772,-0.229458 0.60055,-0.512293 0.84766,-0.847656 l 0.63476,1.191406 H 150 v -3.388671 h -1.58789 v -5.164063 c 0,-1.059051 -0.23053,-1.940449 -0.68945,-2.646484 -0.44128,-0.706036 -1.01467,-1.262001 -1.72071,-1.667969 -0.68838,-0.423621 -1.45549,-0.716142 -2.30273,-0.875 -0.84724,-0.17651 -1.66861,-0.263671 -2.46289,-0.263672 z M 23.554688,53.146484 c -1.006099,0 -1.941749,0.158848 -2.806641,0.476563 -0.864891,0.300063 -1.616522,0.751435 -2.251953,1.351562 -0.63543,0.60013 -1.137145,1.33042 -1.507813,2.195313 -0.370667,0.84724 -0.55664,1.81002 -0.55664,2.886719 0,1.270862 0.213097,2.365358 0.636718,3.283203 0.42362,0.900194 0.960201,1.64213 1.613282,2.224609 0.670733,0.56483 1.422362,0.979378 2.251953,1.244141 0.82959,0.282411 1.65869,0.423828 2.488281,0.423828 1.376766,0 2.612678,-0.168538 3.707031,-0.503906 0.717474,-0.231444 1.412032,-0.57175 2.083985,-1.015625 -0.177616,-0.309152 -0.345586,-0.631115 -0.5,-0.966797 -0.312723,-0.710735 -0.51224,-1.508877 -0.654297,-2.351563 l -0.0293,-0.0332 c -0.353017,0.300067 -0.70753,0.538334 -1.060547,0.714844 -0.353017,0.158857 -0.688144,0.280889 -1.005859,0.36914 -0.317715,0.08825 -0.617977,0.142504 -0.900391,0.160157 -0.264762,0.01766 -0.510773,0.02539 -0.740234,0.02539 -0.564827,0 -1.016196,-0.07942 -1.351563,-0.238281 -0.335366,-0.158858 -0.598809,-0.352569 -0.792969,-0.582031 -0.194159,-0.229458 -0.335574,-0.467734 -0.423828,-0.714844 -0.0706,-0.247115 -0.124854,-0.458255 -0.160156,-0.634765 h 8.341797 c 0.105905,-0.300063 0.185329,-0.617757 0.238281,-0.953126 0.05295,-0.353015 0.07813,-0.707531 0.07813,-1.060546 0,-0.900194 -0.141415,-1.729294 -0.423828,-2.488282 -0.282414,-0.776636 -0.704704,-1.446893 -1.269531,-2.011718 -0.564827,-0.564826 -1.2719,-1.006504 -2.119141,-1.324219 -0.82959,-0.317715 -1.790413,-0.476563 -2.884765,-0.476563 z m 75.808593,0 c -1.006106,0 -1.941743,0.158848 -2.80664,0.476563 -0.864893,0.300063 -1.61457,0.751435 -2.25,1.351562 -0.635431,0.60013 -1.139098,1.33042 -1.509766,2.195313 -0.370668,0.84724 -0.554688,1.81002 -0.554687,2.886719 0,1.270862 0.211144,2.365358 0.634765,3.283203 0.42362,0.900194 0.962153,1.64213 1.615235,2.224609 0.670732,0.56483 1.420411,0.979378 2.25,1.244141 0.829589,0.282411 1.658685,0.423828 2.488281,0.423828 1.376761,0 2.612681,-0.168538 3.707031,-0.503906 0.71748,-0.231444 1.41202,-0.57175 2.08398,-1.015625 -0.17762,-0.309152 -0.34362,-0.631115 -0.49804,-0.966797 -0.31272,-0.710735 -0.51419,-1.508877 -0.65625,-2.351563 l -0.0293,-0.0332 c -0.35302,0.300067 -0.70558,0.538334 -1.05859,0.714844 -0.35302,0.158857 -0.69011,0.280889 -1.00782,0.36914 -0.31772,0.08825 -0.61601,0.142504 -0.89843,0.160157 -0.26476,0.01766 -0.51273,0.02539 -0.74219,0.02539 -0.564831,0 -1.01424,-0.07942 -1.34961,-0.238281 C 98.445884,63.23372 98.180498,63.040009 97.986328,62.810547 97.792178,62.581089 97.65075,62.342813 97.5625,62.095703 97.4919,61.848588 97.439597,61.637448 97.404297,61.460938 h 8.339843 c 0.1059,-0.300063 0.18533,-0.617757 0.23828,-0.953126 0.053,-0.353015 0.0781,-0.707531 0.0781,-1.060546 0,-0.900194 -0.13947,-1.729294 -0.42188,-2.488282 -0.28242,-0.776636 -0.70666,-1.446893 -1.27148,-2.011718 -0.56483,-0.564826 -1.26995,-1.006504 -2.11719,-1.324219 -0.82959,-0.317715 -1.79237,-0.476563 -2.886719,-0.476563 z m -61.320312,0.132813 c -0.847241,0 -1.668604,0.131721 -2.462891,0.396484 -0.776638,0.264762 -1.464324,0.679314 -2.064453,1.244141 -0.600129,0.547176 -1.086363,1.254248 -1.457031,2.11914 -0.353017,0.847241 -0.529297,1.852623 -0.529297,3.017579 0,1.182607 0.193712,2.215114 0.582031,3.097656 0.405969,0.882542 0.936763,1.624479 1.589844,2.224609 0.670733,0.582478 1.447536,1.024155 2.330078,1.324219 0.882543,0.282414 1.808501,0.423828 2.779297,0.423828 0.706034,0 1.38598,-0.07942 2.039062,-0.238281 0.653081,-0.158858 1.253605,-0.362263 1.800782,-0.609375 0.564827,-0.247112 1.066541,-0.529941 1.507812,-0.847656 0.0651,-0.04948 0.105554,-0.09896 0.167969,-0.148438 -0.0228,-0.03136 -0.05797,-0.04805 -0.08008,-0.08008 -0.287158,-0.416036 -0.516158,-0.886603 -0.699219,-1.361328 -0.302708,-0.785003 -0.425436,-1.482408 -0.53125,-2.060547 l -0.04883,-0.05664 c -0.42362,0.458922 -0.88273,0.830869 -1.376953,1.113282 -0.494224,0.264763 -1.075361,0.396484 -1.746094,0.396484 -0.882542,0 -1.572182,-0.29057 -2.066406,-0.873047 -0.494224,-0.600129 -0.740235,-1.351759 -0.740235,-2.251953 0,-0.42362 0.0426,-0.838172 0.13086,-1.244141 0.105905,-0.40597 0.257013,-0.768221 0.451172,-1.085937 0.194159,-0.317715 0.432429,-0.573419 0.714843,-0.767578 0.300064,-0.194159 0.644884,-0.291016 1.033204,-0.291016 0.300065,0 0.555768,0.08912 0.767578,0.265625 0.211811,0.158858 0.378397,0.379697 0.501953,0.66211 0.123555,0.264763 0.212672,0.565023 0.265625,0.90039 0.0706,0.317715 0.115158,0.63541 0.132812,0.953125 h 3.890625 V 53.517577 H 41.80273 l -0.451172,1.271484 C 41.245658,54.665508 41.096503,54.5144 40.902344,54.337891 40.708185,54.161382 40.469914,53.994794 40.1875,53.835938 39.922738,53.67708 39.605043,53.543406 39.234375,53.4375 38.881359,53.331596 38.48424,53.279297 38.042969,53.279297 Z M 84.75,53.304688 c -0.40597,0 -0.775962,0.04456 -1.111328,0.132812 -0.335366,0.08825 -0.635628,0.194803 -0.900391,0.318359 -0.264763,0.105905 -0.503033,0.229887 -0.714843,0.371094 -0.194159,0.123556 -0.353007,0.228156 -0.476563,0.316406 l -0.451172,-0.925781 h -7.003906 v 3.521484 h 2.052734 v 12.947266 h -1.111328 v 3.46875 h 7.916016 v -3.46875 h -1.429688 v -3.972656 c 0.05295,0.0353 0.159503,0.114725 0.31836,0.238281 0.158858,0.105905 0.370002,0.220195 0.634765,0.34375 0.282413,0.123556 0.627233,0.230109 1.033203,0.318359 0.42362,0.08825 0.909855,0.132813 1.457032,0.132813 0.847241,0 1.641476,-0.158847 2.382812,-0.476563 0.741335,-0.317714 1.376724,-0.769084 1.90625,-1.351562 0.547176,-0.582478 0.969466,-1.287598 1.269531,-2.117188 0.317715,-0.847241 0.476563,-1.800324 0.476563,-2.859374 0,-0.935496 -0.131721,-1.818848 -0.396485,-2.648438 -0.264763,-0.847241 -0.66188,-1.587226 -1.191406,-2.222656 C 88.898281,54.735663 88.24546,54.231996 87.451172,53.861328 86.674535,53.49066 85.773749,53.304688 84.75,53.304688 Z m -27.511719,0.21289 v 3.494141 h 1.111328 v 3.654297 c 0,1.094353 0.08912,2.047436 0.265625,2.859375 0.176509,0.811939 0.467078,1.482193 0.873047,2.011718 0.423621,0.529526 0.971846,0.926644 1.642578,1.191407 0.688383,0.264763 1.534917,0.396484 2.541016,0.396484 0.564827,0 1.051062,-0.07942 1.457031,-0.238281 0.405969,-0.141207 0.748836,-0.317487 1.03125,-0.529297 0.300065,-0.21181 0.548029,-0.432648 0.742188,-0.66211 0.21181,-0.247112 0.38809,-0.448564 0.529297,-0.607421 l 0.714843,1.667968 h 5.945313 v -3.521484 h -2.238281 v -9.716797 h -6.857422 v 3.494141 h 1.748047 v 4.210937 c 0,0.600129 -0.168541,1.08441 -0.503907,1.455078 -0.317715,0.370667 -0.70514,0.556641 -1.164062,0.556641 -0.547177,0 -0.926862,-0.265397 -1.138672,-0.794922 -0.194159,-0.547176 -0.291016,-1.39371 -0.291016,-2.541015 v -6.38086 z m 68.369139,0 v 3.441406 h 1.11133 v 6.328125 h -1.11133 v 3.46875 h 7.41406 v -3.46875 H 131.75 v -9.769531 z m -10.45898,3.175781 c 0.28241,0 0.53812,0.08912 0.76758,0.265625 0.24711,0.176509 0.45052,0.424473 0.60937,0.742188 0.17651,0.317715 0.30823,0.687708 0.39649,1.111328 0.0883,0.423621 0.13281,0.882729 0.13281,1.376953 0,0.953146 -0.19371,1.702824 -0.58203,2.25 -0.37067,0.547177 -0.80265,0.820313 -1.29688,0.820313 -0.30006,0 -0.56545,-0.09686 -0.79492,-0.291016 -0.22946,-0.194159 -0.43287,-0.44017 -0.60938,-0.740234 -0.15886,-0.300065 -0.28284,-0.644885 -0.37109,-1.033204 -0.0883,-0.388318 -0.13086,-0.785436 -0.13086,-1.191406 0,-1.006098 0.16659,-1.810027 0.50195,-2.410156 0.35302,-0.600129 0.81213,-0.900391 1.37696,-0.900391 z m -91.435549,0.02734 c 0.42362,0 0.758747,0.06199 1.005859,0.185547 0.264763,0.123557 0.458475,0.290143 0.582031,0.501953 0.141207,0.194163 0.238063,0.424686 0.291016,0.689453 0.05295,0.24711 0.08008,0.495078 0.08008,0.742188 H 21.67383 c 0.01765,-0.158857 0.05447,-0.362264 0.107422,-0.609375 0.0706,-0.247115 0.175199,-0.477639 0.316406,-0.689453 0.158857,-0.229458 0.362263,-0.423174 0.609375,-0.582032 0.264762,-0.158857 0.599889,-0.238281 1.00586,-0.238281 z m 75.808593,0 c 0.42362,0 0.758746,0.06199 1.005856,0.185547 0.26477,0.123557 0.46044,0.290143 0.58399,0.501953 0.14121,0.194163 0.23806,0.424686 0.29101,0.689453 0.053,0.24711 0.0801,0.495078 0.0801,0.742188 h -3.998045 c 0.0177,-0.158857 0.05253,-0.362264 0.105469,-0.609375 0.0706,-0.247115 0.175196,-0.477639 0.316406,-0.689453 0.15885,-0.229458 0.362265,-0.423174 0.609375,-0.582032 0.264776,-0.158857 0.599889,-0.238281 1.005859,-0.238281 z m -16.121093,0.318359 c 0.282413,0 0.538117,0.09686 0.767578,0.291016 0.247111,0.194159 0.450517,0.440169 0.609375,0.740234 0.176509,0.300064 0.308234,0.654577 0.396484,1.060547 0.08825,0.388319 0.132813,0.775744 0.132813,1.164063 0,1.006099 -0.17628,1.810027 -0.529297,2.410156 -0.335366,0.600129 -0.786736,0.900391 -1.351563,0.900391 -0.282414,0 -0.545857,-0.08912 -0.792969,-0.265625 -0.229461,-0.176509 -0.432866,-0.424473 -0.609374,-0.742188 -0.158857,-0.317715 -0.282834,-0.687707 -0.371094,-1.111328 -0.08825,-0.42362 -0.132813,-0.882729 -0.132813,-1.376953 0,-0.953146 0.185973,-1.702823 0.556641,-2.25 0.388319,-0.547176 0.829995,-0.820313 1.324219,-0.820313 z m 58.074219,4.13086 c 0.28242,0 0.51295,0.03487 0.68945,0.105469 0.19416,0.07061 0.35301,0.150028 0.47656,0.238281 0.12355,0.08825 0.21073,0.175415 0.26368,0.263672 0.0706,0.0706 0.11516,0.124855 0.13281,0.160156 v 1.005859 c -0.12356,0.194158 -0.33471,0.387874 -0.63477,0.582032 -0.30007,0.194162 -0.65457,0.291015 -1.06054,0.291015 -0.40597,0 -0.74109,-0.114288 -1.00586,-0.34375 -0.26476,-0.229462 -0.39649,-0.529723 -0.39649,-0.90039 0,-0.405973 0.12399,-0.741097 0.3711,-1.00586 0.24711,-0.264763 0.63454,-0.396484 1.16406,-0.396484 z"
       transform="translate(1.3499989,15.006255)"
       id="path1540" />
  </g>
</svg>
