<?xml version="1.0" encoding="UTF-8" standalone="no"?>
<svg
   xmlns:dc="http://purl.org/dc/elements/1.1/"
   xmlns:cc="http://creativecommons.org/ns#"
   xmlns:rdf="http://www.w3.org/1999/02/22-rdf-syntax-ns#"
   xmlns:svg="http://www.w3.org/2000/svg"
   xmlns="http://www.w3.org/2000/svg"
   height="75"
   width="150"
   version="1.1"
   viewBox="0 0 150 75">
  <metadata>
    <rdf:RDF>
      <rdf:Description
         dc:title="Lectupedia - Logo"
         dc:description="Lectupedia"
         dc:publisher="Lectupedia"
         dc:date="2020-12-01"
         dc:format="image/svg+xml"
         dc:language="es">
        <dc:creator>
          <rdf:Bag>
            <rdf:li>Paula Peña</rdf:li>
            <rdf:li>pauladorada</rdf:li>
            <rdf:li>Andrés Peña</rdf:li>
          </rdf:Bag>
        </dc:creator>
      </rdf:Description>
      <cc:Work
         rdf:about="">
        <dc:format>image/svg+xml</dc:format>
        <dc:type
           rdf:resource="http://purl.org/dc/dcmitype/StillImage" />
        <dc:title>Lectupedia</dc:title>
        <cc:license
           rdf:resource="http://creativecommons.org/licenses/by-nc-nd/4.0/" />
      </cc:Work>
    </rdf:RDF>
  </metadata><path d="M0 43.4v3.5h1.46v16.33H0v3.53h14.83v-6.89h-4.45v3.36H6.96V46.9h1.4v-3.5zm53.1 3.5l-4.88 1.56v5.06H46.8v3.44h1.43l.11 6.75c.06 1.19.49 2.53 1.64 3.07 1.67.86 4.81.25 5.64-.05v-3.39c-.67.24-1.43.62-2.15.35-.49-.36-.36-1.06-.4-1.6l.03-5.13h2.52v-3.44H53.1zm62.74 0v3.44h1.21v3.92a5.66 5.66 0 0 0-3.33-1 6.08 6.08 0 0 0-5.7 4.12c-1.07 3-.22 6.8 2.48 8.66a5.48 5.48 0 0 0 6.55-.26l.46.98h6.2V63.3h-1.28V46.9zm13.37.05a2.8 2.8 0 0 0-2.6 1.6 2.41 2.41 0 0 0 0 2.18 2.87 2.87 0 0 0 2.48 1.6c.82.03 1.72-.17 2.3-.79.72-.76.96-1.96.48-2.9a2.9 2.9 0 0 0-2.66-1.69zm12.03 5.8c-2.07 0-4.02.85-5.78 1.88v3.66a7.13 7.13 0 0 1 4.58-1.8c.9 0 1.92-.05 2.66.53.49.5.3 1.24.34 1.87-1.32-1.16-3.3-1.1-4.87-.54a4.7 4.7 0 0 0-3.26 4.21 3.97 3.97 0 0 0 1.4 3.43 5.94 5.94 0 0 0 5.23 1.05 4 4 0 0 0 2.16-1.48l.63 1.2H150v-3.4h-1.59l-.02-5.64a4.86 4.86 0 0 0-2.92-4.12c-1.3-.63-2.8-.82-4.23-.85zm-117.69.4c-2.22-.02-4.57.87-5.86 2.75-1.34 1.87-1.53 4.35-.96 6.53a6.36 6.36 0 0 0 3.6 4.15c1.9.84 4.06.77 6.06.34 1-.21 1.97-.64 2.82-1.2-.67-1.01-.93-2.21-1.18-3.36a5.48 5.48 0 0 1-4.79 1.14 2.39 2.39 0 0 1-1.65-2.04h8.35c.6-1.88.35-4.05-.72-5.71-1.22-1.86-3.53-2.64-5.67-2.6zm75.81 0c-2.22-.02-4.57.87-5.86 2.75-1.34 1.87-1.54 4.35-.96 6.53a6.36 6.36 0 0 0 3.6 4.15c1.9.84 4.06.77 6.06.34 1-.21 1.96-.64 2.82-1.2-.67-1.01-.93-2.21-1.18-3.36a5.48 5.48 0 0 1-4.79 1.14 2.39 2.39 0 0 1-1.65-2.04h8.34c.6-1.88.36-4.05-.71-5.71-1.22-1.86-3.53-2.64-5.67-2.6zm-61.32.13c-1.91-.02-3.9.7-5.1 2.26-1.36 1.69-1.62 4-1.28 6.08a6.42 6.42 0 0 0 3.8 4.87 9.22 9.22 0 0 0 8.87-1.2c-.83-1.05-1.07-2.32-1.34-3.54-.45.37-.98.92-1.59 1.18-1.2.51-2.88.46-3.71-.68-.8-1.1-.8-2.58-.38-3.82.3-.96 1.2-1.89 2.27-1.7 1.44.27 1.45 2.75 1.46 2.77h3.89v-5.98H41.8l-.45 1.27a4.32 4.32 0 0 0-3.3-1.51zm46.71.02a5.48 5.48 0 0 0-3.2 1.14l-.45-.92h-7v3.52h2.04v12.95h-1.1v3.47h7.9v-3.47h-1.42V66c1.5 1.17 3.63 1.27 5.4.72 2.36-.74 3.85-3.14 4.03-5.53.27-2.56-.53-5.49-2.8-6.95-1-.66-2.2-.96-3.4-.95zm-27.51.22v3.5h1.11l.07 5.27c.13 1.57.64 3.34 2.12 4.15 1.2.67 2.66.79 4.01.6a4.59 4.59 0 0 0 2.77-1.83c.38.22.83 1.55.83 1.55h5.94v-3.53h-2.24v-9.71H65v3.5h1.74l-.01 4.53c-.06 1-1.09 1.99-2.12 1.6-.84-.34-.84-1.4-.93-2.18l-.03-7.45zm68.37 0v3.44h1.1v6.33h-1.1v3.47h7.41v-3.47h-1.27v-9.77zm-10.46 3.17c1.14.06 1.63 1.32 1.8 2.28.23 1.4.18 3.17-1.08 4.08-.74.53-1.66 0-2.03-.71a5.49 5.49 0 0 1-.19-4.51c.26-.6.8-1.16 1.5-1.14zm-91.44.03c1.26 0 1.94.6 1.96 2.12h-4c.12-1.2.79-2.11 2.04-2.12zm75.81 0c1.26 0 1.94.6 1.96 2.12h-4c.12-1.2.78-2.11 2.04-2.12zm-16.12.32c1.15.1 1.66 1.39 1.83 2.38.18 1.3.09 2.84-.88 3.83-.75.74-1.96.23-2.33-.65a5.72 5.72 0 0 1-.13-4.41c.28-.58.82-1.15 1.51-1.15zm58.07 4.13c.6 0 1.41.27 1.57.9v.87c-.6.9-2.13 1.26-2.88.35-.55-.76-.04-2.05.94-2.1a2.62 2.62 0 0 1 .37-.02z"/><path fill="#cc330a" d="M19.65 70a.73.73 0 00-.33.08 1 1 0 00-.3.22 1.1 1.1 0 00-.2.3.84.84 0 00-.07.34c0 .16.03.3.08.4.05.1.13.2.23.27.1.08.22.16.36.24l.39.23c.1.07.2.14.25.23.06.09.09.2.09.36a.6.6 0 01-.15.43c-.1.1-.24.16-.42.16a.77.77 0 01-.31-.07c-.1-.05-.2-.12-.32-.23l-.22-.54h-.07l.04.84c.14.08.28.14.4.18.13.04.3.06.48.06.1 0 .2-.02.32-.06a.96.96 0 00.31-.19.95.95 0 00.24-.3.97.97 0 00.09-.43.95.95 0 00-.09-.43.84.84 0 00-.26-.3 3.92 3.92 0 00-.45-.29 1.9 1.9 0 01-.44-.3.57.57 0 01-.14-.42c0-.15.04-.27.13-.38.08-.1.2-.15.33-.15.1 0 .19.02.27.06.08.04.17.1.27.19l.21.54h.07l-.04-.82a2.02 2.02 0 00-.36-.16 1.26 1.26 0 00-.39-.06zm10.3 0c-.21 0-.41.05-.6.15-.19.1-.35.24-.5.4-.14.18-.25.38-.34.6a1.98 1.98 0 00-.12.7c0 .31.06.6.18.85a1.43 1.43 0 001.3.8c.18 0 .32-.01.44-.03.11-.02.22-.05.3-.09a2.04 2.04 0 00.28-.13l.05-.82h-.08l-.27.55c-.09.07-.19.13-.3.18a.98.98 0 01-.96-.1c-.16-.13-.28-.3-.38-.53a2.26 2.26 0 010-1.58c.1-.21.24-.38.4-.5a.97.97 0 01.59-.2c.1 0 .2.03.29.07.09.04.19.1.3.2l.28.63h.08l-.02-.9a2.13 2.13 0 00-.26-.13 1.77 1.77 0 00-.66-.12zm28.12 0c-.22 0-.43.05-.62.14-.2.1-.37.22-.52.39-.15.16-.26.36-.35.58a2.12 2.12 0 00.08 1.59 1.43 1.43 0 001.31.8c.2 0 .4-.04.6-.12.2-.08.37-.18.5-.31v-.81l.32-.22v-.08h-1.12v.08l.4.2v.85c-.1.05-.2.08-.29.1a1.9 1.9 0 01-.28.01c-.23 0-.44-.06-.63-.19a1.31 1.31 0 01-.44-.55c-.11-.24-.16-.53-.16-.87 0-.26.05-.48.15-.68a1.12 1.12 0 011.04-.65c.12 0 .22.02.3.05.1.04.2.11.33.21l.3.58h.06l-.02-.85a3.05 3.05 0 00-.26-.13 1.4 1.4 0 00-.3-.09 2.26 2.26 0 00-.4-.03zm-24.81 0a1.36 1.36 0 00-.38.03c-.55.11-.97.57-1.12 1.1-.18.62-.1 1.34.32 1.85a1.44 1.44 0 001.58.45c.49-.18.84-.64.96-1.14.15-.62.05-1.32-.38-1.8a1.42 1.42 0 00-.98-.49zm38.31 0a1.36 1.36 0 00-.37.03c-.55.11-.98.57-1.13 1.1-.17.62-.1 1.34.32 1.85a1.43 1.43 0 001.58.45c.5-.18.84-.64.97-1.14.14-.62.05-1.32-.38-1.8a1.42 1.42 0 00-.99-.49zm-71.5.05v.08l.38.22-.1 2.81-.35.2v.09h1v-.08l-.36-.2.06-2.5 1.06 2.8h.2l1.08-2.84.05 2.54-.34.2v.08h1.04v-.08l-.32-.21-.07-2.82.38-.2v-.09h-.8L1.94 72.8.9 70.05zm4.28 0v.08l.36.21v1.8c0 .31.06.57.16.77.1.2.24.35.42.45.17.1.37.14.6.14.23 0 .43-.05.6-.14a1 1 0 00.42-.45c.1-.2.15-.46.15-.78v-1.8l.36-.2v-.08H6.3v.08l.45.2v1.9c0 .24-.04.42-.1.56a.67.67 0 01-.28.31.7.7 0 01-.36.1.95.95 0 01-.45-.1.76.76 0 01-.32-.37c-.08-.17-.12-.4-.12-.68v-1.71l.36-.2v-.09zm3.64 0v.08l.36.22v2.81l-.37.2v.09h1.13v-.08l-.45-.2v-2.38l1.87 2.68h.16v-3.14l.36-.2v-.08H9.93v.08l.45.2v2.2l-1.73-2.48zm3.58 0v.08l.36.21v2.82l-.36.2v.09h1.3c.22 0 .43-.05.62-.14a1.56 1.56 0 00.52-.39c.14-.16.25-.36.33-.58.08-.23.12-.48.12-.74 0-.3-.06-.56-.18-.8-.12-.23-.3-.41-.54-.55a1.7 1.7 0 00-.85-.2zm3.46 0v.08l.36.21v1.8c0 .31.05.57.15.77.1.2.24.35.42.45.18.1.38.14.6.14.23 0 .43-.05.6-.14a1 1 0 00.43-.45c.1-.2.15-.46.15-.78v-1.8l.36-.2v-.08h-1.13v.08l.45.2v1.9c0 .24-.03.42-.1.56a.67.67 0 01-.27.31.72.72 0 01-.37.1.94.94 0 01-.45-.1.76.76 0 01-.32-.37c-.07-.17-.11-.4-.11-.68v-1.71l.36-.2v-.09zm7.18 0v.08l.36.21v2.82l-.36.2v.09h2.33v-.94h-.07l-.28.66h-1.21v-1.33h.77l.22.41h.07v-1.12h-.07l-.22.42h-.77v-1.22h1.09l.28.6h.07v-.88zm2.88 0v.08l.28.18.94 1.45-.96 1.42-.33.19v.08h1.02v-.08l-.37-.19v-.02l.79-1.18.77 1.18v.02l-.33.19v.08h1.15v-.08l-.32-.2-1-1.5.92-1.35.29-.19v-.08h-.95v.08l.34.2v.02l-.75 1.09-.72-1.09v-.03l.36-.19v-.08zm10.2 0v.08l.36.21v2.82l-.36.2v.09h2.25V72.3h-.07l-.31.86h-1.1v-2.83l.4-.2v-.09zm2.84 0v.08l.36.21v2.82l-.36.2v.09h1.13v-.08l-.36-.21v-2.82l.36-.2v-.09zm1.65 0v1.04h.07l.31-.76h.74v2.83l-.45.2v.09h1.3v-.08l-.45-.21v-2.83h.74l.3.76h.08v-1.04zm3.14 0v.08l.36.21v1.8c0 .31.05.57.15.77.1.2.24.35.42.45.17.1.38.14.6.14.23 0 .43-.05.6-.14a1 1 0 00.42-.45c.1-.2.16-.46.16-.78v-1.8l.35-.2v-.08h-1.12v.08l.45.2v1.9c0 .24-.04.42-.1.56a.67.67 0 01-.27.31.72.72 0 01-.37.1.94.94 0 01-.45-.1.76.76 0 01-.32-.37c-.08-.17-.12-.4-.12-.68v-1.71l.36-.2v-.09zm3.65 0v.08l.36.21v2.82l-.36.2v.09h1.1v-.08l-.33-.22V71.9h.42l.87 1.56h.65v-.08l-.3-.19-.85-1.42c.19-.08.34-.2.45-.35a.85.85 0 00.17-.52c0-.26-.09-.47-.27-.61a1.12 1.12 0 00-.75-.23zm4.11 0v.08l.36.21v2.82l-.36.2v.09h2.24V72.3h-.07l-.3.86h-1.1v-2.83l.4-.2v-.09zm2.81 0v.08l.37.21v2.82l-.37.2v.09h2.34v-.94h-.07l-.28.66h-1.22v-1.33h.77l.23.41h.07v-1.12h-.07l-.23.42h-.77v-1.22h1.09l.28.6h.07v-.88zm6.42 0v.08l.36.21v2.82l-.36.2v.09h2.33v-.94h-.07l-.28.66h-1.21v-1.33h.76l.23.41h.07v-1.12h-.07l-.23.42h-.76v-1.22h1.08l.28.6h.08v-.88zm2.93 0v.08l.35.22v2.81l-.36.2v.09h1.13v-.08l-.45-.2v-2.38l1.87 2.68h.16v-3.14l.36-.2v-.08h-1.13v.08l.45.2v2.2l-1.72-2.48zm3.66 0c-.07-.02-.1.01-.08.08l.36.21v2.82l-.3.17c-.05.01-.08.06-.06.12h.78c.28 0 .56.02.84-.04.55-.12.99-.56 1.16-1.1.16-.5.17-1.08-.1-1.55a1.44 1.44 0 00-1.2-.7h-1.4zm-33.38.2a.86.86 0 01.28.05c.43.16.68.6.78 1.01.1.43.1.9-.07 1.32-.13.34-.46.63-.84.61a.92.92 0 01-.4-.09c-.43-.2-.65-.68-.73-1.13-.06-.47-.05-1 .25-1.4a.89.89 0 01.73-.37zm38.32 0a.86.86 0 01.28.05c.42.16.67.6.78 1.01.09.43.1.9-.07 1.32-.14.34-.46.63-.84.61a.91.91 0 01-.4-.09c-.43-.2-.66-.68-.73-1.13-.07-.47-.06-1 .24-1.4a.89.89 0 01.74-.37zm-59.1.08h.45c.27 0 .49.06.67.18.19.12.33.28.43.5.1.21.14.46.14.75 0 .28-.04.53-.14.75-.1.2-.23.37-.4.49-.18.1-.4.17-.63.17h-.52zm35 0h.29c.21 0 .38.06.5.17.12.11.19.26.19.46a.63.63 0 01-.66.65h-.32zm19.85 0h.45c.13 0 .27.02.4.06.38.1.66.42.76.79.12.4.11.85-.03 1.25-.13.36-.44.66-.83.71-.25.04-.5.02-.75.03zM21.47 71.4l-.35.35.35.35.36-.35zm28.41 0l-.35.35.35.35.35-.35z"/><path d="M117.62 0l.57 1.03 1.75 3.51c.12.35.12.67.17.96a8.18 8.18 0 0 1-3.24-1.85c-.93-.85-2.1-1.77-4.96-2.24l-.56-.1-.13.56c-.66 2.85.3 5.8.65 6.77-1.83-.05-3.67.35-5.06 1.96-.77.88-1.64 2.08-2.3 3.32-.66 1.25-1.16 2.52-1 3.68l.16 1.28.87-.96s.94-1.02 2.27-1.84a4.87 4.87 0 0 1 3.9-.74l-.68 2.85 1.1.54 1.01-4.21-.44-.22c-1.97-.94-4.03-.16-5.52.76-.6.37-.61.48-1.03.83.16-.49.13-.86.42-1.4a16.72 16.72 0 0 1 2.15-3.1c1.33-1.54 2.97-1.84 4.86-1.62l.98.12-.35-.93s-1.19-3.47-.86-6.18c2.03.44 2.92 1.03 3.72 1.76.9.82 1.96 1.82 4.67 2.47l.8.2-.06-.83a7.41 7.41 0 0 0-.42-2.25c-.2-.55-.74-1.55-1.22-2.46 1.23.22 2.6.46 4.08 1.1 1.9.85 3.62 2.08 4.35 3.77l.4.92.62-.78c1.65-2.06 3.4-2.83 5.3-2.86 1.5-.03 3.12.53 4.78 1.3-.47.15-.56.14-1.16.39-.69.28-1.4.62-2.02 1.04a3.3 3.3 0 0 0-1.38 1.58l-.17.48.45.24c2.96 1.6 5.11 2.16 8.29 1.4-.6 2.05-1.7 5.57-4.68 6.83l.27 1.15a5.84 5.84 0 0 1 5.42 3.31c.53 1.07.7 2.74.6 4.42-.05.9-.28 1.6-.44 2.43-.38-.82-.83-1.58-1.32-2.2-.9-1.15-1.82-1.95-2.73-2.2l-.57-.16-.16.58-1.04 3.38 1.05.53.87-2.78a5 5 0 0 1 1.63 1.38c.8 1.02 1.53 2.4 1.87 3.9l.48 2.13.68-2.08c.42-1.28.77-3.04.88-4.84.1-1.8-.03-3.62-.72-5.02a7.06 7.06 0 0 0-4.93-3.82c2.93-2.21 3.95-6.22 4.34-7.6l.3-1.07-1.06.34c-3.33 1.06-5.05.6-7.76-.79.16-.18.23-.34.5-.53.51-.34 1.16-.66 1.8-.92 1.29-.52 2.5-.82 2.5-.82l1.49-.37-1.34-.74c-2.23-1.25-4.5-2.1-6.74-2.07-2.02.03-3.96 1-5.67 2.85a9.63 9.63 0 0 0-4.5-3.8 21.15 21.15 0 0 0-5.61-1.52zm4.82 26.6l-.24.56s-1.5 3.56-6 7.81l-.5.47.52.43s1.38 1.16 2.17 2.45l.31.51 1.03-.63-.32-.5c-.77-1.27-1.62-1.95-2-2.27 4.31-4.21 5.9-7.8 5.9-7.8l.23-.55z"/><path d="M103.16 33.76a18.43 18.43 0 0 0-1.51.02c-1.82.1-2.9.46-2.9.46l-.34.12-.05.36-2.46 17.8c.41-.11.83-.2 1.25-.26l2.33-16.94c.2-.06.76-.27 2.23-.35 1.7-.09 4.17.05 7.24.98a15.3 15.3 0 0 1 8.65 7.1l.26.52.53-.25s5.45-2.58 11.62-1.91c5.8.63 8.47 4.84 8.71 5.23l-3.03 6.32c.53-.26 1.08-.48 1.65-.67l2.77-5.77-.17-.28s-3.15-5.3-9.8-6.02a23.76 23.76 0 0 0-11.79 1.85 15.52 15.52 0 0 0-9.05-7.27c-2.41-.73-4.48-1-6.14-1.04zm5.33-16.44l-.32.5a12.42 12.42 0 0 0-1.64 4.76c-.24 1.51-.25 2.8-.27 3.3l-.03.45 11.27 3.76.26-.28c.4-.43.56-.98.79-1.7.23-.73.45-1.6.65-2.44.31-1.34.46-2.14.55-2.59 1.42.42 2.75.84 4.44 1.23 1.2.28 2.08.56 3.14.85-.62 1-1.04 2.22-1.27 3.43a23.15 23.15 0 0 0-.3 2.11c-.04.6-.06 1 0 1.33l.06.37 11.76 3.69 2.8-7.44-.44-.26s-4.98-2.82-15.48-5.25c-10.38-2.4-15.47-5.51-15.47-5.51zm.48 1.62c.57.34 3.55 1.95 9.62 3.82-.08.4-.24 1.28-.56 2.64-.2.82-.41 1.66-.63 2.34-.16.5-.28.73-.38.92l-9.53-3.18c.03-.63.04-1.5.22-2.71.2-1.25.6-2.63 1.26-3.83zm19.54 6.53c6.7 1.89 9.9 3.5 10.37 3.76l-2.02 5.38-9.91-3.12c0-.18-.01-.32.02-.7.04-.55.13-1.25.27-1.98.24-1.3.72-2.58 1.27-3.34z"/><g transform="matrix(.898411 .439155 -.438842 .898564 0 0)"><ellipse ry="1.38" rx="2" cy="-27.49" cx="110.89"/><ellipse ry="1.38" rx="2" cy="-30.66" cx="130.97"/></g><path d="M108.19 26.98l-1.11 7.25 1.17.28 1.06-7.15zm27.68 8.57l-2.36 5.5c.38.14.75.31 1.1.49a114.8 114.8 0 0 0 2.4-5.63z"/></svg>