<?xml version="1.0" encoding="UTF-8" standalone="no"?>
<svg
   xmlns:dc="http://purl.org/dc/elements/1.1/"
   xmlns:cc="http://creativecommons.org/ns#"
   xmlns:rdf="http://www.w3.org/1999/02/22-rdf-syntax-ns#"
   xmlns:svg="http://www.w3.org/2000/svg"
   xmlns="http://www.w3.org/2000/svg"
   height="75"
   width="150"
   version="1.1"
   viewBox="0 0 150 75">
  <metadata>
    <rdf:RDF>
      <rdf:Description
         dc:title="Lectupedia - Logo"
         dc:description="Lectupedia"
         dc:publisher="Lectupedia"
         dc:date="2020-12-01"
         dc:format="image/svg+xml"
         dc:language="es">
        <dc:creator>
          <rdf:Bag>
            <rdf:li>Paula Peña</rdf:li>
            <rdf:li>pauladorada</rdf:li>
            <rdf:li>Andrés Peña</rdf:li>
          </rdf:Bag>
        </dc:creator>
      </rdf:Description>
      <cc:Work
         rdf:about="">
        <dc:format>image/svg+xml</dc:format>
        <dc:type
           rdf:resource="http://purl.org/dc/dcmitype/StillImage" />
        <dc:title>Lectupedia</dc:title>
        <cc:license
           rdf:resource="http://creativecommons.org/licenses/by-nc-nd/4.0/" />
      </cc:Work>
      <cc:License
         rdf:about="http://creativecommons.org/licenses/by-nc-nd/4.0/">
        <cc:permits
           rdf:resource="http://creativecommons.org/ns#Reproduction" />
        <cc:permits
           rdf:resource="http://creativecommons.org/ns#Distribution" />
        <cc:requires
           rdf:resource="http://creativecommons.org/ns#Notice" />
        <cc:requires
           rdf:resource="http://creativecommons.org/ns#Attribution" />
        <cc:prohibits
           rdf:resource="http://creativecommons.org/ns#CommercialUse" />
      </cc:License>
    </rdf:RDF>
  </metadata>
  <path d="M118.414.004l.5665 1.0292c.9964 1.8178 1.4964 2.8124 1.75 3.5078.1261.346.1234.6683.1699.959-1.6206-.5394-2.459-1.1503-3.2324-1.8535-.9327-.848-2.0972-1.763-4.9668-2.2383l-.5547-.0918-.129.5488c-.6652 2.8588.3052 5.808.6466 6.7735-1.8342-.0502-3.6668.348-5.0625 1.957-.7659.8829-1.6334 2.0844-2.297 3.3281-.6634 1.2438-1.1573 2.5123-1.0077 3.6719l.166 1.2852.873-.957s.9363-1.0218 2.2637-1.8438c1.1878-.7356 2.5911-1.1309 3.9063-.7403-.2267.9126-.4525 1.8924-.6797 2.8516-.6848-.351-1.041-.5644-1.041-.5644l-.502-.3067-.3164.4961c-.9618 1.5082-1.414 3.2603-1.6465 4.7676-.2325 1.5073-.2426 2.8025-.2695 3.287l-.0254.4571 1.9297.6446c-.444 2.426-.8083 4.865-1.0782 7.2597-2.2095-.463-4.0513-.532-5.4336-.457-1.8217.0989-2.8945.461-2.8945.461l-.3476.119-.0508.3653-2.3828 17.2676c.4057-.111.8222-.1897 1.246-.2461l2.2637-16.4238c.199-.0621.759-.2659 2.2305-.3457.4236-.023.8963-.032 1.414-.0176 1.5534.0431 3.5176.2946 5.8204.9941 6.021 1.8291 8.6465 7.0957 8.6465 7.0957l.2636.5274.5313-.254s5.4542-2.5773 11.6152-1.9081c5.8033.6302 8.4751 4.8417 8.7149 5.2285l-2.7032 5.6367c.1536-.0657.2866-.1379.4473-.2012.3773-.1556.7705-.2831 1.17-.3965l2.4726-5.1582-.1621-.2754s-1.7388-2.9086-5.3438-4.7109c.869-1.8754 1.6908-3.769 2.4297-5.6152l.5469.1718 2.8027-7.4414-.4433-.2539s-.1375-.0707-.1543-.08c.3171-.9755.6312-1.9476.871-2.7715.4568.2632 1.0099.5877 1.629 1.3808.7958 1.0196 1.5294 2.3911 1.8691 3.8965l.4805 2.129.6757-2.0763c.417-1.2805.7761-3.0478.881-4.8437.1047-1.796-.0284-3.6146-.7169-5.0176-1.0385-2.1163-2.934-3.4128-4.9297-3.8223 2.9228-2.2134 3.9472-6.2187 4.3399-7.5937l.3066-1.0742-1.0644.3379c-3.339 1.0572-5.0498.6037-7.7637-.7852.1607-.1823.2298-.3479.5058-.5351.505-.3426 1.1575-.6608 1.7989-.922 1.2827-.5221 2.498-.8202 2.498-.8202l1.4844-.3633-1.334-.7442c-2.235-1.2446-4.508-2.1077-6.7422-2.0703-2.0257.034-3.96.9933-5.668 2.8477-1.0146-1.7251-2.6761-2.986-4.5039-3.789C123.1305.7712 120.972.325 119.5801.1503zm2.2188 1.664c1.2354.226 2.6016.4606 4.0781 1.1093 1.9114.8399 3.625 2.0775 4.3536 3.7676l.3945.918.625-.7813c1.6463-2.0621 3.3967-2.8313 5.3027-2.8632 1.495-.025 3.1192.5334 4.7754 1.3086-.4654.1449-.5566.1356-1.1543.3789-.6897.2807-1.4068.624-2.0215 1.041-.6146.4169-1.1543.9036-1.3867 1.58l-.166.4825.4492.2422c2.96 1.5968 5.114 2.1582 8.291 1.3984-.5911 2.0542-1.703 5.5706-4.6777 6.8262l.2637 1.1504c2.0473-.105 4.319 1.0551 5.4277 3.3144.5267 1.0733.6938 2.7392.5957 4.42-.0525.8992-.2778 1.6047-.4395 2.4296-.3849-.8213-.8314-1.5762-1.3222-2.205-.8949-1.1465-1.8141-1.945-2.7246-2.1934l-.5742-.1582-.1602.5762c-.271.9708-.631 2.13-1.041 3.3808-2.0293-.9544-6.6892-2.8963-14.2715-4.6484-6.5124-1.505-10.9382-3.2907-13.334-4.414.2995-1.2754.602-2.5477.9004-3.7384l.1192-.4746-.4434-.211c-1.9717-.943-4.0328-.1672-5.5234.756-.6047.3744-.6068.4803-1.0215.834.154-.4934.1262-.8631.416-1.4063.609-1.1416 1.441-2.2922 2.1465-3.1055 1.3292-1.5325 2.975-1.8333 4.8613-1.6113l.9805.1152-.3477-.9219s-1.189-3.4777-.8574-6.1855c2.0264.4406 2.9124 1.0262 3.7148 1.7559.9045.8223 1.9648 1.827 4.67 2.4746l.7949.1914-.0566-.8164c-.059-.8261-.1126-1.4325-.4121-2.254-.2008-.5506-.7456-1.5487-1.2246-2.4628zm-10.873 17.2734c.5785.3361 3.5585 1.9534 9.621 3.8223-.0758.3983-.2365 1.2749-.5566 2.6347-.1927.819-.4116 1.6635-.627 2.3418-.1593.5023-.2868.726-.3866.9239l-9.5235-3.1797c.0256-.6355.0322-1.5096.2188-2.7188.1928-1.2501.6006-2.6218 1.2539-3.8242zm2.2656 3.5371a1.9961 1.3847 26.0728 00-1.334.6445 1.9961 1.3847 26.0728 001.1856 2.1211 1.9961 1.3847 26.0728 002.4003-.3671 1.9961 1.3847 26.0728 00-1.1855-2.1211 1.9961 1.3847 26.0728 00-1.0664-.2774zm8.5137.6055c1.4206.4153 2.751.8379 4.4414 1.2285 1.2097.2796 2.0858.5602 3.1445.8437-.6182 1.0048-1.0428 2.2191-1.2754 3.4317-.1488.776-.2399 1.5148-.2871 2.1133-.0472.5984-.068.9941-.0117 1.332l.0605.3633 10.0645 3.1601c-.7319 1.8159-1.5359 3.6642-2.379 5.4844-1.0025-.3913-2.1238-.687-3.3691-.8223-6.1357-.6664-11.1062 1.5433-11.7812 1.8516-.3773-.71-2.9772-5.4233-9.0547-7.2695-.356-.1082-.7019-.2024-1.043-.291.2596-2.3484.6143-4.755 1.0488-7.1563l8.1934 2.7344.2617-.2813c.3967-.4252.5578-.9746.789-1.703.2313-.7286.4537-1.5956.6505-2.4317.3156-1.3414.461-2.1392.5468-2.588zm8.7656 2.3887c6.6915 1.8855 9.9023 3.4998 10.3691 3.7558l-2.0254 5.377-9.9062-3.1114c-.003-.184-.0118-.3268.0176-.6992.0437-.5544.1302-1.2542.2695-1.9804.2486-1.296.7221-2.5882 1.2754-3.3418zm-6.0742 1.1367l-.2344.5527s-1.4955 3.5555-6.0059 7.8086l-.4922.4648.5196.4336s1.3747 1.1641 2.166 2.4512l.3144.5117 1.0235-.6289-.3145-.5117c-.7774-1.2645-1.6248-1.9388-2-2.2656 4.3104-4.2068 5.8946-7.795 5.8946-7.795l.2343-.5527zm8.164 1.8398a1.9961 1.3847 26.0728 00-.127.002 1.9961 1.3847 26.0728 00-1.1542.6426 1.9961 1.3847 26.0728 001.1855 2.121 1.9961 1.3847 26.0728 002.4004-.3671 1.9961 1.3847 26.0728 00-1.1855-2.121 1.9961 1.3847 26.0728 00-1.1192-.2774z" color="#000" />
  <path d="M19.6523 70c-.1144 0-.2255.0271-.334.082-.1053.0515-.2017.1242-.289.2168a1.0911 1.0911 0 00-.2031.3028.8378.8378 0 00-.0723.3398c0 .1579.025.2901.0762.3965.0512.103.1272.1945.2265.2734.0994.079.2198.1599.3614.2422.1505.0858.2802.1619.3886.2305.1115.0652.1948.1408.252.2265.0602.0858.0918.2045.0918.3555 0 .1819-.052.3253-.1543.4317-.0994.1063-.2384.1601-.416.1601a.7678.7678 0 01-.3106-.0664c-.1024-.048-.208-.1236-.3164-.2266l-.2226-.5449h-.0723l.045.8438c.1384.0789.2728.1385.4023.1797.1294.0377.2879.0566.4746.0566.1024 0 .2089-.0213.3203-.0625a.9623.9623 0 00.3125-.1856.9547.9547 0 00.2344-.3027c.0602-.1235.0898-.2664.0898-.4277 0-.175-.0287-.3184-.086-.4317-.0572-.1132-.1442-.213-.2617-.2988-.1174-.0892-.2674-.1861-.4511-.289-.1988-.1099-.3442-.2126-.4375-.3086-.0934-.0996-.1407-.2352-.1407-.4102 0-.151.0427-.278.127-.3809.0873-.1029.1976-.1562.33-.1562.1025 0 .1913.0213.2696.0625.0783.0377.17.1022.2754.1914l.209.539h.0722l-.0449-.8222c-.1234-.0686-.2438-.1224-.3613-.1602-.1174-.0377-.2462-.0566-.3848-.0566zm10.297 0c-.2109 0-.412.049-.6016.1484-.1867.0995-.3516.2367-.4961.4082-.1416.1716-.2536.3688-.338.5918a1.9777 1.9777 0 00-.123.6934c0 .3191.0612.605.1817.8555.1204.247.2908.4418.5136.5859.2229.1441.4878.2168.795.2168.1656 0 .3083-.0107.4257-.0313.1175-.0205.2202-.05.3106-.0878a2.0352 2.0352 0 00.2715-.1329l.0488-.8183h-.0762l-.2715.5508c-.0873.0652-.1883.1248-.3027.1797-.1114.0514-.2484.078-.414.078-.1958 0-.3765-.0615-.5391-.1816-.1596-.1235-.2865-.2993-.3828-.5293-.0934-.2333-.1406-.5138-.1406-.8398 0-.278.0481-.5216.1445-.7344.0994-.2161.2337-.3862.4023-.5097.1717-.1236.3652-.1856.582-.1856.1085 0 .2048.0194.2891.0606.0873.0411.1883.1085.3028.2011l.2753.629h.082l-.0234-.9024a2.1273 2.1273 0 00-.252-.123c-.0812-.0378-.1738-.0673-.2792-.088-.1054-.024-.2342-.0351-.3848-.0351zm28.121 0c-.2228 0-.4303.046-.623.1387-.1928.0926-.365.2225-.5157.3906-.1475.1647-.2633.359-.3476.582-.0813.223-.1211.4663-.1211.7305 0 .3191.0639.605.1934.8555.1294.247.3073.4418.5332.5859.2288.1441.4882.2168.7773.2168.1957 0 .394-.0402.5957-.1191.2048-.079.3771-.1821.5156-.3125v-.8086l.3125-.2207v-.084h-1.121v.084l.4023.205v.8496c-.0994.0447-.1957.0742-.289.088a1.9041 1.9041 0 01-.2852.0195c-.2289 0-.4364-.0625-.623-.1895-.1868-.127-.336-.3106-.4474-.5508-.1084-.2402-.162-.5318-.162-.875 0-.2539.0499-.4806.1523-.6797.1024-.2024.245-.3613.4258-.4746.1806-.1166.3872-.1738.6191-.1738.1144 0 .2154.0189.3027.0567.0904.0377.1978.1055.3243.205l.293.5762h.0722l-.0215-.8496a3.046 3.046 0 00-.2617-.127c-.0873-.0377-.1874-.0673-.2988-.0879-.1115-.0205-.2458-.0312-.4024-.0312zm-24.8125.002a1.3638 1.3638 0 00-.375.0273c-.5484.1104-.9726.575-1.123 1.1016-.1762.6176-.0958 1.337.3164 1.8457.2645.3276.6757.5337 1.0996.5234.162.0002.3254-.0241.4785-.078.4956-.1734.8461-.6341.9668-1.1349.1468-.6131.0525-1.32-.377-1.8027-.246-.2874-.6112-.4594-.9863-.4824zm38.3145 0a1.3638 1.3638 0 00-.375.0273c-.5485.1104-.9727.575-1.123 1.1016-.1762.6176-.0959 1.337.3163 1.8457.2646.3276.6777.5337 1.1016.5234.1621.0002.3235-.0241.4766-.078.4955-.1734.846-.6341.9667-1.1349.1469-.6131.0526-1.32-.377-1.8027-.246-.2874-.6112-.4594-.9862-.4824zm-71.5098.0488v.082l.3887.2129-.0938 2.8145-.3574.205v.084h1.002v-.084l-.3653-.1992.0586-2.502 1.0625 2.8106h.2031l1.0782-2.8476.0468 2.539-.3359.1992v.084h1.039v-.084l-.3163-.205-.0762-2.8204.3789-.205v-.084h-.795l-1.039 2.7383-1.043-2.7383zm4.291 0v.082l.3613.207v1.791c0 .3192.052.5808.1543.7833.1024.199.2414.3453.416.4414.1777.096.3797.1445.6055.1445.2259 0 .425-.0485.5996-.1445.1777-.0961.3176-.2424.42-.4414.1023-.2025.1543-.4641.1543-.7832v-1.797l.3574-.201v-.0821h-1.125v.082l.4511.1973v1.9043c0 .2333-.0342.4198-.1035.5605-.0662.1407-.157.2434-.2715.3086a.7091.7091 0 01-.3652.0977c-.1656 0-.3157-.0354-.4512-.1074-.1325-.0721-.238-.1932-.3164-.3614-.0783-.1681-.1172-.3949-.1172-.6797v-1.7129l.3614-.207v-.082zm3.6348 0v.082l.3574.2168v2.8106l-.3613.205v.084h1.1289v-.084l-.4512-.1992v-2.373l1.8652 2.6816h.166V70.334l.3575-.2012v-.082h-1.125v.082l.4531.1973v2.1914l-1.7266-2.4707zm3.582 0v.082l.3613.207v2.8204l-.3613.205v.084h1.293c.2288 0 .4381-.048.6308-.1406a1.563 1.563 0 00.5118-.3848c.1445-.1647.2556-.3614.334-.5879.0812-.2264.121-.4726.121-.7402 0-.2951-.06-.5596-.1836-.793-.1204-.2333-.2983-.417-.5332-.5508-.2348-.1338-.5183-.2011-.8496-.2011zm3.459 0v.082l.3613.207v1.791c0 .3192.052.5808.1543.7833.1024.199.2394.3453.414.4414.1778.096.3797.1445.6056.1445.2258 0 .4269-.0485.6015-.1445.1777-.0961.3176-.2424.42-.4414.1023-.2025.1523-.4641.1523-.7832v-1.797l.3574-.1991v-.084h-1.125v.084l.4531.1953v1.9043c0 .2333-.0362.4198-.1054.5605-.0663.1407-.1551.2434-.2696.3086a.7161.7161 0 01-.3672.0977c-.1656 0-.3156-.0354-.4511-.1074-.1325-.0721-.2381-.1932-.3164-.3614-.0783-.1681-.1172-.3949-.1172-.6797v-1.7129l.3613-.207v-.082zm7.1816 0v.082l.3614.207v2.8204l-.3614.205v.084h2.334v-.9375h-.0722l-.2793.6543h-1.2149V71.838h.7676l.2266.416h.0722v-1.127h-.0722l-.2266.4278h-.7676V70.334h1.0879l.2813.6035h.0722v-.8867zm2.879 0v.082l.2831.1817.9356 1.4414-.957 1.4199-.3301.1894v.084h1.0156v-.084l-.3652-.1836v-.0214l.7851-1.1778.7696 1.1778v.0214l-.3301.1836v.084h1.1504v-.084l-.3145-.1992-1-1.498.918-1.3438.2851-.1914v-.082h-.9492v.082l.3438.1914v.0215l-.75 1.0898-.7227-1.0859v-.0254l.3614-.1914v-.082zm10.203 0v.082l.3614.207v2.8204l-.3613.205v.084h2.246v-1.1426h-.0722l-.3086.8594h-1.0977v-2.8262l.4082-.207v-.082zm2.838 0v.082l.3613.207v2.8204l-.3613.205v.084h1.1289v-.084l-.3614-.205v-2.8204l.3614-.207v-.082zm1.6504 0v1.041h.0722l.3086-.7578h.7363v2.8262l-.453.205v.084h1.3105v-.084l-.4512-.205V70.334h.7363l.3067.7578h.0722v-1.041zm3.1347 0v.082l.3613.207v1.791c0 .3192.052.5808.1543.7833.1024.199.2394.3453.4141.4414.1777.096.3796.1445.6055.1445.2258 0 .4269-.0485.6015-.1445.1777-.0961.3176-.2424.42-.4414.1023-.2025.1543-.4641.1543-.7832v-1.797l.3554-.1991v-.084h-1.125v.084l.4531.1953v1.9043c0 .2333-.0362.4198-.1054.5605-.0663.1407-.1551.2434-.2696.3086a.7161.7161 0 01-.3671.0977c-.1657 0-.3157-.0354-.4512-.1074-.1325-.0721-.2381-.1932-.3164-.3614-.0783-.1681-.1172-.3949-.1172-.6797v-1.7129l.3613-.207v-.082zm3.6524 0v.082l.3613.207v2.8204l-.3613.205v.084h1.1074v-.084l-.3399-.2109v-1.2656h.42l.877 1.5605h.6503v-.084l-.2988-.1836-.8574-1.4257c.1897-.079.3406-.1948.455-.3457.1145-.1545.172-.3274.172-.5196 0-.2608-.0918-.4657-.2755-.6133-.1807-.151-.428-.2265-.7441-.2265zm4.1113 0v.082l.3613.207v2.8204l-.3613.205v.084h2.2441v-1.1426h-.0722l-.3067.8594h-1.0976v-2.8262l.4062-.207v-.082zm2.8144 0v.082l.3614.207v2.8204l-.3614.205v.084h2.334v-.9375h-.0722l-.2793.6543h-1.2149V71.838h.7676l.2266.416h.0722v-1.127h-.0722l-.2266.4278h-.7676V70.334h1.0879l.2813.6035h.0722v-.8867zm6.4141 0v.082l.3613.207v2.8204l-.3613.205v.084h2.334v-.9375h-.0723l-.2793.6543h-1.2148V71.838h.7676l.2265.416h.0723v-1.127h-.0723l-.2265.4278h-.7676V70.334h1.0879l.2793.6035h.0722v-.8867zm2.9277 0v.082l.3575.2168v2.8106l-.3614.205v.084h1.129v-.084l-.4512-.1992v-2.373l1.8652 2.6816h.166V70.334l.3574-.2012v-.082h-1.125v.082l.4512.1973v2.1914L63.5 70.0508zm3.6621 0c-.071-.0169-.0955.0124-.08.082.1204.0686.2408.1384.3613.207v2.8204l-.291.166c-.0618.0183-.0838.061-.0703.123h.7832c.2794-.0076.5621.022.8379-.0351.5493-.1194.9908-.568 1.1562-1.0977.1643-.5026.17-1.0866-.0957-1.5566-.236-.4337-.7231-.6833-1.207-.7032-.4648-.0106-.9296-.0032-1.3945-.0059zm-33.373.2012a.8599.8599 0 01.2793.0507c.4237.1563.6755.588.7773 1.0078.0936.4343.1064.9061-.0683 1.3223-.1335.341-.4616.6232-.8418.6094-.1376.0004-.2762-.0283-.4004-.0879-.4265-.2105-.6547-.6813-.7266-1.1328-.0694-.475-.0549-1.0093.2422-1.4102.1674-.236.454-.3652.7383-.3593zm38.3145 0a.8599.8599 0 01.2793.0507c.4237.1563.6755.588.7773 1.0078.0936.4343.1064.9061-.0684 1.3223-.1335.341-.4616.6232-.8418.6094a.9139.9139 0 01-.3984-.0879c-.4265-.2105-.6567-.6813-.7285-1.1328-.0694-.475-.055-1.0093.2422-1.4102.1673-.236.4539-.3652.7383-.3593zm-59.1016.082h.4531c.265 0 .4882.059.6719.1758.1867.1166.3294.2838.4258.5.0963.2127.1445.4613.1445.746 0 .2883-.0482.5373-.1445.75-.0934.2094-.2286.3736-.4063.4903-.1746.1132-.384.17-.625.17h-.5195zm34.998 0h.293c.2108 0 .3785.0567.502.17.1234.1097.1855.2609.1855.453 0 .1888-.063.3453-.1894.4688-.1235.12-.281.1797-.4708.1797h-.3203zm19.8496 0h.4512c.1378 0 .278.017.4102.0566.3698.1033.6482.422.752.7852.117.4052.1127.8515-.0294 1.25-.126.362-.4428.6603-.8281.7187-.2502.036-.5038.0155-.7559.0215zm-45.7109 1.0625l-.3535.3535.3535.3535.3535-.3535zm28.4063 0l-.3536.3535.3536.3535.3535-.3535z" fill="#cc330a" paint-order="markers fill stroke"/>
  <path d="M0 43.4023v3.4961h1.457v16.336H0v3.5215h14.8262V59.871h-4.4473v3.3633H6.963v-16.336h1.4043v-3.496zm53.0938 3.4961l-4.8711 1.5625v5.0567H46.793v3.4414h1.4297v4.7129c.0176.8472.0622 1.6143.1328 2.3027.0706.6884.2372 1.2715.502 1.748.2647.4766.6715.8466 1.2187 1.1114.5648.2647 1.3416.3984 2.33.3984.159 0 .37-.0174.6348-.0527.2824-.0177.5827-.0448.9004-.08a7.791 7.791 0 00.9258-.1583c.3-.053.548-.1246.7422-.2129v-3.3887c-.2471.106-.5474.2125-.9004.3184-.3354.0883-.591.1309-.7676.1309-.3883 0-.6363-.1318-.7422-.3965-.0882-.2824-.1308-.6001-.1308-.9531v-.3965a2.6179 2.6179 0 00.0253-.3711v-4.713h2.5157v-3.4413h-2.5156zm62.744 0v3.4414h1.2169v3.918c-.2471-.1588-.6345-.3603-1.164-.6074-.512-.2648-1.2365-.3984-2.172-.3984-.8119 0-1.5887.1588-2.33.4765-.7414.3177-1.3942.7691-1.959 1.3516-.5648.5825-1.0143 1.2973-1.3496 2.1445-.3354.8296-.504 1.7556-.504 2.7793 0 .9178.1415 1.8012.4239 2.6484.3.8473.7146 1.597 1.2441 2.25.5296.6355 1.1747 1.1469 1.9336 1.5352.759.3707 1.6056.5566 2.541.5566.459 0 .8735-.0542 1.2442-.1601.3707-.0883.698-.1929.9805-.3164.2824-.1412.511-.2749.6875-.3985.1941-.1412.3355-.2555.4238-.3437l.4512.9805h6.1953v-3.4434h-1.2715v-16.414zm13.3692.0528c-.4589 0-.8734.0871-1.2441.2636-.353.1589-.6533.372-.9004.6368-.2295.2647-.4057.5553-.5293.873-.1236.3177-.1855.6277-.1855.9277 0 .3178.0717.6354.2129.9532.1412.3177.3349.6082.582.873.2647.2471.565.4505.9004.6094.353.1588.7404.2383 1.164.2383.9532 0 1.6777-.2557 2.172-.7676.4941-.5295.742-1.165.742-1.9063 0-.3-.0716-.61-.2128-.9277-.1235-.3177-.3095-.6083-.5566-.873-.2471-.2648-.5551-.4779-.9258-.6368-.353-.1765-.7598-.2636-1.2188-.2636zm12.0293 5.7988c-.6178 0-1.2183.0697-1.8007.211a9.5587 9.5587 0 00-1.6153.5038c-.4942.1942-.9436.3976-1.3496.6094-.406.2118-.7411.3958-1.0059.5547v3.6563c1.9426-1.5678 3.3318-1.7917 5.0567-1.8028.7237 0 1.3242.0969 1.8008.291.4765.1942.7148.5913.7148 1.1914v.9278c-.0353-.0353-.1225-.107-.2637-.213-.1235-.1058-.3017-.2104-.5312-.3163-.2118-.106-.4772-.195-.795-.2656-.3-.0883-.6429-.1329-1.0312-.1329-.7413 0-1.4464.1143-2.1172.3438-.6707.2295-1.2635.5568-1.7754.9805-.4942.4236-.8913.935-1.1914 1.5351-.2824.6001-.4238 1.2704-.4238 2.0117 0 .7767.1511 1.4489.4512 2.0137.3177.5472.7225.9966 1.2168 1.3496.4942.353 1.0502.6184 1.668.795.6177.1764 1.2454.2656 1.8808.2656.2295 0 .5026-.0272.8203-.0801.3177-.053.6354-.142.9531-.2656a4.1088 4.1088 0 00.9532-.502c.3177-.2295.6005-.5123.8476-.8476l.6348 1.1914H150v-3.3887h-1.5879v-5.164c0-1.0591-.2305-1.9405-.6894-2.6466-.4413-.706-1.0147-1.262-1.7207-1.668-.6884-.4236-1.4555-.716-2.3028-.875-.8472-.1764-1.6686-.2636-2.4629-.2636zm-117.6816.3965c-1.0061 0-1.9418.1588-2.8067.4765-.8648.3001-1.6165.7515-2.252 1.3516-.6353.6001-1.137 1.3304-1.5077 2.1953-.3707.8473-.5567 1.81-.5567 2.8867 0 1.2709.2131 2.3654.6368 3.2832.4236.9002.9602 1.6422 1.6132 2.2247.6708.5648 1.4224.9793 2.252 1.244.8296.2825 1.6587.424 2.4883.424 1.3767 0 2.6127-.1686 3.707-.504.7175-.2314 1.412-.5717 2.084-1.0156a12.0462 12.0462 0 01-.5-.9668c-.3127-.7107-.5122-1.5089-.6543-2.3516l-.0293-.0332c-.353.3001-.7075.5384-1.0606.7149-.353.1588-.6881.2809-1.0058.3691-.3177.0883-.618.1425-.9004.1602a11.1118 11.1118 0 01-.7402.0254c-.5649 0-1.0162-.0795-1.3516-.2383-.3354-.1589-.5988-.3526-.793-.582-.1941-.2295-.3355-.4678-.4238-.7149-.0706-.2471-.1249-.4582-.1602-.6348h8.3418c.106-.3.1854-.6177.2383-.953.053-.3531.0782-.7076.0782-1.0606 0-.9002-.1415-1.7293-.4239-2.4883-.2824-.7766-.7047-1.447-1.2695-2.0117-.5648-.5649-1.2719-1.0065-2.1191-1.3243-.8296-.3177-1.7905-.4765-2.8848-.4765zm75.8086 0c-1.0061 0-1.9418.1588-2.8067.4765-.8649.3001-1.6145.7515-2.25 1.3516-.6354.6001-1.139 1.3304-1.5097 2.1953-.3707.8473-.5547 1.81-.5547 2.8867 0 1.2709.2111 2.3654.6348 3.2832.4236.9002.9621 1.6422 1.6152 2.2247.6707.5648 1.4204.9793 2.25 1.244.8296.2825 1.6587.424 2.4883.424 1.3767 0 2.6127-.1686 3.707-.504.7175-.2314 1.412-.5717 2.084-1.0156a12.0345 12.0345 0 01-.498-.9668c-.3128-.7107-.5142-1.5089-.6563-2.3516l-.0293-.0332c-.353.3001-.7056.5384-1.0586.7149-.353.1588-.6901.2809-1.0078.3691-.3177.0883-.616.1425-.8984.1602a11.1684 11.1684 0 01-.7422.0254c-.5649 0-1.0143-.0795-1.3496-.2383-.3354-.1589-.6008-.3526-.795-.582-.1941-.2295-.3355-.4678-.4238-.7149-.0706-.2471-.1229-.4583-.1582-.6348h8.3398c.106-.3.1854-.6177.2383-.953.053-.3531.0781-.7076.0781-1.0606 0-.9002-.1394-1.7293-.4219-2.4883-.2824-.7767-.7066-1.447-1.2714-2.0117-.5649-.5649-1.27-1.0065-2.1172-1.3243-.8296-.3177-1.7924-.4765-2.8867-.4765zm-61.3203.1328c-.8473 0-1.6686.1317-2.463.3965-.7766.2647-1.4642.6793-2.0644 1.2441-.6001.5472-1.0863 1.2543-1.457 2.1192-.353.8472-.5293 1.8526-.5293 3.0175 0 1.1826.1937 2.2152.582 3.0977.406.8825.9368 1.6245 1.5899 2.2246.6707.5825 1.4475 1.0242 2.33 1.3242.8826.2824 1.8086.4239 2.7793.4239.706 0 1.386-.0795 2.0391-.2383.653-.1589 1.2536-.3623 1.8008-.6094.5648-.2471 1.0665-.53 1.5078-.8477.0651-.0494.1056-.099.168-.1484-.0228-.0314-.058-.048-.0801-.08-.2872-.4161-.5162-.8867-.6992-1.3614-.3027-.785-.4255-1.4824-.5313-2.0606l-.0488-.0566c-.4236.459-.8827.8309-1.377 1.1133-.4942.2648-1.0753.3965-1.746.3965-.8826 0-1.5722-.2906-2.0665-.873-.4942-.6002-.7402-1.3518-.7402-2.252 0-.4236.0426-.8382.1309-1.2442.1059-.406.257-.7682.4511-1.0859.1942-.3177.4325-.5734.7149-.7676.3-.1941.6449-.291 1.0332-.291.3 0 .5558.0891.7676.2656.2118.1589.3784.3797.502.6621.1235.2648.2126.565.2655.9004.0706.3177.1152.6354.1329.9532h3.8906v-5.9844h-3.123l-.4512 1.2715c-.106-.1236-.2551-.2747-.4493-.4512-.1941-.1765-.4324-.3431-.7148-.502-.2648-.1588-.5825-.2925-.9531-.3984-.353-.1059-.7502-.1582-1.1914-.1582zm46.707.0254c-.406 0-.776.0445-1.1113.1328-.3354.0882-.6357.1948-.9004.3184-.2648.1059-.503.2298-.7149.371-.1941.1236-.353.2282-.4765.3165l-.4512-.9258h-7.0039v3.5215h2.0527v12.9472h-1.1113v3.4688h7.916v-3.4688h-1.4297v-3.9726c.053.0353.1595.1147.3184.2383.1588.1059.37.2201.6348.3437.2824.1236.6272.2301 1.0332.3184.4236.0882.9098.1328 1.457.1328.8472 0 1.6415-.1589 2.3828-.4766.7413-.3177 1.3767-.769 1.9063-1.3516.5471-.5824.9694-1.2875 1.2695-2.1171.3177-.8473.4765-1.8004.4765-2.8594 0-.9355-.1317-1.8189-.3964-2.6485-.2648-.8472-.662-1.5872-1.1914-2.2226-.512-.6354-1.1647-1.1391-1.959-1.5098-.7767-.3706-1.6775-.5566-2.7012-.5566zm-27.5117.2129v3.4941h1.1113v3.6543c0 1.0944.0891 2.0475.2656 2.8594.1765.812.4671 1.4822.873 2.0117.4237.5295.972.9267 1.6427 1.1914.6883.2648 1.5349.3965 2.541.3965.5648 0 1.051-.0794 1.457-.2383.406-.1412.7488-.3175 1.0313-.5293.3-.2118.548-.4326.7421-.662.2119-.2472.3881-.4487.5293-.6075l.7149 1.668h5.9453v-3.5215h-2.2383v-9.7168h-6.8574v3.4941h1.748v4.211c0 .6-.1685 1.0844-.5039 1.455-.3177.3707-.7051.5567-1.164.5567-.5472 0-.9269-.2654-1.1387-.795-.1942-.5471-.291-1.3937-.291-2.541v-6.3808zm68.3691 0v3.4414h1.1114v6.3281h-1.1114v3.4688h7.414V63.287H131.75v-9.7695zm-10.459 3.1758c.2825 0 .5382.089.7676.2656.2471.1765.4505.4245.6094.7422.1765.3177.3082.6877.3965 1.1113.0883.4236.1328.8827.1328 1.377 0 .9531-.1937 1.7028-.582 2.25-.3707.5471-.8027.8203-1.297.8203-.3 0-.5654-.0969-.7948-.291-.2295-.1942-.433-.4402-.6094-.7403-.1589-.3-.2829-.6449-.3711-1.0332-.0883-.3883-.1309-.7854-.1309-1.1914 0-1.006.1666-1.81.502-2.4102.353-.6.8121-.9003 1.377-.9003zm-91.4355.0273c.4236 0 .7587.062 1.0059.1855.2647.1236.4584.2902.582.502.1412.1942.238.4247.291.6895.053.247.08.495.08.7421h-3.998c.0177-.1588.0545-.3622.1075-.6093a2.446 2.446 0 01.3164-.6895c.1588-.2294.3622-.4232.6093-.582.2648-.1589.6-.2383 1.0059-.2383zm75.8086 0c.4236 0 .7587.062 1.0058.1855.2648.1236.4605.2902.584.502.1412.1942.238.4247.291.6895.053.247.0801.495.0801.7421h-3.998c.0177-.1588.0525-.3622.1055-.6093a2.446 2.446 0 01.3164-.6895c.1588-.2294.3622-.4232.6093-.582.2648-.1589.6-.2383 1.0059-.2383zm-16.1211.3184c.2824 0 .5381.0968.7676.291.247.1941.4505.4401.6093.7402.1766.3.3083.6546.3965 1.0606.0883.3883.1328.7757.1328 1.164 0 1.0061-.1762 1.81-.5293 2.4102-.3353.6001-.7867.9004-1.3515.9004-.2824 0-.5459-.0892-.793-.2657-.2294-.1765-.4329-.4244-.6094-.7421-.1588-.3178-.2828-.6878-.371-1.1114-.0883-.4236-.1329-.8827-.1329-1.377 0-.953.186-1.7028.5567-2.25.3883-.5471.83-.8202 1.3242-.8202zm58.0742 4.1308c.2824 0 .513.0349.6895.1055.1941.0706.353.15.4765.2383.1236.0882.2108.1754.2637.2636.0706.0706.1152.1249.1328.1602v1.0059c-.1235.1941-.3347.3878-.6348.582-.3.1941-.6545.291-1.0605.291s-.741-.1143-1.0059-.3437c-.2647-.2295-.3964-.5298-.3964-.9004 0-.406.124-.7411.371-1.0059.2472-.2648.6346-.3965 1.1641-.3965z"/>
</svg>
