<svg xmlns="http://www.w3.org/2000/svg" viewBox="0 0 154 77">
  <path d="M120.41 1l.57 1.03c1 1.82 1.5 2.81 1.75 3.5.13.35.12.68.17.97a8.18 8.18 0 01-3.23-1.86c-.93-.85-2.1-1.76-4.97-2.24l-.55-.09-.13.55c-.67 2.86.3 5.8.64 6.77-1.83-.05-3.66.35-5.06 1.96-.76.88-1.63 2.09-2.3 3.33-.66 1.24-1.15 2.51-1 3.67l.16 1.29.88-.96s.93-1.02 2.26-1.84a4.87 4.87 0 013.9-.74l-.68 2.85c-.68-.35-1.03-.57-1.03-.57l-.5-.3-.32.5a12.42 12.42 0 00-1.65 4.76c-.23 1.5-.24 2.8-.27 3.29l-.02.45 1.95.66c-.44 2.42-.84 4.86-1.11 7.26-2.3-.47-4.33-.54-5.88-.46-2.04.1-3.28.44-3.28.44l-.43.12V52.5c.35-.03.72-.05 1.08-.05h.11V36.32c.28-.07.98-.28 2.62-.36a23.06 23.06 0 017.65.98 15.3 15.3 0 018.65 7.1l.26.53.53-.26s5.46-2.57 11.62-1.9c5.8.63 8.47 4.84 8.71 5.22L138.95 53l.23-.1c.44-.18.9-.33 1.36-.45l2.36-4.92-.16-.28s-1.74-2.9-5.34-4.7c.87-1.9 1.66-3.78 2.4-5.63l.57.18 2.8-7.45-.44-.25-.15-.08c.32-.98.63-1.94.87-2.77a5 5 0 011.63 1.38c.8 1.02 1.53 2.4 1.87 3.9l.48 2.13.67-2.08c.42-1.28.78-3.05.88-4.84.1-1.8-.03-3.62-.71-5.02a7.06 7.06 0 00-4.93-3.82c2.92-2.22 3.94-6.22 4.34-7.6l.3-1.07-1.06.34c-3.34 1.05-5.05.6-7.77-.79.16-.18.23-.35.51-.53.5-.35 1.16-.67 1.8-.93 1.28-.52 2.5-.82 2.5-.82l1.48-.36-1.33-.74c-2.24-1.25-4.51-2.11-6.74-2.07-2.03.03-3.96.99-5.67 2.84a9.63 9.63 0 00-4.5-3.79 21.14 21.14 0 00-5.62-1.52zm2.22 1.66c1.24.23 2.6.46 4.08 1.11 1.91.84 3.63 2.08 4.35 3.77l.4.92.62-.78c1.65-2.06 3.4-2.83 5.3-2.87 1.5-.02 3.13.54 4.78 1.31-.46.15-.55.14-1.15.38-.7.28-1.4.63-2.02 1.04a3.3 3.3 0 00-1.39 1.58l-.17.49.45.24c2.96 1.6 5.12 2.16 8.3 1.4-.6 2.05-1.7 5.57-4.68 6.82l.26 1.15a5.84 5.84 0 015.43 3.32c.52 1.07.7 2.74.6 4.42-.06.9-.28 1.6-.45 2.43-.38-.82-.83-1.58-1.32-2.2-.9-1.15-1.81-1.95-2.72-2.2l-.58-.16-.16.58a79.3 79.3 0 01-1.03 3.38c-2.03-.95-6.7-2.9-14.28-4.65a67.52 67.52 0 01-13.33-4.42c.3-1.27.6-2.54.9-3.73l.12-.48-.45-.2c-1.97-.95-4.03-.18-5.52.75-.6.37-.6.48-1.02.83.15-.5.12-.86.41-1.4.61-1.15 1.44-2.3 2.15-3.11 1.33-1.53 2.97-1.83 4.86-1.61l.98.11-.35-.92s-1.19-3.48-.85-6.18c2.02.44 2.9 1.02 3.71 1.75.9.82 1.97 1.83 4.67 2.48l.8.19-.06-.82a7.41 7.41 0 00-.41-2.25c-.2-.55-.75-1.55-1.23-2.47zm-10.87 17.28c.58.33 3.56 1.95 9.62 3.82-.08.4-.24 1.27-.56 2.63-.19.82-.4 1.67-.62 2.35-.16.5-.29.72-.39.92l-9.52-3.18c.02-.64.03-1.5.22-2.72.19-1.25.6-2.62 1.25-3.82zm10.78 4.14c1.42.42 2.75.84 4.44 1.23 1.21.28 2.09.56 3.15.84-.62 1-1.05 2.22-1.28 3.43-.15.78-.24 1.52-.29 2.12-.04.6-.07 1 0 1.33l.05.36 10.05 3.16c-.73 1.82-1.51 3.66-2.36 5.49-1-.4-2.12-.69-3.37-.83a23.76 23.76 0 00-11.78 1.86 15.52 15.52 0 00-10.1-7.56c.25-2.35.62-4.76 1.06-7.16l8.18 2.73.26-.28c.4-.42.56-.97.8-1.7.22-.73.45-1.6.64-2.43.32-1.34.46-2.14.55-2.59zm8.76 2.39c6.7 1.88 9.9 3.5 10.37 3.75l-2.02 5.38-9.9-3.11c-.01-.18-.02-.33.01-.7.04-.55.13-1.25.27-1.98.25-1.3.72-2.59 1.27-3.34z"/>
  <path d="M116.28 25.87a2 1.38 26.07 01-2.4.37 2 1.38 26.07 01-1.19-2.12 2 1.38 26.07 012.4-.37 2 1.38 26.07 011.19 2.12zM135.7 31.84a2 1.38 26.07 01-2.4.37 2 1.38 26.07 01-1.19-2.12 2 1.38 26.07 012.4-.37 2 1.38 26.07 011.19 2.12zM125.16 27.64l-.18.57s-.25.78-1.08 2.15a26.2 26.2 0 01-4.47 5.39l-.5.46.52.44s1.38 1.16 2.17 2.45l.32.5 1.02-.62-.32-.51c-.77-1.27-1.62-1.95-2-2.27a27.83 27.83 0 004.29-5.22c.88-1.45 1.19-2.4 1.19-2.4l.18-.57z"/>
  <g>
    <path d="M2 44.4h8.37v3.5h-1.4v16.33h3.4v-3.36h4.46v6.88H2v-3.52h1.46V47.89H2zM25.55 54.14c-1 0-1.94.16-2.8.48a6.19 6.19 0 00-3.76 3.55c-.37.84-.56 1.8-.56 2.88 0 1.27.21 2.37.64 3.29.42.9.96 1.64 1.61 2.22a7.68 7.68 0 004.74 1.67c1.38 0 2.61-.17 3.7-.5a8.53 8.53 0 002.1-1.02c-.19-.3-.35-.63-.5-.97a9.97 9.97 0 01-.66-2.35l-.03-.03a5.33 5.33 0 01-2.07 1.08 4.4 4.4 0 01-.9.16l-.74.03a3.2 3.2 0 01-1.35-.24 2.32 2.32 0 01-1.22-1.3 8.3 8.3 0 01-.16-.63h8.34a5.38 5.38 0 00.32-2.02c0-.9-.14-1.73-.42-2.48a5.43 5.43 0 00-3.39-3.34 8.04 8.04 0 00-2.89-.48zm.16 3.58c.43 0 .76.06 1 .18.27.13.47.3.6.5s.23.43.28.7c.06.24.08.49.08.74h-4l.11-.61a2.13 2.13 0 01.93-1.27c.26-.16.6-.24 1-.24zM40.04 54.27c-.84 0-1.67.14-2.46.4a6.03 6.03 0 00-3.52 3.36 7.82 7.82 0 00-.53 3.02c0 1.18.2 2.22.58 3.1.4.88.94 1.62 1.6 2.22a6.9 6.9 0 002.32 1.33 9.06 9.06 0 006.62-.43 8.18 8.18 0 001.5-.84l.18-.15-.08-.08a6.56 6.56 0 01-.7-1.36c-.3-.79-.43-1.48-.53-2.06l-.05-.06c-.43.46-.89.83-1.38 1.11-.5.27-1.08.4-1.75.4-.88 0-1.57-.29-2.06-.87-.5-.6-.74-1.35-.74-2.25a4.01 4.01 0 01.58-2.33c.2-.32.43-.58.71-.77.3-.2.65-.3 1.04-.3.3 0 .55.1.76.27.22.16.38.38.5.66a5.9 5.9 0 01.4 1.85h3.9v-5.98H43.8l-.45 1.27a3.9 3.9 0 00-1.16-.95 4.14 4.14 0 00-2.14-.56zM48.8 54.51h1.42v-5.05l4.87-1.57v6.62h2.52v3.45h-2.52v4.7c0 .13 0 .26-.02.38v.4c0 .35.04.67.13.95.1.26.35.4.74.4.18 0 .43-.05.77-.14.35-.1.65-.2.9-.31v3.38a7.8 7.8 0 01-1.67.37 18.79 18.79 0 01-1.53.14 5.6 5.6 0 01-2.33-.4 2.68 2.68 0 01-1.22-1.11 4.52 4.52 0 01-.5-1.75c-.08-.69-.12-1.45-.14-2.3v-4.71H48.8zM59.24 54.51h6.4v6.38c0 1.15.1 2 .3 2.55.2.53.59.79 1.14.79.45 0 .84-.19 1.16-.56.34-.37.5-.85.5-1.45V58H67v-3.5h6.85v9.72h2.24v3.52h-5.94l-.72-1.67-.53.61c-.2.23-.44.45-.74.66-.28.22-.63.4-1.03.53a4 4 0 01-1.46.24c-1 0-1.85-.13-2.54-.4a3.88 3.88 0 01-1.64-1.19c-.4-.53-.7-1.2-.87-2a13.6 13.6 0 01-.27-2.87v-3.65h-1.11zM87.3 61.3c0-.4-.04-.79-.13-1.17-.08-.41-.22-.76-.4-1.06-.15-.3-.36-.55-.6-.74-.23-.2-.49-.3-.77-.3-.5 0-.94.28-1.32.83-.37.54-.56 1.3-.56 2.25 0 .49.04.95.13 1.37.1.43.21.8.37 1.11.18.32.38.57.61.75.25.17.51.26.8.26.56 0 1.01-.3 1.35-.9.35-.6.53-1.4.53-2.4zM77.04 72.52h1.12v-14.5h-2.06v-3.52h7l.46.93.47-.32a5.35 5.35 0 011.62-.69 6.2 6.2 0 013.81.42c.8.38 1.45.88 1.96 1.52.53.63.93 1.37 1.2 2.22.26.83.39 1.71.39 2.65a8.1 8.1 0 01-.48 2.86c-.3.83-.72 1.53-1.27 2.12a5.44 5.44 0 01-1.9 1.35c-.75.31-1.54.47-2.39.47-.55 0-1.03-.04-1.45-.13a4.94 4.94 0 01-1.99-.9v5.52h1.43V76h-7.92zM101.36 54.14c-1 0-1.94.16-2.8.48a6.19 6.19 0 00-3.76 3.55c-.37.84-.56 1.8-.56 2.88 0 1.27.21 2.37.64 3.29.42.9.96 1.64 1.61 2.22a7.68 7.68 0 004.74 1.67c1.38 0 2.61-.17 3.7-.5a8.53 8.53 0 002.1-1.02c-.19-.3-.35-.63-.5-.97a9.97 9.97 0 01-.66-2.35l-.03-.03a5.33 5.33 0 01-2.07 1.08 4.4 4.4 0 01-.9.16l-.74.03a3.2 3.2 0 01-1.35-.24 2.32 2.32 0 01-1.22-1.3 8.3 8.3 0 01-.16-.63h8.34a5.38 5.38 0 00.32-2.02c0-.9-.14-1.73-.42-2.48a5.43 5.43 0 00-3.4-3.34 8.04 8.04 0 00-2.88-.48zm.16 3.58c.43 0 .76.06 1 .18.27.13.47.3.6.5s.23.43.28.7c.05.24.08.49.08.74h-4l.1-.61a2.13 2.13 0 01.93-1.27c.27-.16.6-.24 1.01-.24zM119.05 51.34h-1.21v-3.45h6.59v16.42h1.27v3.44h-6.2l-.45-.98q-.13.13-.42.35-.26.18-.69.4-.42.18-.98.31-.55.16-1.24.16-1.4 0-2.54-.56-1.14-.58-1.94-1.53-.79-.98-1.24-2.25-.42-1.27-.42-2.65 0-1.54.5-2.78.5-1.27 1.35-2.14.85-.88 1.96-1.35 1.11-.48 2.33-.48 1.4 0 2.17.4.8.37 1.16.6zM115.27 61q0 .6.13 1.2.13.57.37 1.02.27.45.61.75.35.29.8.29.74 0 1.3-.82.57-.83.57-2.25 0-.75-.13-1.38-.13-.64-.4-1.11-.23-.48-.6-.74-.35-.27-.77-.27-.85 0-1.38.9-.5.9-.5 2.41zM135.02 67.75h-7.41v-3.47h1.1v-6.32h-1.1V54.5h6.14v9.77h1.27zm-6.67-17.1q0-.45.18-.93.19-.48.53-.87.37-.4.9-.64.56-.26 1.25-.26t1.22.26q.55.24.92.64t.56.87q.21.48.21.93 0 1.11-.74 1.9-.74.77-2.17.77-.64 0-1.17-.24-.5-.23-.9-.6-.37-.4-.58-.88-.21-.48-.21-.95zM143.24 53.75a9.56 9.56 0 00-3.42.71 13.95 13.95 0 00-2.35 1.17v3.65a7.09 7.09 0 015.05-1.8c.73 0 1.33.1 1.8.29.48.2.72.6.72 1.2v.92a3.17 3.17 0 00-.8-.53c-.2-.1-.47-.2-.8-.27-.3-.08-.64-.13-1.02-.13a6.5 6.5 0 00-2.12.35 4.86 4.86 0 00-2.97 2.52c-.28.6-.42 1.26-.42 2 0 .78.15 1.45.45 2.02.32.54.72 1 1.22 1.35.5.35 1.05.61 1.66.79.62.18 1.25.26 1.88.26a5.11 5.11 0 002.73-.84c.32-.23.6-.51.85-.85l.63 1.2H152v-3.4h-1.59V59.2a4.76 4.76 0 00-2.4-4.32 6.71 6.71 0 00-2.31-.87c-.85-.18-1.67-.26-2.46-.26zm.23 8.42a1.88 1.88 0 011.17.34c.12.09.21.18.26.26l.14.16v1a2.07 2.07 0 01-1.7.88c-.4 0-.74-.11-1-.34-.27-.23-.4-.53-.4-.9 0-.4.12-.74.37-1 .25-.27.64-.4 1.16-.4z"/>
  </g>
</svg>
