<?xml version="1.0" standalone="no"?>
<!DOCTYPE svg PUBLIC "-//W3C//DTD SVG 20010904//EN"
 "http://www.w3.org/TR/2001/REC-SVG-20010904/DTD/svg10.dtd">
<svg version="1.0" xmlns="http://www.w3.org/2000/svg"
 width="512.000000pt" height="512.000000pt" viewBox="0 0 512.000000 512.000000"
 preserveAspectRatio="xMidYMid meet">
<metadata>
Created by potrace 1.11, written by Peter Selinger 2001-2013
</metadata>
<g transform="translate(0.000000,512.000000) scale(0.100000,-0.100000)"
fill="#000000" stroke="none">
<path d="M0 4800 l0 -320 160 0 160 0 0 -960 0 -960 -160 0 -160 0 0 -320 0
-320 1120 0 1119 0 -4 398 c-2 218 -4 434 -4 480 l-1 82 -315 0 -315 0 0 -160
0 -160 -320 0 -320 0 0 960 0 960 160 0 160 0 0 320 0 320 -640 0 -640 0 0
-320z"/>
<path d="M3970 4496 c-99 -29 -189 -75 -273 -137 -37 -28 -70 -50 -72 -48 -1
2 -25 40 -53 84 l-49 80 -482 3 -481 2 0 -320 0 -320 160 0 160 0 0 -1600 0
-1600 -160 0 -160 0 0 -320 0 -320 640 0 640 0 0 320 0 320 -160 0 -160 0 0
795 c0 437 2 795 5 795 3 0 37 -34 77 -76 107 -112 184 -158 338 -200 94 -26
351 -26 435 0 237 72 431 246 557 501 36 71 95 232 104 281 3 14 11 54 19 88
23 105 29 175 29 366 1 170 -5 264 -19 330 -3 14 -8 41 -11 60 -10 55 -12 61
-33 140 -106 389 -350 663 -686 770 -105 33 -265 36 -365 6z m134 -711 c103
-49 201 -159 251 -284 62 -152 74 -369 30 -542 -41 -162 -136 -292 -255 -348
-47 -22 -69 -26 -150 -26 -83 0 -103 4 -154 28 -188 88 -301 346 -290 664 7
209 74 356 209 459 44 34 77 53 103 60 9 2 33 8 52 12 57 15 146 4 204 -23z"/>
<path d="M167 1584 c-63 -19 -126 -84 -151 -152 -27 -77 -20 -269 12 -330 27
-53 55 -81 107 -113 l40 -24 925 -3 c1045 -3 984 -7 1067 75 60 60 76 122 71
267 -4 148 -34 207 -133 267 l-40 24 -925 2 c-791 2 -932 0 -973 -13z"/>
<path d="M167 624 c-62 -19 -126 -84 -151 -152 -27 -77 -20 -269 12 -330 27
-53 55 -81 107 -113 l40 -24 925 -3 c1045 -3 984 -7 1067 75 55 55 73 116 73
243 0 128 -18 186 -75 243 -80 81 -22 77 -1044 76 -767 0 -913 -3 -954 -15z"/>
</g>
</svg>
