<?xml version="1.0" standalone="no"?>
<!DOCTYPE svg PUBLIC "-//W3C//DTD SVG 20010904//EN"
 "http://www.w3.org/TR/2001/REC-SVG-20010904/DTD/svg10.dtd">
<svg version="1.0" xmlns="http://www.w3.org/2000/svg"
 width="700.000000pt" height="700.000000pt" viewBox="0 0 700.000000 700.000000"
 preserveAspectRatio="xMidYMid meet">
<metadata>
Created by potrace 1.11, written by Peter Selinger 2001-2013
</metadata>
<g transform="translate(0.000000,700.000000) scale(0.100000,-0.100000)"
fill="#000000" stroke="none">
<path d="M2 6563 l3 -437 215 -1 215 0 1 -1312 1 -1313 -219 0 -218 0 2 -437
3 -437 1528 -1 c1520 0 1527 0 1527 20 1 40 -2 399 -5 720 -2 182 -4 385 -4
452 l-1 122 -430 0 -430 0 -1 -42 c0 -23 -1 -122 -1 -219 l0 -178 -438 0 -438
0 0 1313 1 1313 206 -1 c113 0 212 1 219 3 9 3 12 100 12 438 l0 434 -875 0
-875 0 2 -437z"/>
<path d="M5539 6176 c-2 -2 -21 -7 -43 -10 -131 -21 -314 -107 -455 -215 -46
-34 -84 -61 -85 -59 -5 6 -111 179 -127 206 l-16 27 -654 0 -654 0 -3 -437 -2
-438 218 0 219 0 1 -2172 c0 -1195 -2 -2180 -4 -2188 -3 -13 -34 -15 -219 -15
l-215 0 0 -437 0 -438 875 0 875 0 0 438 0 437 -215 0 c-184 0 -216 2 -220 15
-6 24 -3 2160 4 2160 3 0 58 -53 121 -118 63 -65 133 -128 155 -140 148 -82
251 -117 415 -142 60 -10 357 -6 405 4 150 33 327 117 443 211 35 28 172 164
201 200 79 95 161 230 215 355 32 71 102 272 110 316 2 10 11 48 19 84 17 73
35 190 45 295 14 147 7 509 -13 630 -21 130 -31 183 -52 270 -36 147 -78 266
-138 390 -45 92 -135 247 -155 265 -3 3 -23 27 -45 55 -90 112 -180 188 -325
276 -206 126 -338 168 -541 174 -75 2 -138 2 -140 1z m40 -986 c74 -29 157
-84 208 -140 91 -97 186 -273 208 -383 3 -10 6 -26 9 -35 6 -20 14 -62 22
-117 3 -22 6 -94 6 -160 -1 -110 -3 -145 -17 -215 -3 -14 -7 -38 -9 -55 -9
-62 -67 -209 -111 -280 -133 -214 -316 -305 -545 -271 -217 31 -396 233 -473
531 -34 132 -38 165 -42 322 -10 360 105 620 337 758 123 73 289 92 407 45z"/>
<path d="M273 2180 c-88 -18 -167 -74 -218 -155 -49 -79 -55 -113 -52 -295 3
-158 4 -167 30 -218 52 -100 141 -171 236 -190 20 -3 596 -7 1281 -7 l1245 0
62 29 c96 44 166 126 193 226 16 59 16 302 0 360 -32 118 -121 209 -240 244
-47 14 -192 16 -1274 15 -671 -1 -1240 -5 -1263 -9z"/>
<path d="M282 868 c-106 -18 -202 -92 -249 -193 -27 -58 -28 -67 -30 -229 -1
-94 1 -175 5 -180 3 -6 7 -16 8 -23 6 -36 55 -111 101 -153 101 -92 -19 -85
1398 -88 1143 -2 1254 -1 1303 14 103 33 184 110 223 212 18 48 21 79 21 197
0 77 -5 163 -12 190 -22 99 -98 187 -199 233 l-56 26 -1236 0 c-680 1 -1255
-2 -1277 -6z"/>
</g>
</svg>
